<?xml version="1.0" standalone="no"?>
<!DOCTYPE svg PUBLIC "-//W3C//DTD SVG 1.1//EN" "http://www.w3.org/Graphics/SVG/1.1/DTD/svg11.dtd" >
<svg xmlns="http://www.w3.org/2000/svg" xmlns:xlink="http://www.w3.org/1999/xlink" version="1.1">
<metadata>
Created by FontForge 20170731 at Wed Jan 27 09:52:55 2021
 By Aleksey,,,
</metadata>
<defs>
<font id="SpoqaHanSansNeo-Regular" horiz-adv-x="1884" >
  <font-face 
    font-family="SpoqaHanSansNeo-Regular"
    font-weight="400"
    font-stretch="normal"
    units-per-em="2048"
    panose-1="2 0 5 3 0 0 0 0 0 0"
    ascent="1638"
    descent="-410"
    x-height="981"
    cap-height="1688"
    bbox="-90 -518 2048 1964"
    underline-thickness="102"
    underline-position="-307"
    unicode-range="U+0001-0BE8"
  />
<missing-glyph horiz-adv-x="2048" 
 />
    <glyph glyph-name=".notdef" horiz-adv-x="2048" 
 />
    <glyph glyph-name=".null" horiz-adv-x="0" 
 />
    <glyph glyph-name="uni000D" unicode="&#xd;" horiz-adv-x="387" 
d="M41 -154l74 414h186l-125 -414h-135z" />
    <glyph glyph-name="uni0001" horiz-adv-x="458" 
 />
    <glyph glyph-name="uni0002" horiz-adv-x="600" 
d="M205 1534h190l-6 -213l-24 -954h-129l-25 954zM393 166v-193h-186v193h186z" />
    <glyph glyph-name="uni0003" horiz-adv-x="972" 
d="M225 989l-37 379l-4 211h197l-4 -211l-37 -379h-115zM629 989l-37 379l-6 211h198l-4 -211l-39 -379h-112z" />
    <glyph glyph-name="uni0004" horiz-adv-x="1136" 
d="M207 0l55 459h-180v139h197l43 340h-195v139h211l51 410h131l-49 -410h283l53 410h129l-49 -410h180v-139h-197l-43 -340h195v-139h-211l-55 -459h-133l55 459h-283l-57 -459h-131zM412 598h282l43 340h-284z" />
    <glyph glyph-name="uni0005" horiz-adv-x="1226" 
d="M1100 344q-16 -103 -79 -178t-148.5 -113.5t-192.5 -52.5v-176h-127v172q-136 6 -260 57t-213 146l100 129q60 -71 168 -119t205 -53v555l-113 43q-108 49 -159 82q-73 42 -116 132t-38 165q9 160 134 261t292 107v168h127v-168q109 -12 186.5 -50t157.5 -118l-84 -104
q-128 117 -260 125v-518l94 -35q70 -30 124.5 -63t103.5 -79.5t75.5 -108.5t26.5 -136q0 -20 -4 -70zM512 887l41 -13v482q-63 -3 -123 -27.5t-103.5 -74t-43.5 -113.5q0 -110 65 -164q28 -28 56 -44t108 -46zM680 158q114 5 184 60.5t80 166.5v21q0 57 -24 106
q-18 31 -44.5 56t-62.5 44t-63 30t-70 26v-510z" />
    <glyph glyph-name="uni0006" horiz-adv-x="1886" 
d="M420 621q-159 0 -250.5 117t-91.5 341q0 223 91 338t251 115q164 0 255 -114.5t91 -338.5q0 -225 -91.5 -341.5t-254.5 -116.5zM446 -25l830 1557h162l-828 -1557h-164zM420 748q192 0 192 331q0 326 -192 326q-90 0 -140.5 -79.5t-50.5 -246.5q0 -170 51 -250.5
t140 -80.5zM1460 -20q-160 0 -253 116.5t-93 339.5t93 338t253 115t252 -115t92 -338t-92 -339.5t-252 -116.5zM1460 106q191 0 191 330q0 328 -191 328q-192 0 -192 -328q0 -330 192 -330z" />
    <glyph glyph-name="uni0007" horiz-adv-x="1347" 
d="M1063 295l276 -281h-202l-162 174q-179 -176 -459 -188q-206 0 -322.5 102t-130.5 279v27q0 134 79.5 240.5t228.5 174.5l-13 17q-146 166 -153 309q0 328 330 340h10q136 0 226.5 -81.5t94.5 -219.5q0 -130 -77 -228t-205 -165l383 -400q81 96 127 332h157
q-55 -254 -188 -432zM535 1358q-90 -8 -140.5 -57.5t-50.5 -135.5q0 -47 26 -99.5t93 -139.5l31 -33q47 30 80 55.5t69 62t55 80t19 91.5q-5 79 -51.5 127.5t-120.5 48.5h-10zM870 297l-407 420q-246 -133 -246 -336q0 -103 85 -169.5t216 -66.5q205 8 352 152z" />
    <glyph glyph-name="uni0008" horiz-adv-x="569" 
d="M225 989l-37 379l-4 211h197l-4 -211l-37 -379h-115z" />
    <glyph glyph-name="uni0009" unicode="&#x9;" horiz-adv-x="692" 
d="M606 -238l-117 -55q-301 488 -301 1041q0 550 301 1038l117 -53q-262 -432 -262 -985q0 -554 262 -986z" />
    <glyph glyph-name="uni000A" unicode="&#xa;" horiz-adv-x="692" 
d="M203 -281l-115 56q262 432 262 985t-262 985l115 53q303 -486 303 -1038q0 -555 -303 -1041z" />
    <glyph glyph-name="uni000B" horiz-adv-x="956" 
d="M315 965l-90 65l129 213l-223 92l37 105l233 -58l21 248h110l21 -246l233 56l35 -105l-223 -92l131 -213l-90 -65l-162 194z" />
    <glyph glyph-name="uni000C" horiz-adv-x="1136" 
d="M494 238v448h-416v139h416v447h149v-447h416v-139h-416v-448h-149z" />
    <glyph glyph-name="uni000E" horiz-adv-x="880" 
d="M102 682v143h676v-143h-676z" />
    <glyph glyph-name="uni000F" horiz-adv-x="471" 
d="M86 -29v193h186v-193h-186z" />
    <glyph glyph-name="uni0010" horiz-adv-x="802" 
d="M23 -264l614 1990h135l-612 -1990h-137z" />
    <glyph glyph-name="uni0011" horiz-adv-x="1220" 
d="M1165 748q0 -194 -42.5 -345t-117.5 -244t-174 -140.5t-217 -47.5q-119 0 -218 47.5t-174 140.5t-117 244t-42 345q0 196 42 346.5t117 244t174 140.5t218 47q118 0 217 -47t174 -140.5t117.5 -244.5t42.5 -346zM977 748q0 137 -19.5 245t-53 178t-80.5 116t-99 65.5
t-111 19.5t-110.5 -19.5t-98 -65.5t-79.5 -116.5t-52.5 -178t-19.5 -244.5q0 -136 19.5 -244t52.5 -178.5t79.5 -117t98 -66t110.5 -19.5t111 19.5t99 66t80.5 117t53 178.5t19.5 244z" />
    <glyph glyph-name="uni0012" horiz-adv-x="1220" 
d="M782 152h295v-152h-811v152h334v1081q0 37 2 51l-272 -244l-101 121l404 348h149v-1357z" />
    <glyph glyph-name="uni0013" horiz-adv-x="1220" 
d="M524 166h592v-166h-1007v131l518 498q57 61 90 98t72.5 89t60 93t35 91.5t14.5 101.5q-4 130 -79 197t-197 67q-129 0 -214 -83t-85 -212l-185 31q29 203 163 314.5t331 111.5q129 0 231 -49.5t162.5 -146t60.5 -226.5q0 -80 -23 -153t-72 -144t-95 -123t-123 -129
l-420 -416q89 25 170 25z" />
    <glyph glyph-name="uni0014" horiz-adv-x="1220" 
d="M332 1067l-187 31q29 201 164 314.5t330 113.5t319.5 -108.5t124.5 -280.5q0 -142 -67 -224.5t-197 -126.5q147 -37 223 -129t76 -233q0 -134 -68.5 -237.5t-183.5 -158.5t-256 -55q-95 0 -171 20.5t-128.5 54.5t-94.5 87t-68.5 107.5t-49.5 126.5l168 69q5 -29 31 -92
q50 -103 124.5 -157t186.5 -54q77 0 140 25.5t101 67.5t58.5 91.5t20.5 100.5q0 66 -16 113t-57 87t-120 60t-196 20v136q358 8 358 270q0 125 -72.5 190.5t-195.5 65.5q-129 0 -213 -84t-84 -211z" />
    <glyph glyph-name="uni0015" horiz-adv-x="1220" 
d="M961 547h227v-148h-227v-399h-166v399h-750v140l739 979h177v-971zM250 547h545v627q0 69 8 126z" />
    <glyph glyph-name="uni0016" horiz-adv-x="1220" 
d="M459 1335l-68 -393q105 27 215 27q231 0 359.5 -128t128.5 -331q0 -156 -72.5 -277.5t-196.5 -186t-276 -64.5q-128 0 -239 45t-185 116l100 138q155 -131 332 -131q158 0 257 93.5t99 256.5q0 147 -90 229t-252 82q-106 0 -245 -49l-121 35l123 710h719v-172h-588z" />
    <glyph glyph-name="uni0017" horiz-adv-x="1220" 
d="M946 1509l-452 -567q-61 -86 -72 -98q118 78 258 78q125 0 226 -52t162.5 -156.5t61.5 -244.5q0 -139 -65.5 -252t-185 -178.5t-269.5 -65.5q-229 0 -366.5 141.5t-137.5 374.5q0 211 187 457l418 563h235zM606 131q148 0 242 91.5t94 232.5q0 147 -91 234t-233 87
q-147 0 -238 -92.5t-91 -224.5q0 -151 83 -239.5t234 -88.5z" />
    <glyph glyph-name="uni0018" horiz-adv-x="1220" 
d="M141 1501h987v-121l-677 -1380h-207l612 1227l70 114h-785v160z" />
    <glyph glyph-name="uni0019" horiz-adv-x="1220" 
d="M829 782q144 -39 220.5 -135.5t76.5 -243.5q0 -199 -143 -318.5t-373 -119.5q-232 0 -376 119.5t-144 318.5q0 146 77 243t220 136q-118 44 -180 134.5t-62 218.5q0 170 128 286.5t337 116.5q202 0 333.5 -117t131.5 -286q0 -265 -246 -353zM610 1389
q-135 0 -206.5 -73.5t-71.5 -187.5q0 -54 15 -101t46 -87t86.5 -63t130.5 -23q73 0 128 23t86 63t46 87t15 101q0 113 -71.5 187t-203.5 74zM610 119q151 0 234.5 78t83.5 209q0 77 -25.5 135.5t-70 93.5t-100.5 52.5t-122 17.5t-123 -17.5t-102 -52.5t-70.5 -93.5
t-25.5 -135.5q0 -131 85 -209t236 -78z" />
    <glyph glyph-name="uni001A" horiz-adv-x="1220" 
d="M281 0l467 596q25 33 50.5 71t30.5 44q-123 -97 -288 -97q-185 0 -308.5 117.5t-123.5 323.5q0 204 144 343.5t365 139.5q220 0 355 -138.5t135 -359.5q0 -127 -44 -237t-136 -236l-412 -567h-235zM299 1069q0 -148 80 -227.5t223 -79.5q148 0 236 88.5t88 212.5
q0 144 -87.5 228.5t-222.5 84.5q-142 0 -229.5 -85t-87.5 -222z" />
    <glyph glyph-name="uni001B" horiz-adv-x="485" 
d="M150 989v193h186v-193h-186zM150 117v192h186v-192h-186z" />
    <glyph glyph-name="uni001C" horiz-adv-x="485" 
d="M150 1182h186v-193h-186v193zM76 -104l74 413h186l-125 -413h-135z" />
    <glyph glyph-name="uni001D" horiz-adv-x="1030" 
d="M903 109l-825 557v137l825 575v-186l-663 -461l663 -434v-188z" />
    <glyph glyph-name="uni001E" horiz-adv-x="1136" 
d="M78 930v139h981v-139h-981zM78 440v140h981v-140h-981z" />
    <glyph glyph-name="uni001F" horiz-adv-x="1032" 
d="M954 666l-825 -557v188l664 434l-664 461v186l825 -575v-137z" />
    <glyph glyph-name="space" unicode=" " horiz-adv-x="966" 
d="M575 166v-193h-186v193h186zM563 356h-153q-10 104 2 186t38.5 134.5t60.5 95t70.5 79t66.5 74.5t49.5 92.5t19.5 123.5q0 109 -62.5 184.5t-167.5 75.5q-42 0 -80.5 -14t-75 -45.5t-61 -91.5t-30.5 -142h-158q7 105 37.5 186.5t73 130.5t99 80t109 42.5t107.5 11.5
q169 0 272 -117t103 -289q0 -81 -20.5 -147t-52 -111t-69.5 -85.5t-73.5 -82.5t-63 -90.5t-39.5 -120t-2 -160.5z" />
    <glyph glyph-name="exclam" unicode="!" horiz-adv-x="1937" 
d="M922 -354q-170 0 -316 54t-255.5 155t-172.5 258t-63 352q0 179 50 339.5t139.5 282.5t209 211t261.5 135t294 46q227 0 398.5 -95.5t262.5 -267t91 -395.5q0 -143 -42 -262t-109 -192.5t-146.5 -113.5t-159.5 -40q-97 0 -161.5 44.5t-74.5 129.5h-6q-59 -70 -132.5 -114
t-145.5 -44q-121 0 -198 85.5t-77 240.5q0 91 31.5 184t87 170.5t140.5 126.5t182 49q121 0 182 -113h4l27 95h123l-91 -457q-16 -94 -16 -123q0 -48 25 -96q21 -49 116 -49q55 0 109.5 32.5t99.5 91t73 149.5t28 198q0 188 -71 331t-216 226.5t-348 83.5q-153 0 -297.5 -64
t-256 -176t-179.5 -280t-68 -363q0 -218 89.5 -378t242 -241t348.5 -81q193 0 373 102l49 -111q-193 -116 -434 -116zM881 258q98 0 211 135l65 365q-32 53 -65.5 74.5t-81.5 21.5q-65 0 -121 -36.5t-92.5 -93.5t-57 -125.5t-20.5 -133.5q0 -105 44.5 -156t117.5 -51z" />
    <glyph glyph-name="quotedbl" unicode="&#x22;" horiz-adv-x="1243" 
d="M1036 0l-143 459h-549l-145 -459h-193l510 1501h211l510 -1501h-201zM391 610h455l-72 230q-67 208 -151 508h-9q-60 -229 -149 -508z" />
    <glyph glyph-name="numbersign" unicode="#" horiz-adv-x="1345" 
d="M205 0v1501h446q241 0 378.5 -89t137.5 -277q0 -115 -58.5 -203t-162.5 -123v-10q141 -27 224 -118.5t83 -240.5q0 -144 -73 -244.5t-199 -148t-297 -47.5h-479zM395 862h223q363 0 363 248q0 132 -84.5 187t-269.5 55h-232v-490zM395 152h262q410 0 410 294
q0 271 -410 271h-262v-565z" />
    <glyph glyph-name="dollar" unicode="$" horiz-adv-x="1306" 
d="M772 -27q-139 0 -258.5 54t-207 152t-137.5 245.5t-50 325.5q0 179 50 326t138.5 246.5t211 153.5t265.5 54q127 0 233.5 -53t178.5 -134l-102 -122q-136 143 -308 143q-215 0 -344 -163.5t-129 -444.5q0 -284 126 -450.5t341 -166.5q105 0 188.5 42.5t159.5 125.5
l105 -119q-95 -108 -206 -161.5t-255 -53.5z" />
    <glyph glyph-name="percent" unicode="%" horiz-adv-x="1406" 
d="M205 0v1501h377q353 0 530.5 -188.5t177.5 -556.5q0 -358 -182 -557t-518 -199h-385zM395 156h170q262 0 395.5 156t133.5 444q0 592 -529 592h-170v-1192z" />
    <glyph glyph-name="ampersand" unicode="&#x26;" horiz-adv-x="1204" 
d="M205 0v1501h866v-160h-676v-471h570v-161h-570v-547h699v-162h-889z" />
    <glyph glyph-name="quotesingle" unicode="'" horiz-adv-x="1130" 
d="M205 0v1501h866v-160h-676v-507h574v-160h-574v-674h-190z" />
    <glyph glyph-name="parenleft" unicode="(" horiz-adv-x="1411" 
d="M795 -27q-148 0 -272.5 53.5t-214 152.5t-139.5 245.5t-50 325.5t51.5 326t143 246.5t218 153.5t275.5 54q253 0 432 -187l-102 -122q-65 68 -141.5 105.5t-184.5 37.5q-227 0 -362.5 -163.5t-135.5 -444.5q0 -288 130.5 -452.5t369.5 -164.5q82 0 155 23.5t117 64.5v394
h-317v157h492v-631q-76 -79 -196.5 -126.5t-268.5 -47.5z" />
    <glyph glyph-name="parenright" unicode=")" horiz-adv-x="1490" 
d="M205 0v1501h190v-629h701v629h188v-1501h-188v709h-701v-709h-190z" />
    <glyph glyph-name="asterisk" unicode="*" horiz-adv-x="600" 
d="M205 0v1501h190v-1501h-190z" />
    <glyph glyph-name="plus" unicode="+" horiz-adv-x="1097" 
d="M485 -27q-279 0 -413 238l135 96q50 -90 113 -129t147 -39q125 0 183.5 75.5t58.5 244.5v1042h188v-1061q0 -99 -23.5 -181.5t-72 -147.5t-129 -101.5t-187.5 -36.5z" />
    <glyph glyph-name="comma" unicode="," horiz-adv-x="1323" 
d="M205 0v1501h190v-753h6l627 753h213l-469 -571l543 -930h-213l-449 782l-258 -307v-475h-190z" />
    <glyph glyph-name="hyphen" unicode="-" horiz-adv-x="1110" 
d="M205 0v1501h190v-1339h656v-162h-846z" />
    <glyph glyph-name="period" unicode="." horiz-adv-x="1662" 
d="M205 0v1501h229l289 -803q11 -32 32.5 -98t39 -117.5t34.5 -97.5h11q17 52 50.5 156.5t51.5 156.5l287 803h229v-1501h-178v831q0 111 25 443h-9l-118 -342l-285 -780h-127l-285 780l-119 342h-8q1 -29 12 -198t11 -245v-831h-172z" />
    <glyph glyph-name="slash" unicode="/" horiz-adv-x="1478" 
d="M205 0v1501h196l547 -946l160 -309h10q-24 374 -24 475v780h180v-1501h-195l-547 948l-161 309h-9q3 -49 9.5 -146.5t10 -175t3.5 -147.5v-788h-180z" />
    <glyph glyph-name="zero" unicode="0" horiz-adv-x="1519" 
d="M760 -27q-286 0 -463.5 212.5t-177.5 570.5q0 356 177 565t464 209t464 -209t177 -565q0 -358 -177.5 -570.5t-463.5 -212.5zM760 139q203 0 324.5 168t121.5 449t-121 444.5t-325 163.5t-325.5 -163.5t-121.5 -444.5t122 -449t325 -168z" />
    <glyph glyph-name="one" unicode="1" horiz-adv-x="1294" 
d="M205 0v1501h428q130 0 230 -23t176.5 -73.5t116.5 -137t40 -206.5q0 -117 -40 -206.5t-114 -146t-174 -84.5t-225 -28h-248v-596h-190zM395 750h223q199 0 294.5 75.5t95.5 235.5q0 157 -96.5 222t-301.5 65h-215v-598z" />
    <glyph glyph-name="two" unicode="2" horiz-adv-x="1519" 
d="M1155 -264l-213 264q-74 -27 -182 -27q-286 0 -463.5 212.5t-177.5 570.5q0 356 177 565t464 209t464 -209t177 -565q0 -230 -77.5 -403.5t-215.5 -274.5l295 -342h-248zM760 139q203 0 324.5 168t121.5 449t-121 444.5t-325 163.5t-325.5 -163.5t-121.5 -444.5t122 -449
t325 -168z" />
    <glyph glyph-name="three" unicode="3" horiz-adv-x="1300" 
d="M1245 0h-215l-364 637h-271v-637h-190v1501h471q524 0 524 -422q0 -174 -90 -279t-250 -143zM395 1348v-557h252q365 0 365 288q0 145 -89.5 207t-275.5 62h-252z" />
    <glyph glyph-name="four" unicode="4" horiz-adv-x="1222" 
d="M623 -27q-157 0 -292 58.5t-235 165.5l113 129q83 -88 192 -137.5t224 -49.5q146 0 230.5 67.5t84.5 178.5q0 43 -13 78.5t-30.5 59t-53.5 47.5t-62.5 37.5t-77.5 37.5l-7 3.5t-6 2.5l-217 94q-305 131 -305 385q0 173 134.5 286.5t338.5 113.5q132 0 246.5 -49.5
t195.5 -137.5l-100 -120q-147 141 -342 141q-130 0 -205.5 -58.5t-75.5 -162.5q0 -31 8.5 -58t19.5 -47t33.5 -40t39 -32t48 -28t48.5 -23.5t51 -21.5l215 -92q56 -25 99.5 -50t84.5 -60t67.5 -76t42.5 -96t16 -120q0 -183 -140 -304.5t-370 -121.5z" />
    <glyph glyph-name="five" unicode="5" horiz-adv-x="1226" 
d="M518 0v1341h-455v160h1100v-160h-454v-1341h-191z" />
    <glyph glyph-name="six" unicode="6" horiz-adv-x="1476" 
d="M737 -27q-119 0 -213.5 34t-169 108t-115 202t-40.5 304v880h190v-887q0 -475 348 -475q359 0 359 475v887h182v-880q0 -176 -40.5 -304t-115.5 -202t-170 -108t-215 -34z" />
    <glyph glyph-name="seven" unicode="7" horiz-adv-x="1177" 
d="M481 0l-479 1501h199l243 -813q23 -73 68.5 -235.5t77.5 -259.5h8q28 89 73 247.5t72 247.5l242 813h193l-478 -1501h-219z" />
    <glyph glyph-name="eight" unicode="8" horiz-adv-x="1798" 
d="M371 0l-320 1501h197l158 -817q15 -82 43.5 -242.5t44.5 -242.5h8q64 301 108 485l207 817h172l211 -817q34 -143 107 -485h10q76 431 86 485l158 817h182l-311 -1501h-228l-227 905q-15 70 -40 185.5t-34 156.5h-8q-8 -37 -35 -154.5t-41 -187.5l-223 -905h-225z" />
    <glyph glyph-name="nine" unicode="9" horiz-adv-x="1173" 
d="M35 0l438 776l-410 725h209l205 -383q105 -194 119 -219h8q71 153 107 219l200 383h199l-410 -735l439 -766h-209l-221 406q-67 127 -129 241h-9q-97 -199 -120 -241l-218 -406h-198z" />
    <glyph glyph-name="colon" unicode=":" horiz-adv-x="1087" 
d="M449 0v584l-451 917h203l192 -424q69 -161 148 -327h8q106 221 149 327l195 424h197l-451 -917v-584h-190z" />
    <glyph glyph-name="semicolon" unicode=";" horiz-adv-x="1234" 
d="M102 0v113l793 1228h-721v160h954v-110l-792 -1229h801v-162h-1035z" />
    <glyph glyph-name="less" unicode="&#x3c;" horiz-adv-x="692" 
d="M215 -236v1969h408v-105h-267v-1757h267v-107h-408z" />
    <glyph glyph-name="equal" unicode="=" horiz-adv-x="802" 
d="M643 -264l-612 1990h135l612 -1990h-135z" />
    <glyph glyph-name="greater" unicode="&#x3e;" horiz-adv-x="692" 
d="M70 -240v107h266v1757h-266v105h407v-1969h-407z" />
    <glyph glyph-name="question" unicode="?" horiz-adv-x="954" 
d="M90 928l324 575h127l323 -575h-170l-217 383l-217 -383h-170z" />
    <glyph glyph-name="at" unicode="@" horiz-adv-x="1144" 
d="M27 -111v125h1089v-125h-1089z" />
    <glyph glyph-name="A" unicode="A" horiz-adv-x="1241" 
d="M653 1313l-358 348l131 125l324 -381z" />
    <glyph glyph-name="B" unicode="B" horiz-adv-x="1155" 
d="M442 -27q-142 0 -232.5 88t-90.5 238q0 209 171.5 305t512.5 101q0 58 -11 105t-35.5 88t-71 64t-112.5 23q-183 0 -344 -108l-73 133q88 56 205.5 93.5t242.5 37.5q195 0 290 -122t95 -335v-684h-153l-17 119h-6q-176 -146 -371 -146zM496 123q84 0 155.5 29.5
t151.5 99.5v330q-198 -14 -306.5 -45.5t-152 -84t-43.5 -141.5q0 -95 52.5 -141.5t142.5 -46.5z" />
    <glyph glyph-name="C" unicode="C" horiz-adv-x="1265" 
d="M678 -27q-78 0 -161 37t-157 105h-6l-16 -115h-150v1630h187v-446l-6 -201q180 158 348 158q212 0 328 -153.5t116 -412.5q0 -140 -39.5 -255.5t-107 -190.5t-154 -115.5t-182.5 -40.5zM647 129q142 0 231 119t89 323q0 194 -70.5 303t-222.5 109q-136 0 -299 -154v-583
q130 -117 272 -117z" />
    <glyph glyph-name="D" unicode="D" horiz-adv-x="1042" 
d="M627 -27q-111 0 -206.5 39.5t-166 112.5t-110.5 184t-40 246t43.5 247.5t118 185.5t171.5 113t204 40q180 0 326 -131l-97 -125q-112 100 -223 100q-152 0 -250 -119.5t-98 -310.5q0 -192 95 -309t249 -117q135 0 262 111l80 -125q-155 -142 -358 -142z" />
    <glyph glyph-name="E" unicode="E" horiz-adv-x="1269" 
d="M567 -27q-212 0 -335 153.5t-123 428.5q0 131 39.5 242.5t106 186t153.5 116t182 41.5q92 0 162 -32t151 -99l-10 192v428h186v-1630h-151l-19 131h-4q-158 -158 -338 -158zM608 129q149 0 285 154v583q-134 117 -270 117q-137 0 -229.5 -119t-92.5 -307q0 -204 80 -316
t227 -112z" />
    <glyph glyph-name="F" unicode="F" horiz-adv-x="1134" 
d="M637 -27q-111 0 -208 39.5t-169.5 112.5t-114 184t-41.5 246q0 131 42 243t112 186t160.5 115.5t187.5 41.5q210 0 326.5 -141t116.5 -382q0 -66 -9 -106h-749q10 -180 109 -284.5t259 -104.5q148 0 279 88l68 -123q-179 -115 -369 -115zM289 645h596q0 171 -72 258.5
t-205 87.5q-122 0 -212 -93t-107 -253z" />
    <glyph glyph-name="G" unicode="G" horiz-adv-x="665" 
d="M729 1620l-41 -141q-76 28 -125 28q-157 0 -157 -219v-176h235v-151h-235v-961h-187v961h-151v141l151 10v178q0 177 80.5 272t243.5 95q98 0 186 -37z" />
    <glyph glyph-name="H" unicode="H" horiz-adv-x="1153" 
d="M563 -512q-209 0 -335 78.5t-126 220.5q0 143 166 252v8q-102 61 -102 182q0 63 37 116.5t88 90.5v8q-62 49 -104 127.5t-42 171.5q0 89 34 164.5t91.5 126t133 79t159.5 28.5q75 0 156 -29h387v-143h-227q42 -39 66 -99t24 -131q0 -174 -117 -280.5t-289 -106.5
q-92 0 -166 39q-35 -30 -53 -59.5t-18 -73.5q0 -58 44 -89.5t150 -31.5h217q199 0 293 -64t94 -200q0 -160 -155 -272.5t-406 -112.5zM563 479q97 0 166.5 73t69.5 191q0 120 -67.5 190.5t-168.5 70.5q-102 0 -169.5 -70.5t-67.5 -190.5q0 -118 68.5 -191t168.5 -73z
M590 -385q154 0 254 69t100 160q0 75 -56 106.5t-171 31.5h-193q-80 0 -143 18q-115 -82 -115 -188q0 -93 85.5 -145t238.5 -52z" />
    <glyph glyph-name="I" unicode="I" horiz-adv-x="1243" 
d="M188 0v1630h187v-446l-6 -230q90 90 176 138.5t192 48.5q177 0 258.5 -108t81.5 -328v-705h-186v680q0 159 -50 228t-161 69q-82 0 -147.5 -39t-157.5 -131v-807h-187z" />
    <glyph glyph-name="J" unicode="J" horiz-adv-x="493" 
d="M340 0h-186v1112h186v-1112zM342 1534v-193h-186v193h186z" />
    <glyph glyph-name="K" unicode="K" horiz-adv-x="528" 
d="M74 -498q-83 0 -164 29l37 143q62 -20 104 -20q80 0 109.5 54t29.5 165v1239h187v-1239q0 -371 -303 -371zM379 1534v-193h-186v193h186z" />
    <glyph glyph-name="L" unicode="L" horiz-adv-x="1130" 
d="M188 0v1630h185v-1106h4l477 588h207l-373 -446l422 -666h-203l-325 537l-209 -244v-293h-185z" />
    <glyph glyph-name="M" unicode="M" horiz-adv-x="559" 
d="M375 0h-187v1630h187v-1630z" />
    <glyph glyph-name="N" unicode="N" horiz-adv-x="1896" 
d="M188 0v1112h154l16 -162h7q173 191 346 191q124 0 197 -54.5t110 -158.5q96 104 182.5 158.5t183.5 54.5q172 0 255 -109t83 -327v-705h-186v680q0 158 -50 227.5t-157 69.5q-124 0 -280 -170v-807h-187v680q0 158 -50 227.5t-157 69.5q-130 0 -280 -170v-807h-187z" />
    <glyph glyph-name="O" unicode="O" horiz-adv-x="1251" 
d="M188 0v1112h154l16 -160h7q93 91 179.5 140t192.5 49q177 0 258.5 -108t81.5 -328v-705h-186v680q0 159 -50 228t-161 69q-82 0 -147.5 -39t-157.5 -131v-807h-187z" />
    <glyph glyph-name="P" unicode="P" horiz-adv-x="1241" 
d="M621 -27q-103 0 -196 39.5t-164.5 112t-114 184.5t-42.5 246q0 135 42.5 247.5t114 185.5t164.5 113t196 40t195.5 -40t164 -113t114 -185.5t42.5 -247.5q0 -134 -42.5 -246t-114 -184.5t-164 -112t-195.5 -39.5zM621 129q143 0 233 117.5t90 308.5t-90 310.5t-233 119.5
t-232.5 -119t-89.5 -311q0 -191 89.5 -308.5t232.5 -117.5z" />
    <glyph glyph-name="Q" unicode="Q" horiz-adv-x="1269" 
d="M188 -469v1581h154l16 -127h7q190 156 354 156q212 0 327 -153.5t115 -414.5q0 -139 -39.5 -254.5t-106.5 -190t-154 -115t-183 -40.5q-150 0 -307 129l4 -194v-377h-187zM647 129q142 0 231 119t89 323q0 194 -70.5 303t-222.5 109q-131 0 -299 -154v-583
q133 -117 272 -117z" />
    <glyph glyph-name="R" unicode="R" horiz-adv-x="1269" 
d="M893 -469v395l10 203q-160 -156 -336 -156q-212 0 -335 153.5t-123 428.5q0 131 39.5 242.5t106 186t153.5 116t182 41.5q94 0 167.5 -33t149.5 -102h6l19 106h147v-1581h-186zM608 129q149 0 285 154v583q-134 117 -270 117q-137 0 -229.5 -119t-92.5 -307
q0 -204 80 -316t227 -112z" />
    <glyph glyph-name="S" unicode="S" horiz-adv-x="794" 
d="M188 0v1112h154l16 -203h7q62 109 143 170.5t172 61.5q70 0 119 -25l-35 -164q-53 19 -109 19q-77 0 -153.5 -62t-126.5 -194v-715h-187z" />
    <glyph glyph-name="T" unicode="T" horiz-adv-x="958" 
d="M479 -27q-114 0 -223 42.5t-193 111.5l93 123q157 -131 329 -131q106 0 163 49t57 125q0 32 -15.5 60t-34.5 46.5t-58 39.5t-63 31.5t-73 29.5q-7 3 -10 4q-55 19 -95.5 36.5t-88 46.5t-77.5 60.5t-50.5 77.5t-20.5 100q0 135 103.5 225.5t279.5 90.5q184 0 346 -125
l-90 -121q-68 48 -127 73t-129 25q-100 0 -151.5 -44.5t-51.5 -114.5q0 -35 15.5 -62t53.5 -50.5t64 -35t85 -34.5q18 -7 28 -11q44 -16 71 -26.5t66.5 -29.5t65 -36t54 -43.5t45 -54.5t27.5 -66t11 -82q0 -141 -108 -235.5t-298 -94.5z" />
    <glyph glyph-name="U" unicode="U" horiz-adv-x="772" 
d="M539 -27q-170 0 -244 96.5t-74 274.5v617h-166v141l174 10l23 311h156v-311h301v-151h-301v-621q0 -109 38.5 -162t133.5 -53q46 0 127 29l36 -140q-112 -41 -204 -41z" />
    <glyph glyph-name="V" unicode="V" horiz-adv-x="1243" 
d="M512 -27q-177 0 -257.5 107t-80.5 328v704h186v-682q0 -155 49.5 -225t159.5 -70q84 0 152 43.5t149 145.5v788h187v-1112h-156l-14 174h-6q-84 -98 -172 -149.5t-197 -51.5z" />
    <glyph glyph-name="W" unicode="W" horiz-adv-x="1067" 
d="M428 0l-401 1112h194l209 -633q12 -36 33 -104t38.5 -122.5t33.5 -100.5h8q65 206 102 327l211 633h184l-395 -1112h-217z" />
    <glyph glyph-name="X" unicode="X" horiz-adv-x="1642" 
d="M365 0l-310 1112h191l166 -643q11 -49 32 -152.5t33 -158.5h10q8 31 22.5 97t27 116.5t26.5 97.5l172 643h183l174 -643q12 -48 37.5 -151.5t39.5 -159.5h9q13 54 35 157t34 154l164 643h176l-299 -1112h-225l-162 600q-14 46 -26 97t-26.5 118.5t-23.5 104.5h-10
q-54 -250 -76 -324l-155 -596h-219z" />
    <glyph glyph-name="Y" unicode="Y" horiz-adv-x="1019" 
d="M31 0l366 580l-338 532h201l150 -246q34 -61 110 -184h8q81 145 101 184l137 246h195l-338 -551l366 -561h-205l-163 260q-78 136 -119 199h-10q-12 -19 -115 -199l-150 -260h-196z" />
    <glyph glyph-name="Z" unicode="Z" horiz-adv-x="1067" 
d="M475 -479h-174l174 489l-446 1102h194l228 -606q12 -34 49 -144t57 -167h10q13 41 45.5 149t49.5 162l198 606h182z" />
    <glyph glyph-name="bracketleft" unicode="[" horiz-adv-x="970" 
d="M72 0v100l585 861h-522v151h758v-100l-586 -860h606v-152h-841z" />
    <glyph glyph-name="backslash" unicode="\" horiz-adv-x="692" 
d="M623 -240h-101q-142 0 -205 66.5t-63 239.5q0 84 10 224t10 216q0 79 -44.5 129.5t-151.5 50.5v117q107 0 151.5 50.5t44.5 127.5q0 76 -10 217.5t-10 224.5q0 173 63 239.5t205 66.5h101v-105h-60q-89 0 -122 -48.5t-33 -162.5q0 -67 6 -201t6 -215q0 -111 -31.5 -169
t-105.5 -78v-9q75 -23 106 -80.5t31 -168.5q0 -80 -6 -214.5t-6 -201.5q0 -114 32.5 -161.5t122.5 -47.5h60v-107z" />
    <glyph glyph-name="bracketright" unicode="]" horiz-adv-x="550" 
d="M211 -276v2011h131v-2011h-131z" />
    <glyph glyph-name="asciicircum" unicode="^" horiz-adv-x="692" 
d="M70 -240v107h59q91 0 123.5 47t32.5 162q0 67 -5.5 201.5t-5.5 214.5q0 111 31.5 168.5t104.5 80.5v9q-73 20 -104.5 78t-31.5 169q0 81 5.5 215t5.5 201q0 115 -32.5 163t-123.5 48h-59v105h102q140 0 203 -66.5t63 -239.5q0 -48 -3.5 -126.5t-4.5 -98.5l-6 -106
q-4 -70 -4 -111q0 -178 194 -178v-117q-194 0 -194 -180q0 -76 9 -216t9 -224q0 -173 -63 -239.5t-203 -66.5h-102z" />
    <glyph glyph-name="underscore" unicode="_" horiz-adv-x="1136" 
d="M770 588q-50 0 -98.5 20t-87 48.5t-74 57t-74 48.5t-74.5 20q-98 0 -176 -139l-104 74q117 205 287 205q50 0 98 -20t85.5 -48t73 -56.5t74 -48.5t74.5 -20q102 0 174 139l107 -75q-117 -205 -285 -205z" />
    <glyph glyph-name="grave" unicode="`" horiz-adv-x="661" 
d="M236 913v193h186v-193h-186zM424 -455h-191l31 1168h129z" />
    <glyph glyph-name="a" unicode="a" horiz-adv-x="1136" 
d="M160 236l-99 102l146 149q-82 107 -82 265q0 161 82 268l-146 151l99 103l155 -160q109 86 254 86q139 0 252 -86l156 160l98 -103l-147 -151q84 -110 84 -268q0 -155 -84 -265l147 -149l-98 -102l-156 157q-113 -86 -252 -86q-142 0 -254 86zM569 446q112 0 191.5 86.5
t79.5 219.5q0 134 -79.5 221.5t-191.5 87.5q-114 0 -193 -87.5t-79 -221.5q0 -133 79 -219.5t193 -86.5z" />
    <glyph glyph-name="b" unicode="b" horiz-adv-x="1228" 
d="M518 0v354h-389v117h389v141h-389v115h342l-455 750h197q126 -222 213 -381.5t124.5 -229.5t59.5 -108h11q159 300 393 719h190l-452 -750h344v-115h-391v-141h391v-117h-391v-354h-187z" />
    <glyph glyph-name="c" unicode="c" horiz-adv-x="2048" 
d="M1421 1497l-51 -127q-52 36 -138 63t-192 27q-112 0 -183 -54t-71 -124q0 -36 16.5 -66t41.5 -50.5t70.5 -40.5t85.5 -32.5t104 -29.5q196 -53 295.5 -134t99.5 -214q0 -86 -36.5 -162t-98.5 -127q34 -28 60 -83.5t26 -119.5q0 -157 -132.5 -255.5t-326.5 -98.5
q-251 0 -383 102l58 125q121 -100 329 -100q132 0 209.5 59.5t77.5 149.5q0 81 -67 133t-254 108q-219 66 -316.5 143t-97.5 214q0 66 38.5 138.5t119.5 129.5q-37 28 -59.5 79.5t-22.5 98.5q0 86 38.5 153.5t102.5 107t139.5 59.5t157.5 20q203 0 360 -92zM801 1008
q-101 -80 -101 -181q0 -33 9.5 -57.5t38 -52.5t85.5 -55.5t146 -57.5q233 -77 287 -110q80 74 80 184q0 61 -39 107t-104.5 75.5t-134 50.5t-146 46.5t-121.5 50.5z" />
    <glyph glyph-name="d" unicode="d" horiz-adv-x="1241" 
d="M401 1343q-49 0 -81.5 32.5t-32.5 80.5q0 50 32.5 82.5t81.5 32.5t81 -32.5t32 -82.5q0 -48 -32 -80.5t-81 -32.5zM840 1343q-49 0 -81 32.5t-32 80.5q0 50 32 82.5t81 32.5t80.5 -32.5t31.5 -82.5q0 -48 -31.5 -80.5t-80.5 -32.5z" />
    <glyph glyph-name="e" unicode="e" horiz-adv-x="980" 
d="M446 152l-344 391v67l344 394l93 -80l-295 -351q221 -251 297 -348zM807 152l-344 391v67l344 394l92 -80l-295 -351q221 -251 297 -348z" />
    <glyph glyph-name="f" unicode="f" horiz-adv-x="757" 
d="M379 983q-118 0 -202.5 81.5t-84.5 209.5q0 130 84.5 211.5t202.5 81.5q119 0 203 -81.5t84 -211.5q0 -129 -84 -210t-203 -81zM379 1087q77 0 124.5 52.5t47.5 134.5q0 86 -47 137t-125 51t-125 -51t-47 -137q0 -82 47.5 -134.5t124.5 -52.5z" />
    <glyph glyph-name="g" unicode="g" horiz-adv-x="2048" 
d="M1767 1085v-141h-673v-563h-140v563h-673v141h673v562h140v-562h673zM281 178h1495v-141h-1495v141z" />
    <glyph glyph-name="h" unicode="h" horiz-adv-x="839" 
d="M119 903v84q99 89 153 140t114.5 113t89.5 103t48 85t19 85q0 87 -47 138t-125 51q-103 0 -193 -131l-88 80q56 80 133.5 126t167.5 46q138 0 216.5 -74.5t78.5 -214.5q0 -60 -21.5 -117.5t-71 -122.5t-95.5 -115.5t-129 -135.5l-15 -15h377v-125h-612z" />
    <glyph glyph-name="i" unicode="i" horiz-adv-x="839" 
d="M414 877q-106 0 -192 47.5t-140 126.5l96 73q89 -133 225 -133q76 0 128.5 43.5t52.5 116.5q0 78 -72 120t-207 42v92q114 0 179 45.5t65 116.5q0 63 -44.5 102t-117.5 39q-94 0 -182 -109l-86 78q123 146 289 146q121 0 203.5 -65.5t82.5 -174.5q0 -146 -157 -219
q85 -22 138.5 -78t53.5 -143q0 -119 -91.5 -192.5t-223.5 -73.5z" />
    <glyph glyph-name="j" unicode="j" horiz-adv-x="1241" 
d="M588 1313l-96 92l323 381l131 -125z" />
    <glyph glyph-name="k" unicode="k" horiz-adv-x="2048" 
d="M977 -117v719h-19q-58 0 -120 17t-123.5 53t-110 87t-78.5 126.5t-30 163.5q0 112 34.5 201t93.5 147.5t142.5 96.5t176 54.5t200.5 16.5q195 0 270 -19v-1663h-131v1553h-174v-1553h-131z" />
    <glyph glyph-name="l" unicode="l" horiz-adv-x="1064" 
d="M616 842v-193h-186v193h186z" />
    <glyph glyph-name="m" unicode="m" horiz-adv-x="1241" 
d="M438 -518l-18 92q139 10 193.5 36.5t54.5 78.5q0 43 -39.5 68t-136.5 42l98 207h123l-66 -153q83 -20 124.5 -57t41.5 -103q0 -189 -375 -211z" />
    <glyph glyph-name="n" unicode="n" horiz-adv-x="839" 
d="M393 903v707h-192v94q127 23 219 92h121v-893h-148z" />
    <glyph glyph-name="o" unicode="o" horiz-adv-x="980" 
d="M535 995l344 -391v-67l-344 -394l-93 80l295 350q-214 243 -297 349zM174 995l344 -391v-67l-344 -394l-92 80l295 350q-214 243 -297 349z" />
    <glyph glyph-name="p" unicode="p" horiz-adv-x="1785" 
d="M1241 1530h127l-829 -1557h-125zM483 610h-145v705h-193v96q132 24 220 90h118v-891zM1714 342v-102h-133v-240h-133v240h-406v73l375 580h164v-551h133zM1194 342h254v164l12 248h-10z" />
    <glyph glyph-name="q" unicode="q" horiz-adv-x="1849" 
d="M367 -27l827 1557h127l-829 -1557h-125zM338 610v705h-193v96q132 24 220 90h118v-891h-145zM1128 0v84q122 110 186.5 172t126 131.5t85.5 121t24 101.5q0 87 -46.5 138t-125.5 51q-103 0 -190 -131l-88 80q52 80 129.5 126t167.5 46q137 0 217 -75t80 -214
q0 -48 -15.5 -96t-38 -87.5t-66 -92.5t-79 -91t-98.5 -103q-23 -24 -35 -36h379v-125h-613z" />
    <glyph glyph-name="r" unicode="r" horiz-adv-x="1820" 
d="M203 1305l-88 77q125 148 291 148q121 0 202.5 -65.5t81.5 -174.5q0 -148 -155 -219q82 -22 136 -78t54 -143q0 -120 -90.5 -194t-224.5 -74q-106 0 -192 47.5t-140 126.5l96 75q42 -63 100.5 -98t126.5 -35q77 0 128 42.5t51 117.5q0 78 -71 119t-206 41v92
q114 0 179 45.5t65 116.5q0 63 -45 103t-117 40q-96 0 -182 -110zM1329 1530h125l-829 -1557h-125zM1747 342v-102h-133v-240h-131v240h-406v73l375 580h162v-551h133zM1229 342h254v164l12 248h-10z" />
    <glyph glyph-name="s" unicode="s" horiz-adv-x="970" 
d="M424 942v193h186v-193h-186zM436 752h154q10 -104 -1.5 -186t-38 -134.5t-60.5 -95t-70.5 -79t-67 -74.5t-50 -92.5t-19.5 -123.5q0 -109 62 -184.5t167 -75.5q42 0 81 14t75.5 45.5t61 91.5t30.5 142h158q-7 -105 -37.5 -186.5t-73 -130.5t-99 -80t-109 -42.5
t-107.5 -11.5q-169 0 -272 117t-103 289q0 81 20.5 147t52 111t69.5 85.5t73.5 82.5t63 90.5t39.5 120t1 160.5z" />
    <glyph glyph-name="t" unicode="t" horiz-adv-x="2048" 
d="M1683 209l-98 -98l-561 561l-559 -561l-100 98l561 561l-561 559l100 101l559 -562l561 562l98 -99l-559 -561z" />
    <glyph glyph-name="u" unicode="u" horiz-adv-x="2048" 
d="M877 1290q0 62 43 106t104 44t104 -44t43 -106q0 -60 -43 -103.5t-104 -43.5t-104 43.5t-43 103.5zM281 840h1486v-142h-1486v142zM877 248q0 60 43 103.5t104 43.5t104 -43.5t43 -103.5q0 -62 -43 -106t-104 -44t-104 44t-43 106z" />
    <glyph glyph-name="v" unicode="v" horiz-adv-x="2048" 
d="M1360 1110h205l-541 -827l-545 827h195l350 -551z" />
    <glyph glyph-name="w" unicode="w" horiz-adv-x="2048" 
d="M1022 594q-83 0 -137 56t-56 132q0 78 53.5 138.5t139.5 60.5t138 -58.5t52 -140.5q0 -81 -50.5 -134.5t-139.5 -53.5z" />
    <glyph glyph-name="x" unicode="x" horiz-adv-x="493" 
d="M350 1491v-225h-221v225q2 195 111 264q56 29 108 29v-98q-35 0 -59.5 -19t-36 -50.5t-16.5 -62t-5 -63.5h119z" />
    <glyph glyph-name="y" unicode="y" horiz-adv-x="493" 
d="M143 1577v225h222v-225q-1 -78 -20.5 -140.5t-70.5 -107.5t-129 -45v98q35 0 60 18.5t36.5 50.5t16 62t4.5 64h-119z" />
    <glyph glyph-name="z" unicode="z" horiz-adv-x="823" 
d="M678 1501v-225h-221v225q3 196 110 264q56 29 109 29v-98q-35 0 -59.5 -19t-36 -50.5t-16.5 -62t-5 -63.5h119zM350 1501v-225h-221v225q2 195 111 264q56 29 108 29v-98q-35 0 -59.5 -19t-36 -50.5t-16.5 -62t-5 -63.5h119z" />
    <glyph glyph-name="braceleft" unicode="{" horiz-adv-x="823" 
d="M143 1573v225h222v-225q-1 -78 -20.5 -140.5t-70.5 -107.5t-129 -45v100q33 -3 58 19q59 44 57 174h-117zM471 1573v225h221v-225q-1 -57 -12.5 -106.5t-36 -93t-68 -68.5t-102.5 -25v100q32 -3 57 19q60 45 58 174h-117z" />
    <glyph glyph-name="bar" unicode="|" horiz-adv-x="2048" 
d="M1112 1565l-14 -496l415 10v-155l-415 12l14 -1051h-176l14 1051l-415 -12v155l415 -10l-14 496h176z" />
    <glyph glyph-name="braceright" unicode="}" horiz-adv-x="2048" 
d="M1112 1565l-14 -471l415 12v-156l-415 13v-476l415 13v-158l-415 12l14 -469h-176l14 469l-415 -12v158l415 -13v476l-415 -13v156l415 -12l-14 471h176z" />
    <glyph glyph-name="asciitilde" unicode="~" horiz-adv-x="2048" 
d="M1401 682v192h186v-192h-186zM461 682v192h186v-192h-186z" />
    <glyph glyph-name="uni007F" horiz-adv-x="2048" 
d="M930 682v192h186v-192h-186zM1571 682v192h186v-192h-186zM291 682v192h186v-192h-186z" />
    <glyph glyph-name="uni0080" horiz-adv-x="2048" 
d="M256 -33l791 1569h104l-789 -1569h-106zM70 1069q0 214 75.5 335.5t192.5 121.5q118 0 189 -126t71 -331q0 -221 -77 -337t-185 -116q-119 0 -192.5 124t-73.5 329zM479 1069q0 66 -6 122.5t-21 112.5t-45.5 88.5t-74.5 32.5q-41 0 -70.5 -32.5t-44 -87.5t-21 -112.5
t-6.5 -121.5q0 -354 144 -354q43 0 73.5 32t45 87.5t20.5 111.5t6 121zM811 434q0 212 76 335.5t192 123.5q118 0 189 -126t71 -331q0 -223 -77 -338.5t-185 -115.5q-119 0 -192.5 123.5t-73.5 328.5zM1450 434q0 216 74.5 337.5t191.5 121.5q119 0 190.5 -126t71.5 -331
q0 -115 -22 -204t-59.5 -142.5t-84 -80.5t-98.5 -27q-118 0 -191 124t-73 328zM1221 434q0 66 -6 123t-21.5 113.5t-46 89.5t-74.5 33q-41 0 -70 -32.5t-44 -88.5t-21 -113.5t-6 -122.5q0 -354 143 -354q43 0 73.5 32.5t45.5 88t21 111.5t6 120zM1858 434q0 64 -6 120.5
t-20.5 114t-45 91t-74.5 33.5q-41 0 -70.5 -33t-44.5 -88t-21.5 -113t-6.5 -123q0 -354 145 -354q144 0 144 352z" />
    <glyph glyph-name="uni0081" horiz-adv-x="569" 
d="M186 1032l52 547l182 -2l-31 -207l-80 -340z" />
    <glyph glyph-name="uni0082" horiz-adv-x="972" 
d="M186 1032l52 547l182 -2l-31 -207l-80 -340zM590 1032l49 547l184 -2l-32 -207l-78 -340z" />
    <glyph glyph-name="uni0083" horiz-adv-x="618" 
d="M444 152l-344 391v67l344 394l93 -80l-295 -351q221 -251 297 -348z" />
    <glyph glyph-name="uni0084" horiz-adv-x="618" 
d="M172 997l344 -391v-67l-344 -394l-92 80l295 348q-27 32 -136 158t-161 193z" />
    <glyph glyph-name="uni0085" unicode="&#x85;" horiz-adv-x="1894" 
d="M1051 770l602 -594l-107 -115l-602 609q-82 -85 -286.5 -293t-307.5 -316l-106 107l602 602q-377 377 -602 594l106 115l602 -611l602 611l99 -107zM930 1182q-60 0 -103 43t-43 100q0 62 42.5 103.5t103.5 41.5q62 0 106.5 -41.5t44.5 -103.5q0 -57 -45 -100t-106 -43z
M381 625q-57 0 -101 44t-44 101q0 63 41 103t104 40q59 0 105 -41t46 -102q0 -58 -44.5 -101.5t-106.5 -43.5zM1530 625q-58 0 -105 40.5t-47 96.5q0 67 43.5 109t102.5 42q64 0 107.5 -41.5t43.5 -109.5q0 -57 -42.5 -97t-102.5 -40zM936 45q-57 0 -100 44t-43 101
q0 63 40 104.5t103 41.5q58 0 101.5 -42t43.5 -104q0 -58 -41.5 -101.5t-103.5 -43.5z" />
    <glyph glyph-name="uni0086" horiz-adv-x="1818" 
d="M1737 805v-111h-242l-149 -694h-181l-157 694h-209l-154 -694h-168l-162 694h-249v111h231l-158 663h172l135 -663h242l123 575h188l129 -575h252l127 663h158l-143 -663h215zM821 805h168l-80 434zM565 174l101 520h-201zM1315 463l43 231h-207l49 -231l51 -289z" />
    <glyph glyph-name="uni0087" horiz-adv-x="2048" 
d="M385 977q-120 0 -204.5 82.5t-84.5 210.5q0 131 84 212t205 81q120 0 203.5 -81t83.5 -212q0 -128 -84.5 -210.5t-202.5 -82.5zM1505 -27q-141 0 -262 53t-209 151t-138 245t-50 326q0 178 50.5 325.5t140 246t212.5 152.5t267 54q124 0 229 -52.5t182 -132.5l-110 -122
q-129 135 -299 135q-213 0 -341 -162.5t-128 -439.5q0 -280 123.5 -443.5t336.5 -163.5q106 0 185 40t155 124l113 -121q-190 -215 -457 -215zM385 1083q75 0 123.5 52.5t48.5 134.5q0 85 -48 135.5t-124 50.5q-78 0 -125 -50t-47 -136q0 -82 47.5 -134.5t124.5 -52.5z" />
    <glyph glyph-name="uni0088" horiz-adv-x="2048" 
d="M459 977q-120 0 -204.5 82.5t-84.5 210.5q0 131 84 212t205 81q119 0 202.5 -81t83.5 -212q0 -128 -84 -210.5t-202 -82.5zM1040 0v1499h869v-166h-674v-499h571v-166h-571v-668h-195zM459 1083q75 0 123.5 52.5t48.5 134.5q0 85 -48 135.5t-124 50.5q-78 0 -125 -50
t-47 -136q0 -82 47.5 -134.5t124.5 -52.5z" />
    <glyph glyph-name="uni0089" horiz-adv-x="2041" 
d="M209 -27q-30 0 -57 7l-17 149q43 0 60.5 20t17.5 74v1237h209q236 -531 407 -940l129 -299h9q-25 316 -25 676v367q0 114 41.5 168.5t132.5 54.5q29 0 60 -8l14 -148q-43 0 -60.5 -20t-17.5 -74v-1237h-209q-259 584 -405 942l-131 297h-9q25 -316 25 -676v-366
q0 -114 -41.5 -169t-132.5 -55zM1659 633q-149 0 -249.5 98.5t-100.5 267.5q0 172 100.5 270.5t249.5 98.5q151 0 251.5 -98.5t100.5 -270.5q0 -169 -101 -267.5t-251 -98.5zM1659 756q93 0 146 63.5t53 179.5t-53 181t-146 65t-146 -65t-53 -181t53 -179.5t146 -63.5z
M1370 344v113h578v-113h-578z" />
    <glyph glyph-name="uni008A" horiz-adv-x="2048" 
d="M305 0v1352h-252v147h666v-147h-252v-1352h-162zM819 0v1184h512v-137h-352v-365h268v-129h-268v-416h375v-137h-535zM1489 0v1184h162v-1041h336v-143h-498z" />
    <glyph glyph-name="uni008B" horiz-adv-x="1456" 
d="M236 838v585h-230v125h592v-125h-229v-585h-133zM711 838v710h166l106 -266l66 -180h8l63 180l105 266h168v-710h-127v315l14 240h-8l-168 -447h-107l-166 447h-10l17 -240v-315h-127z" />
    <glyph glyph-name="uni008C" horiz-adv-x="2048" 
d="M1434 0l-142 453h-542l-144 -453h-198l485 1446q-77 32 -121.5 96t-44.5 154q0 122 81.5 195t211.5 73q125 0 209 -74.5t84 -193.5q0 -86 -44.5 -151.5t-119.5 -96.5l491 -1448h-206zM1020 1862q-73 0 -121.5 -49t-48.5 -127q0 -84 48 -131.5t122 -47.5q71 0 118.5 48
t47.5 131q0 78 -48.5 127t-117.5 49zM797 608h446l-69 226q-65 204 -150 505h-10q-74 -269 -146 -505z" />
    <glyph glyph-name="uni008D" horiz-adv-x="2048" 
d="M926 0v1499h196v-1499h-196z" />
    <glyph glyph-name="uni008E" horiz-adv-x="2048" 
d="M625 0v1499h196v-1499h-196zM1229 0v1499h194v-1499h-194z" />
    <glyph glyph-name="uni008F" horiz-adv-x="2048" 
d="M322 0v1499h196v-1499h-196zM926 0v1499h196v-1499h-196zM1530 0v1499h196v-1499h-196z" />
    <glyph glyph-name="uni0090" horiz-adv-x="2048" 
d="M336 0v1499h196v-1499h-196zM1212 0l-477 1499h207l242 -807q100 -363 141 -493h10q28 90 72.5 248.5t71.5 244.5l237 807h199l-475 -1499h-228z" />
    <glyph glyph-name="uni0091" horiz-adv-x="2048" 
d="M911 0l-475 1499h205l242 -807q100 -363 141 -493h10q28 90 72.5 248.5t71.5 244.5l237 807h199l-475 -1499h-228z" />
    <glyph glyph-name="uni0092" horiz-adv-x="2048" 
d="M610 0l-477 1499h205l242 -807q18 -62 44.5 -159.5t49.5 -177t47 -156.5h10q29 92 75 251.5t71 241.5l237 807h197l-473 -1499h-228zM1513 0v1499h197v-1499h-197z" />
    <glyph glyph-name="uni0093" horiz-adv-x="2048" 
d="M414 0l-398 1499h207l187 -807q100 -414 122 -493h9q70 253 123 493l188 807h199l-398 -1499h-239zM1214 0v1499h197v-1499h-197zM1692 0v1499h196v-1499h-196z" />
    <glyph glyph-name="uni0094" horiz-adv-x="2048" 
d="M301 0l-293 1499h180l131 -807q13 -77 40 -237.5t44 -255.5h9q46 243 84 493l127 807h172l-281 -1499h-213zM967 0v1499h170v-1499h-170zM1350 0v1499h170v-1499h-170zM1731 0v1499h170v-1499h-170z" />
    <glyph glyph-name="uni0095" horiz-adv-x="2048" 
d="M338 0v1499h197v-1499h-197zM772 0l434 774l-407 725h217l201 -381q101 -187 118 -217h8q11 27 54 115l248 483h206l-409 -735l436 -764h-215l-217 401q-29 52 -127 240h-8q-24 -45 -63 -124t-58 -116l-213 -401h-205z" />
    <glyph glyph-name="uni0096" horiz-adv-x="2048" 
d="M469 0l434 774l-407 725h217l202 -381l48 -90t69 -127h8q11 24 105 217l198 381h205l-409 -735l438 -764h-217l-217 401q-12 23 -56 105.5t-71 134.5h-8q-73 -152 -119 -240l-215 -401h-205z" />
    <glyph glyph-name="uni0097" horiz-adv-x="2048" 
d="M1026 1337q-57 0 -95 34.5t-38 88.5q0 55 37.5 89t95.5 34q55 0 93 -34.5t38 -88.5q0 -53 -38 -88t-93 -35zM926 0v1110h194v-1110h-194z" />
    <glyph glyph-name="uni0098" horiz-adv-x="2048" 
d="M743 1337q-57 0 -95 34.5t-38 88.5q0 55 37.5 89t95.5 34q56 0 93.5 -34t37.5 -89q0 -54 -37.5 -88.5t-93.5 -34.5zM1309 1337q-57 0 -95 34.5t-38 88.5q0 55 37.5 89t95.5 34q56 0 93.5 -34t37.5 -89q0 -54 -37.5 -88.5t-93.5 -34.5zM645 0v1110h193v-1110h-193zM1210 0
v1110h193v-1110h-193z" />
    <glyph glyph-name="uni0099" horiz-adv-x="2048" 
d="M461 1337q-56 0 -94.5 35t-38.5 88q0 55 38 89t95 34q56 0 93.5 -34t37.5 -89q0 -54 -37.5 -88.5t-93.5 -34.5zM1026 1337q-57 0 -95 34.5t-38 88.5q0 55 37.5 89t95.5 34q55 0 93 -34.5t38 -88.5q0 -53 -38 -88t-93 -35zM1589 1337q-57 0 -95 34.5t-38 88.5
q0 55 37.5 89t95.5 34q56 0 93.5 -34t37.5 -89q0 -54 -37.5 -88.5t-93.5 -34.5zM362 0v1110h195v-1110h-195zM926 0v1110h194v-1110h-194zM1491 0v1110h195v-1110h-195z" />
    <glyph glyph-name="uni009A" horiz-adv-x="2048" 
d="M492 1337q-57 0 -95.5 34.5t-38.5 88.5q0 55 38 89t96 34q56 0 92.5 -34t36.5 -89q0 -54 -36.5 -88.5t-92.5 -34.5zM391 0v1110h195v-1110h-195zM1198 0l-399 1110h198l207 -627q16 -52 103 -327h8q68 213 100 327l209 627h191l-392 -1110h-225z" />
    <glyph glyph-name="uni009B" horiz-adv-x="2048" 
d="M915 0l-399 1110h199l207 -627q10 -31 47 -149t57 -178h8q77 243 101 327l208 627h189l-391 -1110h-226z" />
    <glyph glyph-name="uni009C" horiz-adv-x="2048" 
d="M1561 1337q-57 0 -95.5 34.5t-38.5 88.5q0 55 38 89t96 34q56 0 92.5 -34t36.5 -89q0 -54 -36.5 -88.5t-92.5 -34.5zM635 0l-402 1110h199l209 -627q32 -114 100 -327h9q58 173 102 327l209 627h188l-391 -1110h-223zM1462 0v1110h193v-1110h-193z" />
    <glyph glyph-name="uni009D" horiz-adv-x="2048" 
d="M1266 1337q-57 0 -95 34.5t-38 88.5q0 55 37.5 89t95.5 34q56 0 93.5 -34t37.5 -89q0 -54 -37.5 -88.5t-93.5 -34.5zM1780 1337q-57 0 -95 34.5t-38 88.5q0 55 37.5 89t95.5 34q56 0 93.5 -34t37.5 -89q0 -54 -37.5 -88.5t-93.5 -34.5zM401 0l-374 1110h198l191 -627
q77 -269 96 -327h8q10 30 94 327l191 627h188l-366 -1110h-226zM1167 0v1110h195v-1110h-195zM1681 0v1110h193v-1110h-193z" />
    <glyph glyph-name="uni009E" horiz-adv-x="2048" 
d="M1030 1337q-54 0 -87.5 34.5t-33.5 88.5q0 55 33.5 89t87.5 34q50 0 83.5 -34t33.5 -89q0 -54 -33.5 -88.5t-83.5 -34.5zM1434 1337q-52 0 -86.5 34.5t-34.5 88.5q0 55 34.5 89t86.5 34q50 0 84 -34t34 -89q0 -53 -34 -88t-84 -35zM1839 1337q-51 0 -86 34.5t-35 88.5
q0 55 34.5 89t86.5 34q50 0 83.5 -34t33.5 -89q0 -54 -33.5 -88.5t-83.5 -34.5zM289 0l-277 1110h187l123 -627q13 -52 34 -162.5t35 -164.5h8q15 61 39 183t29 144l123 627h176l-266 -1110h-211zM944 0v1110h168v-1110h-168zM1348 0v1110h168v-1110h-168zM1751 0v1110h170
v-1110h-170z" />
    <glyph glyph-name="uni009F" horiz-adv-x="2048" 
d="M514 1337q-57 0 -95 34.5t-38 88.5q0 55 37.5 89t95.5 34q55 0 92 -34t37 -89q0 -53 -37 -88t-92 -35zM416 0v1110h192v-1110h-192zM825 0l365 580l-338 530h209l147 -242q46 -82 109 -184h8q17 31 49 92.5t49 91.5l136 242h200l-336 -551l363 -559h-209l-162 256
q-104 175 -119 199h-10q-22 -36 -61 -107t-51 -92l-148 -256h-201z" />
    <glyph glyph-name="uni00A0" unicode="&#xa0;" horiz-adv-x="2048" 
d="M543 0l364 580l-338 530h209l148 -242q90 -151 110 -184h8q58 110 99 184l133 242h203l-336 -551l360 -559h-207l-163 256q-11 19 -36 62.5t-44.5 76t-38.5 60.5h-10q-22 -36 -59.5 -105.5t-51.5 -93.5l-150 -256h-200z" />
    <glyph glyph-name="exclamdown" unicode="&#xa1;" horiz-adv-x="2048" 
d="M1966 709h-1579q215 -170 332 -336l-123 -72q-99 131 -242 260t-282 217q139 88 282 217t242 260l123 -71q-132 -178 -332 -336h1579v-139z" />
    <glyph glyph-name="cent" unicode="&#xa2;" horiz-adv-x="2048" 
d="M954 -164v1579q-158 -200 -336 -332l-71 123q131 99 260 242t217 283q88 -140 217 -283t260 -242l-71 -123q-178 132 -336 332v-1579h-140z" />
    <glyph glyph-name="sterling" unicode="&#xa3;" horiz-adv-x="2048" 
d="M82 709v139h1579q-200 158 -332 336l123 71q99 -131 242 -260t282 -217q-139 -88 -282 -217t-242 -260l-123 72q132 178 332 336h-1579z" />
    <glyph glyph-name="currency" unicode="&#xa4;" horiz-adv-x="2048" 
d="M1094 1720v-1579q158 200 336 332l71 -123q-131 -99 -260 -242t-217 -282q-88 139 -217 282t-260 242l71 123q166 -117 336 -332v1579h140z" />
    <glyph glyph-name="yen" unicode="&#xa5;" horiz-adv-x="2048" 
d="M1661 700h-1274q217 -171 332 -335l-123 -72q-99 131 -242 260t-282 217q139 88 282 217t242 260l123 -71q-132 -178 -332 -336h1274q-200 158 -332 336l123 71q99 -131 242 -260t282 -217q-139 -88 -282 -217t-242 -260l-123 72q66 89 156 178t176 157z" />
    <glyph glyph-name="brokenbar" unicode="&#xa6;" horiz-adv-x="2048" 
d="M1094 1415v-1274q158 200 336 332l71 -123q-131 -99 -260 -242t-217 -282q-88 139 -217 282t-260 242l71 123q166 -117 336 -332v1274q-158 -200 -336 -332l-71 123q131 99 260 242t217 283q88 -140 217 -283t260 -242l-71 -123q-178 132 -336 332z" />
    <glyph glyph-name="section" unicode="&#xa7;" horiz-adv-x="2048" 
d="M1640 61l-1118 1119q17 -98 17 -227t-17 -246l-137 34q14 106 14 238q0 251 -49 473q222 -49 473 -49q132 0 238 14l35 -137q-128 -16 -246 -16q-121 0 -227 16l1118 -1118z" />
    <glyph glyph-name="dieresis" unicode="&#xa8;" horiz-adv-x="2048" 
d="M307 162l1118 1118q-106 -16 -227 -16q-118 0 -246 16l35 137q106 -14 238 -14q251 0 473 49q-49 -222 -49 -473q0 -132 14 -238l-137 -34q-17 117 -17 246t17 227l-1118 -1119z" />
    <glyph glyph-name="copyright" unicode="&#xa9;" horiz-adv-x="2048" 
d="M408 1495l1118 -1118q-17 98 -17 227t17 246l137 -35q-14 -106 -14 -237q0 -252 49 -474q-227 50 -473 50q-124 0 -238 -15l-35 137q97 17 246 17q147 0 227 -17l-1118 1119z" />
    <glyph glyph-name="ordfeminine" unicode="&#xaa;" horiz-adv-x="2048" 
d="M1741 1395l-1118 -1119q80 17 227 17q149 0 246 -17l-35 -137q-114 15 -238 15q-246 0 -473 -50q49 222 49 474q0 131 -14 237l137 35q17 -117 17 -246t-17 -227l1118 1118z" />
    <glyph glyph-name="guillemotleft" unicode="&#xab;" horiz-adv-x="2048" 
d="M82 555h1440q135 138 241 215q-97 69 -241 213h-1440v141h1317q-116 132 -191 254l121 70q120 -190 304.5 -377.5t365.5 -300.5q-183 -118 -366.5 -304.5t-303.5 -375.5l-121 70q75 122 191 254h-1317v141z" />
    <glyph glyph-name="logicalnot" unicode="&#xac;" horiz-adv-x="2048" 
d="M674 1448l119 -70q-80 -136 -181 -254h824q-101 118 -181 254l119 70q111 -190 283 -377t342 -301q-172 -119 -344 -305.5t-281 -374.5l-119 70q80 136 181 254h-824q101 -118 181 -254l-119 -70q-109 188 -281 374.5t-344 305.5q170 114 342 301t283 377zM1548 983
h-1048q-132 -139 -232 -213q93 -69 232 -215h1048q139 146 232 215q-100 74 -232 213z" />
    <glyph glyph-name="uni00AD" unicode="&#xad;" horiz-adv-x="2048" 
d="M1692 1565l125 -64l-789 -1532h-8l-789 1532l125 64l271 -531h794zM700 895l322 -631h4l322 631h-648z" />
    <glyph glyph-name="registered" unicode="&#xae;" horiz-adv-x="2048" 
d="M1446 999q0 207 -89.5 316.5t-246.5 109.5q-104 0 -194 -54.5t-142 -125.5l-100 111q207 207 450 207q216 0 350 -147.5t134 -411.5q0 -122 -21.5 -244t-61.5 -237t-102 -214.5t-139.5 -174t-178 -117t-212.5 -42.5q-210 0 -329.5 128t-119.5 327q0 114 45 217t118 174.5
t167 113.5t189 42q304 0 440 -272h4q39 150 39 294zM602 430q0 -141 80.5 -225t216.5 -84q142 2 254 101t184 290q-20 148 -121 240t-239 92q-94 0 -180 -53.5t-140.5 -150t-54.5 -210.5z" />
    <glyph glyph-name="macron" unicode="&#xaf;" horiz-adv-x="2048" 
d="M399 1513h1237v-1488h-1237v141h1096v534h-1096v140h1096v532h-1096v141z" />
    <glyph glyph-name="degree" unicode="&#xb0;" horiz-adv-x="2048" 
d="M915 -33l-606 1387v114h1426v-114l-602 -1387h-218zM1221 618l295 689h-990l293 -689l197 -483h10z" />
    <glyph glyph-name="plusminus" unicode="&#xb1;" horiz-adv-x="2048" 
d="M1786 1288h-844q-213 0 -363.5 -127t-175.5 -321h1383v-142h-1383q25 -194 175.5 -321t363.5 -127h844v-141h-844q-191 0 -349 87.5t-248.5 239t-90.5 334.5q0 136 53.5 258.5t145 210.5t219 139.5t270.5 51.5h844v-142z" />
    <glyph glyph-name="uni00B2" unicode="&#xb2;" horiz-adv-x="2048" 
d="M1106 1288h-844v142h844q143 0 270.5 -51.5t219 -139.5t145 -210.5t53.5 -258.5q0 -183 -90.5 -334.5t-248.5 -239t-349 -87.5h-844v141h844q213 0 363.5 127t175.5 321h-1383v142h1383q-25 194 -175.5 321t-363.5 127z" />
    <glyph glyph-name="uni00B3" unicode="&#xb3;" horiz-adv-x="2048" 
d="M426 -274v1734h1198v-1734h-192v1568h-818v-1568h-188z" />
    <glyph glyph-name="acute" unicode="&#xb4;" horiz-adv-x="2048" 
d="M668 162v-8h968v-154h-1224v109l587 632l-555 631v115h1117v-152h-861v-8l510 -582z" />
    <glyph glyph-name="mu" unicode="&#xb5;" horiz-adv-x="2048" 
d="M1147 1802h901v-84h-842l-657 -1894h-62l-221 573l-143 -202l-53 38l280 396l203 -533z" />
    <glyph glyph-name="paragraph" unicode="&#xb6;" horiz-adv-x="2048" 
d="M1114 770q198 -268 449 -268q73 0 131 18l51 -133q-71 -27 -186 -27q-299 0 -535 297q-236 -297 -537 -297q-76 0 -149 26.5t-133.5 76t-97.5 129.5t-37 178q0 97 37 177t97.5 129t133.5 75.5t149 26.5q301 0 537 -297q236 297 535 297q115 0 186 -27l-51 -131
q-58 18 -131 18q-248 0 -449 -268zM211 770q0 -124 80.5 -196t193.5 -72q251 0 449 268q-201 268 -449 268q-113 0 -193.5 -73t-80.5 -195z" />
    <glyph glyph-name="periodcentered" unicode="&#xb7;" horiz-adv-x="2048" 
d="M1024 881q236 297 535 297q76 0 149 -26.5t133.5 -75.5t97.5 -129t37 -177q0 -98 -37 -178t-97.5 -129.5t-133.5 -76t-149 -26.5q-299 0 -535 297q-236 -297 -537 -297q-76 0 -149 26.5t-133.5 76t-97.5 129.5t-37 178q0 97 37 177t97.5 129t133.5 75.5t149 26.5
q301 0 537 -297zM211 770q0 -124 80.5 -196t193.5 -72q133 0 241 69.5t208 198.5q-99 128 -207.5 198t-241.5 70q-113 0 -193.5 -73t-80.5 -195zM1114 770q198 -268 449 -268q112 0 192 72.5t80 195.5q0 122 -80 195t-192 73q-248 0 -449 -268z" />
    <glyph glyph-name="cedilla" unicode="&#xb8;" horiz-adv-x="2048" 
d="M541 203v-6h1259v-142h-1591v8l1358 1360l98 -100z" />
    <glyph glyph-name="uni00B9" unicode="&#xb9;" horiz-adv-x="2048" 
d="M231 47l789 1530h8l789 -1530l-125 -65l-666 1300h-4l-666 -1300z" />
    <glyph glyph-name="ordmasculine" unicode="&#xba;" horiz-adv-x="2048" 
d="M1817 1491l-789 -1530h-8l-789 1530l125 65l666 -1300h4l666 1300z" />
    <glyph glyph-name="guillemotright" unicode="&#xbb;" horiz-adv-x="2048" 
d="M365 8v842q0 193 86.5 351t237.5 247.5t335 89.5t335 -89.5t237.5 -247.5t86.5 -351v-842h-141v842q0 234 -149 390.5t-369 156.5t-369 -156.5t-149 -390.5v-842h-141z" />
    <glyph glyph-name="onequarter" unicode="&#xbc;" horiz-adv-x="2048" 
d="M1683 1530v-842q0 -193 -86.5 -351t-237.5 -247.5t-335 -89.5t-335 89.5t-237.5 247.5t-86.5 351v842h141v-842q0 -234 149 -390.5t369 -156.5t369 156.5t149 390.5v842h141z" />
    <glyph glyph-name="onehalf" unicode="&#xbd;" horiz-adv-x="2048" 
d="M942 340v899q0 100 15 179.5t42.5 132t61.5 89.5t77 56.5t83.5 28t85.5 8.5q30 0 94 -11l-15 -149q-19 8 -67 8q-35 0 -62.5 -6.5t-57 -29t-49 -61t-32 -106.5t-12.5 -161v-900q0 -493 -365 -493q-36 0 -94 10l15 150q21 -9 67 -9q35 0 62.5 6.5t57 29.5t49 61.5
t32 106.5t12.5 161z" />
    <glyph glyph-name="threequarters" unicode="&#xbe;" horiz-adv-x="2048" 
d="M545 340v899q0 100 15 179.5t42.5 132t61 89.5t76.5 56.5t83.5 28t85.5 8.5q31 0 95 -11l-15 -149q-19 8 -67 8q-35 0 -62.5 -6.5t-57 -29t-49 -61t-32 -106.5t-12.5 -161v-900q0 -493 -365 -493q-36 0 -94 10l14 150q21 -9 68 -9q35 0 62.5 6.5t57 29.5t49 61.5
t32 106.5t12.5 161zM1339 340v899q0 494 365 494q30 0 94 -11l-14 -149q-19 8 -68 8q-35 0 -62.5 -6.5t-57 -29t-49 -61t-32 -106.5t-12.5 -161v-900q0 -86 -11.5 -157t-31 -121t-48 -88.5t-59.5 -62t-68.5 -38.5t-72 -20.5t-73.5 -5.5q-37 0 -95 10l15 150q21 -9 67 -9
q35 0 62.5 6.5t57 29.5t49 61.5t32 106.5t12.5 161z" />
    <glyph glyph-name="questiondown" unicode="&#xbf;" horiz-adv-x="2048" 
d="M942 326v123q-114 25 -188 117t-74 212t74 212.5t188 117.5v131q0 100 15 179.5t42.5 132t61.5 89.5t77 56.5t83.5 28t85.5 8.5q30 0 94 -11l-15 -149q-19 8 -67 8q-34 0 -60.5 -6t-56.5 -28t-50 -58.5t-33 -102t-13 -155.5v-123q114 -25 188 -117.5t74 -212.5t-74 -212
t-188 -117v-132q0 -493 -365 -493q-36 0 -94 10l15 150q21 -9 67 -9q34 0 60.5 6.5t56.5 28t50 58t33 102.5t13 156zM942 535v487q-79 -24 -129.5 -91.5t-50.5 -152.5t50.5 -152t129.5 -91zM1106 1022v-487q79 24 129.5 91t50.5 152t-50.5 152.5t-129.5 91.5z" />
    <glyph glyph-name="Agrave" unicode="&#xc0;" horiz-adv-x="2048" 
d="M877 1253q0 60 43 104t104 44t104 -44t43 -104q0 -62 -43 -105.5t-104 -43.5t-104 43.5t-43 105.5zM334 285q0 61 44 105t105 44t104.5 -43.5t43.5 -105.5q0 -60 -43.5 -104t-104.5 -44t-105 44t-44 104zM1417 285q0 61 44 105t106 44q61 0 104 -43.5t43 -105.5
q0 -60 -43 -104t-104 -44t-105.5 44t-44.5 104z" />
    <glyph glyph-name="Aacute" unicode="&#xc1;" horiz-adv-x="2048" 
d="M334 1253q0 60 44 104t105 44t104.5 -44t43.5 -104q0 -62 -43.5 -105.5t-104.5 -43.5t-105 44t-44 105zM1417 1253q0 60 44.5 104t105.5 44t104 -44t43 -104q0 -62 -43 -105.5t-104 -43.5q-62 0 -106 44t-44 105zM877 285q0 62 43 105.5t104 43.5t104 -43.5t43 -105.5
q0 -60 -43 -104t-104 -44t-104 44t-43 104z" />
    <glyph glyph-name="Acircumflex" unicode="&#xc2;" horiz-adv-x="2048" 
d="M877 1253q0 60 43 104t104 44t104 -44t43 -104q0 -62 -43 -105.5t-104 -43.5t-104 43.5t-43 105.5zM877 285q0 62 43 105.5t104 43.5t104 -43.5t43 -105.5q0 -60 -43 -104t-104 -44t-104 44t-43 104z" />
    <glyph glyph-name="Atilde" unicode="&#xc3;" horiz-adv-x="2048" 
d="M975 819q255 359 584 359q76 0 149 -26.5t133.5 -75.5t97.5 -129t37 -177q0 -98 -37 -178t-97.5 -129.5t-134.5 -76t-153 -26.5q-100 0 -186 27l53 133q59 -18 138 -18q115 0 195.5 72t80.5 196q0 122 -80 195t-192 73q-149 0 -267 -85t-223 -236q-56 -77 -113.5 -137
t-130 -112t-159.5 -80t-183 -28q-76 0 -149 26.5t-133.5 76t-97.5 129.5t-37 178q0 79 24.5 146.5t65.5 115t95.5 81t114.5 49.5t122 16q112 0 186 -27l-51 -131q-61 18 -138 18q-116 0 -197 -72.5t-81 -195.5q0 -124 80.5 -196t193.5 -72q101 0 193 44t159 110t138 163z
" />
    <glyph glyph-name="Adieresis" unicode="&#xc4;" horiz-adv-x="2048" 
d="M504 1366q0 62 43 106t104 44t105.5 -44t44.5 -106q0 -61 -44 -104t-106 -43q-61 0 -104 42.5t-43 104.5zM281 1036h1486v-125h-1486v125zM281 627h1486v-125h-1486v125zM1247 172q0 61 44 104t106 43q61 0 104 -42.5t43 -104.5t-43 -105.5t-104 -43.5q-62 0 -106 44
t-44 105z" />
    <glyph glyph-name="Aring" unicode="&#xc5;" horiz-adv-x="2048" 
d="M1767 913h-616l-107 -297h723v-141h-774l-157 -430l-131 49l137 381h-561v141h612l108 297h-720v142h772l159 438l131 -49l-141 -389h565v-142z" />
    <glyph glyph-name="AE" unicode="&#xc6;" horiz-adv-x="2048" 
d="M281 1278h1486v-133h-1486v133zM281 836h1486v-134h-1486v134zM281 393h1486v-133h-1486v133z" />
    <glyph glyph-name="Ccedilla" unicode="&#xc7;" horiz-adv-x="2048" 
d="M584 981v-8l1206 -488l-53 -129l-1528 617v8l1528 618l53 -131zM262 170h1524v-133h-1524v133z" />
    <glyph glyph-name="Egrave" unicode="&#xc8;" horiz-adv-x="2048" 
d="M258 485l1206 488v8l-1206 487l53 131l1528 -618v-8l-1528 -617zM262 37v133h1524v-133h-1524z" />
    <glyph glyph-name="Eacute" unicode="&#xc9;" horiz-adv-x="2048" 
d="M1243 1563l72 -103l-987 -686v-8l987 -688l-72 -103l-1132 791v8zM1864 1563l71 -103l-989 -686v-8l989 -688l-71 -103l-1133 791v8z" />
    <glyph glyph-name="Ecircumflex" unicode="&#xca;" horiz-adv-x="2048" 
d="M184 1563l1133 -789v-8l-1133 -791l-71 103l989 688v8l-989 686zM805 1563l1132 -789v-8l-1132 -791l-72 103l987 688v8l-987 686z" />
    <glyph glyph-name="Edieresis" unicode="&#xcb;" horiz-adv-x="2048" 
d="M1786 109h-844q-191 0 -349 87.5t-248.5 239t-90.5 334.5q0 136 53.5 258.5t145 210.5t219 139.5t270.5 51.5h844v-142h-844q-153 0 -278.5 -68t-197 -187t-71.5 -263q0 -221 157 -370.5t390 -149.5h844v-141z" />
    <glyph glyph-name="Igrave" unicode="&#xcc;" horiz-adv-x="2048" 
d="M262 1430h844q143 0 270.5 -51.5t219 -139.5t145 -210.5t53.5 -258.5q0 -183 -90.5 -334.5t-248.5 -239t-349 -87.5h-844v141h844q233 0 390 149.5t157 370.5q0 144 -71.5 263t-197 187t-278.5 68h-844v142z" />
    <glyph glyph-name="Iacute" unicode="&#xcd;" horiz-adv-x="2048" 
d="M1786 1421h-948q-104 0 -189.5 -33t-140 -88t-84 -126.5t-29.5 -149.5q0 -79 29.5 -150.5t84 -127t140 -88.5t189.5 -33h948v-142h-948q-134 0 -245.5 44t-184.5 119t-113.5 172.5t-40.5 205.5q0 107 40.5 204.5t113.5 172t184.5 118.5t245.5 44h948v-142zM262 117h1524
v-142h-1524v142z" />
    <glyph glyph-name="Icircumflex" unicode="&#xce;" horiz-adv-x="2048" 
d="M262 625h948q104 0 189.5 33t140 88.5t84 127t29.5 150.5q0 78 -29.5 149.5t-84 126.5t-140 88t-189.5 33h-948v142h948q134 0 245.5 -44t184.5 -118.5t113.5 -172t40.5 -204.5q0 -108 -40.5 -205.5t-113.5 -172.5t-184.5 -119t-245.5 -44h-948v142zM262 117h1524v-142
h-1524v142z" />
    <glyph glyph-name="Idieresis" unicode="&#xcf;" horiz-adv-x="2048" 
d="M1024 20q-154 0 -294.5 60t-242 161.5t-161.5 242t-60 294.5t60 294.5t161.5 242t242 161.5t294.5 60t294.5 -60t242 -161.5t161.5 -242t60 -294.5t-60 -294.5t-161.5 -242t-242 -161.5t-294.5 -60zM408 778q0 -167 82.5 -309t224.5 -224.5t309 -82.5t309 82.5
t224.5 224.5t82.5 309q0 125 -49 239.5t-131.5 197t-196.5 131.5t-239 49t-239 -49t-196.5 -131.5t-131.5 -197t-49 -239.5zM1143 778q0 -50 -34.5 -84.5t-84.5 -34.5t-84.5 34.5t-34.5 84.5q0 48 35 83.5t84 35.5t84 -35.5t35 -83.5z" />
    <glyph glyph-name="Eth" unicode="&#xd0;" horiz-adv-x="2048" 
d="M1094 215h739v-141h-1618v141h739v1298h140v-1298z" />
    <glyph glyph-name="Ntilde" unicode="&#xd1;" horiz-adv-x="2048" 
d="M113 1200l-64 123q194 193 440 300.5t535 107.5q557 0 975 -408l-64 -123q-394 381 -911 381t-911 -381z" />
    <glyph glyph-name="Ograve" unicode="&#xd2;" horiz-adv-x="2048" 
d="M1024 -176q-194 0 -370.5 75.5t-304.5 203.5t-203.5 304.5t-75.5 370.5t75.5 370.5t203.5 304.5t304.5 204t370.5 76t370.5 -76t304.5 -204t203.5 -304.5t75.5 -370.5q0 -130 -34.5 -254.5t-96.5 -229t-150.5 -192t-193 -149t-227.5 -95.5t-252 -34zM1024 -111
q242 0 446.5 119t323.5 323.5t119 446.5t-119 446.5t-323.5 323.5t-446.5 119q-182 0 -347.5 -71t-283.5 -191t-188 -284t-70 -343q0 -242 119 -446.5t323.5 -323.5t446.5 -119zM983 260v868h-217v109q145 24 256 84h129v-1061h-168z" />
    <glyph glyph-name="Oacute" unicode="&#xd3;" horiz-adv-x="2048" 
d="M1024 -176q-194 0 -370.5 75.5t-304.5 203.5t-203.5 304.5t-75.5 370.5t75.5 370.5t203.5 304.5t304.5 204t370.5 76t370.5 -76t304.5 -204t203.5 -304.5t75.5 -370.5q0 -130 -34.5 -254.5t-96.5 -229t-150.5 -192t-193 -149t-227.5 -95.5t-252 -34zM1024 -111
q242 0 446.5 119t323.5 323.5t119 446.5t-119 446.5t-323.5 323.5t-446.5 119q-182 0 -347.5 -71t-283.5 -191t-188 -284t-70 -343q0 -242 119 -446.5t323.5 -323.5t446.5 -119zM670 260v98q116 101 190 169t147 143t113.5 130t65 110.5t24.5 105.5q0 94 -52.5 144
t-156.5 50q-123 0 -249 -120l-97 90q158 166 363 166q164 0 260 -87t96 -231q0 -58 -24 -120t-62 -120t-100.5 -127t-125 -128.5t-149.5 -137.5q84 8 209 8h301v-143h-753z" />
    <glyph glyph-name="Ocircumflex" unicode="&#xd4;" horiz-adv-x="2048" 
d="M1024 -176q-194 0 -370.5 75.5t-304.5 203.5t-203.5 304.5t-75.5 370.5t75.5 370.5t203.5 304.5t304.5 204t370.5 76t370.5 -76t304.5 -204t203.5 -304.5t75.5 -370.5q0 -130 -34.5 -254.5t-96.5 -229t-150.5 -192t-193 -149t-227.5 -95.5t-252 -34zM1024 -111
q242 0 446.5 119t323.5 323.5t119 446.5t-119 446.5t-323.5 323.5t-446.5 119q-182 0 -347.5 -71t-283.5 -191t-188 -284t-70 -343q0 -242 119 -446.5t323.5 -323.5t446.5 -119zM1014 236q-247 0 -391 151l82 109q132 -125 305 -125q101 0 164 49.5t63 130.5q0 95 -85 146
t-284 51v124q330 0 330 183q0 74 -51 115.5t-143 41.5q-138 0 -250 -106l-88 104q149 136 342 136q162 0 261 -74.5t99 -206.5q0 -166 -209 -246v-6q112 -28 181 -96.5t69 -173.5q0 -138 -113.5 -222.5t-281.5 -84.5z" />
    <glyph glyph-name="Otilde" unicode="&#xd5;" horiz-adv-x="2048" 
d="M1024 1733q194 0 370.5 -76t304.5 -204t203.5 -304.5t75.5 -370.5q0 -130 -34.5 -254.5t-96.5 -229t-150.5 -192t-193 -149t-227.5 -95.5t-252 -34q-194 0 -370.5 75.5t-304.5 203.5t-203.5 304.5t-75.5 370.5t75.5 370.5t203.5 304.5t304.5 204t370.5 76zM1024 -111
q242 0 446.5 119t323.5 323.5t119 446.5t-119 446.5t-323.5 323.5t-446.5 119q-182 0 -347.5 -71t-283.5 -191t-188 -284t-70 -343q0 -242 119 -446.5t323.5 -323.5t446.5 -119zM1241 1321v-649h158v-129h-158v-283h-160v283h-524v112l492 666h192zM731 672h350v270
q0 150 6 213h-8q-28 -51 -92 -145z" />
    <glyph glyph-name="Odieresis" unicode="&#xd6;" horiz-adv-x="2048" 
d="M1024 -176q-194 0 -370.5 75.5t-304.5 203.5t-203.5 304.5t-75.5 370.5t75.5 370.5t203.5 304.5t304.5 204t370.5 76t370.5 -76t304.5 -204t203.5 -304.5t75.5 -370.5q0 -130 -34.5 -254.5t-96.5 -229t-150.5 -192t-193 -149t-227.5 -95.5t-252 -34zM1024 -111
q242 0 446.5 119t323.5 323.5t119 446.5t-119 446.5t-323.5 323.5t-446.5 119q-182 0 -347.5 -71t-283.5 -191t-188 -284t-70 -343q0 -242 119 -446.5t323.5 -323.5t446.5 -119zM1020 236q-227 0 -383 145l80 111q64 -55 132.5 -88t162.5 -33q106 0 172.5 61t66.5 164
q0 99 -65 159t-170 60q-57 0 -100 -16.5t-101 -53.5l-86 54l37 522h598v-143h-455l-26 -287q95 43 174 43q161 0 262.5 -85.5t101.5 -248.5q0 -111 -57.5 -195.5t-148 -126.5t-195.5 -42z" />
    <glyph glyph-name="multiply" unicode="&#xd7;" horiz-adv-x="2048" 
d="M1024 1733q194 0 370.5 -76t304.5 -204t203.5 -304.5t75.5 -370.5q0 -130 -34.5 -254.5t-96.5 -229t-150.5 -192t-193 -149t-227.5 -95.5t-252 -34q-194 0 -370.5 75.5t-304.5 203.5t-203.5 304.5t-75.5 370.5t75.5 370.5t203.5 304.5t304.5 204t370.5 76zM1024 -111
q242 0 446.5 119t323.5 323.5t119 446.5t-119 446.5t-323.5 323.5t-446.5 119q-182 0 -347.5 -71t-283.5 -191t-188 -284t-70 -343q0 -242 119 -446.5t323.5 -323.5t446.5 -119zM1362 1229l-92 -105q-36 37 -89.5 59.5t-109.5 22.5q-62 0 -114 -22.5t-95 -70t-68.5 -132
t-27.5 -199.5q56 61 132 96t153 35q157 0 246 -84.5t89 -246.5q0 -155 -104 -250.5t-256 -95.5q-187 0 -303.5 132t-116.5 386q0 151 37.5 267.5t102.5 186t146 104t175 34.5q174 0 295 -117zM1028 367q83 0 141 59.5t58 151.5q0 100 -55.5 155t-159.5 55q-133 0 -242 -131
q34 -290 258 -290z" />
    <glyph glyph-name="Oslash" unicode="&#xd8;" horiz-adv-x="2048" 
d="M1024 -176q-194 0 -370.5 75.5t-304.5 203.5t-203.5 304.5t-75.5 370.5t75.5 370.5t203.5 304.5t304.5 204t370.5 76t370.5 -76t304.5 -204t203.5 -304.5t75.5 -370.5q0 -130 -34.5 -254.5t-96.5 -229t-150.5 -192t-193 -149t-227.5 -95.5t-252 -34zM1024 -111
q242 0 446.5 119t323.5 323.5t119 446.5t-119 446.5t-323.5 323.5t-446.5 119q-182 0 -347.5 -71t-283.5 -191t-188 -284t-70 -343q0 -242 119 -446.5t323.5 -323.5t446.5 -119zM1051 260h-174q18 297 89.5 501.5t239.5 416.5h-553v143h746v-102q-102 -118 -166.5 -222.5
t-102 -222t-54 -231.5t-25.5 -283z" />
    <glyph glyph-name="Ugrave" unicode="&#xd9;" horiz-adv-x="2048" 
d="M1024 -176q-194 0 -370.5 75.5t-304.5 203.5t-203.5 304.5t-75.5 370.5t75.5 370.5t203.5 304.5t304.5 204t370.5 76t370.5 -76t304.5 -204t203.5 -304.5t75.5 -370.5q0 -130 -34.5 -254.5t-96.5 -229t-150.5 -192t-193 -149t-227.5 -95.5t-252 -34zM1024 -111
q242 0 446.5 119t323.5 323.5t119 446.5t-119 446.5t-323.5 323.5t-446.5 119q-182 0 -347.5 -71t-283.5 -191t-188 -284t-70 -343q0 -242 119 -446.5t323.5 -323.5t446.5 -119zM1024 236q-170 0 -281.5 81.5t-111.5 206.5q0 173 221 285v8q-168 103 -168 248
q0 126 98 203.5t244 77.5q158 0 251 -79t93 -204q0 -79 -48 -146t-114 -110v-6q47 -27 77 -48.5t63.5 -55t50 -76t16.5 -95.5q0 -125 -109 -207.5t-282 -82.5zM1102 846q123 95 123 203q0 78 -53.5 127t-149.5 49q-83 0 -134.5 -43.5t-51.5 -116.5q0 -35 15 -65t36.5 -50
t61 -40.5t71 -33t82.5 -30.5zM1030 358q104 0 165.5 46.5t61.5 125.5q0 24 -5.5 44.5t-19 38.5t-27 32.5t-39 29t-44 24.5t-53.5 23.5t-56.5 21.5t-62.5 22q-168 -95 -168 -219q0 -81 71.5 -135t176.5 -54z" />
    <glyph glyph-name="Uacute" unicode="&#xda;" horiz-adv-x="2048" 
d="M1024 1733q194 0 370.5 -76t304.5 -204t203.5 -304.5t75.5 -370.5q0 -130 -34.5 -254.5t-96.5 -229t-150.5 -192t-193 -149t-227.5 -95.5t-252 -34q-194 0 -370.5 75.5t-304.5 203.5t-203.5 304.5t-75.5 370.5t75.5 370.5t203.5 304.5t304.5 204t370.5 76zM1024 -111
q242 0 446.5 119t323.5 323.5t119 446.5t-119 446.5t-323.5 323.5t-446.5 119q-182 0 -347.5 -71t-283.5 -191t-188 -284t-70 -343q0 -242 119 -446.5t323.5 -323.5t446.5 -119zM684 350l92 103q36 -36 89.5 -58t111.5 -22q62 0 113 23t92.5 71.5t65.5 132.5t28 197
q-54 -60 -128 -94.5t-149 -34.5q-155 0 -246 84.5t-91 246.5q0 153 103 250t253 97q187 0 302.5 -132.5t115.5 -386.5q0 -124 -24.5 -224t-67 -167.5t-101 -113t-124 -66t-138.5 -20.5q-183 0 -297 114zM1032 788q60 0 123 33t117 101q-34 295 -254 295q-82 0 -138.5 -60
t-56.5 -156q0 -213 209 -213z" />
    <glyph glyph-name="Ucircumflex" unicode="&#xdb;" horiz-adv-x="2048" 
d="M1024 -176q-194 0 -370.5 75.5t-304.5 203.5t-203.5 304.5t-75.5 370.5t75.5 370.5t203.5 304.5t304.5 204t370.5 76t370.5 -76t304.5 -204t203.5 -304.5t75.5 -370.5q0 -130 -34.5 -254.5t-96.5 -229t-150.5 -192t-193 -149t-227.5 -95.5t-252 -34zM1024 -111
q242 0 446.5 119t323.5 323.5t119 446.5t-119 446.5t-323.5 323.5t-446.5 119q-182 0 -347.5 -71t-283.5 -191t-188 -284t-70 -343q0 -242 119 -446.5t323.5 -323.5t446.5 -119zM1284 236q-153 0 -242.5 150t-89.5 409q0 265 88 408t244 143q155 0 242.5 -142.5t87.5 -408.5
q0 -259 -89.5 -409t-240.5 -150zM598 260v868h-174v109q124 24 211 84h123v-1061h-160zM1284 373q78 0 124 106t46 316q0 209 -45.5 312t-124.5 103t-124.5 -103t-45.5 -312q0 -210 46 -316t124 -106z" />
    <glyph glyph-name="Udieresis" unicode="&#xdc;" horiz-adv-x="2048" 
d="M1024 -176q-194 0 -370.5 75.5t-304.5 203.5t-203.5 304.5t-75.5 370.5t75.5 370.5t203.5 304.5t304.5 204t370.5 76t370.5 -76t304.5 -204t203.5 -304.5t75.5 -370.5q0 -130 -34.5 -254.5t-96.5 -229t-150.5 -192t-193 -149t-227.5 -95.5t-252 -34zM1024 -111
q242 0 446.5 119t323.5 323.5t119 446.5t-119 446.5t-323.5 323.5t-446.5 119q-182 0 -347.5 -71t-283.5 -191t-188 -284t-70 -343q0 -242 119 -446.5t323.5 -323.5t446.5 -119zM692 260v868h-174v109q122 24 213 84h121v-1061h-160zM1251 260v868h-174v109q125 25 211 84
h121v-1061h-158z" />
    <glyph glyph-name="Yacute" unicode="&#xdd;" horiz-adv-x="2048" 
d="M1024 -176q-194 0 -370.5 75.5t-304.5 203.5t-203.5 304.5t-75.5 370.5t75.5 370.5t203.5 304.5t304.5 204t370.5 76t370.5 -76t304.5 -204t203.5 -304.5t75.5 -370.5q0 -130 -34.5 -254.5t-96.5 -229t-150.5 -192t-193 -149t-227.5 -95.5t-252 -34zM1024 -111
q242 0 446.5 119t323.5 323.5t119 446.5t-119 446.5t-323.5 323.5t-446.5 119q-182 0 -347.5 -71t-283.5 -191t-188 -284t-70 -343q0 -242 119 -446.5t323.5 -323.5t446.5 -119zM971 260v98q94 110 143.5 170t110.5 140.5t89.5 132t49 109t20.5 106.5q0 94 -39 144t-116 50
q-96 0 -178 -110l-90 88q125 158 288 158q133 0 210 -87t77 -231q0 -70 -25 -144.5t-79 -160t-106 -154t-138 -174.5q65 8 164 8h221v-143h-602zM598 260v868h-174v109q126 25 209 84h123v-1061h-158z" />
    <glyph glyph-name="Thorn" unicode="&#xde;" horiz-adv-x="2048" 
d="M1024 -176q-194 0 -370.5 75.5t-304.5 203.5t-203.5 304.5t-75.5 370.5t75.5 370.5t203.5 304.5t304.5 204t370.5 76t370.5 -76t304.5 -204t203.5 -304.5t75.5 -370.5q0 -130 -34.5 -254.5t-96.5 -229t-150.5 -192t-193 -149t-227.5 -95.5t-252 -34zM1024 -111
q242 0 446.5 119t323.5 323.5t119 446.5t-119 446.5t-323.5 323.5t-446.5 119q-182 0 -347.5 -71t-283.5 -191t-188 -284t-70 -343q0 -242 119 -446.5t323.5 -323.5t446.5 -119zM1249 236q-99 0 -177.5 39.5t-129.5 103.5l82 102q100 -110 223 -110q73 0 119.5 49.5
t46.5 130.5q0 96 -62.5 146.5t-215.5 50.5v124q247 0 247 183q0 73 -38.5 115t-104.5 42q-98 0 -178 -92l-88 99q121 127 276 127q132 0 211.5 -74t79.5 -207q0 -167 -164 -246v-6q91 -28 145 -96t54 -174q0 -138 -93.5 -222.5t-232.5 -84.5zM602 260v868h-176v109
q124 24 211 84h123v-1061h-158z" />
    <glyph glyph-name="germandbls" unicode="&#xdf;" horiz-adv-x="2048" 
d="M1024 1733q194 0 370.5 -76t304.5 -204t203.5 -304.5t75.5 -370.5q0 -130 -34.5 -254.5t-96.5 -229t-150.5 -192t-193 -149t-227.5 -95.5t-252 -34q-194 0 -370.5 75.5t-304.5 203.5t-203.5 304.5t-75.5 370.5t75.5 370.5t203.5 304.5t304.5 204t370.5 76zM1024 -111
q242 0 446.5 119t323.5 323.5t119 446.5t-119 446.5t-323.5 323.5t-446.5 119q-182 0 -347.5 -71t-283.5 -191t-188 -284t-70 -343q0 -242 119 -446.5t323.5 -323.5t446.5 -119zM424 1128v109q126 25 209 84h123v-1061h-158v868h-174zM1485 1321v-649h119v-129h-119v-283
h-148v283h-409v112l372 666h185zM1079 672h258v270q0 150 6 213h-8q-14 -29 -35 -73t-34 -72z" />
    <glyph glyph-name="agrave" unicode="&#xe0;" horiz-adv-x="2048" 
d="M1024 -176q-194 0 -370.5 75.5t-304.5 203.5t-203.5 304.5t-75.5 370.5t75.5 370.5t203.5 304.5t304.5 204t370.5 76t370.5 -76t304.5 -204t203.5 -304.5t75.5 -370.5q0 -130 -34.5 -254.5t-96.5 -229t-150.5 -192t-193 -149t-227.5 -95.5t-252 -34zM1024 -111
q242 0 446.5 119t323.5 323.5t119 446.5t-119 446.5t-323.5 323.5t-446.5 119q-182 0 -347.5 -71t-283.5 -191t-188 -284t-70 -343q0 -242 119 -446.5t323.5 -323.5t446.5 -119zM598 260v868h-174v109q126 25 209 84h123v-1061h-158zM1257 236q-179 0 -309 141l74 108
q51 -53 103 -83.5t122 -30.5q77 0 127.5 61.5t50.5 163.5q0 100 -47 159.5t-125 59.5q-44 0 -76.5 -16.5t-76.5 -53.5l-76 54l27 522h489v-143h-356l-17 -287q73 43 129 43q126 0 207.5 -85.5t81.5 -248.5q0 -166 -97 -265t-231 -99z" />
    <glyph glyph-name="aacute" unicode="&#xe1;" horiz-adv-x="2048" 
d="M414 -125l-92 -29q-134 204 -195 430t-61 502t60.5 501t195.5 431l92 -29q-228 -354 -228 -903q3 -554 228 -903zM1726 -154l-92 29q225 349 228 903q0 549 -228 903l92 29q135 -206 195.5 -431t60.5 -501t-61 -502t-195 -430zM664 25v155h317v1080h-254v120
q174 31 299 107h141v-1307h289v-155h-792z" />
    <glyph glyph-name="acircumflex" unicode="&#xe2;" horiz-adv-x="2048" 
d="M414 -125l-92 -29q-134 204 -195 430t-61 502t60.5 501t195.5 431l92 -29q-228 -354 -228 -903q3 -554 228 -903zM1726 -154l-92 29q225 349 228 903q0 549 -228 903l92 29q135 -206 195.5 -431t60.5 -501t-61 -502t-195 -430zM600 25v108q119 124 194.5 205t160 176.5
t133.5 163.5t92 140.5t61.5 135t18.5 121.5q0 130 -66.5 207.5t-196.5 77.5q-89 0 -167 -46.5t-136 -125.5l-110 106q90 109 195 164t241 55q202 0 313 -115t111 -315q0 -81 -29.5 -169t-75.5 -168.5t-126 -182.5t-155 -186.5t-188 -204.5q160 12 238 12h403v-159h-911z" />
    <glyph glyph-name="atilde" unicode="&#xe3;" horiz-adv-x="2048" 
d="M414 -125l-92 -29q-134 204 -195 430t-61 502t60.5 501t195.5 431l92 -29q-228 -354 -228 -903q3 -554 228 -903zM1726 -154l-92 29q225 349 228 903q0 549 -228 903l92 29q135 -206 195.5 -431t60.5 -501t-61 -502t-195 -430zM1014 -2q-157 0 -276.5 57t-190.5 150
l96 119q140 -168 354 -168q129 0 212 72t83 194q0 140 -106 214.5t-344 74.5v143q208 0 305.5 76t97.5 198q0 109 -66 170.5t-178 61.5q-166 0 -296 -146l-103 117q174 182 408 182q193 0 308.5 -97t115.5 -271q0 -255 -271 -348v-9q146 -37 233 -132t87 -242
q0 -127 -63.5 -222.5t-169 -144.5t-236.5 -49z" />
    <glyph glyph-name="adieresis" unicode="&#xe4;" horiz-adv-x="2048" 
d="M322 1710l92 -29q-228 -354 -228 -903q3 -554 228 -903l-92 -29q-134 204 -195 430t-61 502t60.5 501t195.5 431zM1634 1681l92 29q135 -206 195.5 -431t60.5 -501t-61 -502t-195 -430l-92 29q225 349 228 903q0 549 -228 903zM1315 1487v-907h196v-150h-196v-405h-178
v405h-631v125l598 932h211zM696 580h441v452q0 134 8 262h-8q-19 -34 -56.5 -104.5t-60.5 -110.5z" />
    <glyph glyph-name="aring" unicode="&#xe5;" horiz-adv-x="2048" 
d="M414 -125l-92 -29q-134 204 -195 430t-61 502t60.5 501t195.5 431l92 -29q-228 -354 -228 -903q3 -554 228 -903zM1726 -154l-92 29q225 349 228 903q0 549 -228 903l92 29q135 -206 195.5 -431t60.5 -501t-61 -502t-195 -430zM993 -4q-154 0 -263.5 54.5t-197.5 146.5
l95 120q148 -163 348 -163q134 0 224.5 91.5t90.5 241.5q0 152 -81 238t-218 86q-69 0 -120.5 -21t-118.5 -69l-99 61l47 705h711v-162h-547l-41 -436q55 33 105.5 47t120.5 14q91 0 167.5 -27.5t136.5 -81.5t94 -143t34 -204q0 -116 -40.5 -212t-109 -157.5t-156 -95
t-182.5 -33.5z" />
    <glyph glyph-name="ae" unicode="&#xe6;" horiz-adv-x="2048" 
d="M322 1710l92 -29q-228 -354 -228 -903q3 -554 228 -903l-92 -29q-134 204 -195 430t-61 502t60.5 501t195.5 431zM1634 1681l92 29q135 -206 195.5 -431t60.5 -501t-61 -502t-195 -430l-92 29q225 349 228 903q0 549 -228 903zM1468 1360l-106 -117q-42 54 -108 83.5
t-140 29.5t-135.5 -32.5t-113 -102.5t-81.5 -194.5t-32 -293.5q65 86 157 135.5t181 49.5q185 0 293 -116.5t108 -336.5q0 -136 -58 -243.5t-155 -165.5t-215 -58q-103 0 -191 44.5t-154.5 130t-104.5 220.5t-38 305q0 173 28.5 312t78 231.5t117.5 154.5t144 89.5t161 27.5
q225 0 364 -153zM1061 147q110 0 182 88.5t72 229.5q0 152 -67 230.5t-191 78.5q-76 0 -155 -44.5t-146 -145.5q19 -215 97 -326t208 -111z" />
    <glyph glyph-name="ccedilla" unicode="&#xe7;" horiz-adv-x="2048" 
d="M414 -125l-92 -29q-134 204 -195 430t-61 502t60.5 501t195.5 431l92 -29q-228 -354 -228 -903q3 -554 228 -903zM1726 -154l-92 29q225 349 228 903q0 549 -228 903l92 29q135 -206 195.5 -431t60.5 -501t-61 -502t-195 -430zM1038 25h-190q17 406 108.5 696t292.5 608
h-674v158h879v-115q-154 -223 -241 -425t-125 -412.5t-50 -509.5z" />
    <glyph glyph-name="egrave" unicode="&#xe8;" horiz-adv-x="2048" 
d="M414 -125l-92 -29q-134 204 -195 430t-61 502t60.5 501t195.5 431l92 -29q-228 -354 -228 -903q3 -554 228 -903zM1726 -154l-92 29q225 349 228 903q0 549 -228 903l92 29q135 -206 195.5 -431t60.5 -501t-61 -502t-195 -430zM1030 -2q-209 0 -341 112t-132 289
q0 244 270 396v8q-101 72 -153.5 153t-52.5 191q0 164 115 265t294 101q188 0 300 -104t112 -272q0 -182 -207 -365v-8q64 -38 105 -69t79 -76t56 -103.5t18 -134.5q0 -167 -125.5 -275t-337.5 -108zM1124 821q77 81 115.5 152t38.5 153q0 107 -68.5 178.5t-183.5 71.5
q-101 0 -167 -62.5t-66 -166.5q0 -60 23 -108t71 -87t101.5 -68t135.5 -63zM1034 137q130 0 204.5 67.5t74.5 180.5q0 29 -4 54t-15.5 48t-21.5 41.5t-31.5 37.5t-36.5 32.5t-46 30.5t-49.5 27.5t-57 27.5t-59.5 26t-66 27q-96 -72 -147.5 -145t-51.5 -176q0 -123 86 -201
t221 -78z" />
    <glyph glyph-name="eacute" unicode="&#xe9;" horiz-adv-x="2048" 
d="M322 1710l92 -29q-228 -354 -228 -903q3 -554 228 -903l-92 -29q-134 204 -195 430t-61 502t60.5 501t195.5 431zM1634 1681l92 29q135 -206 195.5 -431t60.5 -501t-61 -502t-195 -430l-92 29q225 349 228 903q0 549 -228 903zM580 154l106 116q42 -55 108 -84.5
t140 -29.5q76 0 137.5 32.5t111.5 103t79.5 194.5t33.5 294q-65 -86 -156.5 -135t-181.5 -49q-184 0 -292.5 116.5t-108.5 334.5q0 102 34 190t92 148t136 94t164 34q103 0 191.5 -44.5t155.5 -129.5t105 -220t38 -306q0 -172 -28.5 -310.5t-77 -231.5t-116.5 -155.5
t-144.5 -90t-162.5 -27.5q-225 0 -364 156zM991 737q76 0 155 45t146 146q-19 215 -97 326.5t-208 111.5q-112 0 -182 -86.5t-70 -232.5q0 -153 66 -231.5t190 -78.5z" />
    <glyph glyph-name="ecircumflex" unicode="&#xea;" horiz-adv-x="2048" 
d="M1726 -154l-92 29q225 349 228 903q0 549 -228 903l92 29q135 -206 195.5 -431t60.5 -501t-61 -502t-195 -430zM414 -125l-92 -29q-134 204 -195 430t-61 502t60.5 501t195.5 431l92 -29q-228 -354 -228 -903q3 -554 228 -903zM1315 -2q-169 0 -268 188.5t-99 577.5
q0 198 27 344.5t77 233.5t115.5 129t147.5 42q170 0 267 -180.5t97 -568.5q0 -198 -26.5 -347t-76 -239.5t-114.5 -135t-147 -44.5zM600 25v1251h-215v104q145 29 268 107h95v-1462h-148zM1315 141q215 0 215 623q0 167 -15 286.5t-44.5 189t-67.5 101t-88 31.5
q-215 0 -215 -608q0 -623 215 -623z" />
    <glyph glyph-name="edieresis" unicode="&#xeb;" horiz-adv-x="2048" 
d="M1726 -154l-92 29q225 349 228 903q0 549 -228 903l92 29q135 -206 195.5 -431t60.5 -501t-61 -502t-195 -430zM414 -125l-92 -29q-134 204 -195 430t-61 502t60.5 501t195.5 431l92 -29q-228 -354 -228 -903q3 -554 228 -903zM1321 25v1251h-213v104q145 29 268 107h94
v-1462h-149zM698 25v1251h-215v104q148 29 271 107h92v-1462h-148z" />
    <glyph glyph-name="igrave" unicode="&#xec;" horiz-adv-x="2048" 
d="M1726 -154l-92 29q225 349 228 903q0 549 -228 903l92 29q135 -206 195.5 -431t60.5 -501t-61 -502t-195 -430zM414 -125l-92 -29q-134 204 -195 430t-61 502t60.5 501t195.5 431l92 -29q-228 -354 -228 -903q3 -554 228 -903zM952 25v108q269 336 395 568.5t126 402.5
q0 129 -51 200.5t-154 71.5q-125 0 -236 -155l-94 88q55 66 100 106.5t107.5 69t132.5 28.5q158 0 248 -109.5t90 -295.5q0 -194 -115.5 -422t-347.5 -530q148 12 221 12h289v-143h-711zM600 25v1251h-215v104q145 29 268 107h95v-1462h-148z" />
    <glyph glyph-name="iacute" unicode="&#xed;" horiz-adv-x="2048" 
d="M1726 -154l-92 29q225 349 228 903q0 549 -228 903l92 29q135 -206 195.5 -431t60.5 -501t-61 -502t-195 -430zM414 -125l-92 -29q-134 204 -195 430t-61 502t60.5 501t195.5 431l92 -29q-228 -354 -228 -903q3 -554 228 -903zM1401 797v-9q121 -36 196.5 -131.5
t75.5 -242.5q0 -190 -111 -303t-276 -113q-228 0 -373 180l86 107q119 -144 281 -144q104 0 174 73t70 198q0 146 -91.5 225.5t-283.5 79.5v133q171 0 253.5 80.5t82.5 210.5q0 109 -56 172t-149 63q-127 0 -223 -121l-94 103q148 155 319 155q163 0 257.5 -95.5
t94.5 -272.5q0 -130 -62 -217.5t-171 -130.5zM600 25v1251h-215v104q145 29 268 107h95v-1462h-148z" />
    <glyph glyph-name="icircumflex" unicode="&#xee;" horiz-adv-x="2048" 
d="M322 1710l92 -29q-228 -354 -228 -903q3 -554 228 -903l-92 -29q-134 204 -195 430t-61 502t60.5 501t195.5 431zM1634 1681l92 29q135 -206 195.5 -431t60.5 -501t-61 -502t-195 -430l-92 29q225 349 228 903q0 549 -228 903zM385 1276v104q145 29 268 107h95v-1462
h-148v1251h-215zM1677 446h-153v-421h-140v421h-489v109l475 932h154v-907h153v-134zM1042 580h342v424q0 167 9 290h-9q-36 -94 -92 -221z" />
    <glyph glyph-name="idieresis" unicode="&#xef;" horiz-adv-x="2048" 
d="M1726 -154l-92 29q225 349 228 903q0 549 -228 903l92 29q135 -206 195.5 -431t60.5 -501t-61 -502t-195 -430zM414 -125l-92 -29q-134 204 -195 430t-61 502t60.5 501t195.5 431l92 -29q-228 -354 -228 -903q3 -554 228 -903zM1153 1341l-35 -460q46 32 86 46.5t92 14.5
q149 0 246.5 -114t97.5 -334q0 -116 -31.5 -212t-84.5 -157.5t-121 -95t-143 -33.5q-121 0 -208 48.5t-157 127.5l86 107q57 -67 116.5 -104.5t141.5 -37.5q108 0 180 96t72 254q0 152 -63 242t-164 90q-52 0 -92 -21t-89 -67l-96 55l43 701h559v-146h-436zM600 25v1251
h-215v104q145 29 268 107h95v-1462h-148z" />
    <glyph glyph-name="eth" unicode="&#xf0;" horiz-adv-x="2048" 
d="M414 -125l-92 -29q-134 204 -195 430t-61 502t60.5 501t195.5 431l92 -29q-228 -354 -228 -903q3 -554 228 -903zM1726 -154l-92 29q225 349 228 903q0 549 -228 903l92 29q135 -206 195.5 -431t60.5 -501t-61 -502t-195 -430zM899 188q-139 0 -229 85.5t-90 232.5
q0 180 158.5 278t508.5 136q0 57 -10.5 103.5t-34.5 87.5t-68.5 64t-107.5 23q-146 0 -326 -121l-73 133q212 144 432 144q191 0 285 -120.5t94 -338.5v-678h-156l-16 131h-9q-189 -160 -358 -160zM954 344q75 0 143.5 35t149.5 110v304q-260 -31 -369.5 -97t-109.5 -176
q0 -89 50.5 -132.5t135.5 -43.5z" />
    <glyph glyph-name="ntilde" unicode="&#xf1;" horiz-adv-x="2048" 
d="M414 -125l-92 -29q-134 204 -195 430t-61 502t60.5 501t195.5 431l92 -29q-228 -354 -228 -903q3 -554 228 -903zM1726 -154l-92 29q225 349 228 903q0 549 -228 903l92 29q135 -206 195.5 -431t60.5 -501t-61 -502t-195 -430zM1081 0q-72 0 -151.5 35.5t-151.5 101.5h-4
l-18 -108h-154v1626h193v-443l-7 -200q170 153 334 153q206 0 318 -151t112 -412q0 -139 -38.5 -254t-103.5 -190.5t-150 -116.5t-179 -41zM1051 162q133 0 218 118t85 318q0 406 -279 406q-130 0 -280 -150v-578q125 -114 256 -114z" />
    <glyph glyph-name="ograve" unicode="&#xf2;" horiz-adv-x="2048" 
d="M414 -125l-92 -29q-134 204 -195 430t-61 502t60.5 501t195.5 431l92 -29q-228 -354 -228 -903q3 -554 228 -903zM1726 -154l-92 29q225 349 228 903q0 549 -228 903l92 29q135 -206 195.5 -431t60.5 -501t-61 -502t-195 -430zM1098 188q-227 0 -373.5 157t-146.5 427
q0 134 43.5 245.5t117.5 184.5t170 112.5t203 39.5q189 0 326 -133l-97 -123q-56 48 -107 73t-112 25q-152 0 -250 -118t-98 -306q0 -190 95.5 -307t246.5 -117q138 0 260 113l84 -127q-76 -69 -170 -107.5t-192 -38.5z" />
    <glyph glyph-name="oacute" unicode="&#xf3;" horiz-adv-x="2048" 
d="M414 -125l-92 -29q-134 204 -195 430t-61 502t60.5 501t195.5 431l92 -29q-228 -354 -228 -903q3 -554 228 -903zM1726 -154l-92 29q225 349 228 903q0 549 -228 903l92 29q135 -206 195.5 -431t60.5 -501t-61 -502t-195 -430zM942 0q-203 0 -323.5 154t-120.5 428
q0 131 38.5 242.5t103.5 185t149 114.5t176 41q88 0 156.5 -30.5t142.5 -94.5l-9 187v428h195v-1626h-160l-18 129h-4q-147 -158 -326 -158zM985 162q139 0 270 149v580q-124 113 -256 113q-130 0 -215.5 -116t-85.5 -304q0 -205 73.5 -313.5t213.5 -108.5z" />
    <glyph glyph-name="ocircumflex" unicode="&#xf4;" horiz-adv-x="2048" 
d="M414 -125l-92 -29q-134 204 -195 430t-61 502t60.5 501t195.5 431l92 -29q-228 -354 -228 -903q3 -554 228 -903zM1726 -154l-92 29q225 349 228 903q0 549 -228 903l92 29q135 -206 195.5 -431t60.5 -501t-61 -502t-195 -430zM1096 188q-108 0 -202.5 40t-165.5 113.5
t-112 185t-41 245.5q0 131 41 242t109 184.5t155.5 114.5t182.5 41q202 0 316 -140t114 -380q0 -78 -6 -105h-721q11 -180 104.5 -283.5t247.5 -103.5q134 0 262 88l70 -125q-170 -117 -354 -117zM762 856h563q0 171 -67 258.5t-193 87.5q-114 0 -200 -93.5t-103 -252.5z
" />
    <glyph glyph-name="otilde" unicode="&#xf5;" horiz-adv-x="2048" 
d="M322 1710l92 -29q-228 -354 -228 -903q3 -554 228 -903l-92 -29q-134 204 -195 430t-61 502t60.5 501t195.5 431zM1634 1681l92 29q135 -206 195.5 -431t60.5 -501t-61 -502t-195 -430l-92 29q225 349 228 903q0 549 -228 903zM815 1139v172q0 176 81 273t247 97
q100 0 186 -39l-41 -145q-79 29 -125 29q-155 0 -155 -215v-172h235v-156h-235v-954h-193v954h-151v145z" />
    <glyph glyph-name="odieresis" unicode="&#xf6;" horiz-adv-x="2048" 
d="M414 -125l-92 -29q-134 204 -195 430t-61 502t60.5 501t195.5 431l92 -29q-228 -354 -228 -903q3 -554 228 -903zM1726 -154l-92 29q225 349 228 903q0 549 -228 903l92 29q135 -206 195.5 -431t60.5 -501t-61 -502t-195 -430zM1010 -63q-189 0 -302.5 73t-113.5 207
q0 66 38 128t105 106v8q-98 69 -98 174q0 106 121 196v9q-61 49 -102.5 123t-41.5 165q0 173 112.5 278t275.5 105q82 0 133 -26h368v-148h-211q38 -38 62 -94t24 -119q0 -173 -106 -275t-270 -102q-69 0 -136 33q-23 -21 -34 -32.5t-22 -33.5t-11 -48q0 -109 170 -109h166
q187 0 277.5 -61t90.5 -191q0 -153 -137 -259.5t-358 -106.5zM1004 874v-2q93 0 150.5 69t57.5 185q0 115 -57 180.5t-151 65.5q-89 0 -148 -66t-59 -180t60 -183t147 -69zM1036 68q124 0 202.5 61t78.5 141q0 69 -50 97t-153 28h-139q-69 0 -121 17q-90 -67 -90 -170
q0 -80 72 -127t200 -47z" />
    <glyph glyph-name="divide" unicode="&#xf7;" horiz-adv-x="2048" 
d="M414 -125l-92 -29q-134 204 -195 430t-61 502t60.5 501t195.5 431l92 -29q-228 -354 -228 -903q3 -554 228 -903zM1726 -154l-92 29q225 349 228 903q0 549 -228 903l92 29q135 -206 195.5 -431t60.5 -501t-61 -502t-195 -430zM600 29v1626h193v-443l-9 -229
q62 58 109 93.5t115 62t141 26.5q171 0 250.5 -107t79.5 -327v-702h-191v678q0 154 -47.5 224t-153.5 70q-79 0 -140.5 -39t-153.5 -131v-802h-193z" />
    <glyph glyph-name="oslash" unicode="&#xf8;" horiz-adv-x="2048" 
d="M414 -125l-92 -29q-134 204 -195 430t-61 502t60.5 501t195.5 431l92 -29q-228 -354 -228 -903q3 -554 228 -903zM1726 -154l-92 29q225 349 228 903q0 549 -228 903l92 29q135 -206 195.5 -431t60.5 -501t-61 -502t-195 -430zM1026 1364q-57 0 -95 35.5t-38 89.5
q0 55 37.5 89t95.5 34q55 0 93 -34.5t38 -88.5q0 -53 -38 -89t-93 -36zM926 29v1110h194v-1110h-194z" />
    <glyph glyph-name="ugrave" unicode="&#xf9;" horiz-adv-x="2048" 
d="M1065 1530q-57 0 -94 34.5t-37 88.5q0 56 36.5 90.5t94.5 34.5q57 0 94 -34.5t37 -90.5q0 -54 -37.5 -88.5t-93.5 -34.5zM414 -125l-92 -29q-134 204 -195 430t-61 502t60.5 501t195.5 431l92 -29q-228 -354 -228 -903q3 -554 228 -903zM1726 -154l-92 29
q225 349 228 903q0 549 -228 903l92 29q135 -206 195.5 -431t60.5 -501t-61 -502t-195 -430zM852 -303q-83 0 -164 29l37 147q56 -18 106 -18q80 0 109 54t29 163v1231h190v-1231q0 -375 -307 -375z" />
    <glyph glyph-name="uacute" unicode="&#xfa;" horiz-adv-x="2048" 
d="M414 -125l-92 -29q-134 204 -195 430t-61 502t60.5 501t195.5 431l92 -29q-228 -354 -228 -903q3 -554 228 -903zM1726 -154l-92 29q225 349 228 903q0 549 -228 903l92 29q135 -206 195.5 -431t60.5 -501t-61 -502t-195 -430zM616 29v1626h189v-1096h8l444 580h213
l-352 -447l402 -663h-211l-301 530l-203 -240v-290h-189z" />
    <glyph glyph-name="ucircumflex" unicode="&#xfb;" horiz-adv-x="2048" 
d="M414 -125l-92 -29q-134 204 -195 430t-61 502t60.5 501t195.5 431l92 -29q-228 -354 -228 -903q3 -554 228 -903zM1726 -154l-92 29q225 349 228 903q0 549 -228 903l92 29q135 -206 195.5 -431t60.5 -501t-61 -502t-195 -430zM1120 0q-107 0 -154.5 64.5t-47.5 191.5
v1399h194v-1413q0 -42 14.5 -62t36.5 -20q26 0 41 4l27 -146q-70 -18 -111 -18z" />
    <glyph glyph-name="udieresis" unicode="&#xfc;" horiz-adv-x="2048" 
d="M414 -125l-92 -29q-134 204 -195 430t-61 502t60.5 501t195.5 431l92 -29q-228 -354 -228 -903q3 -554 228 -903zM1726 -154l-92 29q225 349 228 903q0 549 -228 903l92 29q135 -206 195.5 -431t60.5 -501t-61 -502t-195 -430zM446 217v1110h140l16 -119h6
q128 146 256 146q88 0 139.5 -42.5t79.5 -125.5q70 83 135 125.5t146 42.5q250 0 250 -381v-756h-170v731q0 128 -30.5 185t-96.5 57q-53 0 -99 -30.5t-102 -98.5v-844h-166v731q0 127 -32 184.5t-99 57.5q-55 0 -98 -29.5t-100 -99.5v-844h-175z" />
    <glyph glyph-name="yacute" unicode="&#xfd;" horiz-adv-x="2048" 
d="M414 -125l-92 -29q-134 204 -195 430t-61 502t60.5 501t195.5 431l92 -29q-228 -354 -228 -903q3 -554 228 -903zM1726 -154l-92 29q225 349 228 903q0 549 -228 903l92 29q135 -206 195.5 -431t60.5 -501t-61 -502t-195 -430zM592 217v1110h158l18 -156h6
q89 89 174.5 136t192.5 47q171 0 251.5 -108t80.5 -322v-707h-193v682q0 154 -47.5 222.5t-153.5 68.5q-80 0 -143 -38.5t-150 -127.5v-807h-194z" />
    <glyph glyph-name="thorn" unicode="&#xfe;" horiz-adv-x="2048" 
d="M414 -125l-92 -29q-134 204 -195 430t-61 502t60.5 501t195.5 431l92 -29q-228 -354 -228 -903q3 -554 228 -903zM1726 -154l-92 29q225 349 228 903q0 549 -228 903l92 29q135 -206 195.5 -431t60.5 -501t-61 -502t-195 -430zM1024 188q-101 0 -193 40t-162.5 113
t-112.5 185t-42 246t42 246t112.5 184.5t162.5 112t193 39.5t192.5 -39.5t162 -112t112 -184.5t41.5 -246t-41.5 -246t-112 -185t-162 -113t-192.5 -40zM1024 348q140 0 225.5 117t85.5 307q0 189 -86 306.5t-225 117.5q-140 0 -226.5 -117.5t-86.5 -306.5q0 -190 86.5 -307
t226.5 -117z" />
    <glyph glyph-name="ydieresis" unicode="&#xff;" horiz-adv-x="2048" 
d="M414 -125l-92 -29q-134 204 -195 430t-61 502t60.5 501t195.5 431l92 -29q-228 -354 -228 -903q3 -554 228 -903zM1726 -154l-92 29q225 349 228 903q0 549 -228 903l92 29q135 -206 195.5 -431t60.5 -501t-61 -502t-195 -430zM596 -14v1497h158l18 -127h4
q182 153 346 153q211 0 324 -150.5t113 -412.5q0 -139 -39 -254.5t-105.5 -190t-152.5 -115t-181 -40.5q-144 0 -299 127l6 -192v-295h-192zM1051 506q134 0 220.5 118t86.5 318q0 408 -283 408q-121 0 -287 -150v-579q135 -115 263 -115z" />
    <glyph glyph-name="Amacron" unicode="&#x100;" horiz-adv-x="2048" 
d="M414 -125l-92 -29q-134 204 -195 430t-61 502t60.5 501t195.5 431l92 -29q-228 -354 -228 -903q3 -554 228 -903zM1726 -154l-92 29q225 349 228 903q0 549 -228 903l92 29q135 -206 195.5 -431t60.5 -501t-61 -502t-195 -430zM1260 -14v313l10 197q-161 -150 -328 -150
q-206 0 -329.5 154t-123.5 428q0 131 39 242t104.5 184t151.5 114t181 41q91 0 163 -31.5t148 -99.5h6l16 105h156v-1497h-194zM985 506q144 0 275 151v580q-130 113 -263 113q-131 0 -219 -118t-88 -304q0 -204 76 -313t219 -109z" />
    <glyph glyph-name="amacron" unicode="&#x101;" horiz-adv-x="2048" 
d="M414 -125l-92 -29q-134 204 -195 430t-61 502t60.5 501t195.5 431l92 -29q-228 -354 -228 -903q3 -554 228 -903zM1726 -154l-92 29q225 349 228 903q0 549 -228 903l92 29q135 -206 195.5 -431t60.5 -501t-61 -502t-195 -430zM762 217v1110h160l16 -201h8
q58 107 140.5 167.5t175.5 60.5q68 0 118 -23l-39 -168q-47 19 -106 19q-77 0 -152 -62t-127 -192v-711h-194z" />
    <glyph glyph-name="Abreve" unicode="&#x102;" horiz-adv-x="2048" 
d="M414 -125l-92 -29q-134 204 -195 430t-61 502t60.5 501t195.5 431l92 -29q-228 -354 -228 -903q3 -554 228 -903zM1726 -154l-92 29q225 349 228 903q0 549 -228 903l92 29q135 -206 195.5 -431t60.5 -501t-61 -502t-195 -430zM1024 188q-114 0 -223 43.5t-191 114.5
l92 125q81 -66 155.5 -98.5t172.5 -32.5q105 0 160 47.5t55 120.5q0 40 -20.5 73.5t-60 59t-78 42.5t-93.5 36t-96 36.5t-88 46t-77 60t-50 77t-20 99.5q0 137 104.5 226.5t280.5 89.5q99 0 188.5 -34t157.5 -89l-93 -123q-135 98 -249 98q-99 0 -151 -45.5t-52 -111.5
q0 -30 15 -56t33.5 -43t57.5 -36t64 -28.5t76 -27.5q45 -17 69.5 -26.5t66 -29t65 -36t53.5 -43.5t45.5 -55t27 -67t11.5 -83q0 -141 -109 -235.5t-299 -94.5z" />
    <glyph glyph-name="abreve" unicode="&#x103;" horiz-adv-x="2048" 
d="M414 -125l-92 -29q-134 204 -195 430t-61 502t60.5 501t195.5 431l92 -29q-228 -354 -228 -903q3 -554 228 -903zM1726 -154l-92 29q225 349 228 903q0 549 -228 903l92 29q135 -206 195.5 -431t60.5 -501t-61 -502t-195 -430zM1174 100q-170 0 -245 97.5t-75 275.5v608
h-164v146l174 10l23 311h160v-311h301v-156h-301v-612q0 -108 39.5 -160.5t130.5 -52.5q58 0 126 31l37 -146q-112 -41 -206 -41z" />
    <glyph glyph-name="Aogonek" unicode="&#x104;" horiz-adv-x="2048" 
d="M414 -125l-92 -29q-134 204 -195 430t-61 502t60.5 501t195.5 431l92 -29q-228 -354 -228 -903q3 -554 228 -903zM1726 -154l-92 29q225 349 228 903q0 549 -228 903l92 29q135 -206 195.5 -431t60.5 -501t-61 -502t-195 -430zM915 188q-335 0 -335 430v709h192v-682
q0 -153 48.5 -221t154.5 -68q80 0 143.5 41.5t143.5 141.5v788h192v-1110h-158l-18 170h-6q-79 -98 -165.5 -148.5t-191.5 -50.5z" />
    <glyph glyph-name="aogonek" unicode="&#x105;" horiz-adv-x="2048" 
d="M414 -125l-92 -29q-134 204 -195 430t-61 502t60.5 501t195.5 431l92 -29q-228 -354 -228 -903q3 -554 228 -903zM1726 -154l-92 29q225 349 228 903q0 549 -228 903l92 29q135 -206 195.5 -431t60.5 -501t-61 -502t-195 -430zM915 217l-399 1110h199l207 -627
q10 -31 47 -149t57 -178h8q77 243 101 327l208 627h189l-391 -1110h-226z" />
    <glyph glyph-name="Cacute" unicode="&#x106;" horiz-adv-x="2048" 
d="M414 -125l-92 -29q-134 204 -195 430t-61 502t60.5 501t195.5 431l92 -29q-228 -354 -228 -903q3 -554 228 -903zM1726 -154l-92 29q225 349 228 903q0 549 -228 903l92 29q135 -206 195.5 -431t60.5 -501t-61 -502t-195 -430zM596 217l-256 1110h184l133 -637
q11 -52 28.5 -155t29.5 -156h8q13 53 32 156t31 155l150 637h188l148 -637q12 -52 32 -155.5t33 -155.5h9q12 53 31 156t30 155l129 637h172l-248 -1110h-231l-137 592q-11 47 -21.5 99t-22.5 117t-20 105h-10q-8 -40 -19.5 -106t-22 -118.5t-22.5 -98.5l-131 -590h-227z
" />
    <glyph glyph-name="cacute" unicode="&#x107;" horiz-adv-x="2048" 
d="M414 -125l-92 -29q-134 204 -195 430t-61 502t60.5 501t195.5 431l92 -29q-228 -354 -228 -903q3 -554 228 -903zM1726 -154l-92 29q225 349 228 903q0 549 -228 903l92 29q135 -206 195.5 -431t60.5 -501t-61 -502t-195 -430zM545 217l362 580l-336 530h209l148 -242
q55 -99 108 -184h8q10 17 45.5 83.5t55.5 100.5l133 242h203l-336 -551l360 -559h-209l-161 256q-104 175 -119 199h-10q-22 -36 -59.5 -105.5t-51.5 -93.5l-150 -256h-200z" />
    <glyph glyph-name="Ccircumflex" unicode="&#x108;" horiz-adv-x="2048" 
d="M414 -125l-92 -29q-134 204 -195 430t-61 502t60.5 501t195.5 431l92 -29q-228 -354 -228 -903q3 -554 228 -903zM1726 -154l-92 29q225 349 228 903q0 549 -228 903l92 29q135 -206 195.5 -431t60.5 -501t-61 -502t-195 -430zM723 -23q-66 0 -143 23l36 154
q57 -17 97 -17q175 0 225 160l20 74l-442 1112h199l221 -609q21 -52 55.5 -160t52.5 -155h9q18 56 50 166.5t44 148.5l192 609h189l-414 -1192q-26 -73 -58 -127t-78 -98t-110 -66.5t-145 -22.5z" />
    <glyph glyph-name="ccircumflex" unicode="&#x109;" horiz-adv-x="2048" 
d="M414 -125l-92 -29q-134 204 -195 430t-61 502t60.5 501t195.5 431l92 -29q-228 -354 -228 -903q3 -554 228 -903zM1726 -154l-92 29q225 349 228 903q0 549 -228 903l92 29q135 -206 195.5 -431t60.5 -501t-61 -502t-195 -430zM610 217v102l580 852h-514v156h758v-102
l-582 -852h600v-156h-842z" />
    <glyph glyph-name="Cdotaccent" unicode="&#x10a;" horiz-adv-x="2048" 
d="M1024 -176q-194 0 -370.5 75.5t-304.5 203.5t-203.5 304.5t-75.5 370.5t75.5 370.5t203.5 304.5t304.5 204t370.5 76t370.5 -76t304.5 -204t203.5 -304.5t75.5 -370.5q0 -130 -34.5 -254.5t-96.5 -229t-150.5 -192t-193 -149t-227.5 -95.5t-252 -34zM1024 -111
q242 0 446.5 119t323.5 323.5t119 446.5t-119 446.5t-323.5 323.5t-446.5 119q-182 0 -347.5 -71t-283.5 -191t-188 -284t-70 -343q0 -242 119 -446.5t323.5 -323.5t446.5 -119zM942 379q-100 0 -161.5 59.5t-61.5 157.5q0 122 106.5 185.5t343.5 86.5q-2 79 -32.5 122.5
t-104.5 43.5q-105 0 -231 -78l-51 101q151 96 305 96q262 0 262 -307v-449h-117l-16 86h-10q-112 -104 -232 -104zM987 496q86 0 182 90v190q-309 -31 -309 -168q0 -112 127 -112z" />
    <glyph glyph-name="cdotaccent" unicode="&#x10b;" horiz-adv-x="2048" 
d="M1024 -176q-194 0 -370.5 75.5t-304.5 203.5t-203.5 304.5t-75.5 370.5t75.5 370.5t203.5 304.5t304.5 204t370.5 76t370.5 -76t304.5 -204t203.5 -304.5t75.5 -370.5q0 -130 -34.5 -254.5t-96.5 -229t-150.5 -192t-193 -149t-227.5 -95.5t-252 -34zM1024 -111
q242 0 446.5 119t323.5 323.5t119 446.5t-119 446.5t-323.5 323.5t-446.5 119q-182 0 -347.5 -71t-283.5 -191t-188 -284t-70 -343q0 -242 119 -446.5t323.5 -323.5t446.5 -119zM1096 289q-107 0 -205 92h-10l-17 -74h-108v1071h143v-286l-6 -131q122 102 227 102
q141 0 218 -99t77 -274q0 -185 -92 -293t-227 -108zM1075 410q85 0 139 72.5t54 203.5q0 256 -183 256q-92 0 -186 -94v-369q83 -69 176 -69z" />
    <glyph glyph-name="Ccaron" unicode="&#x10c;" horiz-adv-x="2048" 
d="M1024 -176q-194 0 -370.5 75.5t-304.5 203.5t-203.5 304.5t-75.5 370.5t75.5 370.5t203.5 304.5t304.5 204t370.5 76t370.5 -76t304.5 -204t203.5 -304.5t75.5 -370.5q0 -130 -34.5 -254.5t-96.5 -229t-150.5 -192t-193 -149t-227.5 -95.5t-252 -34zM1024 -111
q242 0 446.5 119t323.5 323.5t119 446.5t-119 446.5t-323.5 323.5t-446.5 119q-182 0 -347.5 -71t-283.5 -191t-188 -284t-70 -343q0 -242 119 -446.5t323.5 -323.5t446.5 -119zM1061 379q-158 0 -256 103.5t-98 285.5q0 116 50.5 205t132 134.5t177.5 45.5q129 0 225 -80
l-69 -94q-36 30 -69 42.5t-81 12.5q-94 0 -155.5 -74.5t-61.5 -191.5q0 -122 60 -195t159 -73q97 0 168 61l60 -94q-104 -88 -242 -88z" />
    <glyph glyph-name="ccaron" unicode="&#x10d;" horiz-adv-x="2048" 
d="M1024 -176q-194 0 -370.5 75.5t-304.5 203.5t-203.5 304.5t-75.5 370.5t75.5 370.5t203.5 304.5t304.5 204t370.5 76t370.5 -76t304.5 -204t203.5 -304.5t75.5 -370.5q0 -130 -34.5 -254.5t-96.5 -229t-150.5 -192t-193 -149t-227.5 -95.5t-252 -34zM1024 -111
q242 0 446.5 119t323.5 323.5t119 446.5t-119 446.5t-323.5 323.5t-446.5 119q-182 0 -347.5 -71t-283.5 -191t-188 -284t-70 -343q0 -242 119 -446.5t323.5 -323.5t446.5 -119zM979 289q-148 0 -230.5 105t-82.5 296q0 165 95 269t224 104q103 0 207 -84l-8 129v270h143
v-1071h-117l-14 80h-6q-113 -98 -211 -98zM1012 410q80 0 172 92v368q-85 74 -174 74q-82 0 -137.5 -70t-55.5 -184q0 -280 195 -280z" />
    <glyph glyph-name="Dcaron" unicode="&#x10e;" horiz-adv-x="2048" 
d="M1024 -176q-194 0 -370.5 75.5t-304.5 203.5t-203.5 304.5t-75.5 370.5t75.5 370.5t203.5 304.5t304.5 204t370.5 76t370.5 -76t304.5 -204t203.5 -304.5t75.5 -370.5q0 -130 -34.5 -254.5t-96.5 -229t-150.5 -192t-193 -149t-227.5 -95.5t-252 -34zM1024 -111
q242 0 446.5 119t323.5 323.5t119 446.5t-119 446.5t-323.5 323.5t-446.5 119q-182 0 -347.5 -71t-283.5 -191t-188 -284t-70 -343q0 -242 119 -446.5t323.5 -323.5t446.5 -119zM1065 379q-155 0 -259 104.5t-104 284.5q0 173 100.5 279t244.5 106q82 0 143.5 -32t94.5 -84
t49 -108.5t16 -115.5q0 -28 -9 -80h-495q6 -112 68 -174.5t167 -62.5q99 0 187 57l55 -92q-137 -82 -258 -82zM846 825h377q0 88 -42 149.5t-132 61.5q-87 0 -139 -53.5t-64 -157.5z" />
    <glyph glyph-name="dcaron" unicode="&#x10f;" horiz-adv-x="2048" 
d="M1024 1733q194 0 370.5 -76t304.5 -204t203.5 -304.5t75.5 -370.5q0 -130 -34.5 -254.5t-96.5 -229t-150.5 -192t-193 -149t-227.5 -95.5t-252 -34q-194 0 -370.5 75.5t-304.5 203.5t-203.5 304.5t-75.5 370.5t75.5 370.5t203.5 304.5t304.5 204t370.5 76zM1024 -111
q242 0 446.5 119t323.5 323.5t119 446.5t-119 446.5t-323.5 323.5t-446.5 119q-182 0 -347.5 -71t-283.5 -191t-188 -284t-70 -343q0 -242 119 -446.5t323.5 -323.5t446.5 -119zM903 1044v93q0 123 55 195.5t172 72.5q70 0 134 -25l-31 -108q-46 16 -84 16q-102 0 -102 -141
v-103h155v-114h-155v-623h-144v623h-104v108z" />
    <glyph glyph-name="Dcroat" unicode="&#x110;" horiz-adv-x="2048" 
d="M1024 -176q-194 0 -370.5 75.5t-304.5 203.5t-203.5 304.5t-75.5 370.5t75.5 370.5t203.5 304.5t304.5 204t370.5 76t370.5 -76t304.5 -204t203.5 -304.5t75.5 -370.5q0 -130 -34.5 -254.5t-96.5 -229t-150.5 -192t-193 -149t-227.5 -95.5t-252 -34zM1024 -111
q242 0 446.5 119t323.5 323.5t119 446.5t-119 446.5t-323.5 323.5t-446.5 119q-182 0 -347.5 -71t-283.5 -191t-188 -284t-70 -343q0 -242 119 -446.5t323.5 -323.5t446.5 -119zM1008 180q-141 0 -223.5 50.5t-82.5 146.5q0 99 105 158v8q-66 42 -66 123q0 74 82 133v10
q-43 27 -69.5 77.5t-26.5 114.5q0 122 82 194.5t203 72.5q49 0 116 -23h254v-110h-143q24 -20 38.5 -57t14.5 -79q0 -118 -80 -187t-200 -69q-59 0 -109 23q-15 -15 -22 -23.5t-14 -23.5t-7 -31q0 -37 28.5 -54.5t98.5 -17.5h143q137 0 200 -41.5t63 -138.5
q0 -108 -105.5 -182t-279.5 -74zM1012 840q64 0 107.5 44.5t43.5 116.5q0 76 -43 119t-108 43q-68 0 -109 -43t-41 -119q0 -73 41.5 -117t108.5 -44zM1030 281q97 0 160 39.5t63 95.5q0 46 -34 63t-109 17h-119q-65 0 -96 10q-70 -49 -70 -109q0 -57 53 -86.5t152 -29.5z
" />
    <glyph glyph-name="dcroat" unicode="&#x111;" horiz-adv-x="2048" 
d="M1024 -176q-194 0 -370.5 75.5t-304.5 203.5t-203.5 304.5t-75.5 370.5t75.5 370.5t203.5 304.5t304.5 204t370.5 76t370.5 -76t304.5 -204t203.5 -304.5t75.5 -370.5q0 -130 -34.5 -254.5t-96.5 -229t-150.5 -192t-193 -149t-227.5 -95.5t-252 -34zM1024 -111
q242 0 446.5 119t323.5 323.5t119 446.5t-119 446.5t-323.5 323.5t-446.5 119q-182 0 -347.5 -71t-283.5 -191t-188 -284t-70 -343q0 -242 119 -446.5t323.5 -323.5t446.5 -119zM733 307v1071h141v-284l-6 -152q121 121 248 121q232 0 232 -291v-465h-144v445
q0 95 -29 141.5t-110 46.5q-79 0 -191 -109v-524h-141z" />
    <glyph glyph-name="Emacron" unicode="&#x112;" horiz-adv-x="2048" 
d="M1024 -176q-194 0 -370.5 75.5t-304.5 203.5t-203.5 304.5t-75.5 370.5t75.5 370.5t203.5 304.5t304.5 204t370.5 76t370.5 -76t304.5 -204t203.5 -304.5t75.5 -370.5q0 -130 -34.5 -254.5t-96.5 -229t-150.5 -192t-193 -149t-227.5 -95.5t-252 -34zM1024 -111
q242 0 446.5 119t323.5 323.5t119 446.5t-119 446.5t-323.5 323.5t-446.5 119q-182 0 -347.5 -71t-283.5 -191t-188 -284t-70 -343q0 -242 119 -446.5t323.5 -323.5t446.5 -119zM1026 1186q-41 0 -67.5 25t-26.5 63q0 41 26.5 66.5t67.5 25.5q44 0 71 -25.5t27 -66.5
q0 -39 -27 -63.5t-71 -24.5zM952 307v737h146v-737h-146z" />
    <glyph glyph-name="emacron" unicode="&#x113;" horiz-adv-x="2048" 
d="M1024 -176q-194 0 -370.5 75.5t-304.5 203.5t-203.5 304.5t-75.5 370.5t75.5 370.5t203.5 304.5t304.5 204t370.5 76t370.5 -76t304.5 -204t203.5 -304.5t75.5 -370.5q0 -130 -34.5 -254.5t-96.5 -229t-150.5 -192t-193 -149t-227.5 -95.5t-252 -34zM1024 -111
q242 0 446.5 119t323.5 323.5t119 446.5t-119 446.5t-323.5 323.5t-446.5 119q-182 0 -347.5 -71t-283.5 -191t-188 -284t-70 -343q0 -242 119 -446.5t323.5 -323.5t446.5 -119zM1047 1268q-41 0 -68 25t-27 63q0 41 26.5 66.5t68.5 25.5q44 0 72 -25.5t28 -66.5
q0 -38 -28 -63t-72 -25zM903 61q-65 0 -110 19l26 113q37 -13 68 -13q51 0 68.5 32t17.5 103v811h143v-802q0 -129 -50 -196t-163 -67z" />
    <glyph glyph-name="Ebreve" unicode="&#x114;" horiz-adv-x="2048" 
d="M1024 -176q-194 0 -370.5 75.5t-304.5 203.5t-203.5 304.5t-75.5 370.5t75.5 370.5t203.5 304.5t304.5 204t370.5 76t370.5 -76t304.5 -204t203.5 -304.5t75.5 -370.5q0 -130 -34.5 -254.5t-96.5 -229t-150.5 -192t-193 -149t-227.5 -95.5t-252 -34zM1024 -111
q242 0 446.5 119t323.5 323.5t119 446.5t-119 446.5t-323.5 323.5t-446.5 119q-182 0 -347.5 -71t-283.5 -191t-188 -284t-70 -343q0 -242 119 -446.5t323.5 -323.5t446.5 -119zM764 307v1071h141v-698h10l295 364h164l-256 -301l285 -436h-158l-213 338l-127 -151v-187
h-141z" />
    <glyph glyph-name="ebreve" unicode="&#x115;" horiz-adv-x="2048" 
d="M1024 -176q-194 0 -370.5 75.5t-304.5 203.5t-203.5 304.5t-75.5 370.5t75.5 370.5t203.5 304.5t304.5 204t370.5 76t370.5 -76t304.5 -204t203.5 -304.5t75.5 -370.5q0 -130 -34.5 -254.5t-96.5 -229t-150.5 -192t-193 -149t-227.5 -95.5t-252 -34zM1024 -111
q242 0 446.5 119t323.5 323.5t119 446.5t-119 446.5t-323.5 323.5t-446.5 119q-182 0 -347.5 -71t-283.5 -191t-188 -284t-70 -343q0 -242 119 -446.5t323.5 -323.5t446.5 -119zM1085 289q-83 0 -117 46.5t-34 143.5v899h143v-911q0 -57 39 -57q22 0 31 4l20 -111
q-54 -14 -82 -14z" />
    <glyph glyph-name="Edotaccent" unicode="&#x116;" horiz-adv-x="2048" 
d="M1024 -176q-194 0 -370.5 75.5t-304.5 203.5t-203.5 304.5t-75.5 370.5t75.5 370.5t203.5 304.5t304.5 204t370.5 76t370.5 -76t304.5 -204t203.5 -304.5t75.5 -370.5q0 -130 -34.5 -254.5t-96.5 -229t-150.5 -192t-193 -149t-227.5 -95.5t-252 -34zM1024 -111
q242 0 446.5 119t323.5 323.5t119 446.5t-119 446.5t-323.5 323.5t-446.5 119q-182 0 -347.5 -71t-283.5 -191t-188 -284t-70 -343q0 -242 119 -446.5t323.5 -323.5t446.5 -119zM504 397v738h117l14 -105h4q54 59 109 91t124 32q74 0 127.5 -35.5t77.5 -103.5
q64 66 122.5 102.5t125.5 36.5q118 0 173.5 -77.5t55.5 -213.5v-465h-143v445q0 93 -30 140.5t-105 47.5q-71 0 -174 -106v-527h-146v445q0 93 -29.5 140.5t-103.5 47.5q-40 0 -80.5 -24.5t-95.5 -81.5v-527h-143z" />
    <glyph glyph-name="edotaccent" unicode="&#x117;" horiz-adv-x="2048" 
d="M1024 -176q-194 0 -370.5 75.5t-304.5 203.5t-203.5 304.5t-75.5 370.5t75.5 370.5t203.5 304.5t304.5 204t370.5 76t370.5 -76t304.5 -204t203.5 -304.5t75.5 -370.5q0 -130 -34.5 -254.5t-96.5 -229t-150.5 -192t-193 -149t-227.5 -95.5t-252 -34zM1024 -111
q242 0 446.5 119t323.5 323.5t119 446.5t-119 446.5t-323.5 323.5t-446.5 119q-182 0 -347.5 -71t-283.5 -191t-188 -284t-70 -343q0 -242 119 -446.5t323.5 -323.5t446.5 -119zM721 397v738h117l14 -105h4q123 123 250 123q231 0 231 -291v-465h-143v445q0 95 -29 141.5
t-108 46.5q-83 0 -191 -108v-525h-145z" />
    <glyph glyph-name="Eogonek" unicode="&#x118;" horiz-adv-x="2048" 
d="M1024 -176q-194 0 -370.5 75.5t-304.5 203.5t-203.5 304.5t-75.5 370.5t75.5 370.5t203.5 304.5t304.5 204t370.5 76t370.5 -76t304.5 -204t203.5 -304.5t75.5 -370.5q0 -130 -34.5 -254.5t-96.5 -229t-150.5 -192t-193 -149t-227.5 -95.5t-252 -34zM1024 -111
q242 0 446.5 119t323.5 323.5t119 446.5t-119 446.5t-323.5 323.5t-446.5 119q-182 0 -347.5 -71t-283.5 -191t-188 -284t-70 -343q0 -242 119 -446.5t323.5 -323.5t446.5 -119zM1022 379q-145 0 -246.5 106.5t-101.5 280.5q0 177 101 282t247 105q147 0 248.5 -105
t101.5 -282q0 -175 -102 -281t-248 -106zM1022 500q93 0 147 73t54 193q0 123 -54 195.5t-147 72.5q-92 0 -145.5 -72.5t-53.5 -195.5q0 -120 54 -193t145 -73z" />
    <glyph glyph-name="eogonek" unicode="&#x119;" horiz-adv-x="2048" 
d="M1024 -176q-194 0 -370.5 75.5t-304.5 203.5t-203.5 304.5t-75.5 370.5t75.5 370.5t203.5 304.5t304.5 204t370.5 76t370.5 -76t304.5 -204t203.5 -304.5t75.5 -370.5q0 -130 -34.5 -254.5t-96.5 -229t-150.5 -192t-193 -149t-227.5 -95.5t-252 -34zM1024 -111
q242 0 446.5 119t323.5 323.5t119 446.5t-119 446.5t-323.5 323.5t-446.5 119q-182 0 -347.5 -71t-283.5 -191t-188 -284t-70 -343q0 -242 119 -446.5t323.5 -323.5t446.5 -119zM737 217v1032h113l16 -84h8q107 103 226 103q145 0 221 -98.5t76 -274.5q0 -185 -92 -293
t-226 -108q-51 0 -107.5 23t-99.5 63l7 -142v-221h-142zM1055 614q88 0 140 72.5t52 204.5q0 256 -180 256q-94 0 -188 -94v-369q90 -70 176 -70z" />
    <glyph glyph-name="Ecaron" unicode="&#x11a;" horiz-adv-x="2048" 
d="M1024 -176q-194 0 -370.5 75.5t-304.5 203.5t-203.5 304.5t-75.5 370.5t75.5 370.5t203.5 304.5t304.5 204t370.5 76t370.5 -76t304.5 -204t203.5 -304.5t75.5 -370.5q0 -130 -34.5 -254.5t-96.5 -229t-150.5 -192t-193 -149t-227.5 -95.5t-252 -34zM1024 -111
q242 0 446.5 119t323.5 323.5t119 446.5t-119 446.5t-323.5 323.5t-446.5 119q-182 0 -347.5 -71t-283.5 -191t-188 -284t-70 -343q0 -242 119 -446.5t323.5 -323.5t446.5 -119zM1186 217v236l8 133q-92 -92 -209 -92q-148 0 -231.5 102t-83.5 287q0 173 95 279t226 106
q115 0 207 -92h6l15 73h110v-1032h-143zM1014 616q90 0 172 82v375q-77 74 -174 74q-79 0 -137 -73t-58 -191q0 -127 49.5 -197t147.5 -70z" />
    <glyph glyph-name="ecaron" unicode="&#x11b;" horiz-adv-x="2048" 
d="M1024 -176q-194 0 -370.5 75.5t-304.5 203.5t-203.5 304.5t-75.5 370.5t75.5 370.5t203.5 304.5t304.5 204t370.5 76t370.5 -76t304.5 -204t203.5 -304.5t75.5 -370.5q0 -130 -34.5 -254.5t-96.5 -229t-150.5 -192t-193 -149t-227.5 -95.5t-252 -34zM1024 -111
q242 0 446.5 119t323.5 323.5t119 446.5t-119 446.5t-323.5 323.5t-446.5 119q-182 0 -347.5 -71t-283.5 -191t-188 -284t-70 -343q0 -242 119 -446.5t323.5 -323.5t446.5 -119zM846 397v738h115l14 -129h8q83 147 211 147q59 0 84 -14l-27 -131q-36 12 -73 12
q-123 0 -187 -160v-463h-145z" />
    <glyph glyph-name="Gcircumflex" unicode="&#x11c;" horiz-adv-x="2048" 
d="M1024 -176q-194 0 -370.5 75.5t-304.5 203.5t-203.5 304.5t-75.5 370.5t75.5 370.5t203.5 304.5t304.5 204t370.5 76t370.5 -76t304.5 -204t203.5 -304.5t75.5 -370.5q0 -130 -34.5 -254.5t-96.5 -229t-150.5 -192t-193 -149t-227.5 -95.5t-252 -34zM1024 -111
q242 0 446.5 119t323.5 323.5t119 446.5t-119 446.5t-323.5 323.5t-446.5 119q-182 0 -347.5 -71t-283.5 -191t-188 -284t-70 -343q0 -242 119 -446.5t323.5 -323.5t446.5 -119zM1028 379q-150 0 -285 100l70 96q115 -83 217 -83q64 0 98.5 29t34.5 75q0 41 -37 66.5
t-111 54.5q-11 4 -16 6q-47 17 -79.5 33.5t-67.5 42.5t-53.5 62t-18.5 81q0 89 69.5 150t184.5 61q133 0 246 -84l-72 -92q-89 63 -168 63q-58 0 -89 -27t-31 -65q0 -42 36.5 -66t111.5 -52q3 0 4 -0.5t3.5 -1.5t4 -1.5t3.5 -1.5l78 -32q139 -60 139 -187q0 -101 -73 -164
t-199 -63z" />
    <glyph glyph-name="gcircumflex" unicode="&#x11d;" horiz-adv-x="2048" 
d="M1024 -176q-194 0 -370.5 75.5t-304.5 203.5t-203.5 304.5t-75.5 370.5t75.5 370.5t203.5 304.5t304.5 204t370.5 76t370.5 -76t304.5 -204t203.5 -304.5t75.5 -370.5q0 -130 -34.5 -254.5t-96.5 -229t-150.5 -192t-193 -149t-227.5 -95.5t-252 -34zM1024 -111
q242 0 446.5 119t323.5 323.5t119 446.5t-119 446.5t-323.5 323.5t-446.5 119q-182 0 -347.5 -71t-283.5 -191t-188 -284t-70 -343q0 -242 119 -446.5t323.5 -323.5t446.5 -119zM1108 356q-117 0 -168 67t-51 191v379h-111v111l113 6l18 205h121v-205h201v-117h-201v-381
q0 -139 115 -139q26 0 82 16l28 -106q-75 -27 -147 -27z" />
    <glyph glyph-name="Gbreve" unicode="&#x11e;" horiz-adv-x="2048" 
d="M1024 -176q-194 0 -370.5 75.5t-304.5 203.5t-203.5 304.5t-75.5 370.5t75.5 370.5t203.5 304.5t304.5 204t370.5 76t370.5 -76t304.5 -204t203.5 -304.5t75.5 -370.5q0 -130 -34.5 -254.5t-96.5 -229t-150.5 -192t-193 -149t-227.5 -95.5t-252 -34zM1024 -111
q242 0 446.5 119t323.5 323.5t119 446.5t-119 446.5t-323.5 323.5t-446.5 119q-182 0 -347.5 -71t-283.5 -191t-188 -284t-70 -343q0 -242 119 -446.5t323.5 -323.5t446.5 -119zM948 379q-233 0 -233 289v467h145v-445q0 -99 27.5 -141.5t109.5 -42.5q89 0 193 104v525h143
v-738h-116l-17 103h-6q-121 -121 -246 -121z" />
    <glyph glyph-name="gbreve" unicode="&#x11f;" horiz-adv-x="2048" 
d="M1024 -176q-194 0 -370.5 75.5t-304.5 203.5t-203.5 304.5t-75.5 370.5t75.5 370.5t203.5 304.5t304.5 204t370.5 76t370.5 -76t304.5 -204t203.5 -304.5t75.5 -370.5q0 -130 -34.5 -254.5t-96.5 -229t-150.5 -192t-193 -149t-227.5 -95.5t-252 -34zM1024 -111
q242 0 446.5 119t323.5 323.5t119 446.5t-119 446.5t-323.5 323.5t-446.5 119q-182 0 -347.5 -71t-283.5 -191t-188 -284t-70 -343q0 -242 119 -446.5t323.5 -323.5t446.5 -119zM940 397l-264 738h143l133 -402l70 -221h8l203 623h143l-266 -738h-170z" />
    <glyph glyph-name="Gdotaccent" unicode="&#x120;" horiz-adv-x="2048" 
d="M1024 -176q-194 0 -370.5 75.5t-304.5 203.5t-203.5 304.5t-75.5 370.5t75.5 370.5t203.5 304.5t304.5 204t370.5 76t370.5 -76t304.5 -204t203.5 -304.5t75.5 -370.5q0 -130 -34.5 -254.5t-96.5 -229t-150.5 -192t-193 -149t-227.5 -95.5t-252 -34zM1024 -111
q242 0 446.5 119t323.5 323.5t119 446.5t-119 446.5t-323.5 323.5t-446.5 119q-182 0 -347.5 -71t-283.5 -191t-188 -284t-70 -343q0 -242 119 -446.5t323.5 -323.5t446.5 -119zM707 397l-203 738h149l99 -408l43 -211h10l47 211l109 408h131l112 -408l53 -211h7l47 211
l96 408h139l-198 -738h-174l-99 373l-47 209h-6l-45 -209l-98 -373h-172z" />
    <glyph glyph-name="gdotaccent" unicode="&#x121;" horiz-adv-x="2048" 
d="M1024 -176q-194 0 -370.5 75.5t-304.5 203.5t-203.5 304.5t-75.5 370.5t75.5 370.5t203.5 304.5t304.5 204t370.5 76t370.5 -76t304.5 -204t203.5 -304.5t75.5 -370.5q0 -130 -34.5 -254.5t-96.5 -229t-150.5 -192t-193 -149t-227.5 -95.5t-252 -34zM1024 -111
q242 0 446.5 119t323.5 323.5t119 446.5t-119 446.5t-323.5 323.5t-446.5 119q-182 0 -347.5 -71t-283.5 -191t-188 -284t-70 -343q0 -242 119 -446.5t323.5 -323.5t446.5 -119zM690 397l246 385l-227 353h159l166 -269h8l62 117l84 152h151l-223 -367l240 -371h-158
l-178 283h-8l-78 -125l-90 -158h-154z" />
    <glyph glyph-name="Gcommaaccent" unicode="&#x122;" horiz-adv-x="2048" 
d="M1024 -176q-194 0 -370.5 75.5t-304.5 203.5t-203.5 304.5t-75.5 370.5t75.5 370.5t203.5 304.5t304.5 204t370.5 76t370.5 -76t304.5 -204t203.5 -304.5t75.5 -370.5q0 -130 -34.5 -254.5t-96.5 -229t-150.5 -192t-193 -149t-227.5 -95.5t-252 -34zM1024 -111
q242 0 446.5 119t323.5 323.5t119 446.5t-119 446.5t-323.5 323.5t-446.5 119q-182 0 -347.5 -71t-283.5 -191t-188 -284t-70 -343q0 -242 119 -446.5t323.5 -323.5t446.5 -119zM831 209q-66 0 -94 14l29 115q34 -12 55 -12q58 0 99.5 39.5t62.5 107.5l14 45l-297 731h146
l143 -385q11 -32 35 -102.5t37 -108.5h8q11 36 31.5 105.5t32.5 105.5l118 385h142l-271 -776q-47 -129 -114 -196.5t-177 -67.5z" />
    <glyph glyph-name="gcommaaccent" unicode="&#x123;" horiz-adv-x="2048" 
d="M1024 -176q-194 0 -370.5 75.5t-304.5 203.5t-203.5 304.5t-75.5 370.5t75.5 370.5t203.5 304.5t304.5 204t370.5 76t370.5 -76t304.5 -204t203.5 -304.5t75.5 -370.5q0 -130 -34.5 -254.5t-96.5 -229t-150.5 -192t-193 -149t-227.5 -95.5t-252 -34zM1024 -111
q242 0 446.5 119t323.5 323.5t119 446.5t-119 446.5t-323.5 323.5t-446.5 119q-182 0 -347.5 -71t-283.5 -191t-188 -284t-70 -343q0 -242 119 -446.5t323.5 -323.5t446.5 -119zM741 397v80l381 541h-336v117h521v-82l-381 -539h391v-117h-576z" />
    <glyph glyph-name="Hcircumflex" unicode="&#x124;" horiz-adv-x="2048" 
d="M2048 1290l-512 512h102l410 -409v-103zM2048 778l-1024 1024h102l922 -921v-103zM2048 266l-1536 1536h102l1434 -1433v-103zM2048 -246l-2048 2048h102l1946 -1945v-103zM1536 -246l-1536 1536v103l1638 -1639h-102zM1024 -246l-1024 1024v103l1126 -1127h-102z
M512 -246l-512 512v103l614 -615h-102zM0 -246v103l102 -103h-102z" />
    <glyph glyph-name="hcircumflex" unicode="&#x125;" horiz-adv-x="2048" 
d="M205 1597h1638v-1638h-1638v1638z" />
    <glyph glyph-name="Hbar" unicode="&#x126;" horiz-adv-x="2048" 
d="M205 1597h1638v-1638h-1638v1638zM281 1522v-1487h1486v1487h-1486z" />
    <glyph glyph-name="hbar" unicode="&#x127;" horiz-adv-x="2048" 
d="M205 1597h1638v-1638h-1638v1638zM281 1522v-1487h1486v1487h-1486zM684 438v680h680v-680h-680z" />
    <glyph glyph-name="Itilde" unicode="&#x128;" horiz-adv-x="2048" 
d="M205 1597h1638v-1638h-1638v1638zM1767 1522h-1486v-314h1486v314zM281 817h1486v316h-1486v-316zM1767 739h-1486v-315h1486v315zM281 35h1486v313h-1486v-313z" />
    <glyph glyph-name="itilde" unicode="&#x129;" horiz-adv-x="2048" 
d="M205 1597h1638v-1638h-1638v1638zM1767 35v1487h-313v-1487h313zM281 1522v-1487h313v1487h-313zM985 35v1487h-315v-1487h315zM1063 1522v-1487h315v1487h-315z" />
    <glyph glyph-name="Imacron" unicode="&#x12a;" horiz-adv-x="2048" 
d="M205 1597h1638v-1638h-1638v1638zM594 1522h-313v-314h313v314zM985 1208v314h-315v-314h315zM1063 1208h315v314h-315v-314zM1767 1208v314h-313v-314h313zM1454 817h313v316h-313v-316zM594 817v316h-313v-316h313zM985 1133h-315v-316h315v316zM1378 1133h-315v-316
h315v316zM1454 739v-315h313v315h-313zM1063 424h315v315h-315v-315zM670 739v-315h315v315h-315zM594 739h-313v-315h313v315zM1454 35h313v313h-313v-313zM281 348v-313h313v313h-313zM1063 348v-313h315v313h-315zM985 348h-315v-313h315v313z" />
    <glyph glyph-name="imacron" unicode="&#x12b;" horiz-adv-x="2048" 
d="M205 1597h1638v-1638h-1638v1638zM1767 1253v269h-268zM1767 760l-761 762h-283l1044 -1045v283zM1767 868v277l-376 377h-277zM334 1522l1433 -1436v287l-1149 1149h-284zM281 1182l1146 -1147h287l-1433 1433v-286zM281 795l757 -760h285l-1042 1042v-282zM281 688
v-278l372 -375h281zM281 303v-268h268z" />
    <glyph glyph-name="Ibreve" unicode="&#x12c;" horiz-adv-x="2048" 
d="M205 1597h1638v-1638h-1638v1638zM553 1522h-272v-273zM1436 1522l-1155 -1153v-287l1439 1440h-284zM281 864l657 658h-279l-378 -379v-279zM1044 1522l-763 -764v-283l1046 1047h-283zM627 35l1140 1143v286l-1429 -1429h289zM1012 35l755 756v282l-1036 -1038h281z
M1767 682l-645 -647h277l368 371v276zM1507 35h260v262z" />
    <glyph glyph-name="ibreve" unicode="&#x12d;" horiz-adv-x="2048" 
d="M205 1597h1638v-1638h-1638v1638zM1499 1522l111 -111l110 111h-221zM1221 1415l106 107h-213zM831 1415l107 107h-215zM442 1411l111 111h-219zM1026 1221l141 141l-141 141l-141 -141zM635 1219l143 143l-139 139l-143 -143zM1417 1219l139 139l-143 141l-139 -137z
M391 1360l-110 108v-219zM1663 1360l104 -107v211zM973 1167l-142 142l-143 -144l141 -141zM584 1167l-140 140l-143 -144l139 -139zM1223 1024l141 141l-143 142l-142 -142zM1614 1022l137 139l-143 144l-138 -138zM494 971l141 -142l143 144l-141 141zM885 971l141 -144
l143 144l-143 143zM1417 827l142 142l-144 143l-141 -141zM387 971l-106 106v-213zM1665 971l102 -103v205zM1079 776l144 -145l143 143l-143 146zM582 776l-142 142l-141 -142l141 -141zM688 774l143 -141l144 143l-144 142zM1470 774l142 -139l141 141l-141 139zM635 723
l-141 -141l143 -144l141 142zM1026 723l-143 -143l143 -144l143 144zM1417 723l-143 -143l141 -142l144 144zM387 582l-106 106v-213zM1665 580l102 -103v205zM688 385l146 -143l141 141l-144 145zM440 528l-139 -139l143 -143l140 139zM1079 383l142 -139l143 143l-141 139
zM1470 383l138 -137l143 143l-137 137zM637 334l-141 -141l145 -144l139 139zM1026 332l-141 -144l141 -139l141 141zM1417 332l-143 -144l139 -139l143 144zM391 193l-110 110v-221zM1663 190l104 -104v211zM444 141l-106 -106h211zM1610 139l-103 -104h207zM831 137
l-100 -102h203zM1223 135l-101 -100h201z" />
    <glyph glyph-name="Iogonek" unicode="&#x12e;" horiz-adv-x="2048" 
d="M1024 1692l963 -1667h-1926z" />
    <glyph glyph-name="iogonek" unicode="&#x12f;" horiz-adv-x="2048" 
d="M1024 1692l963 -1667h-1926zM1024 1540l-831 -1440h1662z" />
    <glyph glyph-name="Idotaccent" unicode="&#x130;" horiz-adv-x="2048" 
d="M1917 772l-1667 -962v1925z" />
    <glyph glyph-name="dotlessi" unicode="&#x131;" horiz-adv-x="2048" 
d="M1917 772l-1667 -962v1925zM1765 772l-1439 832v-1663z" />
    <glyph glyph-name="IJ" unicode="&#x132;" horiz-adv-x="2048" 
d="M61 1532h1926l-963 -1667z" />
    <glyph glyph-name="ij" unicode="&#x133;" horiz-adv-x="2048" 
d="M61 1532h1926l-963 -1667zM1855 1456h-1662l831 -1440z" />
    <glyph glyph-name="Jcircumflex" unicode="&#x134;" horiz-adv-x="2048" 
d="M1798 1735v-1925l-1667 962z" />
    <glyph glyph-name="jcircumflex" unicode="&#x135;" horiz-adv-x="2048" 
d="M1798 1735v-1925l-1667 962zM1722 -59v1663l-1439 -832z" />
    <glyph glyph-name="Kcommaaccent" unicode="&#x136;" horiz-adv-x="2048" 
d="M1024 1778l999 -1000l-999 -999l-999 999z" />
    <glyph glyph-name="kcommaaccent" unicode="&#x137;" horiz-adv-x="2048" 
d="M1024 1778l999 -1000l-999 -999l-999 999zM1024 1669l-891 -891l891 -891l891 891z" />
    <glyph glyph-name="kgreenlandic" unicode="&#x138;" horiz-adv-x="2048" 
d="M1024 1778l999 -1000l-999 -999l-999 999zM1024 1669l-891 -891l891 -891l891 891zM332 778l692 692l692 -692l-692 -692z" />
    <glyph glyph-name="Lacute" unicode="&#x139;" horiz-adv-x="2048" 
d="M1024 -143q-187 0 -357.5 73t-294.5 196.5t-197 294t-73 357.5q0 150 46.5 290.5t132 254t199 199t254 132t290.5 46.5t290.5 -46.5t254 -132t199 -199t132 -254t46.5 -290.5q0 -187 -73 -357.5t-197 -294t-294.5 -196.5t-357.5 -73zM178 778q0 -230 113.5 -424.5
t308 -308t424.5 -113.5t424.5 113.5t308 308t113.5 424.5t-113.5 424.5t-308 308t-424.5 113.5t-424.5 -113.5t-308 -308t-113.5 -424.5z" />
    <glyph glyph-name="lacute" unicode="&#x13a;" horiz-adv-x="2048" 
d="M102 778q0 150 46.5 290.5t132 254t199 199t254 132t290.5 46.5t290.5 -46.5t254 -132t199 -199t132 -254t46.5 -290.5q0 -187 -73 -357.5t-197 -294t-294.5 -196.5t-357.5 -73t-357.5 73t-294.5 196.5t-197 294t-73 357.5zM1870 778q0 230 -113.5 424.5t-308 308
t-424.5 113.5t-424.5 -113.5t-308 -308t-113.5 -424.5t113.5 -424.5t308 -308t424.5 -113.5t424.5 113.5t308 308t113.5 424.5zM418 778q0 165 81 304.5t220.5 220.5t304.5 81t304.5 -81t220.5 -220.5t81 -304.5t-81 -304.5t-220.5 -220.5t-304.5 -81t-304.5 81
t-220.5 220.5t-81 304.5zM1567 778q0 147 -73 272t-198 198t-272 73t-272 -73t-198 -198t-73 -272t73 -272t198 -197.5t272 -72.5t272 72.5t198 197.5t73 272z" />
    <glyph glyph-name="Lcommaaccent" unicode="&#x13b;" horiz-adv-x="2048" 
d="M1024 -143q-187 0 -357.5 73t-294.5 196.5t-197 294t-73 357.5q0 150 46.5 290.5t132 254t199 199t254 132t290.5 46.5t290.5 -46.5t254 -132t199 -199t132 -254t46.5 -290.5q0 -187 -73 -357.5t-197 -294t-294.5 -196.5t-357.5 -73z" />
    <glyph glyph-name="lcommaaccent" unicode="&#x13c;" horiz-adv-x="2048" 
d="M1925 778q0 -183 -71.5 -350t-192 -287.5t-287.5 -192t-350 -71.5t-350 71.5t-287.5 192t-192 287.5t-71.5 350t71.5 350t192 287.5t287.5 192t350 71.5t350 -71.5t287.5 -192t192 -287.5t71.5 -350zM1024 1618v-1679q172 0 327.5 66t268 178t178.5 267.5t66 327.5
q0 230 -112 423t-305 305t-423 112z" />
    <glyph glyph-name="Lcaron" unicode="&#x13d;" horiz-adv-x="2048" 
d="M1925 778q0 -183 -71.5 -350t-192 -287.5t-287.5 -192t-350 -71.5t-350 71.5t-287.5 192t-192 287.5t-71.5 350t71.5 350t192 287.5t287.5 192t350 71.5t350 -71.5t287.5 -192t192 -287.5t71.5 -350zM1024 -61v1679q-230 0 -423 -112t-305 -305t-112 -423
q0 -172 66 -327.5t178.5 -267.5t268 -178t327.5 -66z" />
    <glyph glyph-name="lcaron" unicode="&#x13e;" horiz-adv-x="2048" 
d="M1253 993h717v-8l-579 -420l227 -692l-6 -2l-588 426l-588 -426l-6 2l227 692l-579 420v8h717l225 688h8z" />
    <glyph glyph-name="Ldot" unicode="&#x13f;" horiz-adv-x="2048" 
d="M795 993l221 688h16l221 -688h717l2 -18l-581 -410l231 -686l-14 -12l-584 430l-584 -430l-14 12l231 686l-581 410l2 18h717zM850 918h-385l-203 10v-4l178 -113l308 -217l-115 -340l-84 -217l4 -2l184 145l287 211l287 -211l184 -145l4 2l-84 217l-115 340l308 217
l178 113v4l-205 -10h-383l-119 366l-53 199h-4l-55 -199z" />
    <glyph glyph-name="ldot" unicode="&#x140;" horiz-adv-x="2048" 
d="M674 1167h-219l84 -217q8 -13 8 -37v-3v-6t-1 -6t-3 -7t-6 -6.5t-10.5 -6t-14.5 -4.5l-373 -63q-31 0 -44 12.5t-13 44.5q0 43 4 86.5t14.5 99t34.5 103t58 74.5q138 104 328.5 154.5t502.5 50.5t502.5 -50.5t328.5 -154.5q34 -27 58 -74.5t34.5 -103t14.5 -99t4 -86.5
q0 -32 -13 -44.5t-44 -12.5l-373 63q-8 2 -14.5 4.5t-10.5 6t-6 6.5t-3 7t-1 6v6v3q0 24 8 37l84 217h-219v-131q0 -99 58 -188t186 -209q188 -185 188 -487q0 -51 -21 -74t-73 -23h-1376q-52 0 -73 23t-21 74q0 302 188 487q128 120 186 209t58 188v131zM1198 1167h-348
v-196h348v196zM680 512q0 -142 101 -243t243 -101t243 101t101 243t-101 243t-243 101t-243 -101t-101 -243z" />
    <glyph glyph-name="Lslash" unicode="&#x141;" horiz-adv-x="2048" 
d="M645 1139h-149l69 -178v2q8 -18 8 -45q0 -56 -57 -72l-373 -64q-42 0 -66 22t-24 64q0 59 7.5 123t36.5 144t77 118q138 107 335.5 159t514.5 52t514.5 -52t335.5 -159q37 -28 63 -79.5t37.5 -111.5t16 -106t4.5 -88t-24 -64t-66 -22l-375 64q-55 15 -55 72q0 27 8 45v-2
l69 178h-149v-103q0 -94 54 -175t181 -202q197 -197 197 -507q0 -59 -31 -92t-92 -33h-1376q-61 0 -92 33t-31 92q0 310 197 507q127 121 181 202t54 175v103zM512 940l-98 256h288v-160q0 -108 -61.5 -202.5t-189.5 -215.5q-99 -93 -140 -207t-41 -259q0 -39 14 -53.5
t52 -14.5h1376q38 0 52 14.5t14 53.5q0 145 -41 259t-140 207q-129 123 -190 217t-61 201v160h288l-98 -256v-2q-6 -15 -6 -23q0 -9 10 -12l373 -63q17 0 20.5 4.5t3.5 23.5q0 41 -3.5 82.5t-13 94t-31 96.5t-52.5 67q-133 102 -318.5 150.5t-494.5 48.5t-494.5 -48.5
t-318.5 -150.5q-31 -23 -52.5 -67t-31 -96.5t-13 -94t-3.5 -82.5q0 -19 3.5 -23.5t20.5 -4.5l371 63q12 3 12 12q0 8 -6 23v2zM821 942v254h406v-254h-406zM1169 1139h-290v-140h290v140zM1397 512q0 -152 -110.5 -262.5t-262.5 -110.5t-262.5 110.5t-110.5 262.5
t110.5 262.5t262.5 110.5t262.5 -110.5t110.5 -262.5zM709 512q0 -130 92.5 -222.5t222.5 -92.5t222.5 92.5t92.5 222.5t-92.5 222.5t-222.5 92.5t-222.5 -92.5t-92.5 -222.5z" />
    <glyph glyph-name="lslash" unicode="&#x142;" horiz-adv-x="2048" 
d="M1946 375l-162 18q-29 0 -43 -6q-337 -154 -629 -154q-47 0 -107 7.5t-85 15.5h-17l-18 -2q-93 0 -154 45t-67 135q0 6 -5 6q-4 4 -8 4l-8 5h-4q-80 50 -86 163q0 12 -8 15q-51 25 -68 63q-18 34 -18 68q0 59 39 98l6 4q4 4 4 6q0 6 -8 6q-25 0 -76 -1t-74 -1h-67
q-38 0 -52 2q-174 13 -174 129q0 35 15.5 61t44.5 41.5t54 24t60 15.5q116 19 424.5 45t438.5 26q245 0 682 -182q2 -2 18 -2l152 19q30 0 30 -29v-617q0 4 -2 -1q-1 -5 -2 -13q-8 -14 -26 -14zM1901 987l-111 -14q-22 0 -27 4q-182 78 -350.5 127t-257.5 49
q-78 0 -125.5 -13t-101.5 -48l-35 -25q-3 -2 -41 -32t-61.5 -50.5t-47.5 -50t-24 -49.5q0 -9 2 -11q3 -7 8 -12.5t9.5 -9t11 -6t11 -4t11 -2t10 -0.5h9h6.5q43 0 176.5 41.5t179.5 62.5q2 2 12 2q15 0 21 -10q41 -55 164 -121q135 -72 266 -72q12 0 23.5 -6t11.5 -16
q0 -51 -174 -51q-49 0 -111 6q-119 0 -119 -117q0 -105 -45.5 -159t-150.5 -103q-4 0 -4 -2t2 -2l2 -2q23 -2 73 -2q259 0 617 160q5 4 26 4l129 -17q25 0 25 21v514q0 16 -20 16zM551 930q120 0 160 49q23 24 76.5 67.5t70.5 59.5v2q1 4 2 8.5t1.5 6.5t0.5 3q0 15 -2 17
q0 6 -6 6q-494 -35 -612 -62q-45 -9 -74 -21t-39.5 -25.5t-13 -21t-2.5 -18.5q0 -30 25.5 -49t97.5 -24q47 -3 86 -2.5t115.5 2.5t113.5 2zM616 664q90 -16 134 -5q35 4 79.5 13.5t101 26t93.5 45t37 61.5q0 16 -2 18q-3 17 -21 17q-8 0 -10 -2q-72 -19 -141 -39
q-64 -13 -88 -13q-49 0 -80 17t-53 63q-6 13 -21 13q-10 0 -12 -2q-119 -49 -119 -107q0 -50 24.5 -72t77.5 -34zM803 475q45 0 123.5 24t147.5 69.5t69 93.5q0 29 -19 51q-10 8 -24 8q-10 0 -19 -6q-16 -7 -57 -29t-63 -31q-122 -53 -273 -53h-33q-6 0 -34 4q-11 0 -11 -10
q6 -33 18.5 -56t28 -35.5t41 -19.5t47.5 -8.5t58 -1.5zM874 309q47 0 116.5 22t127.5 64.5t58 87.5q0 17 -9 35.5t-24 18.5q-18 0 -41 -15q-63 -43 -151.5 -72.5t-147.5 -29.5q-28 0 -74 4q-8 0 -8 -6q11 -55 52.5 -82t100.5 -27z" />
    <glyph glyph-name="Nacute" unicode="&#x143;" horiz-adv-x="2048" 
d="M950 1214q130 0 438 -26t424 -45q28 -6 48 -11.5t46 -17t42 -25.5t27.5 -37t11.5 -51q0 -51 -40 -86.5t-135 -42.5q-14 -2 -51 -2h-65q-24 0 -76 1t-76 1q-8 0 -8 -6q0 -2 4 -6l6 -4q39 -39 39 -98q0 -34 -18 -68q-17 -38 -68 -63q-8 -3 -8 -15q-6 -113 -86 -163h-4
q0 -1 -2 -3l-6 -2q-5 0 -9 -4q-4 0 -4 -6q-6 -92 -66.5 -136t-154.5 -44l-18 2h-17q-25 -8 -85 -15.5t-107 -7.5q-292 0 -629 154q-21 6 -43 6l-162 -18q-18 0 -26 14l-4 15v-1v617q0 29 30 29l152 -19q16 0 18 2q437 182 682 182zM303 449q358 -160 617 -160q50 0 75 4l2 2
q0 2 -4 2q-105 49 -150.5 103t-45.5 159q0 117 -119 117q-62 -6 -111 -6q-174 0 -174 51q0 10 11.5 16t23.5 6q131 0 266 72q123 66 164 121q6 10 21 10q10 0 12 -2q46 -21 179.5 -62.5t176.5 -41.5h6.5h9t10 0.5t11 2t11 4t11 6t9.5 9t8 12.5q2 2 2 11q0 26 -39 67
q-32 34 -133 115l-37 25q-54 35 -101.5 48t-125.5 13q-89 0 -257.5 -49t-350.5 -127q-5 -4 -27 -4l-111 14q-20 0 -20 -16v-514q0 -21 24 -21l129 17q22 0 27 -4zM1493 930q37 0 113.5 -2t115.5 -2.5t86 2.5q72 5 97.5 24t25.5 49q0 11 -2.5 18.5t-13 21t-39.5 25.5t-74 21
q-118 27 -612 62q-6 0 -6 -6q-2 -2 -2 -17q0 -1 0.5 -3t1.5 -6.5t2 -8.5v-2q17 -16 70.5 -59.5t76.5 -67.5q40 -49 160 -49zM1427 664q53 12 78 34t25 72q0 58 -119 107q-2 2 -12 2q-15 0 -21 -13q-22 -46 -53 -63t-80 -17q-24 0 -88 13q-69 20 -141 39q-2 2 -10 2
q-18 0 -21 -17q-2 -2 -2 -18q0 -28 26.5 -52t61.5 -39t84.5 -27.5t78.5 -18t60 -9.5q43 -11 133 5zM1241 475q36 0 58 1.5t47.5 8.5t41 19.5t28 35.5t18.5 56q0 10 -11 10q-28 -4 -34 -4h-33q-151 0 -273 53q-22 9 -63 31t-57 29q-9 6 -19 6q-14 0 -24 -8q-19 -22 -19 -51
q0 -48 69 -93.5t147.5 -69.5t123.5 -24zM1169 309q59 0 101 27.5t53 81.5q0 6 -8 6q-46 -4 -74 -4q-59 0 -147.5 29.5t-151.5 72.5q-23 15 -41 15q-15 0 -24 -18.5t-9 -35.5v-3q-1 -4 -0.5 -6.5l1.5 -7.5t3.5 -10t8 -12t12.5 -14q52 -52 129 -86.5t147 -34.5z" />
    <glyph glyph-name="nacute" unicode="&#x144;" horiz-adv-x="2048" 
d="M582 1237q0 186 128.5 314t313.5 128t313.5 -128t128.5 -314q0 -162 -106 -285.5t-266 -148.5v-221h585v-140h-585v-565h-140v565h-585v140h585v221q-160 25 -266 148.5t-106 285.5zM1325 1237q0 126 -88 213.5t-213 87.5t-213 -87.5t-88 -213.5q0 -124 88 -211.5
t213 -87.5t213 87.5t88 211.5z" />
    <glyph glyph-name="Ncommaaccent" unicode="&#x145;" horiz-adv-x="2048" 
d="M1122 434q0 -183 -129.5 -312.5t-312.5 -129.5t-312.5 129.5t-129.5 312.5t129.5 313t312.5 130q138 0 254 -84l590 587h-527v142h770v-770h-141v532l-592 -590q88 -115 88 -260zM379 434q0 -124 88.5 -212.5t212.5 -88.5t212.5 88.5t88.5 212.5t-88.5 212.5t-212.5 88.5
t-212.5 -88.5t-88.5 -212.5z" />
    <glyph glyph-name="ncommaaccent" unicode="&#x146;" horiz-adv-x="2048" 
d="M1489 1227q128 -122 170 -168q207 -227 218 -450q1 -14 1 -27q0 -120 -50.5 -221.5t-145 -163.5t-214.5 -62q-116 0 -207.5 55t-130.5 144l-14 35q-7 10 -18 10q-13 0 -13 -37q11 -152 60.5 -247.5t142.5 -174.5q12 -12 12 -22q0 -19 -12 -19h-528q-6 0 -10.5 7t-4.5 12
q0 10 15 22q93 79 142.5 174.5t60.5 247.5q0 37 -13 37t-16 -10l-16 -35q-39 -89 -130.5 -144t-207.5 -55q-119 0 -213.5 62t-145.5 163.5t-51 221.5q0 98 31 188.5t98 177t108 130t124 122.5l9.5 9.5t9 8.5t9.5 9q136 132 269.5 281.5t191.5 236.5l4 4l4 -4
q51 -82 182 -227.5t279 -290.5z" />
    <glyph glyph-name="Ncaron" unicode="&#x147;" horiz-adv-x="2048" 
d="M1030 1329q33 83 83 144t108.5 95t118 50t122.5 16q118 0 216.5 -64.5t156 -178.5t57.5 -252q0 -63 -15 -126t-35.5 -113t-58 -107t-66 -94t-77.5 -88.5t-74 -75t-73 -68.5q-133 -128 -266.5 -288t-196.5 -259l-4 -4l-4 4q-63 99 -196.5 259t-266.5 288q-47 44 -73 68.5
t-74 75.5t-77 88.5t-66.5 94t-58 107t-35.5 113.5t-15 125q0 138 57.5 252t156 178.5t216.5 64.5q133 0 248 -72.5t184 -232.5q2 -2 2 -4l2 -2q1 0 4 6zM1817 1139q0 178 -105 300t-250 122q-134 0 -224 -72t-157 -227q-22 -54 -55 -54t-55 54q-67 155 -157 227t-224 72
q-144 0 -249 -122t-105 -300q0 -74 26.5 -152t62.5 -138t93.5 -128.5t97 -108t96.5 -92.5q123 -112 233 -241.5t177 -229.5l4 -4l4 4q57 92 170 223t242 248l119 119q256 256 256 500z" />
    <glyph glyph-name="ncaron" unicode="&#x148;" horiz-adv-x="2048" 
d="M950 379q-7 0 -10.5 -3.5t-9.5 -17t-12 -24.5q-59 -96 -157.5 -154.5t-217.5 -58.5q-175 0 -293.5 117.5t-118.5 298.5q0 176 118 296.5t296 120.5q88 0 176 -47q2 -2 6 -2q5 0 8 6q2 2 2 7q0 4 -2 6q-133 133 -133 301q0 176 123 301t299 125t299 -124.5t123 -299.5
q0 -88 -35 -165.5t-92 -131.5q-8 -3 -8 -12q0 -5 2 -7q3 -6 8 -6q4 0 6 2q88 47 174 47q181 0 298.5 -120t117.5 -297q0 -181 -118.5 -298.5t-293.5 -117.5q-115 0 -213 56.5t-162 156.5q-5 9 -10 19.5t-7 15t-5.5 7.5t-9.5 3q-13 0 -13 -37q11 -152 60.5 -247.5
t142.5 -174.5q15 -12 15 -22q0 -5 -4.5 -12t-10.5 -7h-526q-14 0 -14 19q0 10 12 22q93 79 142.5 174.5t60.5 247.5q0 37 -13 37z" />
    <glyph glyph-name="napostrophe" unicode="&#x149;" horiz-adv-x="2048" 
d="M1315 -125h-582q-5 0 -8.5 7.5t-3.5 13.5q0 10 12 22q80 74 122.5 152t59.5 188q7 38 7 57q0 9 -2 9l-9 -15v-2q0 -2 -2 -4l-10 -12q0 -4 -4 -8q-49 -72 -135 -113t-185 -41q-119 0 -214.5 63t-146 165.5t-50.5 222.5q0 99 32.5 191.5t99.5 179.5t111 134t125 124
q16 15 23 22q140 131 274 281.5t191 240.5l4 4l4 -4q52 -88 186 -237.5t279 -284.5q131 -125 180 -180q211 -238 211 -471q0 -120 -50.5 -222.5t-146 -165.5t-214.5 -63q-99 0 -185 41t-135 113l-2 2q0 4 -2 6l-10 12q0 4 -4 8l-7 13q-2 0 -2 -9q0 -19 7 -57
q17 -110 59.5 -188t122.5 -152q14 -11 14 -22q0 -6 -4.5 -13.5t-9.5 -7.5zM879 -49h290l2 2q-65 96 -90.5 175.5t-25.5 193.5q0 118 49 118q9 0 16.5 -3t15.5 -11.5t14 -16t18 -24l20 -27.5q108 -153 285 -153q150 0 241.5 109t91.5 268q0 73 -25 147t-57 128.5t-87.5 119
t-90 98t-90.5 85.5q-8 7 -12 11q-128 123 -245.5 252t-170.5 205l-4 4l-4 -4q-85 -134 -416 -457q-40 -36 -56 -51.5t-57.5 -55.5t-63 -66t-56 -69t-53.5 -79.5t-39.5 -81.5t-29.5 -91.5t-9 -94.5q0 -158 92.5 -267.5t242.5 -109.5q177 0 285 153l20 27.5t18 24t14 16
t15.5 11.5t16.5 3q49 0 49 -118q0 -194 -94 -334l-22 -35q0 -2 2 -2z" />
    <glyph glyph-name="Eng" unicode="&#x14a;" horiz-adv-x="2048" 
d="M1034 1303q42 163 156 245t268 82q178 0 303 -142.5t125 -350.5q0 -60 -13.5 -120.5t-33 -109t-54 -102.5t-62.5 -91t-73 -85t-71 -73.5t-70 -67.5q-5 -5 -7.5 -7t-6 -5.5l-6.5 -6.5q-131 -128 -264.5 -288t-196.5 -257l-4 -4l-4 4q-63 97 -196.5 257t-264.5 288
q-135 129 -190 192q-207 239 -207 476q0 208 125 350.5t303 142.5q98 0 181.5 -33.5t148.5 -108.5t94 -185q3 -15 10 -15t10 15z" />
    <glyph glyph-name="eng" unicode="&#x14b;" horiz-adv-x="2048" 
d="M125 539q0 181 117 302.5t299 121.5q44 0 92.5 -12t77.5 -27q2 -2 4 -2q-54 57 -85.5 143t-31.5 166q0 175 125 300.5t301 125.5t301 -125.5t125 -300.5q0 -85 -30.5 -167t-88.5 -140l2 -2q2 0 4 2q29 15 77.5 27t92.5 12q182 0 299 -121.5t117 -302.5
q0 -183 -119.5 -302.5t-294.5 -119.5q-109 0 -203 47t-153 125q-4 5 -8.5 15t-7.5 13q-2 6 -7 11q-1 0 -1.5 -10.5t0.5 -28t4 -31.5q13 -107 57 -183t125 -157q12 -12 12 -22q0 -6 -3.5 -13.5t-8.5 -7.5h-582q-5 0 -9.5 7.5t-4.5 13.5q0 11 14 22q81 81 125 157t57 183
q3 14 4 31.5t0.5 28t-1.5 10.5q-5 -5 -7 -11q-4 -4 -8 -12l-8 -16q-62 -80 -154 -126t-202 -46q-175 0 -294.5 119.5t-119.5 302.5zM707 852q-94 35 -168 35q-148 0 -243 -99.5t-95 -248.5q0 -147 98.5 -246.5t239.5 -99.5q203 0 329 184q3 5 10.5 16t11 16t10 12.5t11.5 11
t12 6.5t15 3q55 0 55 -120q0 -111 -24.5 -188t-73.5 -150l-18 -25q-3 -3 -3 -6l3 -2h294q5 0 5 2q0 1 -5 6l-18 25q-49 73 -73.5 150t-24.5 188q0 120 55 120q11 0 21.5 -7.5t17.5 -16t22 -29t25 -33.5q121 -163 313 -163q141 0 239.5 99.5t98.5 246.5q0 149 -95 248.5
t-243 99.5q-69 0 -168 -37q-52 -10 -55 -10q-53 0 -53 45q0 28 47 86q92 108 92 260q0 142 -103 246t-245 104t-245 -104t-103 -246q0 -152 92 -260q47 -58 47 -86q0 -45 -49 -45q-24 0 -59 12z" />
    <glyph glyph-name="Omacron" unicode="&#x14c;" horiz-adv-x="2048" 
d="M948 936q-88 168 -88 301q0 125 47 222t158 173l63 -33q-141 -129 -141 -282q0 -128 92 -307q88 -168 88 -303q0 -125 -46.5 -221.5t-157.5 -172.5l-64 33q70 64 105.5 138t35.5 145q0 128 -92 307zM594 940q-84 141 -84 268q0 108 41.5 192.5t146.5 153.5l60 -34
q-127 -110 -127 -242q0 -108 92 -272q84 -141 84 -267q0 -112 -41 -195t-148 -153l-59 35q127 106 127 242q0 117 -92 272zM1311 940q-84 147 -84 268q0 108 41 193t149 153l58 -34q-127 -105 -127 -242q0 -108 92 -272q84 -141 84 -267q0 -113 -40.5 -196t-148.5 -152
l-57 35q125 109 125 242q0 117 -92 272zM1890 475q0 -142 -112 -257.5t-310.5 -182t-443.5 -66.5t-443.5 66.5t-310.5 182t-112 257.5q0 127 82 215t221 121l39 -53q-205 -64 -205 -238q0 -106 95 -192.5t262 -135.5t372 -49t372 49t262 135.5t95 192.5q0 174 -205 238
l39 53q139 -33 221 -121t82 -215z" />
    <glyph glyph-name="omacron" unicode="&#x14d;" horiz-adv-x="2048" 
d="M1061 1720h82v-1536q0 -103 -53 -183.5t-138 -122.5t-184 -42q-76 0 -133 40.5t-57 111.5q0 70 53 136.5t135 106t166 39.5q79 0 129 -26v1476z" />
    <glyph glyph-name="Obreve" unicode="&#x14e;" horiz-adv-x="2048" 
d="M995 1720h52q0 -243 237 -450q264 -230 264 -461q0 -223 -172 -500h-53q36 74 56.5 121.5t46.5 140.5t26 168q0 175 -106 305.5t-269 167.5v-1028q0 -103 -53 -183.5t-138 -122.5t-184 -42q-76 0 -133 40.5t-57 111.5q0 70 53 136.5t135 106t166 39.5q79 0 129 -26v1476z
" />
    <glyph glyph-name="obreve" unicode="&#x14f;" horiz-adv-x="2048" 
d="M532 1489l1199 262v-1335q0 -103 -53 -183.5t-138 -122.5t-184 -42q-77 0 -134 40t-57 111q0 107 113 195t242 88q77 0 129 -27v701l-1035 -226v-796q0 -155 -110.5 -252t-263.5 -97q-76 0 -133.5 40.5t-57.5 111.5q0 107 112.5 195t241.5 88q77 0 129 -27v1276z
M1649 1380v148l-1035 -225v-148z" />
    <glyph glyph-name="Ohungarumlaut" unicode="&#x150;" horiz-adv-x="2048" 
d="M1231 971q131 0 209 -74t78 -184q0 -86 -29 -159.5t-80.5 -131.5t-115 -108.5t-140 -100.5t-148 -96.5t-146.5 -107.5t-128 -124h-18v1786h80v-991q72 128 190.5 209.5t247.5 81.5zM793 569v-534q57 62 138.5 131.5t143 120t119.5 110t89.5 129.5t31.5 152
q0 89 -45.5 133.5t-118.5 44.5q-85 0 -180.5 -72.5t-177.5 -214.5z" />
    <glyph glyph-name="ohungarumlaut" unicode="&#x151;" horiz-adv-x="2048" 
 />
    <glyph glyph-name="OE" unicode="&#x152;" horiz-adv-x="2048" 
d="M698 4l-139 -119q-198 247 -453 457l134 117q105 -86 231.5 -212.5t226.5 -242.5z" />
    <glyph glyph-name="oe" unicode="&#x153;" horiz-adv-x="2048" 
d="M397 500q130 0 222 -91.5t92 -220.5t-92 -221t-222 -92q-128 0 -219.5 92t-91.5 221t91.5 220.5t219.5 91.5zM397 -20q88 0 147.5 60t59.5 148q0 85 -60.5 146t-146.5 61q-85 0 -146 -61t-61 -146q0 -87 61 -147.5t146 -60.5z" />
    <glyph glyph-name="Racute" unicode="&#x154;" horiz-adv-x="2048" 
d="M797 1274l192 -82l-422 -930l-100 41zM1389 1274l192 -82l-422 -930l-100 41z" />
    <glyph glyph-name="racute" unicode="&#x155;" horiz-adv-x="983" 
d="M287 778l573 -895l-129 -59l-608 954l608 955l129 -60z" />
    <glyph glyph-name="Rcommaaccent" unicode="&#x156;" horiz-adv-x="983" 
d="M252 -176l-129 59l573 895l-573 895l129 60l608 -955z" />
    <glyph glyph-name="rcommaaccent" unicode="&#x157;" horiz-adv-x="983" 
d="M172 778l440 -917l-110 -37l-455 954l455 955l110 -37zM496 778l440 -917l-111 -37l-454 954l454 955l111 -37z" />
    <glyph glyph-name="Rcaron" unicode="&#x158;" horiz-adv-x="983" 
d="M481 -176l-110 37l440 917l-440 918l110 37l455 -955zM158 -176l-111 37l440 917l-440 918l111 37l454 -955z" />
    <glyph glyph-name="rcaron" unicode="&#x159;" horiz-adv-x="983" 
d="M274 408v1325h648v-142h-496v-1183h-152z" />
    <glyph glyph-name="Sacute" unicode="&#x15a;" horiz-adv-x="983" 
d="M709 1149v-1325h-648v141h496v1184h152z" />
    <glyph glyph-name="sacute" unicode="&#x15b;" horiz-adv-x="983" 
d="M922 1401h-402v-1026h-350v1358h752v-332zM831 1630h-557v-1161h144v1034h413v127z" />
    <glyph glyph-name="Scircumflex" unicode="&#x15c;" horiz-adv-x="983" 
d="M63 156h402v1026h350v-1358h-752v332zM154 -74h557v1161h-144v-1034h-413v-127z" />
    <glyph glyph-name="scircumflex" unicode="&#x15d;" horiz-adv-x="2048" 
d="M1364 1733h614v-11q-178 -152 -291.5 -399.5t-113.5 -544.5t114 -546.5t291 -397.5v-10h-614v1909z" />
    <glyph glyph-name="Scedilla" unicode="&#x15e;" horiz-adv-x="2048" 
d="M684 1733v-1909h-614v10q177 148 291 397.5t114 546.5t-113.5 544.5t-291.5 399.5v11h614z" />
    <glyph glyph-name="scedilla" unicode="&#x15f;" horiz-adv-x="2048" 
d="M1843 1597v-614h-1638v614h1638zM1843 573v-614h-1638v614h1638z" />
    <glyph glyph-name="Scaron" unicode="&#x160;" horiz-adv-x="2048" 
d="M1901 -201l-441 287v1384l441 287l67 -106l-364 -234v-1278l364 -233z" />
    <glyph glyph-name="scaron" unicode="&#x161;" horiz-adv-x="2048" 
d="M590 86l-443 -287l-67 107l364 233v1278l-364 234l67 106l443 -287v-1384z" />
    <glyph glyph-name="Tcommaaccent" unicode="&#x162;" 
d="M373 1257h1140v-956h-165v821h-975v135z" />
    <glyph glyph-name="tcommaaccent" unicode="&#x163;" 
d="M1030 1257h625v-956h-166v821h-459v135zM289 1255h637v-956h-166v821h-471v135z" />
    <glyph glyph-name="Tcaron" unicode="&#x164;" 
d="M1382 1274v-342q0 -107 34 -207.5t110.5 -187.5t185.5 -131l-88 -121q-235 103 -324 356q-89 -253 -323 -356l-88 121q110 44 187 131t111 187t34 208v342h161zM276 1118v137h582v-956h-166v819h-416z" />
    <glyph glyph-name="tcaron" unicode="&#x165;" 
d="M549 444h997v-137h-1165v944h168v-807z" />
    <glyph glyph-name="Tbar" unicode="&#x166;" 
d="M1321 1130v-159q0 -116 32.5 -222t108 -198.5t185.5 -142.5l-95 -125q-228 115 -313 370q-86 -257 -303 -368l-55 69l2 -8q-112 -32 -217 -41.5t-252 -9.5h-86v981h168v-846q233 11 364 53l10 -61q146 77 217.5 226.5t71.5 322.5v159h-266v136h700v-136h-272z" />
    <glyph glyph-name="tbar" unicode="&#x167;" 
d="M1323 1110h268v-137h-723v137h291v184h164v-184zM492 1235v-799q218 4 368 51l23 -137q-112 -32 -217.5 -41.5t-253.5 -9.5h-86v936h166zM1235 903q130 0 218.5 -90.5t88.5 -230.5q0 -139 -88.5 -229.5t-218.5 -90.5q-134 0 -222.5 90t-88.5 230t88.5 230.5t222.5 90.5z
M1235 391q72 0 118 52.5t46 138.5t-45.5 138t-118.5 52q-76 0 -123 -52t-47 -138t47.5 -138.5t122.5 -52.5z" />
    <glyph glyph-name="Utilde" unicode="&#x168;" 
d="M553 434h971v-137h-1139v965h1122v-138h-954v-690z" />
    <glyph glyph-name="utilde" unicode="&#x169;" 
d="M492 1114v-676q232 3 419 47l17 -139q-124 -29 -238.5 -38t-269.5 -9h-94v952h583v-137h-417zM1155 434h422v-137h-586v954h580v-137h-416v-680z" />
    <glyph glyph-name="Umacron" unicode="&#x16a;" 
d="M528 410h1020v-140h-1179v572h987v295h-991v135h1151v-563h-988v-299z" />
    <glyph glyph-name="umacron" unicode="&#x16b;" 
d="M479 709v-291q310 4 531 49l18 -135q-264 -51 -608 -51h-107v563h439v278h-443v138h609v-551h-439zM983 1260h608v-971h-166v833h-442v138z" />
    <glyph glyph-name="Ubreve" unicode="&#x16c;" 
d="M991 1257h623v-972h-623v972zM475 707v-287q262 4 461 39l16 -137q-235 -39 -544 -39h-99v561h428v276h-432v135h598v-548h-428zM1464 420v702h-321v-702h321z" />
    <glyph glyph-name="ubreve" unicode="&#x16d;" 
d="M1458 1260h160v-977h-627v977h158v-336h309v336zM475 707v-289q265 3 469 45l19 -135q-235 -47 -553 -47h-101v563h428v276h-432v135h598v-548h-428zM1458 420v364h-309v-364h309z" />
    <glyph glyph-name="Uring" unicode="&#x16e;" 
d="M1397 1274v-344q0 -168 81.5 -311.5t241.5 -210.5l-92 -123q-226 103 -313 350q-87 -247 -314 -350l-45 61q-136 -32 -260 -42.5t-288 -10.5h-101v561h428v276h-432v136h598v-549h-428v-287q263 3 463 51l8 -59q97 49 164 133t97 178.5t30 196.5v344h162z" />
    <glyph glyph-name="uring" unicode="&#x16f;" 
d="M1176 422h456v-137h-622v972h608v-137h-442v-274h421v-137h-421v-287zM477 707v-285q265 3 463 53l16 -137q-131 -32 -255.5 -42.5t-288.5 -10.5h-101v559h428v276h-432v135h598v-548h-428z" />
    <glyph glyph-name="Uhungarumlaut" unicode="&#x170;" 
d="M477 717v-287q258 3 451 51l20 -137q-133 -32 -253 -41.5t-287 -9.5h-97v561h406v276h-410v136h576v-549h-406zM1534 430h115v-137h-684v137h110v698h-104v138h667v-138h-104v-698zM1225 1128v-698h159v698h-159z" />
    <glyph glyph-name="uhungarumlaut" unicode="&#x171;" 
d="M1372 1104h264v-137h-706v137h278v199h164v-199zM481 715v-295q130 2 228.5 11t205.5 36l21 -137q-216 -47 -524 -47h-97v563h379v278h-383v131h549v-540h-379zM1284 897q131 0 219 -88.5t88 -226.5t-88 -227t-219 -89q-134 0 -222.5 88.5t-88.5 227.5q0 138 88.5 226.5
t222.5 88.5zM1284 397q72 0 119 52t47 133t-47 132.5t-119 51.5q-75 0 -122.5 -51t-47.5 -133t47.5 -133.5t122.5 -51.5z" />
    <glyph glyph-name="Uogonek" unicode="&#x172;" 
d="M377 1257h1147v-956h-1147v956zM1358 1122h-813v-686h813v686z" />
    <glyph glyph-name="uogonek" unicode="&#x173;" 
d="M381 1270h166v-336h805v336h168v-987h-1139v987zM547 784v-356h805v356h-805z" />
    <glyph glyph-name="Wcircumflex" unicode="&#x174;" 
d="M332 1266h155v-334h281v334h154v-973h-590v973zM999 1266h156v-334h279v334h155v-971h-590v971zM487 795v-363h281v363h-281zM1155 795v-363h279v363h-279z" />
    <glyph glyph-name="wcircumflex" unicode="&#x175;" 
d="M1407 1274v-342q0 -108 34 -207.5t111 -186t187 -130.5l-90 -123q-235 103 -324 356q-89 -253 -324 -356l-79 108v-94h-590v973h155v-334h281v334h154v-860q158 70 240.5 212.5t82.5 307.5v342h162zM768 438v363h-281v-363h281z" />
    <glyph glyph-name="Ycircumflex" unicode="&#x176;" 
d="M1036 1286v-297q0 -222 157 -378.5t409 -215.5l-82 -135q-200 56 -347.5 166t-220.5 270q-145 -320 -569 -436l-82 135q254 59 410.5 215t156.5 379v297h168z" />
    <glyph glyph-name="ycircumflex" unicode="&#x177;" 
d="M1376 1253v-237q0 -111 32 -215t108.5 -198t189.5 -144l-94 -125q-230 112 -322 387q-44 -138 -127 -247t-205 -169q-122 62 -205 174t-128 250q-95 -283 -318 -397l-98 123q85 41 151.5 109t104.5 145.5t57 155.5t19 151v237h168v-245q0 -136 63.5 -282.5t185.5 -242.5
q124 97 187 240t63 285v245h168z" />
    <glyph glyph-name="Ydieresis" unicode="&#x178;" 
d="M942 1278q160 0 292 -64.5t208 -180t76 -259.5q0 -145 -76 -261t-207.5 -180.5t-292.5 -64.5q-160 0 -290.5 64.5t-206.5 180.5t-76 261q0 144 76 259.5t206.5 180t290.5 64.5zM942 1135q-174 0 -293 -104t-119 -257q0 -158 118.5 -260t293.5 -102q178 0 296 101.5
t118 260.5q0 154 -118.5 257.5t-295.5 103.5z" />
    <glyph glyph-name="Zacute" unicode="&#x179;" 
d="M1040 1135v-125q0 -223 147 -383.5t388 -223.5l-82 -133q-190 58 -329.5 173.5t-205.5 279.5q-68 -164 -208 -279.5t-330 -173.5l-80 133q240 63 387 223.5t147 383.5v125h-483v135h1135v-135h-486z" />
    <glyph glyph-name="zacute" unicode="&#x17a;" 
d="M1384 1145v-111q0 -92 18 -179.5t55.5 -170t102.5 -150.5t152 -110l-102 -131q-212 109 -301 354q-44 -139 -128.5 -232.5t-222.5 -146.5q-265 101 -354 383q-92 -252 -309 -358l-102 131q88 41 155 108.5t105.5 149.5t57.5 170.5t19 181.5v111h-254v137h644v-137h-224
v-111q0 -442 262 -585q261 144 261 585v111h-224v137h641v-137h-252z" />
    <glyph glyph-name="Zdotaccent" unicode="&#x17b;" 
d="M1044 942v-53q0 -201 144 -349.5t379 -201.5l-80 -131q-196 51 -336 160.5t-205 271.5q-62 -162 -202.5 -271.5t-337.5 -160.5l-78 131q235 53 378.5 201.5t143.5 349.5v53h-475v137h487v269h168v-269h486v-137h-472z" />
    <glyph glyph-name="zdotaccent" unicode="&#x17c;" 
d="M391 1274h1133v-1008h-168v430l-981 -61l-23 151l1004 45v306h-965v137z" />
    <glyph glyph-name="Zcaron" unicode="&#x17d;" 
d="M551 420h989v-135h-1157v970h1141v-137h-973v-272h958v-135h-958v-291z" />
    <glyph glyph-name="zcaron" unicode="&#x17e;" 
d="M1307 426h266v-135h-1241v135h266v704h-238v138h1184v-138h-237v-704zM766 1130v-704h375v704h-375z" />
    <glyph glyph-name="longs" unicode="&#x17f;" 
d="M1036 1130h525v-139h-1217v139h524v248h168v-248zM952 862q198 0 325.5 -94t127.5 -242t-127.5 -242t-325.5 -94q-196 0 -323 94t-127 242t127 242t323 94zM952 332q120 0 200.5 54.5t80.5 139.5t-80.5 140t-200.5 55t-199 -54.5t-79 -140.5q0 -85 79 -139.5t199 -54.5z
" />
    <glyph glyph-name="uni0180" unicode="&#x180;" 
d="M1399 946v-141h-426v-928h-168v1804h168v-735h426z" />
    <glyph glyph-name="uni0181" unicode="&#x181;" 
d="M1114 1679h160v-1802h-160v940h-315v-872h-160v1706h160v-697h315v725z" />
    <glyph glyph-name="uni0182" unicode="&#x182;" 
d="M1331 1008h-416v-361h416v-139h-416v-631h-167v1802h167v-532h416v-139z" />
    <glyph glyph-name="uni0183" unicode="&#x183;" 
d="M1108 1681h162v-1804h-162v666h-309v-598h-158v1710h158v-475h309v501zM799 682h309v358h-309v-358z" />
    <glyph glyph-name="uni0184" unicode="&#x184;" 
d="M1040 1679h170v-1802h-170v938h-428v141h428v723z" />
    <glyph glyph-name="uni0185" unicode="&#x185;" 
d="M1180 1681h159v-1804h-159v1804zM815 961v692h158v-1712h-158v880h-336v140h336z" />
    <glyph glyph-name="uni0186" unicode="&#x186;" 
d="M1047 1679h167v-1802h-167v680h-433v139h433v344h-433v140h433v499z" />
    <glyph glyph-name="uni0187" unicode="&#x187;" 
d="M1174 1681h161v-1804h-161v1804zM815 1192v463h158v-1712h-158v624h-344v140h344v346h-342v139h342z" />
    <glyph glyph-name="uni0188" unicode="&#x188;" 
d="M1024 465h743v-137h-1652v137h739v768h170v-768z" />
    <glyph glyph-name="uni0189" unicode="&#x189;" 
d="M1784 944v-139h-275v-928h-168v1804h168v-737h275zM780 1118v-626q294 14 471 36l15 -122q-443 -70 -1121 -70l-22 141q317 0 491 6v635h166z" />
    <glyph glyph-name="uni018A" unicode="&#x18a;" 
d="M1509 1681h160v-1804h-160v934h-206v-866h-160v1712h160v-709h206v733zM690 1124v-596q196 9 377 31l10 -123q-360 -61 -921 -61l-21 141q250 0 397 6v602h158z" />
    <glyph glyph-name="uni018B" unicode="&#x18b;" 
d="M1448 1679h168v-1802h-168v1802zM868 1102v-584q316 15 467 39l13 -125q-428 -70 -1117 -70l-24 142q315 0 495 6v592h166z" />
    <glyph glyph-name="uni018C" unicode="&#x18c;" 
d="M1356 444h424v-139h-1653v139h428v809h164v-809h471v809h166v-809z" />
    <glyph glyph-name="uni018D" unicode="&#x18d;" 
d="M1778 1241v-139h-744v-787h-168v787h-741v139h1653z" />
    <glyph glyph-name="uni018E" unicode="&#x18e;" 
d="M1509 1679h170v-1802h-170v533h-434v133h434v1136zM1366 932l12 -123q-252 -36 -571 -53v-740h-168v734q-246 -9 -455 -9l-22 140q738 0 1204 51z" />
    <glyph glyph-name="uni018F" unicode="&#x18f;" 
d="M1548 1681h162v-1804h-162v1804zM1202 547v1091h160v-1712h-160v488h-332v133h332zM1102 924l12 -115q-173 -32 -405 -45v-750h-160v740q-226 -13 -381 -13l-18 133q211 0 481 13.5t471 36.5z" />
    <glyph glyph-name="uni0190" unicode="&#x190;" 
d="M1503 1681h168v-1804h-168v1804zM1409 920l12 -125q-264 -35 -526 -50v-727h-168v719q-240 -8 -508 -8l-22 141q755 0 1212 50z" />
    <glyph glyph-name="uni0191" unicode="&#x191;" 
d="M1767 1243v-137h-444v-793h-168v793h-436v-793h-168v793h-436v137h1652z" />
    <glyph glyph-name="florin" unicode="&#x192;" 
d="M115 848h1652v-139h-1652v139z" />
    <glyph glyph-name="uni0193" unicode="&#x193;" 
d="M1466 1681h170v-1806h-170v1806zM186 477l-24 139q763 0 1192 54l12 -123q-473 -70 -1180 -70z" />
    <glyph glyph-name="uni0194" unicode="&#x194;" 
d="M868 1681h168v-1806h-168v1806z" />
    <glyph glyph-name="uni0195" unicode="&#x195;" 
d="M932 780q0 51 38 91t91 40q55 0 93 -40t38 -91q0 -53 -38 -93t-93 -40q-53 0 -90 40t-39 93z" />
    <glyph glyph-name="uni0196" unicode="&#x196;" 
d="M1100 1686h168v-1815h-168v1815zM653 793q0 52 37.5 91.5t91.5 39.5t92.5 -39.5t38.5 -91.5t-38.5 -91.5t-92.5 -39.5t-91.5 39.5t-37.5 91.5z" />
    <glyph glyph-name="uni0197" unicode="&#x197;" horiz-adv-x="2048" 
d="M414 -125l-92 -29q-134 204 -195 430t-61 502t60.5 501t195.5 431l92 -29q-225 -349 -228 -903q0 -549 228 -903zM1726 -154l-92 29q228 354 228 903t-228 903l92 29q135 -206 195.5 -431t60.5 -501t-61 -502t-195 -430zM477 1227h1030v-987h-161v854h-869v133z" />
    <glyph glyph-name="uni0198" unicode="&#x198;" horiz-adv-x="2048" 
d="M322 1710l92 -29q-225 -349 -228 -903q0 -549 228 -903l-92 -29q-134 204 -195 430t-61 502t60.5 501t195.5 431zM1634 1681l92 29q135 -206 195.5 -431t60.5 -501t-61 -502t-195 -430l-92 29q228 354 228 903t-228 903zM731 1298v-839h840v-133h-1002v972h162z" />
    <glyph glyph-name="uni0199" unicode="&#x199;" horiz-adv-x="2048" 
d="M322 1710l92 -29q-225 -349 -228 -903q0 -549 228 -903l-92 -29q-134 204 -195 430t-61 502t60.5 501t195.5 431zM1634 1681l92 29q135 -206 195.5 -431t60.5 -501t-61 -502t-195 -430l-92 29q228 354 228 903t-228 903zM705 1151v-709h841v-133h-1003v975h981v-133h-819
z" />
    <glyph glyph-name="uni019A" unicode="&#x19a;" horiz-adv-x="2048" 
d="M322 1710l92 -29q-225 -349 -228 -903q0 -549 228 -903l-92 -29q-134 204 -195 430t-61 502t60.5 501t195.5 431zM1634 1681l92 29q135 -206 195.5 -431t60.5 -501t-61 -502t-195 -430l-92 29q228 354 228 903t-228 903zM684 723v-338h864v-135h-1018v600h830v330h-834
v125h985v-582h-827z" />
    <glyph glyph-name="uni019B" unicode="&#x19b;" horiz-adv-x="2048" 
d="M414 -125l-92 -29q-134 204 -195 430t-61 502t60.5 501t195.5 431l92 -29q-225 -349 -228 -903q0 -549 228 -903zM1726 -154l-92 29q228 354 228 903t-228 903l92 29q135 -206 195.5 -431t60.5 -501t-61 -502t-195 -430zM543 1243h983v-934h-983v934zM1366 1110h-661
v-668h661v668z" />
    <glyph glyph-name="uni019C" unicode="&#x19c;" horiz-adv-x="2048" 
d="M414 -125l-92 -29q-134 204 -195 430t-61 502t60.5 501t195.5 431l92 -29q-225 -349 -228 -903q0 -549 228 -903zM1726 -154l-92 29q228 354 228 903t-228 903l92 29q135 -206 195.5 -431t60.5 -501t-61 -502t-195 -430zM537 1303h159v-365h670v365h160v-1035h-989v1035z
M696 795v-383h670v383h-670z" />
    <glyph glyph-name="uni019D" unicode="&#x19d;" horiz-adv-x="2048" 
d="M322 1710l92 -29q-225 -349 -228 -903q0 -549 228 -903l-92 -29q-134 204 -195 430t-61 502t60.5 501t195.5 431zM1634 1681l92 29q135 -206 195.5 -431t60.5 -501t-61 -502t-195 -430l-92 29q228 354 228 903t-228 903zM1118 1327v-287q0 -206 137.5 -376t364.5 -240
l-80 -131q-173 57 -301.5 169.5t-194.5 266.5q-66 -154 -195 -267.5t-302 -170.5l-82 131q228 69 367 239.5t139 378.5v287h147z" />
    <glyph glyph-name="uni019E" unicode="&#x19e;" horiz-adv-x="2048" 
d="M414 -125l-92 -29q-134 204 -195 430t-61 502t60.5 501t195.5 431l92 -29q-225 -349 -228 -903q0 -549 228 -903zM1726 -154l-92 29q228 354 228 903t-228 903l92 29q135 -206 195.5 -431t60.5 -501t-61 -502t-195 -430zM1030 1262q227 0 375.5 -134t148.5 -342
q0 -210 -148.5 -343.5t-375.5 -133.5q-226 0 -375 134t-149 343q0 208 149 342t375 134zM1030 1130q-164 0 -271.5 -97.5t-107.5 -246.5t107.5 -246.5t271.5 -97.5t272.5 97.5t108.5 246.5t-108.5 246.5t-272.5 97.5z" />
    <glyph glyph-name="uni019F" unicode="&#x19f;" horiz-adv-x="2048" 
d="M322 1710l92 -29q-225 -349 -228 -903q0 -549 228 -903l-92 -29q-134 204 -195 430t-61 502t60.5 501t195.5 431zM1634 1681l92 29q135 -206 195.5 -431t60.5 -501t-61 -502t-195 -430l-92 29q228 354 228 903t-228 903zM1106 1110v-106q0 -194 143.5 -350t372.5 -218
l-76 -125q-181 54 -313 159.5t-201 252.5q-67 -147 -199 -254t-307 -158l-75 125q226 62 366.5 219t140.5 349v106h-442v133h1036v-133h-446z" />
    <glyph glyph-name="Ohorn" unicode="&#x1a0;" horiz-adv-x="2048" 
d="M322 1710l92 -29q-225 -349 -228 -903q0 -549 228 -903l-92 -29q-134 204 -195 430t-61 502t60.5 501t195.5 431zM1634 1681l92 29q135 -206 195.5 -431t60.5 -501t-61 -502t-195 -430l-92 29q228 354 228 903t-228 903zM1114 973v-86q0 -168 129.5 -301t345.5 -187
l-73 -123q-173 47 -298 143.5t-186 231.5q-62 -136 -187.5 -233t-303.5 -144l-72 125q220 52 351.5 185.5t131.5 302.5v86h-440v135h440v270h162v-270h434v-135h-434z" />
    <glyph glyph-name="ohorn" unicode="&#x1a1;" horiz-adv-x="2048" 
d="M322 1710l92 -29q-225 -349 -228 -903q0 -549 228 -903l-92 -29q-134 204 -195 430t-61 502t60.5 501t195.5 431zM1634 1681l92 29q135 -206 195.5 -431t60.5 -501t-61 -502t-195 -430l-92 29q228 354 228 903t-228 903zM528 1128v134h996v-1000h-162v453l-866 -53
l-21 143l887 39v284h-834z" />
    <glyph glyph-name="uni01A2" unicode="&#x1a2;" horiz-adv-x="2048" 
d="M322 1710l92 -29q-225 -349 -228 -903q0 -549 228 -903l-92 -29q-134 204 -195 430t-61 502t60.5 501t195.5 431zM1634 1681l92 29q135 -206 195.5 -431t60.5 -501t-61 -502t-195 -430l-92 29q228 354 228 903t-228 903zM696 719v-283h854v-133h-1005v957h975v-134h-824
v-274h822v-133h-822z" />
    <glyph glyph-name="uni01A3" unicode="&#x1a3;" horiz-adv-x="2048" 
d="M322 1710l92 -29q-225 -349 -228 -903q0 -549 228 -903l-92 -29q-134 204 -195 430t-61 502t60.5 501t195.5 431zM1634 1681l92 29q135 -206 195.5 -431t60.5 -501t-61 -502t-195 -430l-92 29q228 354 228 903t-228 903zM1376 1090v-596h244v-134h-1176v134h275v596h-225
v131h1081v-131h-199zM881 1090v-596h333v596h-333z" />
    <glyph glyph-name="uni01A4" unicode="&#x1a4;" horiz-adv-x="2048" 
d="M322 1710l92 -29q-225 -349 -228 -903q0 -549 228 -903l-92 -29q-134 204 -195 430t-61 502t60.5 501t195.5 431zM1634 1681l92 29q135 -206 195.5 -431t60.5 -501t-61 -502t-195 -430l-92 29q228 354 228 903t-228 903zM1102 1391v-246h487v-137h-1130v137h483v246h160z
M1024 881q185 0 306.5 -103t121.5 -264q0 -159 -121.5 -263t-306.5 -104q-184 0 -306 104t-122 263q0 160 122 263.5t306 103.5zM1024 281q118 0 196 66.5t78 166.5q0 103 -77.5 169.5t-196.5 66.5q-118 0 -195 -66.5t-77 -169.5q0 -100 77 -166.5t195 -66.5z" />
    <glyph glyph-name="uni01A5" unicode="&#x1a5;" horiz-adv-x="2048" 
d="M322 1710l84 -29q-225 -349 -228 -903q0 -549 228 -903l-84 -29q-134 204 -195 430t-61 502t60.5 501t195.5 431zM1642 1681l84 29q135 -206 195.5 -431t60.5 -501t-61 -502t-195 -430l-84 29q228 354 228 903t-228 903zM1792 780h-272v-843h-168v1673h168v-690h272v-140
zM406 1409h688q0 -364 -158 -665.5t-485 -516.5l-105 117q274 178 416.5 406.5t167.5 519.5h-524v139z" />
    <glyph glyph-name="uni01A6" unicode="&#x1a6;" horiz-adv-x="2048" 
d="M322 1710l84 -29q-225 -349 -228 -903q0 -549 228 -903l-84 -29q-134 204 -195 430t-61 502t60.5 501t195.5 431zM1642 1681l84 29q135 -206 195.5 -431t60.5 -501t-61 -502t-195 -430l-84 29q228 354 228 903t-228 903zM1802 795h-270v-858h-170v1673h170v-676h270v-139
zM551 1442v-930q375 3 694 72l19 -146q-357 -73 -746 -73h-129v1077h162z" />
    <glyph glyph-name="uni01A7" unicode="&#x1a7;" horiz-adv-x="2048" 
d="M322 1710l84 -29q-225 -349 -228 -903q0 -549 228 -903l-84 -29q-134 204 -195 430t-61 502t60.5 501t195.5 431zM1642 1681l84 29q135 -206 195.5 -431t60.5 -501t-61 -502t-195 -430l-84 29q228 354 228 903t-228 903zM1802 795h-252v-856h-168v1673h168v-678h252v-139
zM567 1296v-827q207 0 359 11t313 42l18 -147q-172 -34 -331.5 -45t-395.5 -11h-127v1119h725v-142h-561z" />
    <glyph glyph-name="uni01A8" unicode="&#x1a8;" horiz-adv-x="2048" 
d="M322 1710l84 -29q-225 -349 -228 -903q0 -549 228 -903l-84 -29q-134 204 -195 430t-61 502t60.5 501t195.5 431zM1642 1681l84 29q135 -206 195.5 -431t60.5 -501t-61 -502t-195 -430l-84 29q228 354 228 903t-228 903zM1778 793h-240v-856h-170v1673h170v-678h240v-139
zM580 836v-361q384 0 649 53l14 -145q-172 -31 -331 -42t-377 -11h-121v641h497v329h-501v136h667v-600h-497z" />
    <glyph glyph-name="uni01A9" unicode="&#x1a9;" horiz-adv-x="2048" 
d="M322 1710l84 -29q-225 -349 -228 -903q0 -549 228 -903l-84 -29q-134 204 -195 430t-61 502t60.5 501t195.5 431zM1642 1681l84 29q135 -206 195.5 -431t60.5 -501t-61 -502t-195 -430l-84 29q228 354 228 903t-228 903zM1792 786h-270v-849h-168v1673h168v-684h270v-140
zM385 358v1067h688v-1067h-688zM549 1284v-786h358v786h-358z" />
    <glyph glyph-name="uni01AA" unicode="&#x1aa;" horiz-adv-x="2048" 
d="M322 1710l84 -29q-225 -349 -228 -903q0 -549 228 -903l-84 -29q-134 204 -195 430t-61 502t60.5 501t195.5 431zM1642 1681l84 29q135 -206 195.5 -431t60.5 -501t-61 -502t-195 -430l-84 29q228 354 228 903t-228 903zM1794 788h-254v-851h-168v1673h168v-682h254v-140
zM975 1047v409h160v-1145h-713v1145h162v-409h391zM975 457v444h-391v-444h391z" />
    <glyph glyph-name="uni01AB" unicode="&#x1ab;" horiz-adv-x="2048" 
d="M322 1710l84 -29q-225 -349 -228 -903q0 -549 228 -903l-84 -29q-134 204 -195 430t-61 502t60.5 501t195.5 431zM1642 1681l84 29q135 -206 195.5 -431t60.5 -501t-61 -502t-195 -430l-84 29q228 354 228 903t-228 903zM1782 793h-256v-856h-168v1673h168v-678h256v-139
zM854 1460v-307q0 -253 101 -456.5t290 -299.5l-108 -125q-272 156 -369 510q-97 -356 -367 -510l-108 125q187 96 288 299.5t101 456.5v307h172z" />
    <glyph glyph-name="uni01AC" unicode="&#x1ac;" horiz-adv-x="2048" 
d="M322 1710l84 -29q-225 -349 -228 -903q0 -549 228 -903l-84 -29q-134 204 -195 430t-61 502t60.5 501t195.5 431zM1642 1681l84 29q135 -206 195.5 -431t60.5 -501t-61 -502t-195 -430l-84 29q228 354 228 903t-228 903zM1788 780h-246v-843h-168v1673h168v-690h246v-140
zM737 1446q178 0 283.5 -153.5t105.5 -411.5q0 -259 -105 -411.5t-284 -152.5q-178 0 -282.5 152t-104.5 412q0 259 104.5 412t282.5 153zM737 463q104 0 167 114t63 304q0 192 -62.5 305.5t-167.5 113.5q-104 0 -166.5 -113.5t-62.5 -305.5q0 -190 62.5 -304t166.5 -114z
" />
    <glyph glyph-name="uni01AD" unicode="&#x1ad;" horiz-adv-x="2048" 
d="M322 1710l84 -29q-225 -349 -228 -903q0 -549 228 -903l-84 -29q-134 204 -195 430t-61 502t60.5 501t195.5 431zM1642 1681l84 29q135 -206 195.5 -431t60.5 -501t-61 -502t-195 -430l-84 29q228 354 228 903t-228 903zM1792 786h-252v-849h-170v1673h170v-684h252v-140
zM868 1288v-149q0 -166 38.5 -315t123.5 -273.5t207 -190.5l-107 -120q-256 155 -348 528q-88 -371 -348 -528l-104 120q121 65 205 189.5t122.5 273.5t38.5 316v149h-299v142h772v-142h-301z" />
    <glyph glyph-name="uni01AE" unicode="&#x1ae;" horiz-adv-x="2048" 
d="M322 1710l84 -29q-225 -349 -228 -903q0 -549 228 -903l-84 -29q-134 204 -195 430t-61 502t60.5 501t195.5 431zM1642 1681l84 29q135 -206 195.5 -431t60.5 -501t-61 -502t-195 -430l-84 29q228 354 228 903t-228 903zM1792 768h-252v-831h-168v1673h168v-703h252v-139
zM858 1087v-67q0 -211 103 -384t286 -255l-96 -125q-274 133 -377 442q-47 -150 -143 -263t-232 -179l-96 125q183 82 286 255t103 384v67h-338v140h336v282h168v-282h338v-140h-338z" />
    <glyph glyph-name="Uhorn" unicode="&#x1af;" horiz-adv-x="2048" 
d="M322 1710l84 -29q-225 -349 -228 -903q0 -549 228 -903l-84 -29q-134 204 -195 430t-61 502t60.5 501t195.5 431zM1642 1681l84 29q135 -206 195.5 -431t60.5 -501t-61 -502t-195 -430l-84 29q228 354 228 903t-228 903zM1780 778h-256v-841h-168v1673h168v-692h256v-140
zM430 1415h684q0 -795 -612 -1210l-111 112q347 229 477 572l-462 -45l-27 141l532 37q29 102 39 254h-520v139z" />
    <glyph glyph-name="uhorn" unicode="&#x1b0;" horiz-adv-x="2048" 
d="M322 1710l84 -29q-225 -349 -228 -903q0 -549 228 -903l-84 -29q-134 204 -195 430t-61 502t60.5 501t195.5 431zM1642 1681l84 29q135 -206 195.5 -431t60.5 -501t-61 -502t-195 -430l-84 29q228 354 228 903t-228 903zM1802 778h-260v-841h-170v1673h170v-692h260v-140
zM573 825v-354q211 0 357.5 9.5t298.5 39.5l16 -145q-171 -30 -331 -40.5t-386 -10.5h-122v1101h722v-141h-555v-317h521v-142h-521z" />
    <glyph glyph-name="uni01B1" unicode="&#x1b1;" horiz-adv-x="2048" 
d="M322 1710l84 -29q-225 -349 -228 -903q0 -549 228 -903l-84 -29q-134 204 -195 430t-61 502t60.5 501t195.5 431zM1642 1681l84 29q135 -206 195.5 -431t60.5 -501t-61 -502t-195 -430l-84 29q228 354 228 903t-228 903zM1802 780h-235v-843h-168v1673h168v-690h235v-140
zM1073 1276v-799q117 9 217 21l8 -123q-378 -60 -970 -60l-19 140h99q69 0 108 2v819h-160v139h867v-139h-150zM674 1276v-817q201 5 241 8v809h-241z" />
    <glyph glyph-name="uni01B2" unicode="&#x1b2;" horiz-adv-x="2048" 
d="M322 1710l84 -29q-225 -349 -228 -903q0 -549 228 -903l-84 -29q-134 204 -195 430t-61 502t60.5 501t195.5 431zM1642 1681l84 29q135 -206 195.5 -431t60.5 -501t-61 -502t-195 -430l-84 29q228 354 228 903t-228 903zM1792 784h-233v-847h-168v1673h168v-690h233v-136
zM860 1548v-260h381v-139h-934v139h383v260h170zM772 1016q172 0 283.5 -103t111.5 -266q0 -159 -112 -263.5t-283 -104.5q-169 0 -281 104.5t-112 263.5q0 163 111.5 266t281.5 103zM772 410q105 0 173.5 66.5t68.5 170.5t-68.5 171t-173.5 67t-173.5 -67t-68.5 -171
t68.5 -170.5t173.5 -66.5z" />
    <glyph glyph-name="uni01B3" unicode="&#x1b3;" horiz-adv-x="2048" 
d="M322 1710l84 -29q-225 -349 -228 -903q0 -549 228 -903l-84 -29q-134 204 -195 430t-61 502t60.5 501t195.5 431zM1642 1681l84 29q135 -206 195.5 -431t60.5 -501t-61 -502t-195 -430l-84 29q228 354 228 903t-228 903zM430 819l-68 131q144 22 274.5 81.5t217 148.5
t94.5 184h-481v141h1137v-141h-480q8 -96 95 -184.5t217 -147t274 -80.5l-68 -133q-197 33 -363 130t-243 231q-77 -135 -242 -231.5t-364 -129.5zM1745 555h-625v-625h-168v625h-626v141h1419v-141z" />
    <glyph glyph-name="uni01B4" unicode="&#x1b4;" horiz-adv-x="2048" 
d="M1978 778q0 -194 -75.5 -370.5t-203.5 -304.5t-304.5 -203.5t-370.5 -75.5t-370.5 75.5t-304.5 203.5t-203.5 304.5t-75.5 370.5t75.5 370.5t203.5 304.5t304.5 204t370.5 76t370.5 -76t304.5 -204t203.5 -304.5t75.5 -370.5zM1024 1667q-242 0 -446.5 -119
t-323.5 -323.5t-119 -446.5t119 -446.5t323.5 -323.5t446.5 -119t446.5 119t323.5 323.5t119 446.5t-119 446.5t-323.5 323.5t-446.5 119zM524 1165h932v-897h-162v764h-770v133z" />
    <glyph glyph-name="uni01B5" unicode="&#x1b5;" horiz-adv-x="2048" 
d="M1024 1733q194 0 370.5 -76t304.5 -204t203.5 -304.5t75.5 -370.5t-75.5 -370.5t-203.5 -304.5t-304.5 -203.5t-370.5 -75.5t-370.5 75.5t-304.5 203.5t-203.5 304.5t-75.5 370.5t75.5 370.5t203.5 304.5t304.5 204t370.5 76zM1024 -111q242 0 446.5 119t323.5 323.5
t119 446.5t-119 446.5t-323.5 323.5t-446.5 119t-446.5 -119t-323.5 -323.5t-119 -446.5t119 -446.5t323.5 -323.5t446.5 -119zM786 1245v-737h746v-133h-907v870h161z" />
    <glyph glyph-name="uni01B6" unicode="&#x1b6;" horiz-adv-x="2048" 
d="M1024 1733q194 0 370.5 -76t304.5 -204t203.5 -304.5t75.5 -370.5t-75.5 -370.5t-203.5 -304.5t-304.5 -203.5t-370.5 -75.5t-370.5 75.5t-304.5 203.5t-203.5 304.5t-75.5 370.5t75.5 370.5t203.5 304.5t304.5 204t370.5 76zM1024 -111q242 0 446.5 119t323.5 323.5
t119 446.5t-119 446.5t-323.5 323.5t-446.5 119t-446.5 -119t-323.5 -323.5t-119 -446.5t119 -446.5t323.5 -323.5t446.5 -119zM741 1067v-623h746v-133h-909v889h888v-133h-725z" />
    <glyph glyph-name="uni01B7" unicode="&#x1b7;" horiz-adv-x="2048" 
d="M1024 1733q194 0 370.5 -76t304.5 -204t203.5 -304.5t75.5 -370.5t-75.5 -370.5t-203.5 -304.5t-304.5 -203.5t-370.5 -75.5t-370.5 75.5t-304.5 203.5t-203.5 304.5t-75.5 370.5t75.5 370.5t203.5 304.5t304.5 204t370.5 76zM1024 -111q242 0 446.5 119t323.5 323.5
t119 446.5t-119 446.5t-323.5 323.5t-446.5 119t-446.5 -119t-323.5 -323.5t-119 -446.5t119 -446.5t323.5 -323.5t446.5 -119zM731 717v-291h785v-135h-938v553h741v295h-746v118h900v-540h-742z" />
    <glyph glyph-name="uni01B8" unicode="&#x1b8;" horiz-adv-x="2048" 
d="M1978 778q0 -194 -75.5 -370.5t-203.5 -304.5t-304.5 -203.5t-370.5 -75.5t-370.5 75.5t-304.5 203.5t-203.5 304.5t-75.5 370.5t75.5 370.5t203.5 304.5t304.5 204t370.5 76t370.5 -76t304.5 -204t203.5 -304.5t75.5 -370.5zM1024 1667q-242 0 -446.5 -119
t-323.5 -323.5t-119 -446.5t119 -446.5t323.5 -323.5t446.5 -119t446.5 119t323.5 323.5t119 446.5t-119 446.5t-323.5 323.5t-446.5 119zM575 1157h891v-842h-891v842zM1307 1026h-572v-580h572v580z" />
    <glyph glyph-name="uni01B9" unicode="&#x1b9;" horiz-adv-x="2048" 
d="M1978 778q0 -194 -75.5 -370.5t-203.5 -304.5t-304.5 -203.5t-370.5 -75.5t-370.5 75.5t-304.5 203.5t-203.5 304.5t-75.5 370.5t75.5 370.5t203.5 304.5t304.5 204t370.5 76t370.5 -76t304.5 -204t203.5 -304.5t75.5 -370.5zM1024 1667q-242 0 -446.5 -119
t-323.5 -323.5t-119 -446.5t119 -446.5t323.5 -323.5t446.5 -119t446.5 119t323.5 323.5t119 446.5t-119 446.5t-323.5 323.5t-446.5 119zM569 1214h160v-331h578v331h159v-938h-897v938zM729 754v-351h578v351h-578z" />
    <glyph glyph-name="uni01BA" unicode="&#x1ba;" horiz-adv-x="2048" 
d="M1024 1733q194 0 370.5 -76t304.5 -204t203.5 -304.5t75.5 -370.5t-75.5 -370.5t-203.5 -304.5t-304.5 -203.5t-370.5 -75.5t-370.5 75.5t-304.5 203.5t-203.5 304.5t-75.5 370.5t75.5 370.5t203.5 304.5t304.5 204t370.5 76zM1024 -111q242 0 446.5 119t323.5 323.5
t119 446.5t-119 446.5t-323.5 323.5t-446.5 119t-446.5 -119t-323.5 -323.5t-119 -446.5t119 -446.5t323.5 -323.5t446.5 -119zM1090 1245v-260q0 -169 132.5 -320t344.5 -216l-80 -123q-159 54 -279 155.5t-186 237.5q-62 -136 -180 -238.5t-277 -156.5l-82 122
q140 42 248 128t164.5 193t56.5 218v260h138z" />
    <glyph glyph-name="uni01BB" unicode="&#x1bb;" horiz-adv-x="2048" 
d="M1978 778q0 -194 -75.5 -370.5t-203.5 -304.5t-304.5 -203.5t-370.5 -75.5t-370.5 75.5t-304.5 203.5t-203.5 304.5t-75.5 370.5t75.5 370.5t203.5 304.5t304.5 204t370.5 76t370.5 -76t304.5 -204t203.5 -304.5t75.5 -370.5zM1024 1667q-242 0 -446.5 -119
t-323.5 -323.5t-119 -446.5t119 -446.5t323.5 -323.5t446.5 -119t446.5 119t323.5 323.5t119 446.5t-119 446.5t-323.5 323.5t-446.5 119zM1022 1176q205 0 340 -121.5t135 -309.5q0 -189 -135 -310.5t-340 -121.5t-340 121.5t-135 310.5q0 188 135 309.5t340 121.5z
M1022 1057q-147 0 -243.5 -89t-96.5 -223q0 -135 96 -223t244 -88t244 88t96 223q0 134 -96.5 223t-243.5 89z" />
    <glyph glyph-name="uni01BC" unicode="&#x1bc;" horiz-adv-x="2048" 
d="M1024 1733q194 0 370.5 -76t304.5 -204t203.5 -304.5t75.5 -370.5t-75.5 -370.5t-203.5 -304.5t-304.5 -203.5t-370.5 -75.5t-370.5 75.5t-304.5 203.5t-203.5 304.5t-75.5 370.5t75.5 370.5t203.5 304.5t304.5 204t370.5 76zM1024 -111q242 0 446.5 119t323.5 323.5
t119 446.5t-119 446.5t-323.5 323.5t-446.5 119t-446.5 -119t-323.5 -323.5t-119 -446.5t119 -446.5t323.5 -323.5t446.5 -119zM1090 1030v-59q0 -166 126 -302t336 -188l-73 -121q-159 47 -277 138.5t-180 214.5q-62 -123 -180 -214.5t-279 -138.5l-74 121
q212 53 338.5 188.5t126.5 301.5v59h-399v133h936v-133h-401z" />
    <glyph glyph-name="uni01BD" unicode="&#x1bd;" horiz-adv-x="2048" 
d="M1024 1733q194 0 370.5 -76t304.5 -204t203.5 -304.5t75.5 -370.5t-75.5 -370.5t-203.5 -304.5t-304.5 -203.5t-370.5 -75.5t-370.5 75.5t-304.5 203.5t-203.5 304.5t-75.5 370.5t75.5 370.5t203.5 304.5t304.5 204t370.5 76zM1024 -111q242 0 446.5 119t323.5 323.5
t119 446.5t-119 446.5t-323.5 323.5t-446.5 119t-446.5 -119t-323.5 -323.5t-119 -446.5t119 -446.5t323.5 -323.5t446.5 -119zM1106 913v-30q0 -145 117.5 -262t318.5 -166l-72 -123q-158 42 -270 127t-170 203q-58 -118 -170 -203t-270 -127l-72 123q200 49 317 166.5
t117 261.5v30h-391v134h391v249h154v-249h395v-134h-395z" />
    <glyph glyph-name="uni01BE" unicode="&#x1be;" horiz-adv-x="2048" 
d="M1024 1733q194 0 370.5 -76t304.5 -204t203.5 -304.5t75.5 -370.5t-75.5 -370.5t-203.5 -304.5t-304.5 -203.5t-370.5 -75.5t-370.5 75.5t-304.5 203.5t-203.5 304.5t-75.5 370.5t75.5 370.5t203.5 304.5t304.5 204t370.5 76zM1024 -111q242 0 446.5 119t323.5 323.5
t119 446.5t-119 446.5t-323.5 323.5t-446.5 119t-446.5 -119t-323.5 -323.5t-119 -446.5t119 -446.5t323.5 -323.5t446.5 -119zM567 1047v127h903v-908h-149v410l-770 -51l-25 141l795 37v244h-754z" />
    <glyph glyph-name="uni01BF" unicode="&#x1bf;" horiz-adv-x="2048" 
d="M1024 1733q194 0 370.5 -76t304.5 -204t203.5 -304.5t75.5 -370.5t-75.5 -370.5t-203.5 -304.5t-304.5 -203.5t-370.5 -75.5t-370.5 75.5t-304.5 203.5t-203.5 304.5t-75.5 370.5t75.5 370.5t203.5 304.5t304.5 204t370.5 76zM1024 -111q242 0 446.5 119t323.5 323.5
t119 446.5t-119 446.5t-323.5 323.5t-446.5 119t-446.5 -119t-323.5 -323.5t-119 -446.5t119 -446.5t323.5 -323.5t446.5 -119zM731 676v-232h758v-133h-920v867h901v-134h-739v-235h731v-133h-731z" />
    <glyph glyph-name="uni01C0" unicode="&#x1c0;" horiz-adv-x="2048" 
d="M1024 1733q194 0 370.5 -76t304.5 -204t203.5 -304.5t75.5 -370.5t-75.5 -370.5t-203.5 -304.5t-304.5 -203.5t-370.5 -75.5t-370.5 75.5t-304.5 203.5t-203.5 304.5t-75.5 370.5t75.5 370.5t203.5 304.5t304.5 204t370.5 76zM1024 -111q242 0 446.5 119t323.5 323.5
t119 446.5t-119 446.5t-323.5 323.5t-446.5 119t-446.5 -119t-323.5 -323.5t-119 -446.5t119 -446.5t323.5 -323.5t446.5 -119zM1335 1006v-517h219v-133h-1069v133h224v517h-179v133h979v-133h-174zM860 1006v-517h326v517h-326z" />
    <glyph glyph-name="uni01C1" unicode="&#x1c1;" horiz-adv-x="2048" 
d="M1024 1733q194 0 370.5 -76t304.5 -204t203.5 -304.5t75.5 -370.5t-75.5 -370.5t-203.5 -304.5t-304.5 -203.5t-370.5 -75.5t-370.5 75.5t-304.5 203.5t-203.5 304.5t-75.5 370.5t75.5 370.5t203.5 304.5t304.5 204t370.5 76zM1024 -111q242 0 446.5 119t323.5 323.5
t119 446.5t-119 446.5t-323.5 323.5t-446.5 119t-446.5 -119t-323.5 -323.5t-119 -446.5t119 -446.5t323.5 -323.5t446.5 -119zM1100 1294v-211h444v-129h-1048v129h446v211h158zM1022 852q165 0 273 -94t108 -240t-108 -240t-273 -94q-161 0 -271 94.5t-110 239.5
t110 239.5t271 94.5zM1022 303q104 0 172 62t68 153q0 93 -68 154t-172 61t-171 -61t-67 -154t67 -154t171 -61z" />
    <glyph glyph-name="uni01C2" unicode="&#x1c2;" horiz-adv-x="2048" 
d="M1024 1733q194 0 370.5 -76t304.5 -204t203.5 -304.5t75.5 -370.5t-75.5 -370.5t-203.5 -304.5t-304.5 -203.5t-370.5 -75.5t-370.5 75.5t-304.5 203.5t-203.5 304.5t-75.5 370.5t75.5 370.5t203.5 304.5t304.5 204t370.5 76zM1024 -111q242 0 446.5 119t323.5 323.5
t119 446.5t-119 446.5t-323.5 323.5t-446.5 119t-446.5 -119t-323.5 -323.5t-119 -446.5t119 -446.5t323.5 -323.5t446.5 -119zM1460 920h258v-140h-258v-727h-166v1465h166v-598zM418 1321h618q0 -334 -148 -587.5t-458 -438.5l-100 117q491 290 540 770h-452v139z" />
    <glyph glyph-name="uni01C3" unicode="&#x1c3;" horiz-adv-x="2048" 
d="M1024 1733q194 0 370.5 -76t304.5 -204t203.5 -304.5t75.5 -370.5t-75.5 -370.5t-203.5 -304.5t-304.5 -203.5t-370.5 -75.5t-370.5 75.5t-304.5 203.5t-203.5 304.5t-75.5 370.5t75.5 370.5t203.5 304.5t304.5 204t370.5 76zM1024 -111q242 0 446.5 119t323.5 323.5
t119 446.5t-119 446.5t-323.5 323.5t-446.5 119t-446.5 -119t-323.5 -323.5t-119 -446.5t119 -446.5t323.5 -323.5t446.5 -119zM1481 920h248v-140h-248v-727h-166v1465h166v-598zM543 1307v-793q336 3 631 66l18 -146q-322 -67 -692 -67h-121v940h164z" />
    <glyph glyph-name="uni01C4" unicode="&#x1c4;" horiz-adv-x="2048" 
d="M1024 1733q194 0 370.5 -76t304.5 -204t203.5 -304.5t75.5 -370.5t-75.5 -370.5t-203.5 -304.5t-304.5 -203.5t-370.5 -75.5t-370.5 75.5t-304.5 203.5t-203.5 304.5t-75.5 370.5t75.5 370.5t203.5 304.5t304.5 204t370.5 76zM1024 -111q242 0 446.5 119t323.5 323.5
t119 446.5t-119 446.5t-323.5 323.5t-446.5 119t-446.5 -119t-323.5 -323.5t-119 -446.5t119 -446.5t323.5 -323.5t446.5 -119zM1475 883h243v-142h-243v-688h-168v1465h168v-635zM551 1182v-660q195 0 335.5 9.5t282.5 39.5l19 -145q-164 -31 -317.5 -42t-362.5 -11h-121
v948h684v-139h-520z" />
    <glyph glyph-name="uni01C5" unicode="&#x1c5;" horiz-adv-x="2048" 
d="M1024 1733q194 0 370.5 -76t304.5 -204t203.5 -304.5t75.5 -370.5t-75.5 -370.5t-203.5 -304.5t-304.5 -203.5t-370.5 -75.5t-370.5 75.5t-304.5 203.5t-203.5 304.5t-75.5 370.5t75.5 370.5t203.5 304.5t304.5 204t370.5 76zM1024 -111q242 0 446.5 119t323.5 323.5
t119 446.5t-119 446.5t-323.5 323.5t-446.5 119t-446.5 -119t-323.5 -323.5t-119 -446.5t119 -446.5t323.5 -323.5t446.5 -119zM1468 920h250v-140h-250v-727h-165v1465h165v-598zM539 805v-307q193 0 329 10t281 41l16 -143q-163 -31 -315 -41.5t-361 -10.5h-116v582h485
v266h-489v133h655v-530h-485z" />
    <glyph glyph-name="uni01C6" unicode="&#x1c6;" horiz-adv-x="2048" 
d="M1024 1733q194 0 370.5 -76t304.5 -204t203.5 -304.5t75.5 -370.5t-75.5 -370.5t-203.5 -304.5t-304.5 -203.5t-370.5 -75.5t-370.5 75.5t-304.5 203.5t-203.5 304.5t-75.5 370.5t75.5 370.5t203.5 304.5t304.5 204t370.5 76zM1024 -111q242 0 446.5 119t323.5 323.5
t119 446.5t-119 446.5t-323.5 323.5t-446.5 119t-446.5 -119t-323.5 -323.5t-119 -446.5t119 -446.5t323.5 -323.5t446.5 -119zM1468 920h256v-140h-256v-727h-165v1465h165v-598zM385 393v946h664v-946h-664zM545 1204v-678h344v678h-344z" />
    <glyph glyph-name="uni01C7" unicode="&#x1c7;" horiz-adv-x="2048" 
d="M1024 1733q194 0 370.5 -76t304.5 -204t203.5 -304.5t75.5 -370.5t-75.5 -370.5t-203.5 -304.5t-304.5 -203.5t-370.5 -75.5t-370.5 75.5t-304.5 203.5t-203.5 304.5t-75.5 370.5t75.5 370.5t203.5 304.5t304.5 204t370.5 76zM1024 -111q242 0 446.5 119t323.5 323.5
t119 446.5t-119 446.5t-323.5 323.5t-446.5 119t-446.5 -119t-323.5 -323.5t-119 -446.5t119 -446.5t323.5 -323.5t446.5 -119zM1475 920h243v-140h-243v-727h-168v1465h168v-598zM903 1020v350h156v-1022h-670v1022h156v-350h358zM903 494v380h-358v-380h358z" />
    <glyph glyph-name="uni01C8" unicode="&#x1c8;" horiz-adv-x="2048" 
d="M1024 1733q194 0 370.5 -76t304.5 -204t203.5 -304.5t75.5 -370.5t-75.5 -370.5t-203.5 -304.5t-304.5 -203.5t-370.5 -75.5t-370.5 75.5t-304.5 203.5t-203.5 304.5t-75.5 370.5t75.5 370.5t203.5 304.5t304.5 204t370.5 76zM1024 -111q242 0 446.5 119t323.5 323.5
t119 446.5t-119 446.5t-323.5 323.5t-446.5 119t-446.5 -119t-323.5 -323.5t-119 -446.5t119 -446.5t323.5 -323.5t446.5 -119zM1460 920h258v-140h-258v-727h-166v1465h166v-598zM799 1403v-162q0 -252 96 -455t279 -303l-107 -123q-255 142 -350 498q-102 -359 -352 -498
l-109 123q186 100 281.5 301.5t95.5 456.5v162h166z" />
    <glyph glyph-name="uni01C9" unicode="&#x1c9;" horiz-adv-x="2048" 
d="M1024 1733q194 0 370.5 -76t304.5 -204t203.5 -304.5t75.5 -370.5t-75.5 -370.5t-203.5 -304.5t-304.5 -203.5t-370.5 -75.5t-370.5 75.5t-304.5 203.5t-203.5 304.5t-75.5 370.5t75.5 370.5t203.5 304.5t304.5 204t370.5 76zM1024 -111q242 0 446.5 119t323.5 323.5
t119 446.5t-119 446.5t-323.5 323.5t-446.5 119t-446.5 -119t-323.5 -323.5t-119 -446.5t119 -446.5t323.5 -323.5t446.5 -119zM1450 928h256v-140h-256v-735h-168v1465h168v-590zM707 1374q166 0 262 -138.5t96 -377.5q0 -238 -96 -377t-262 -139q-165 0 -262 139.5
t-97 376.5q0 238 97 377t262 139zM707 485q97 0 150.5 99t53.5 274t-53.5 274t-150.5 99t-150 -99t-53 -274t53 -274t150 -99z" />
    <glyph glyph-name="uni01CA" unicode="&#x1ca;" horiz-adv-x="2048" 
d="M1024 1733q194 0 370.5 -76t304.5 -204t203.5 -304.5t75.5 -370.5t-75.5 -370.5t-203.5 -304.5t-304.5 -203.5t-370.5 -75.5t-370.5 75.5t-304.5 203.5t-203.5 304.5t-75.5 370.5t75.5 370.5t203.5 304.5t304.5 204t370.5 76zM1024 -111q242 0 446.5 119t323.5 323.5
t119 446.5t-119 446.5t-323.5 323.5t-446.5 119t-446.5 -119t-323.5 -323.5t-119 -446.5t119 -446.5t323.5 -323.5t446.5 -119zM1466 920h252v-140h-252v-727h-166v1465h166v-598zM834 1192v-125q0 -181 92 -336.5t262 -226.5l-90 -119q-253 118 -344 395
q-94 -278 -346 -395l-91 121q170 71 262.5 225.5t92.5 335.5v125h-293v139h749v-139h-294z" />
    <glyph glyph-name="uni01CB" unicode="&#x1cb;" horiz-adv-x="2048" 
d="M1024 1733q194 0 370.5 -76t304.5 -204t203.5 -304.5t75.5 -370.5t-75.5 -370.5t-203.5 -304.5t-304.5 -203.5t-370.5 -75.5t-370.5 75.5t-304.5 203.5t-203.5 304.5t-75.5 370.5t75.5 370.5t203.5 304.5t304.5 204t370.5 76zM1024 -111q242 0 446.5 119t323.5 323.5
t119 446.5t-119 446.5t-323.5 323.5t-446.5 119t-446.5 -119t-323.5 -323.5t-119 -446.5t119 -446.5t323.5 -323.5t446.5 -119zM1470 920h250v-140h-250v-727h-167v1465h167v-598zM827 1047v-66q0 -161 93 -299.5t260 -202.5l-90 -127q-126 53 -214 146t-133 215
q-96 -256 -346 -361l-90 127q168 64 261.5 202t93.5 300v66h-300v141h297v225h168v-225h283v-141h-283z" />
    <glyph glyph-name="uni01CC" unicode="&#x1cc;" horiz-adv-x="2048" 
d="M1024 1733q194 0 370.5 -76t304.5 -204t203.5 -304.5t75.5 -370.5t-75.5 -370.5t-203.5 -304.5t-304.5 -203.5t-370.5 -75.5t-370.5 75.5t-304.5 203.5t-203.5 304.5t-75.5 370.5t75.5 370.5t203.5 304.5t304.5 204t370.5 76zM1024 -111q242 0 446.5 119t323.5 323.5
t119 446.5t-119 446.5t-323.5 323.5t-446.5 119t-446.5 -119t-323.5 -323.5t-119 -446.5t119 -446.5t323.5 -323.5t446.5 -119zM1468 887h252v-139h-252v-695h-165v1465h165v-631zM428 1325h645q0 -170 -33.5 -316.5t-105.5 -281.5t-192.5 -250.5t-288.5 -208.5l-109 109
q175 90 288 200.5t181 249.5l-455 -45l-26 142l534 37q32 99 41 225h-479v139z" />
    <glyph glyph-name="uni01CD" unicode="&#x1cd;" horiz-adv-x="2048" 
d="M1024 1733q194 0 370.5 -76t304.5 -204t203.5 -304.5t75.5 -370.5t-75.5 -370.5t-203.5 -304.5t-304.5 -203.5t-370.5 -75.5t-370.5 75.5t-304.5 203.5t-203.5 304.5t-75.5 370.5t75.5 370.5t203.5 304.5t304.5 204t370.5 76zM1024 -111q242 0 446.5 119t323.5 323.5
t119 446.5t-119 446.5t-323.5 323.5t-446.5 119t-446.5 -119t-323.5 -323.5t-119 -446.5t119 -446.5t323.5 -323.5t446.5 -119zM1468 920h250v-140h-250v-727h-165v1465h165v-598zM539 817v-293q369 0 626 47l17 -145q-165 -30 -316 -39.5t-374 -9.5h-119v987h688v-141h-522
v-269h475v-137h-475z" />
    <glyph glyph-name="uni01CE" unicode="&#x1ce;" horiz-adv-x="2048" 
d="M1024 1733q194 0 370.5 -76t304.5 -204t203.5 -304.5t75.5 -370.5t-75.5 -370.5t-203.5 -304.5t-304.5 -203.5t-370.5 -75.5t-370.5 75.5t-304.5 203.5t-203.5 304.5t-75.5 370.5t75.5 370.5t203.5 304.5t304.5 204t370.5 76zM1024 -111q242 0 446.5 119t323.5 323.5
t119 446.5t-119 446.5t-323.5 323.5t-446.5 119t-446.5 -119t-323.5 -323.5t-119 -446.5t119 -446.5t323.5 -323.5t446.5 -119zM1487 920h239v-140h-239v-727h-168v1465h168v-598zM1006 1182v-658q98 5 206 19l9 -121q-336 -57 -920 -57l-18 139h100q70 0 109 2v676h-152
v139h815v-139h-149zM641 1182v-674l215 6v668h-215z" />
    <glyph glyph-name="uni01CF" unicode="&#x1cf;" horiz-adv-x="2048" 
d="M1024 1733q194 0 370.5 -76t304.5 -204t203.5 -304.5t75.5 -370.5t-75.5 -370.5t-203.5 -304.5t-304.5 -203.5t-370.5 -75.5t-370.5 75.5t-304.5 203.5t-203.5 304.5t-75.5 370.5t75.5 370.5t203.5 304.5t304.5 204t370.5 76zM1024 -111q242 0 446.5 119t323.5 323.5
t119 446.5t-119 446.5t-323.5 323.5t-446.5 119t-446.5 -119t-323.5 -323.5t-119 -446.5t119 -446.5t323.5 -323.5t446.5 -119zM1481 920h241v-140h-241v-727h-166v1465h166v-598zM836 1427v-217h344v-139h-865v139h353v217h168zM748 965q153 0 252.5 -90t99.5 -232
q0 -140 -99.5 -230.5t-252.5 -90.5t-254 90.5t-101 230.5q0 141 101 231.5t254 90.5zM748 449q92 0 148 53.5t56 140.5t-56 142t-148 55t-149.5 -55t-57.5 -142q0 -86 57.5 -140t149.5 -54z" />
    <glyph glyph-name="uni01D0" unicode="&#x1d0;" horiz-adv-x="2048" 
d="M70 743v35q0 194 75.5 370.5t203.5 304.5t304.5 204t370.5 76q235 0 439.5 -106.5t337 -292t165.5 -412.5h-65q-33 210 -156.5 380t-313.5 267.5t-407 97.5q-178 0 -340 -68t-280 -182.5t-190.5 -272.5t-78.5 -331h344v-70h-409zM641 260v1061h174v-502h4l447 502h190
l-354 -412l403 -649h-184l-324 533l-182 -195v-338h-174zM1024 -176q-236 0 -440 107t-336 292t-168 414h65q24 -158 103 -296.5t194.5 -237.5t266.5 -156.5t315 -57.5q175 0 336 67t280 181.5t192 273t79 334.5h-492v68h559v-35q0 -130 -34.5 -254.5t-96.5 -229
t-150.5 -192t-193 -149t-227.5 -95.5t-252 -34z" />
    <glyph glyph-name="uni01D1" unicode="&#x1d1;" horiz-adv-x="2048" 
d="M406 -27q-133 0 -211 79t-78 229q0 183 142 282.5t446 141.5q0 122 -49 202t-152 80q-71 0 -134.5 -29.5t-138.5 -83.5l-73 127q191 140 379 140q171 0 262.5 -117t91.5 -324v-700h-154l-16 137h-6q-144 -164 -309 -164zM1104 0v1114h131l14 -137h8q31 79 78 120.5
t121 41.5q127 0 156 -176q59 176 194 176q89 0 138 -76.5t49 -222.5v-840h-162v811q0 168 -88 168q-41 0 -70 -37.5t-55 -116.5v-825h-137v811q0 168 -84 168q-78 0 -131 -154v-825h-162zM461 125q116 0 244 141v316q-223 -36 -314.5 -102.5t-91.5 -180.5q0 -174 162 -174z
" />
    <glyph glyph-name="uni01D2" unicode="&#x1d2;" horiz-adv-x="2048" 
d="M571 -25q-99 0 -182.5 47t-148.5 140t-101.5 243.5t-36.5 344.5t37.5 345.5t103 245t150 141.5t182.5 48q172 0 295 -164l-112 -119q-38 59 -78.5 88t-97.5 29q-128 0 -213.5 -153.5t-85.5 -454.5q0 -308 84 -461.5t221 -153.5q58 0 104 32.5t92 100.5l111 -114
q-132 -185 -324 -185zM1321 -25q-160 0 -263.5 150.5t-103.5 429.5q0 143 28.5 256t79 184t116.5 107.5t143 36.5q158 0 261.5 -151t103.5 -433q0 -278 -103.5 -429t-261.5 -151zM1321 131q83 0 135.5 106.5t52.5 317.5t-52.5 320.5t-135.5 109.5q-86 0 -138.5 -108.5
t-52.5 -321.5t51 -318.5t140 -105.5zM1860 -25q-51 0 -86 39t-35 103q0 62 35.5 102.5t85.5 40.5q48 0 83 -40.5t35 -102.5q0 -64 -34.5 -103t-83.5 -39z" />
    <glyph glyph-name="uni01D3" unicode="&#x1d3;" horiz-adv-x="2048" 
d="M141 -432v1546h154l18 -129h6q121 154 263 154q172 0 260 -144t88 -422q0 -283 -110 -442.5t-273 -159.5q-121 0 -223 121l6 -192v-332h-189zM1104 0v1114h131l14 -137h8q31 79 78 120.5t121 41.5q127 0 156 -176q59 176 194 176q89 0 138 -76.5t49 -222.5v-840h-162v811
q0 168 -88 168q-41 0 -70 -37.5t-55 -116.5v-825h-137v811q0 168 -84 168q-78 0 -131 -154v-825h-162zM508 131q98 0 162.5 115.5t64.5 324.5q0 412 -203 412q-100 0 -202 -154v-591q80 -107 178 -107z" />
    <glyph glyph-name="uni01D4" unicode="&#x1d4;" 
d="M1817 940v-139h-295v-953h-168v1838h168v-746h295zM207 1489h840q0 -200 -47.5 -381.5t-146 -348.5t-260.5 -310.5t-380 -251.5l-92 131q701 353 760 1022h-674v139z" />
    <glyph glyph-name="uni01D5" unicode="&#x1d5;" 
d="M1806 1221v-140h-272v-473h-168v1080h168v-467h272zM188 1569h846q0 -344 -226.5 -587t-633.5 -355l-70 133q340 92 532.5 264.5t217.5 407.5h-666v137zM340 389v135h1194v-676h-168v541h-1026z" />
    <glyph glyph-name="uni01D6" unicode="&#x1d6;" 
d="M1534 1126h272v-139h-272v-645h-168v1341h168v-557zM186 1542h856q0 -351 -229 -607.5t-633 -381.5l-67 133q327 103 526 291t223 428h-676v137zM557 479v-452h1057v-138h-1225v590h168z" />
    <glyph glyph-name="uni01D7" unicode="&#x1d7;" 
d="M1534 1235h272v-139h-272v-453h-168v1045h168v-453zM188 1569h846q0 -347 -225.5 -592t-636.5 -356l-63 135q339 92 530.5 266t216.5 410h-668v137zM547 406v-398h1030v-135h-1196v670h1163v-137h-997z" />
    <glyph glyph-name="uni01D8" unicode="&#x1d8;" 
d="M1534 1274h272v-139h-272v-385h-168v936h168v-412zM190 1595h850q0 -338 -228 -565t-638 -323l-63 139q342 74 533.5 233.5t211.5 378.5h-666v137zM537 213v-213h1065v-133h-1229v473h995v195h-1001v133h1167v-455h-997z" />
    <glyph glyph-name="uni01D9" unicode="&#x1d9;" 
d="M1806 1264v-140h-272v-422h-168v981h168v-419h272zM197 1589h843q0 -341 -226.5 -570t-639.5 -329l-61 137q347 79 535 239.5t208 385.5h-659v137zM461 193v-195q200 0 316.5 7.5t234.5 31.5l18 -127q-127 -27 -257 -35t-365 -8h-111v446h432v176h-436v129h598v-425h-430
zM969 483v135h565v-761h-166v626h-399z" />
    <glyph glyph-name="uni01DA" unicode="&#x1da;" 
d="M1806 1264v-142h-272v-415h-168v976h168v-419h272zM193 1589h847q0 -340 -227 -566.5t-639 -322.5l-63 140q344 74 533 233t210 379h-661v137zM430 199v-195q276 0 453 33l16 -131q-117 -23 -226.5 -29t-310.5 -6h-96v453h416v170h-420v127h584v-422h-416zM956 -135v756
h578v-756h-578zM1104 496v-504h282v504h-282z" />
    <glyph glyph-name="uni01DB" unicode="&#x1db;" 
d="M1806 1272v-139h-272v-426h-168v979h168v-414h272zM195 1599h845q0 -340 -227 -566t-639 -322l-63 137q345 77 533.5 235.5t209.5 378.5h-659v137zM1380 395v238h154v-760h-586v760h152v-238h280zM430 197v-195q276 0 453 33l12 -125q-114 -23 -222.5 -29t-310.5 -6h-94
v438h412v170h-416v129h580v-415h-414zM1380 6v262h-280v-262h280z" />
    <glyph glyph-name="uni01DC" unicode="&#x1dc;" 
d="M1806 1237v-139h-272v-455h-168v1045h168v-451h272zM188 1569h848q0 -346 -226.5 -589t-637.5 -355l-66 133q341 92 533 265t217 409h-668v137zM377 -125v682h1157v-682h-1157zM543 422v-412h825v412h-825z" />
    <glyph glyph-name="uni01DD" unicode="&#x1dd;" 
d="M1806 1251v-139h-272v-420h-168v994h168v-435h272zM195 1575h843q0 -342 -226 -573.5t-638 -331.5l-63 137q342 81 530.5 243.5t212.5 387.5h-659v137zM1366 377v231h168v-735h-1161v735h166v-231h827zM1366 8v238h-827v-238h827z" />
    <glyph glyph-name="uni01DE" unicode="&#x1de;" 
d="M1534 1262h272v-140h-272v-436h-168v1000h168v-424zM195 1575h841q0 -343 -224.5 -575t-635.5 -332l-63 137q342 86 530 247.5t211 385.5h-659v137zM1430 610v-147q0 -93 33.5 -184t106.5 -172t175 -125l-90 -125q-218 101 -307 338q-89 -237 -308 -338l-90 125
q152 70 235 203t83 272v153h162zM782 373v221h156v-719h-629v719h158v-221h315zM782 4v240h-315v-240h315z" />
    <glyph glyph-name="uni01DF" unicode="&#x1df;" 
d="M1581 1176h223v-142h-223v-565h-168v1219h168v-512zM197 1542h845q0 -349 -226.5 -601.5t-633.5 -377.5l-69 135q333 100 528.5 284.5t220.5 424.5h-665v135zM1065 604v-80q0 -128 84.5 -240t221.5 -185t302 -103l-67 -133q-209 43 -377.5 149.5t-247.5 259.5
q-81 -156 -249 -263t-380 -150l-69 133q166 28 304.5 101.5t224 187t85.5 243.5v80h168z" />
    <glyph glyph-name="uni01E0" unicode="&#x1e0;" 
d="M1534 1227h272v-140h-272v-430h-168v1033h168v-463zM193 1569h845q0 -348 -227 -593.5t-637 -357.5l-63 140q338 92 529 265.5t216 408.5h-663v137zM1391 584v-129q0 -149 97.5 -277t270.5 -188l-84 -123q-132 48 -225 139.5t-141 212.5q-43 -123 -128.5 -220
t-209.5 -149q-248 99 -340 361q-51 -117 -144.5 -207.5t-218.5 -136.5l-84 123q167 60 268 192.5t101 272.5v129h162v-129q0 -130 65 -249t189 -194q123 77 190.5 202.5t67.5 240.5v129h164z" />
    <glyph glyph-name="uni01E1" unicode="&#x1e1;" 
d="M1534 1210h272v-139h-272v-483h-168v1098h168v-476zM190 1548h848q0 -346 -226.5 -596t-631.5 -370l-67 135q330 99 524 279t219 417h-666v135zM958 563q273 0 435.5 -95.5t162.5 -260.5t-162.5 -261t-435.5 -96t-435.5 96t-162.5 261t162.5 260.5t435.5 95.5zM958 -16
q199 0 316 59.5t117 163.5q0 105 -117 165t-316 60t-315.5 -60t-116.5 -165q0 -104 116.5 -163.5t315.5 -59.5z" />
    <glyph glyph-name="uni01E2" unicode="&#x1e2;" 
d="M1534 1219h272v-142h-272v-442h-168v1055h168v-471zM193 1569h845q0 -345 -225 -584t-637 -348l-63 137q344 87 532.5 256.5t212.5 401.5h-665v137zM1565 410h-510q5 -99 87.5 -189.5t212.5 -152t281 -86.5l-65 -132q-87 15 -173.5 45t-168.5 75t-151 109t-111 140
q-76 -137 -241 -235t-368 -131l-61 129q153 25 283 86t212 151.5t87 190.5h-514v135h1200v-135z" />
    <glyph glyph-name="uni01E3" unicode="&#x1e3;" 
d="M1534 1257h272v-139h-272v-444h-168v1014h168v-431zM195 1567h843q0 -343 -224.5 -575.5t-635.5 -332.5l-63 138q343 80 531.5 245.5t209.5 387.5h-661v137zM1573 389h-526q8 -96 89.5 -183.5t213 -147.5t286.5 -81l-65 -124q-202 33 -368 125.5t-242 224.5
q-81 -133 -243 -225t-366 -125l-65 124q235 33 405 150.5t182 261.5h-526v133h529v219h167v-219h529v-133z" />
    <glyph glyph-name="uni01E4" unicode="&#x1e4;" 
d="M1534 1260h272v-140h-272v-415h-168v981h168v-426zM190 1556h854q0 -340 -224.5 -565.5t-637.5 -320.5l-67 135q348 74 536 234t207 382h-668v135zM545 188v-188h1040v-127h-1208v748h1167v-125h-999v-183h977v-125h-977z" />
    <glyph glyph-name="uni01E5" unicode="&#x1e5;" 
d="M1534 1247h272v-139h-272v-444h-168v1022h168v-439zM197 1567h845q0 -172 -62 -320.5t-177 -263t-273.5 -198.5t-355.5 -136l-63 142q327 82 524.5 250.5t222.5 388.5h-661v137zM1329 438v-422h277v-135h-1260v135h270v422h-254v135h1221v-135h-254zM782 438v-422h381
v422h-381z" />
    <glyph glyph-name="Gcaron" unicode="&#x1e6;" 
d="M1534 1276h272v-139h-272v-420h-168v969h168v-410zM188 1579h850q0 -346 -222 -575t-640 -330l-61 139q348 78 533 240t206 389h-666v137zM1055 805v-217h555v-129h-1278v129h555v217h168zM971 373q242 0 376 -68t134 -192q0 -128 -133 -195.5t-377 -67.5t-377 67.5
t-133 195.5q0 124 134 192t376 68zM971 -27q167 0 259.5 36.5t92.5 103.5q0 66 -93 102.5t-259 36.5t-259.5 -36.5t-93.5 -102.5q0 -67 93 -103.5t260 -36.5z" />
    <glyph glyph-name="gcaron" unicode="&#x1e7;" 
d="M1505 1686h162v-1838h-162v961h-250v-868h-157v1695h157v-690h250v740zM178 1448h717q0 -147 -21 -279t-70.5 -264.5t-127.5 -247t-196.5 -221.5t-272.5 -194l-98 120q305 173 452 410t168 539h-551v137z" />
    <glyph glyph-name="uni01E8" unicode="&#x1e8;" 
d="M1497 1683h162v-1079h-162v481h-242v-473h-159v1039h159v-428h242v460zM190 1548h717q0 -666 -706 -964l-82 123q284 116 438 295t178 411h-545v135zM424 379v137h1235v-668h-168v531h-1067z" />
    <glyph glyph-name="uni01E9" unicode="&#x1e9;" 
d="M1255 985v-610h-159v1276h159v-529h242v561h162v-1370h-162v672h-242zM195 1505h710q0 -676 -700 -979l-84 123q565 246 614 721h-540v135zM623 37h1091v-137h-1259v581h168v-444z" />
    <glyph glyph-name="uni01EA" unicode="&#x1ea;" 
d="M1255 1087v-452h-159v1018h159v-428h242v458h162v-1062h-162v466h-242zM195 1548h714q0 -664 -698 -960l-86 125q563 231 612 700h-542v135zM621 8h1069v-135h-1235v641h1214v-135h-1048v-371z" />
    <glyph glyph-name="uni01EB" unicode="&#x1eb;" 
d="M1255 1135v-379h-159v893h159v-379h242v413h162v-940h-162v392h-242zM197 1573h706q0 -638 -698 -887l-80 123q279 97 431 256.5t177 372.5h-536v135zM616 8h1113v-135h-1278v469h1042v184h-1047v133h1213v-444h-1043v-207z" />
    <glyph glyph-name="uni01EC" unicode="&#x1ec;" 
d="M1497 1683h162v-1052h-162v463h-242v-451h-159v1008h159v-420h242v452zM195 1548h714q0 -664 -698 -960l-86 125q563 230 610 700h-540v135zM453 -123v658h1206v-658h-1206zM616 399v-387h877v387h-877z" />
    <glyph glyph-name="uni01ED" unicode="&#x1ed;" 
d="M1497 1686h162v-998h-162v416h-242v-404h-159v951h159v-410h242v445zM197 1563h710q0 -655 -698 -940l-84 125q561 217 610 677h-538v138zM1493 385v221h166v-729h-1204v729h168v-221h870zM1493 12v240h-870v-240h870z" />
    <glyph glyph-name="uni01EE" unicode="&#x1ee;" 
d="M1255 1063v-410h-159v998h159v-451h242v486h162v-1201h-162v578h-242zM201 1518h710q0 -335 -174 -587t-526 -405l-90 123q568 237 616 731h-536v138zM1133 567v-80q0 -118 89 -225.5t231 -178t304 -95.5l-67 -133q-211 38 -384 143t-257 256q-53 -101 -153 -184
t-224 -136.5t-262 -78.5l-66 133q161 25 302 95.5t230 178t89 225.5v80h168z" />
    <glyph glyph-name="uni01EF" unicode="&#x1ef;" 
d="M1255 1083v-442h-159v1010h159v-430h242v462h162v-1050h-162v450h-242zM195 1548h712q0 -657 -700 -954l-86 125q564 225 612 692h-538v137zM1425 561v-119q0 -146 99.5 -274t269.5 -188l-82 -123q-133 46 -227.5 137t-143.5 211q-44 -120 -129 -216t-208 -149
q-246 98 -338 359q-53 -114 -147 -204t-220 -138l-84 123q169 64 270 193.5t101 268.5v119h162v-119q0 -131 64.5 -248.5t188.5 -189.5q125 79 193 201.5t68 236.5v119h163z" />
    <glyph glyph-name="uni01F0" unicode="&#x1f0;" 
d="M1255 1065v-444h-159v1030h159v-449h242v481h162v-1126h-162v508h-242zM199 1534h710q0 -678 -704 -971l-88 123q570 232 618 713h-536v135zM1055 539q288 0 454 -91.5t166 -250.5q0 -163 -165 -252.5t-455 -89.5q-292 0 -458.5 89.5t-166.5 252.5q0 159 167.5 250.5
t457.5 91.5zM1055 -14q211 0 331.5 56t120.5 155q0 98 -120.5 154.5t-331.5 56.5q-216 0 -336.5 -56t-120.5 -155q0 -100 120 -155.5t337 -55.5z" />
    <glyph glyph-name="uni01F1" unicode="&#x1f1;" 
d="M1812 1053h-290v-412h290v-139h-290v-654h-168v1838h168v-494h290v-139zM207 1489h840q0 -156 -29.5 -302.5t-93.5 -288.5t-160.5 -266.5t-236 -236t-314.5 -198.5l-92 131q701 353 760 1022h-674v139z" />
    <glyph glyph-name="uni01F2" unicode="&#x1f2;" 
d="M1806 1270h-272v-260h272v-136h-272v-266h-168v1080h168v-283h272v-135zM188 1569h846q0 -344 -226.5 -587t-633.5 -355l-70 133q340 92 532.5 264.5t217.5 407.5h-666v137zM340 389v135h1194v-676h-168v541h-1026z" />
    <glyph glyph-name="uni01F3" unicode="&#x1f3;" 
d="M1806 1200h-272v-313h272v-139h-272v-406h-168v1341h168v-344h272v-139zM186 1542h856q0 -347 -229.5 -605.5t-632.5 -383.5l-67 133q327 103 526 291t223 428h-676v137zM557 479v-452h1057v-138h-1225v590h168z" />
    <glyph glyph-name="uni01F4" unicode="&#x1f4;" 
d="M1806 1321h-272v-227h272v-136h-272v-208h-168v936h168v-230h272v-135zM190 1595h850q0 -339 -228 -565.5t-638 -322.5l-63 137q342 74 533.5 234.5t211.5 379.5h-666v137zM537 213v-213h1065v-133h-1229v473h995v195h-1001v133h1167v-455h-997z" />
    <glyph glyph-name="uni01F5" unicode="&#x1f5;" 
d="M1806 1231h-272v-303h272v-140h-272v-323h-168v1221h168v-316h272v-139zM197 1542h845q0 -351 -226 -603.5t-634 -377.5l-69 135q338 100 531 282.5t218 428.5h-665v135zM1065 600v-82q0 -128 84.5 -240t221.5 -185t302 -103l-69 -129q-211 43 -377 147t-246 260
q-81 -156 -249 -263t-380 -150l-69 133q166 28 304.5 101.5t224 186.5t85.5 242v82h168z" />
    <glyph glyph-name="uni01F6" unicode="&#x1f6;" 
d="M1804 1257h-270v-264h270v-137h-270v-268h-168v1098h168v-291h270v-138zM190 1548h848q0 -345 -227.5 -598t-630.5 -368l-67 135q330 99 524 279t219 417h-666v135zM958 563q273 0 435.5 -95.5t162.5 -260.5t-162.5 -261t-435.5 -96t-435.5 96t-162.5 261t162.5 260.5
t435.5 95.5zM958 -16q199 0 316 59.5t117 163.5q0 105 -117 165t-316 60t-315.5 -60t-116.5 -165q0 -104 116.5 -163.5t315.5 -59.5z" />
    <glyph glyph-name="uni01F7" unicode="&#x1f7;" 
d="M1505 1686h162v-1838h-162v703h-250v-612h-157v1697h157v-430h250v480zM178 1448h717q0 -819 -688 -1206l-98 120q305 173 452 410.5t168 538.5h-551v137zM1255 688h250v381h-250v-381z" />
    <glyph glyph-name="uni01F8" unicode="&#x1f8;" 
d="M1255 748v-375h-159v1278h159v-320h242v352h162v-1370h-162v435h-242zM195 1505h710q0 -678 -700 -981l-84 125q565 246 614 721h-540v135zM1497 1194h-242v-309h242v309zM623 37h1091v-137h-1259v579h168v-442z" />
    <glyph glyph-name="uni01F9" unicode="&#x1f9;" 
d="M1255 958v-202h-159v895h159v-217h242v249h162v-940h-162v215h-242zM197 1575h706q0 -637 -698 -895l-80 125q558 196 608 635h-536v135zM1497 1303h-242v-213h242v213zM616 -4h1113v-135h-1278v467h1042v192h-1047v133h1213v-450h-1043v-207z" />
    <glyph glyph-name="Aringacute" unicode="&#x1fa;" 
d="M1497 1683h162v-995h-162v236h-242v-224h-159v949h159v-224h242v258zM197 1563h710q0 -656 -698 -938l-84 123q561 220 610 677h-538v138zM1255 1059h242v231h-242v-231zM1493 385v221h166v-729h-1204v729h168v-221h870zM1493 12v240h-870v-240h870z" />
    <glyph glyph-name="aringacute" unicode="&#x1fb;" 
d="M1452 1683h168v-1835h-168v963h-430v137h430v735zM188 1487h838q0 -881 -827 -1288l-93 131q700 343 752 1022h-670v135z" />
    <glyph glyph-name="AEacute" unicode="&#x1fc;" 
d="M1452 1686h170v-1078h-170v457h-393v137h393v484zM227 1569h826q0 -343 -226 -587.5t-626 -356.5l-68 131q332 94 523.5 268t217.5 408h-647v137zM393 391v135h1229v-671h-170v536h-1059z" />
    <glyph glyph-name="aeacute" unicode="&#x1fd;" 
d="M1055 1118h397v565h170v-1355h-170v653h-397v137zM229 1542h834q0 -347 -229 -610t-625 -393l-72 135q319 104 518 296t228 435h-654v137zM629 27h1040v-138h-1208v576h168v-438z" />
    <glyph glyph-name="Oslashacute" unicode="&#x1fe;" 
d="M1452 641v418h-399v139h399v488h170v-1045h-170zM221 1569h828q0 -343 -225 -589.5t-629 -361.5l-66 136q333 92 525 267.5t218 410.5h-651v137zM604 8h1055v-135h-1223v666h1190v-136h-1022v-395z" />
    <glyph glyph-name="oslashacute" unicode="&#x1ff;" 
d="M1452 743v365h-399v135h399v443h170v-943h-170zM233 1595h807q0 -337 -220.5 -562.5t-622.5 -325.5l-62 133q332 79 517 238t208 382h-627v135zM608 0h1075v-133h-1241v473h1012v190h-1016v134h1184v-451h-1014v-213z" />
    <glyph glyph-name="uni0200" unicode="&#x200;" 
d="M1452 1686h170v-971h-170v389h-397v137h397v445zM227 1591h822q0 -338 -223 -564.5t-629 -326.5l-62 131q336 79 523 240t210 385h-641v135zM496 205v-199q287 0 467 33l16 -131q-118 -23 -228.5 -29t-318.5 -6h-98v457h428v174h-432v129h594v-428h-428zM1036 -127v760
h586v-760h-586zM1184 508v-508h291v508h-291z" />
    <glyph glyph-name="uni0201" unicode="&#x201;" 
d="M1452 1686h168v-1049h-168v438h-399v137h399v474zM221 1569h830q0 -343 -226 -587.5t-626 -356.5l-70 131q334 94 525.5 268t217.5 408h-651v137zM434 -125v684h1186v-684h-1186zM600 426v-416h856v416h-856z" />
    <glyph glyph-name="uni0202" unicode="&#x202;" 
d="M1452 1686h168v-990h-168v389h-397v140h397v461zM225 1571h828q0 -341 -222 -575.5t-632 -338.5l-68 131q341 86 529.5 251t211.5 395h-647v137zM1454 375v229h166v-731h-1188v731h168v-229h854zM1454 8v236h-854v-236h854z" />
    <glyph glyph-name="uni0203" unicode="&#x203;" 
d="M1452 442v588h-395v137h395v516h170v-1241h-170zM227 1540h824q0 -349 -219 -600t-619 -381l-74 133q333 105 519.5 285t211.5 426h-643v137zM1112 602v-84q0 -128 85 -239.5t221.5 -184.5t301.5 -104l-67 -131q-209 43 -377.5 149.5t-247.5 259.5q-81 -156 -249.5 -263
t-381.5 -150l-67 133q166 28 304.5 101.5t224 186.5t85.5 242v84h168z" />
    <glyph glyph-name="uni0204" unicode="&#x204;" 
d="M1452 639v436h-395v139h395v472h170v-1047h-170zM231 1569h820q0 -343 -226 -587.5t-626 -356.5l-70 131q328 95 522 270t219 406h-639v137zM1415 588v-133q0 -147 99 -276.5t270 -184.5l-84 -127q-133 50 -227 139.5t-142 208.5q-45 -120 -131 -215t-209 -147
q-246 93 -342 356q-51 -113 -143.5 -202.5t-218.5 -139.5l-86 127q114 40 199.5 116t128 165.5t42.5 179.5v133h162v-133q0 -129 66 -249t190 -192q124 78 193 202t69 239v133h164z" />
    <glyph glyph-name="uni0205" unicode="&#x205;" 
d="M1452 590v440h-393v137h393v516h170v-1093h-170zM227 1546h828q0 -347 -225.5 -593t-630.5 -367l-68 133q334 99 525 276.5t216 415.5h-645v135zM1024 567q278 0 442 -94.5t164 -259.5t-164 -260.5t-442 -95.5q-280 0 -445 95.5t-165 260.5t165 259.5t445 94.5zM1024 -10
q204 0 322 59.5t118 163.5t-118 163.5t-322 59.5t-324 -59.5t-120 -163.5t120 -163.5t324 -59.5z" />
    <glyph glyph-name="uni0206" unicode="&#x206;" 
d="M1057 1200h395v486h170v-1051h-170v428h-395v137zM227 1569h852q0 -344 -233 -586t-645 -346l-64 135q345 86 541 256t221 404h-672v137zM1645 406h-521q3 -99 84.5 -188.5t213.5 -150t288 -85.5l-63 -129q-205 33 -369.5 127.5t-241.5 228.5q-77 -134 -241.5 -228.5
t-368.5 -127.5l-61 129q156 21 288 82.5t212 152t83 189.5h-512v135h1209v-135z" />
    <glyph glyph-name="uni0207" unicode="&#x207;" 
d="M1452 696v387h-389v140h389v463h170v-990h-170zM223 1575h830q0 -342 -221.5 -575.5t-632.5 -340.5l-66 136q343 86 530.5 250.5t210.5 394.5h-651v135zM614 2h1049v-127h-1217v746h1182v-127h-1014v-181h988v-125h-988v-186z" />
    <glyph glyph-name="uni0208" unicode="&#x208;" 
d="M1051 1206h401v480h170v-1029h-170v410h-401v139zM225 1567h826q0 -339 -227 -579.5t-627 -348.5l-64 133q325 87 519.5 259.5t219.5 398.5h-647v137zM1372 12h287v-135h-1276v135h279v420h-263v135h1237v-135h-264v-420zM827 432v-420h379v420h-379z" />
    <glyph glyph-name="uni0209" unicode="&#x209;" 
d="M1452 711v403h-401v137h401v435h170v-975h-170zM229 1577h807q0 -341 -216.5 -569.5t-626.5 -335.5l-60 135q339 85 521 247t206 388h-631v135zM1104 582h555v-129h-1280v129h557v215h168v-215zM1018 369q242 0 376 -67.5t134 -190.5q0 -124 -133.5 -191t-376.5 -67
t-376.5 67t-133.5 191q0 123 134 190.5t376 67.5zM1018 -29q160 0 248 36.5t88 103.5q0 66 -88 101.5t-248 35.5t-248 -35.5t-88 -101.5q0 -67 88 -103.5t248 -36.5z" />
    <glyph glyph-name="uni020A" unicode="&#x20a;" 
d="M1509 1686h160v-1838h-160v1838zM1126 934v702h160v-1695h-160v858h-376q-181 -336 -541 -555l-98 121q571 344 620 950h-543v137h709q0 -289 -88 -518h317z" />
    <glyph glyph-name="uni020B" unicode="&#x20b;" 
d="M1659 1683v-1378h-162v1378h162zM1133 958h-377q-178 -266 -551 -430l-86 123q573 243 620 721h-536v137h708q0 -236 -82 -413h304v551h157v-1289h-157v600zM633 27h1091v-138h-1259v588h168v-450z" />
    <glyph glyph-name="uni020C" unicode="&#x20c;" 
d="M1659 1683v-940h-162v940h162zM1133 1100h-351q-169 -270 -569 -420l-84 125q564 192 612 635h-532v135h706q0 -177 -61 -340h279v410h157v-893h-157v348zM616 8h1113v-135h-1278v465h1040v182h-1045v133h1213v-442h-1043v-203z" />
    <glyph glyph-name="uni020D" unicode="&#x20d;" 
d="M1497 1683h162v-1056h-162v1056zM1133 1042h-351q-174 -287 -565 -454l-86 125q562 234 612 698h-536v137h708q0 -200 -67 -368h285v465h157v-998h-157v395zM455 -123v662h1204v-662h-1204zM618 403v-391h875v391h-875z" />
    <glyph glyph-name="uni020E" unicode="&#x20e;" 
d="M1497 1683h162v-1009h-162v1009zM1133 1057h-357q-177 -281 -567 -430l-82 123q562 211 610 671h-528v135h702q0 -185 -65 -362h287v451h157v-957h-157v369zM1493 377v221h166v-723h-1204v723h168v-221h870zM1493 10v234h-870v-234h870z" />
    <glyph glyph-name="uni020F" unicode="&#x20f;" 
d="M1659 1686v-1223h-162v1223h162zM1133 1008h-351q-177 -307 -571 -482l-88 123q567 245 616 731h-538v138h708q0 -215 -63 -375h287v502h157v-1024h-157v387zM1126 569v-82q0 -119 89.5 -226t231.5 -176.5t306 -94.5l-65 -133q-214 38 -388 142.5t-258 256.5
q-84 -152 -257.5 -256.5t-387.5 -142.5l-65 133q164 25 305.5 94.5t231 176.5t89.5 226v82h168z" />
    <glyph glyph-name="uni0210" unicode="&#x210;" 
d="M1659 1683v-1058h-162v1058h162zM1133 1028h-361q-179 -276 -559 -440l-88 125q569 225 618 700h-538v135h710q0 -211 -73 -385h291v482h157v-992h-157v375zM1425 561v-119q0 -146 99.5 -274t269.5 -188l-82 -123q-133 46 -227.5 137t-143.5 211q-44 -120 -129 -217
t-208 -148q-246 98 -338 359q-53 -114 -147 -204t-220 -138l-84 123q168 60 269.5 191.5t101.5 270.5v119h162v-119q0 -131 64.5 -248.5t188.5 -189.5q124 78 192.5 201t68.5 237v119h163z" />
    <glyph glyph-name="uni0211" unicode="&#x211;" 
d="M1659 1683v-1126h-162v1126h162zM1133 1026h-355q-174 -293 -571 -463l-86 123q285 116 441 296.5t179 416.5h-540v135h714q0 -192 -67 -371h285v482h157v-1024h-157v405zM1057 537q290 0 456 -90.5t166 -249.5q0 -163 -165.5 -252.5t-456.5 -89.5t-457 89.5t-166 252.5
q0 159 166.5 249.5t456.5 90.5zM1057 -16q211 0 332.5 56.5t121.5 156.5q0 98 -121.5 154.5t-332.5 56.5t-333 -56.5t-122 -154.5q0 -99 122 -156t333 -57z" />
    <glyph glyph-name="uni0212" unicode="&#x212;" 
d="M1452 1688h168v-1838h-168v703h-508v137h508v357h-481q-167 -550 -774 -852l-88 135q704 348 755 1022h-676v135h844q0 -153 -28 -305h448v506z" />
    <glyph glyph-name="uni0213" unicode="&#x213;" 
d="M1452 1686h170v-1096h-170v241h-475v138h475v252h-448q-92 -215 -295 -368.5t-506 -240.5l-68 136q335 91 533 267.5t223 409.5h-660v138h840q0 -106 -24 -205h405v328zM393 373v135h1229v-655h-170v520h-1059z" />
    <glyph glyph-name="uni0214" unicode="&#x214;" 
d="M1452 1686h170v-1068h-170v220h-479v137h479v256h-451q-182 -440 -796 -608l-70 135q333 90 531 265.5t223 408.5h-660v137h840q0 -84 -22 -203h405v320zM348 393v137h600v-682h-168v545h-432zM1034 393v137h588v-682h-170v545h-418z" />
    <glyph glyph-name="uni0215" unicode="&#x215;" 
d="M1452 1169h-459q-196 -444 -780 -632l-74 137q323 104 523 296t229 435h-658v135h838q0 -118 -31 -233h412v376h170v-1366h-170v439h-483v137h483v276zM629 27h1038v-138h-1206v562h168v-424z" />
    <glyph glyph-name="uni0216" unicode="&#x216;" 
d="M1452 1245h-453q-185 -447 -798 -622l-68 135q332 91 526.5 266t219.5 408h-658v137h838q0 -109 -21 -189h414v306h170v-1045h-170v213h-479v137h479v254zM604 8h1055v-135h-1223v666h1190v-136h-1022v-395z" />
    <glyph glyph-name="uni0217" unicode="&#x217;" 
d="M1452 1288h-453q-173 -435 -800 -581l-62 137q341 78 526.5 234t208.5 380h-639v137h822q0 -86 -19 -176h416v267h170v-938h-170v190h-479v131h479v219zM608 0h1075v-133h-1241v473h1012v188h-1016v136h1184v-451h-1014v-213z" />
    <glyph glyph-name="Scommaaccent" unicode="&#x218;" 
d="M1452 1292h-457q-170 -426 -798 -567l-60 137q339 73 525.5 226t209.5 376h-639v135h818q0 -79 -17 -176h418v263h170v-938h-170v194h-483v131h483v219zM1423 541h295v-127h-749v127h291v172h163v-172zM483 211v-207q287 0 484 35l18 -131q-119 -23 -234 -29t-329 -6
h-100v461h413v172h-418v127h582v-422h-416zM1341 342q141 0 231.5 -67.5t90.5 -180.5q0 -111 -91 -178.5t-231 -67.5q-141 0 -232 67.5t-91 178.5q0 114 90.5 181t232.5 67zM1341 -35q79 0 128 35t49 94t-49 94t-128 35t-127.5 -35t-48.5 -94t48.5 -94t127.5 -35z" />
    <glyph glyph-name="scommaaccent" unicode="&#x219;" 
d="M1452 1686h168v-1051h-168v233h-479v138h479v239h-457q-185 -446 -796 -620l-68 131q334 92 527 267t219 409h-656v137h834q0 -90 -19 -187h416v304zM434 -125v682h1186v-682h-1186zM600 424v-414h856v414h-856z" />
    <glyph glyph-name="uni021A" unicode="&#x21a;" 
d="M1452 1686h168v-988h-168v187h-475v137h475v238h-453q-172 -445 -798 -603l-70 134q343 86 531.5 249.5t211.5 393.5h-649v137h830q0 -81 -17 -174h414v289zM1454 375v229h166v-731h-1188v731h168v-229h854zM1454 8v236h-854v-236h854z" />
    <glyph glyph-name="uni021B" unicode="&#x21b;" 
d="M1452 1202h-461q-166 -440 -778 -643l-74 131q333 105 520.5 286t212.5 427h-645v137h826q0 -112 -21 -201h420v344h170v-1245h-170v375h-479v137h479v252zM1112 598v-80q0 -127 85 -239t222 -185.5t301 -101.5l-67 -133q-210 43 -378 149t-247 260q-81 -156 -249.5 -263
t-381.5 -150l-67 133q166 28 304.5 101.5t224 186.5t85.5 242v80h168z" />
    <glyph glyph-name="uni021C" unicode="&#x21c;" 
d="M1452 1241h-457q-183 -441 -796 -616l-68 131q329 91 525 267.5t221 408.5h-646v137h826q0 -111 -21 -191h416v308h168v-1049h-168v223h-479v137h479v244zM1415 588v-133q0 -147 98.5 -275t270.5 -188l-84 -125q-133 50 -227 139.5t-142 208.5q-45 -120 -131 -216
t-209 -149q-247 99 -342 359q-51 -113 -143.5 -202.5t-218.5 -139.5l-86 125q172 64 271 193.5t99 269.5v133h162v-133q0 -130 66 -249.5t190 -191.5q124 78 193 202t69 239v133h164z" />
    <glyph glyph-name="uni021D" unicode="&#x21d;" 
d="M1452 1210h-459q-186 -448 -792 -624l-68 133q334 99 525 275.5t216 416.5h-647v135h830q0 -104 -21 -198h416v335h170v-1097h-170v241h-481v138h481v245zM1022 565q280 0 444 -94.5t164 -259.5t-164 -259.5t-444 -94.5t-444 94.5t-164 259.5t164 259.5t444 94.5z
M1022 -12q204 0 323 59.5t119 163.5t-118.5 162.5t-323.5 58.5t-323.5 -58.5t-118.5 -162.5t119 -163.5t323 -59.5z" />
    <glyph glyph-name="uni021E" unicode="&#x21e;" 
d="M1452 1268h-453q-173 -446 -800 -609l-68 134q345 85 533 250.5t213 396.5h-654v135h832q0 -79 -17 -176h414v287h168v-992h-168v213h-477v131h477v230zM614 2h1049v-127h-1217v746h1182v-127h-1014v-181h988v-125h-988v-186z" />
    <glyph glyph-name="uni021F" unicode="&#x21f;" 
d="M1509 1686h160v-1836h-160v1836zM1141 1174v462h159v-1693h-159v635h-332v137h332v323h-303q-142 -502 -633 -792l-99 119q573 343 621 950h-539v137h705q0 -134 -25 -278h273z" />
    <glyph glyph-name="uni0220" unicode="&#x220;" 
d="M1659 1683v-1366h-162v1366h162zM1145 1141h-297q-152 -407 -647 -623l-84 125q573 246 620 729h-534v137h708q0 -119 -24 -233h258v371h158v-1285h-158v375h-334v137h334v267zM629 27h1091v-138h-1259v594h168v-456z" />
    <glyph glyph-name="uni0221" unicode="&#x221;" 
d="M1659 1683v-946h-162v946h162zM1145 1274h-279q-68 -202 -229.5 -347.5t-423.5 -244.5l-84 123q561 195 608 635h-528v135h704q0 -104 -14 -170h246v240h158v-897h-158v186h-301v131h301v209zM616 0h1113v-133h-1278v467h1040v186h-1045v133h1213v-444h-1043v-209z" />
    <glyph glyph-name="uni0222" unicode="&#x222;" 
d="M1497 1683h162v-1013h-162v1013zM1145 1241h-283q-136 -410 -653 -612l-84 125q287 105 437 270.5t175 396.5h-528v135h700q0 -83 -16 -184h252v273h158v-961h-158v207h-295v131h295v219zM1493 377v219h166v-719h-1204v719h168v-219h870zM1493 12v232h-870v-232h870z" />
    <glyph glyph-name="uni0223" unicode="&#x223;" 
d="M1659 1686v-1242h-162v1242h162zM1133 1198h-273q-135 -442 -649 -674l-90 127q566 245 616 729h-536v138h708q0 -97 -14 -185h238v312h157v-1045h-157v231h-289v138h289v229zM1126 553v-74q0 -115 89 -220.5t231.5 -175.5t306.5 -95l-63 -129q-210 33 -386.5 137.5
t-261.5 253.5q-84 -152 -258.5 -255t-388.5 -136l-63 129q163 25 305 94.5t231.5 175t89.5 221.5v74h168z" />
    <glyph glyph-name="uni0224" unicode="&#x224;" 
d="M1405 1319v45h-1120v137h1288v-182q0 -124 -1 -185t-6.5 -179.5t-21 -236t-41.5 -249.5l-168 18q26 124 41.5 239t21 233.5t6.5 179t1 180.5zM924 244h848v-138h-1661v138h645v657h168v-657z" />
    <glyph glyph-name="uni0225" unicode="&#x225;" 
d="M1393 1446v4h-1086v135h1252v-139q0 -99 -1.5 -152.5t-12 -155.5t-32.5 -198l-167 16q22 96 33 193t12.5 151t1.5 146zM958 811h809v-135h-1654v135h678v373h167v-373zM289 332v135h1267v-619h-167v484h-1100z" />
    <glyph glyph-name="uni0226" unicode="&#x226;" 
d="M1509 895l-168 20q24 106 36 210t14 163.5t2 151.5h-1088v137h1254v-129q0 -94 -2 -156.5t-13.5 -174t-34.5 -222.5zM958 770h809v-137h-1656v137h680v379h167v-379zM487 446v-419h1117v-138h-1285v557h168z" />
    <glyph glyph-name="uni0227" unicode="&#x227;" 
d="M1393 1446v20h-1088v136h1254v-156q0 -95 -2 -153t-13.5 -151t-34.5 -181l-166 18q23 88 34.5 177t13.5 144t2 146zM958 854h809v-135h-1656v135h680v344h167v-344zM483 381v-369h1100v-137h-1268v643h1241v-137h-1073z" />
    <glyph glyph-name="uni0228" unicode="&#x228;" 
d="M1524 1057l-166 16q35 182 35 404h-1086v135h1252v-119q0 -256 -35 -436zM958 952h809v-133h-1654v133h678v320h167v-320zM477 209v-205h1135v-133h-1301v461h1088v184h-1094v133h1262v-440h-1090z" />
    <glyph glyph-name="uni0229" unicode="&#x229;" 
d="M1518 1010l-164 18q39 188 39 438h-1086v136h1252v-115q0 -278 -41 -477zM958 911h807v-135h-1652v135h678v332h167v-332zM451 193v-197q172 0 268.5 6t198.5 27l14 -127q-113 -23 -217.5 -28t-329.5 -5h-96v444h422v172h-428v125h589v-417h-421zM991 -131v741h592v-741
h-592zM1135 485v-489h303v489h-303z" />
    <glyph glyph-name="uni022A" unicode="&#x22a;" 
d="M1393 1466v9h-1086v135h1252v-144q0 -90 -1.5 -141t-10.5 -138.5t-27 -168.5l-166 18q18 80 27 163t10.5 131.5t1.5 135.5zM958 918h807v-136h-1652v136h678v333h167v-333zM1386 645v-178q0 -98 34.5 -190.5t108 -173.5t177.5 -126l-92 -118q-217 100 -307 340
q-90 -240 -306 -340l-92 118q154 70 237 205.5t83 284.5v178h157zM451 195v-199q159 0 252.5 6t193.5 25l12 -127q-115 -19 -222.5 -25t-303.5 -6h-94v444h422v172h-428v127h589v-417h-421z" />
    <glyph glyph-name="uni022B" unicode="&#x22b;" 
d="M1518 1036l-164 19q18 87 27 173.5t10.5 133.5t1.5 125h-1086v135h1252v-113q0 -276 -41 -473zM958 934h809v-135h-1654v135h678v332h167v-332zM1382 688v-168h308v-125h-770v125h301v168h161zM440 205v-201q179 0 280 6t206 25l18 -125q-117 -23 -223.5 -28t-337.5 -5
h-98v451h407v172h-413v125h571v-420h-410zM1300 328q137 0 224.5 -65.5t87.5 -174.5t-87.5 -174.5t-224.5 -65.5q-136 0 -221.5 65.5t-85.5 174.5t85.5 174.5t221.5 65.5zM1300 -35q75 0 120.5 33t45.5 90q0 59 -45 91t-121 32q-75 0 -119 -32t-44 -91q0 -57 44.5 -90
t118.5 -33z" />
    <glyph glyph-name="uni022C" unicode="&#x22c;" 
d="M1393 1448v20h-1086v136h1252v-156q0 -95 -2 -152.5t-13.5 -150t-34.5 -180.5l-166 20q23 87 34.5 175t13.5 142.5t2 145.5zM958 860h809v-137h-1654v137h678v352h167v-352zM311 -127v647h1252v-647h-1252zM477 387v-379h922v379h-922z" />
    </font>
</defs>
</svg>
