<?xml version="1.0" standalone="no"?>
<!DOCTYPE svg PUBLIC "-//W3C//DTD SVG 1.1//EN" "http://www.w3.org/Graphics/SVG/1.1/DTD/svg11.dtd" >
<svg xmlns="http://www.w3.org/2000/svg" xmlns:xlink="http://www.w3.org/1999/xlink" version="1.1">
<metadata>
Created by FontForge 20170731 at Wed Jan 27 09:52:56 2021
 By Aleksey,,,
</metadata>
<defs>
<font id="SpoqaHanSansNeo-Thin" horiz-adv-x="1884" >
  <font-face 
    font-family="SpoqaHanSansNeo-Thin"
    font-weight="100"
    font-stretch="normal"
    units-per-em="2048"
    panose-1="2 0 2 3 0 0 0 0 0 0"
    ascent="1638"
    descent="-410"
    x-height="963"
    cap-height="1671"
    bbox="-68 -526 2048 1925"
    underline-thickness="102"
    underline-position="-307"
    unicode-range="U+0001-0BE8"
  />
<missing-glyph horiz-adv-x="2048" 
 />
    <glyph glyph-name=".notdef" horiz-adv-x="2048" 
 />
    <glyph glyph-name=".null" horiz-adv-x="0" 
 />
    <glyph glyph-name="uni000D" unicode="&#xd;" horiz-adv-x="315" 
d="M55 -100l70 360h92l-100 -360h-62z" />
    <glyph glyph-name="uni0001" horiz-adv-x="450" 
 />
    <glyph glyph-name="uni0002" horiz-adv-x="563" 
d="M246 1509h76v-141l-9 -1038h-59l-8 1038v141zM233 -27v105h99v-105h-99z" />
    <glyph glyph-name="uni0003" horiz-adv-x="765" 
d="M203 1106l-15 319v138h91v-138l-13 -319h-63zM498 1106l-17 319v138h92v-138l-16 -319h-59z" />
    <glyph glyph-name="uni0004" horiz-adv-x="1067" 
d="M211 0l59 492h-188v65h197l51 397h-203v66h207l57 444h66l-58 -444h349l59 444h65l-57 -444h184v-66h-190l-49 -397h192v-65h-202l-58 -492h-65l57 492h-348l-60 -492h-65zM344 557h350l49 397h-350z" />
    <glyph glyph-name="uni0005" horiz-adv-x="1230" 
d="M600 -147v165q-137 1 -253.5 56.5t-196.5 150.5l45 45q74 -87 178.5 -136.5t226.5 -53.5v665l-92 39q-44 19 -77 36.5t-75.5 49t-70 66t-47 84.5t-19.5 108q0 146 107 236.5t274 95.5v182h57v-184q103 -7 191 -51t149 -107l-39 -45q-124 128 -301 142v-611l97 -38
q56 -26 92.5 -45.5t80 -52t68 -67t41.5 -85.5t17 -113q0 -153 -109 -254t-287 -113v-165h-57zM283 1137q0 -50 18 -94t43.5 -74.5t64 -58t67.5 -43t65 -31.5l59 -25v588q-143 -5 -230 -75.5t-87 -186.5zM723 696l-66 27v-641q154 11 242 90.5t88 208.5q0 55 -14.5 99.5
t-35 74t-59.5 57.5t-70 44t-85 40z" />
    <glyph glyph-name="uni0006" horiz-adv-x="1802" 
d="M406 625q-151 0 -231.5 111.5t-80.5 336.5q0 220 81 331.5t231 111.5t231.5 -112t81.5 -331q0 -225 -81 -336.5t-232 -111.5zM442 -25l834 1541h74l-832 -1541h-76zM406 684q114 0 177.5 100t63.5 289t-63 286t-178 97q-113 0 -177.5 -97.5t-64.5 -285.5t64.5 -288.5
t177.5 -100.5zM1397 -25q-151 0 -232.5 112t-81.5 337q0 219 82 330.5t232 111.5t230.5 -111t80.5 -331q0 -225 -80.5 -337t-230.5 -112zM1397 35q112 0 176.5 100t64.5 289q0 188 -64 285.5t-177 97.5q-115 0 -179.5 -97.5t-64.5 -285.5q0 -189 65 -289t179 -100z" />
    <glyph glyph-name="uni0007" horiz-adv-x="1251" 
d="M1016 264l223 -248h-88l-170 197q-86 -104 -201 -155.5t-276 -57.5q-194 0 -304 94.5t-122 259.5q-8 148 86 271q88 119 246 178l-39 47q-143 155 -150 299q-4 141 74.5 221t226.5 86h13q124 0 203 -74t83 -196q2 -59 -18.5 -114t-49 -94t-75.5 -78.5t-81.5 -62
t-84.5 -51.5l461 -473q84 109 145 361h62q-62 -284 -164 -410zM422 887l53 -51q49 27 83 48.5t74 55t64 66.5t40 78.5t14 95.5q-6 99 -64 158t-151 59h-11q-103 -4 -157.5 -52t-69.5 -112q-44 -145 125 -346zM934 256l-483 500q-70 -31 -121 -64.5t-96 -80.5t-67 -111
t-20 -144q12 -138 104 -215.5t255 -77.5q270 9 428 193z" />
    <glyph glyph-name="uni0008" horiz-adv-x="473" 
d="M203 1106l-15 319v138h91v-138l-13 -319h-63z" />
    <glyph glyph-name="uni0009" unicode="&#x9;" horiz-adv-x="612" 
d="M569 -250l-43 -26q-146 233 -221.5 481t-75.5 536q0 286 75.5 535t221.5 485l43 -28q-272 -432 -272 -992q0 -559 272 -991z" />
    <glyph glyph-name="uni000A" unicode="&#xa;" horiz-adv-x="612" 
d="M117 -274l-45 26q274 440 274 991q0 552 -274 992l45 28q144 -239 220.5 -488t76.5 -532q0 -288 -75.5 -536t-221.5 -481z" />
    <glyph glyph-name="uni000B" horiz-adv-x="874" 
d="M293 1073l-49 35l121 197l-201 75l20 58l207 -60l15 228h61l14 -224l207 56l19 -58l-199 -75l123 -197l-51 -35l-142 184z" />
    <glyph glyph-name="uni000C" horiz-adv-x="1067" 
d="M496 252v459h-420v65h420v461h75v-461h420v-65h-420v-459h-75z" />
    <glyph glyph-name="uni000E" horiz-adv-x="821" 
d="M90 711v65h641v-65h-641z" />
    <glyph glyph-name="uni000F" horiz-adv-x="483" 
d="M139 -29v105h99v-105h-99z" />
    <glyph glyph-name="uni0010" horiz-adv-x="811" 
d="M18 -258l717 1962h70l-715 -1962h-72z" />
    <glyph glyph-name="uni0011" horiz-adv-x="1187" 
d="M1122 741q0 -189 -41 -336.5t-113.5 -239t-167.5 -138.5t-208 -47q-111 0 -205.5 47t-166.5 138.5t-113 239t-41 336.5q0 191 41 339.5t113.5 240t166.5 138t205 46.5q113 0 208 -46.5t167.5 -138t113.5 -240t41 -339.5zM1055 741q0 351 -142 537q-131 168 -321 168
t-318 -168q-143 -187 -143 -537q0 -345 143 -532q66 -86 143 -127t175 -41q190 0 321 168q142 186 142 532z" />
    <glyph glyph-name="uni0012" horiz-adv-x="1187" 
d="M664 59h337v-59h-755v59h350v1289q0 21 4 67l-330 -303l-41 47l387 348h48v-1448z" />
    <glyph glyph-name="uni0013" horiz-adv-x="1187" 
d="M1075 66v-66h-956v45l540 549q66 66 121 127q61 61 99 127q35 46 65 127q23 77 23 141q0 78 -29 154q-61 126 -193 166q-150 40 -276 -6q-71 -27 -111.5 -62.5t-83.5 -103.5q-32 -62 -43 -134q-6 -15 -6 -24v-10h-67l2 24q12 110 51 166q34 69 96 125q62 45 137 80
q152 55 322 4q131 -39 200.5 -140t69.5 -239q0 -218 -209 -438q-18 -19 -58 -61.5t-62 -65.5l-480 -488q27 3 62 3h786z" />
    <glyph glyph-name="uni0014" horiz-adv-x="1187" 
d="M229 1092h-67q14 191 137 306t313 115q177 0 291 -90q64 -50 95.5 -122.5t31.5 -190.5q-10 -129 -73.5 -208.5t-186.5 -127.5q133 -32 215 -123q91 -101 88 -252q0 -94 -41.5 -174.5t-109 -134t-154 -83.5t-176.5 -30q-203 0 -326 103.5t-155 298.5h71q13 -115 97 -209
q108 -131 313 -131q100 1 172.5 31.5t132.5 85.5q53 48 81 114.5t28 126.5q-2 82 -25.5 138.5t-77.5 103.5q-56 49 -149.5 75.5t-212.5 22.5v60q194 -3 313 98q57 49 84 103t27 130q0 83 -31 147.5t-82.5 102.5t-113 57t-128.5 19q-165 -8 -261 -94.5t-120 -267.5z" />
    <glyph glyph-name="uni0015" horiz-adv-x="1187" 
d="M879 -12h-64v461h-735l-19 45l768 1011h50v-993h288v-63h-288v-461zM154 512h661v870z" />
    <glyph glyph-name="uni0016" horiz-adv-x="1187" 
d="M395 1432l-94 -531q134 34 266 31q116 0 208 -35.5t149.5 -98t87.5 -144t30 -177.5q-5 -155 -75 -270t-183 -173t-254 -61q-229 0 -383 127l43 58q92 -65 163 -90.5t179 -26.5q198 8 319 123.5t124 312.5q-5 181 -109 288t-311 107q-112 3 -289 -45l-43 17l117 653h664
v-65h-609z" />
    <glyph glyph-name="uni0017" horiz-adv-x="1187" 
d="M844 1501l-459 -614q-13 -18 -26 -35.5t-20.5 -28t-10.5 -14.5q-5 -5 -15.5 -19t-17.5 -22q104 117 326 117q199 0 323.5 -127t124.5 -326q0 -204 -135 -332.5t-356 -128.5q-205 0 -332 130.5t-127 355.5q0 187 196 448l445 596h84zM578 35q185 0 304 105t119 288
q0 186 -106.5 289.5t-282.5 103.5q-113 0 -209 -45.5t-156.5 -134.5t-60.5 -203q0 -172 110.5 -287.5t281.5 -115.5z" />
    <glyph glyph-name="uni0018" horiz-adv-x="1187" 
d="M377 0h-78l735 1425h-901v66h989v-47z" />
    <glyph glyph-name="uni0019" horiz-adv-x="1187" 
d="M756 776q153 -31 235 -135t82 -262q0 -184 -133.5 -295t-347.5 -111q-210 0 -344.5 111t-134.5 295q0 159 81 262t234 137q-125 33 -193.5 128.5t-68.5 228.5q0 160 117 268t309 108q193 0 308 -107.5t120 -268.5q0 -131 -70 -228.5t-194 -130.5zM233 1135
q0 -139 94 -234.5t265 -95.5q157 0 257.5 87t100.5 241q0 100 -50 172.5t-129.5 106.5t-178.5 34q-165 0 -262 -84.5t-97 -226.5zM592 37q82 0 154.5 21.5t130 62.5t92 108t35.5 152q3 60 -17 131q-45 119 -150.5 174t-244.5 55q-159 0 -270 -71q-70 -45 -106 -113.5
t-36 -175.5q0 -153 115.5 -248.5t296.5 -95.5z" />
    <glyph glyph-name="uni001A" horiz-adv-x="1187" 
d="M377 0l424 627q31 43 55 75t27 35q-54 -49 -138.5 -74.5t-166.5 -25.5q-194 4 -313.5 127.5t-119.5 314.5t135 316t338 125q193 0 318 -127.5t125 -337.5q0 -100 -46 -201.5t-145 -239.5l-411 -614h-82zM588 702q169 3 287 103.5t118 265.5t-105 274t-270 109
q-111 0 -202.5 -44t-147 -130t-55.5 -199q0 -179 100.5 -279t274.5 -100z" />
    <glyph glyph-name="uni001B" horiz-adv-x="405" 
d="M154 1032v105h98v-105h-98zM154 117v104h98v-104h-98z" />
    <glyph glyph-name="uni001C" horiz-adv-x="405" 
d="M154 1032v105h98v-105h-98zM84 -139l70 360h98l-100 -360h-68z" />
    <glyph glyph-name="uni001D" horiz-adv-x="925" 
d="M76 766l704 506v-80l-633 -461l633 -450v-80l-704 499v66z" />
    <glyph glyph-name="uni001E" horiz-adv-x="1067" 
d="M76 938v63h915v-63h-915zM76 485v66h915v-66h-915z" />
    <glyph glyph-name="uni001F" horiz-adv-x="927" 
d="M145 1192v80l705 -506v-66l-705 -499v80l633 450z" />
    <glyph glyph-name="space" unicode=" " horiz-adv-x="888" 
d="M483 328h-69q0 176 36 287t144 219l86 92q62 75 79.5 172.5t-18.5 189.5q-35 84 -106 130t-164 46q-150 0 -232 -94.5t-104 -253.5h-69q21 196 120.5 307t288.5 111q113 0 200 -57t128 -160q41 -107 23.5 -221t-87.5 -207l-86 -92q-103 -96 -138.5 -193t-31.5 -276z
M403 -27v105h99v-105h-99z" />
    <glyph glyph-name="exclam" unicode="!" horiz-adv-x="1812" 
d="M862 -322q-162 0 -299.5 53.5t-236 152t-154 245.5t-55.5 326q0 212 72.5 394.5t194 305.5t281.5 192.5t334 69.5q320 0 508.5 -191.5t188.5 -512.5q0 -109 -24.5 -204.5t-65.5 -163.5t-94 -117t-109 -73t-111 -24q-95 0 -151 42.5t-62 127.5h-4q-72 -74 -138.5 -116
t-137.5 -42q-109 0 -181.5 78t-72.5 225q0 82 28.5 168.5t79.5 162t132.5 123.5t177.5 48q121 0 188 -108h4l19 90h61l-78 -416q-77 -317 139 -317q56 0 113 34.5t105.5 97t79 162t30.5 216.5q0 297 -171 471t-460 174q-124 0 -243.5 -40.5t-221 -119t-178 -185
t-120.5 -248.5t-44 -300q0 -326 186.5 -519.5t493.5 -193.5q205 0 383 111l35 -58q-195 -121 -422 -121zM807 209q115 0 254 158l72 399q-42 65 -81.5 90t-95.5 25q-75 0 -140.5 -39t-108.5 -101.5t-67 -138.5t-24 -151q0 -127 52.5 -184.5t138.5 -57.5z" />
    <glyph glyph-name="quotedbl" unicode="&#x22;" horiz-adv-x="1175" 
d="M1071 0l-184 528h-602l-187 -528h-75l530 1487h68l532 -1487h-82zM307 594h557l-102 297q-108 310 -170 518h-8q-51 -171 -172 -518z" />
    <glyph glyph-name="numbersign" unicode="#" horiz-adv-x="1294" 
d="M225 0v1487h389q229 0 357.5 -90.5t128.5 -270.5q0 -120 -60 -204t-176 -119v-10q152 -24 240 -117t88 -244q0 -210 -147 -321t-404 -111h-416zM301 827h268q235 0 343 75t108 220q0 160 -107 229.5t-329 69.5h-283v-594zM301 68h313q240 0 371 87.5t131 272.5
q0 332 -502 332h-313v-692z" />
    <glyph glyph-name="dollar" unicode="$" horiz-adv-x="1267" 
d="M741 -27q-277 0 -445.5 212.5t-168.5 562.5t171.5 557.5t455.5 207.5q120 0 217.5 -50t161.5 -126l-48 -51q-136 156 -331 156q-253 0 -400 -187t-147 -507q0 -321 145 -512t393 -191q114 0 205 46t180 142l48 -49q-92 -105 -195 -158t-242 -53z" />
    <glyph glyph-name="percent" unicode="%" horiz-adv-x="1353" 
d="M225 0v1487h334q169 0 297.5 -52.5t209 -150.5t121 -232.5t40.5 -303.5q0 -168 -40 -303.5t-120 -235.5t-208.5 -154.5t-297.5 -54.5h-336zM301 68h248q124 0 224 33.5t169 93t115.5 145t68 187.5t21.5 221q0 150 -34.5 270.5t-105.5 211t-187 140t-271 49.5h-248v-1351z
" />
    <glyph glyph-name="ampersand" unicode="&#x26;" horiz-adv-x="1150" 
d="M225 0v1487h799v-68h-723v-592h606v-67h-606v-692h746v-68h-822z" />
    <glyph glyph-name="quotesingle" unicode="'" horiz-adv-x="1060" 
d="M225 0v1487h795v-68h-719v-620h606v-66h-606v-733h-76z" />
    <glyph glyph-name="parenleft" unicode="(" horiz-adv-x="1353" 
d="M754 -27q-283 0 -455 212.5t-172 562.5q0 351 176.5 558t472.5 207q235 0 398 -176l-48 -51q-141 156 -350 156q-265 0 -417 -186.5t-152 -507.5q0 -322 147.5 -512.5t405.5 -190.5q106 0 200.5 32t149.5 87v487h-367v68h447v-580q-156 -166 -436 -166z" />
    <glyph glyph-name="parenright" unicode=")" horiz-adv-x="1429" 
d="M225 0v1487h76v-660h827v660h78v-1487h-78v760h-827v-760h-76z" />
    <glyph glyph-name="asterisk" unicode="*" horiz-adv-x="526" 
d="M225 0v1487h76v-1487h-76z" />
    <glyph glyph-name="plus" unicode="+" horiz-adv-x="1030" 
d="M453 -27q-239 0 -357 213l64 39q56 -97 125.5 -138.5t169.5 -41.5q143 0 210.5 86.5t67.5 271.5v1084h78v-1094q0 -92 -19.5 -166t-60.5 -132t-112 -90t-166 -32z" />
    <glyph glyph-name="comma" unicode="," horiz-adv-x="1243" 
d="M225 0v1487h76v-852h4l752 852h96l-477 -545l541 -942h-91l-508 883l-317 -359v-524h-76z" />
    <glyph glyph-name="hyphen" unicode="-" horiz-adv-x="1040" 
d="M225 0v1487h76v-1419h696v-68h-772z" />
    <glyph glyph-name="period" unicode="." horiz-adv-x="1576" 
d="M225 0v1487h121l318 -897q20 -57 60.5 -167.5t61.5 -168.5h9q42 118 116 336l320 897h121v-1487h-76v1028q0 225 8 389h-8l-115 -327l-334 -924h-79l-336 924l-117 327h-8q10 -205 10 -389v-1028h-72z" />
    <glyph glyph-name="slash" unicode="/" horiz-adv-x="1425" 
d="M225 0v1487h80l656 -1084l169 -292h11q-13 232 -13 419v957h74v-1487h-82l-653 1083l-170 293h-8q8 -185 8 -407v-969h-72z" />
    <glyph glyph-name="zero" unicode="0" horiz-adv-x="1462" 
d="M731 -27q-175 0 -312 95.5t-214.5 272.5t-77.5 407q0 348 168.5 556.5t435.5 208.5t435.5 -208.5t168.5 -556.5q0 -230 -77.5 -407t-214.5 -272.5t-312 -95.5zM731 45q236 0 380 192.5t144 510.5q0 317 -144 505.5t-380 188.5t-380 -188.5t-144 -505.5q0 -318 144 -510.5
t380 -192.5z" />
    <glyph glyph-name="one" unicode="1" horiz-adv-x="1224" 
d="M225 0v1487h359q264 0 398 -95t134 -311q0 -426 -524 -426h-291v-655h-76zM301 723h264q244 0 356.5 84t112.5 274q0 189 -114 263.5t-363 74.5h-256v-696z" />
    <glyph glyph-name="two" unicode="2" horiz-adv-x="1462" 
d="M1221 -268l-242 299q-113 -58 -248 -58q-175 0 -312 95.5t-214.5 272.5t-77.5 407q0 348 168.5 556.5t435.5 208.5t435.5 -208.5t168.5 -556.5q0 -236 -78.5 -411t-218.5 -271l289 -334h-106zM731 45q236 0 380 192.5t144 510.5q0 317 -144 505.5t-380 188.5t-380 -188.5
t-144 -505.5q0 -318 144 -510.5t380 -192.5z" />
    <glyph glyph-name="three" unicode="3" horiz-adv-x="1206" 
d="M1139 0h-88l-420 700h-330v-700h-76v1487h412q229 0 354 -93t125 -290q0 -177 -104 -278.5t-293 -120.5zM301 766h309q424 0 424 338q0 168 -106 241.5t-318 73.5h-309v-653z" />
    <glyph glyph-name="four" unicode="4" horiz-adv-x="1165" 
d="M604 -27q-297 0 -495 226l51 53q83 -99 196.5 -153t247.5 -54q179 0 284 86.5t105 228.5q0 57 -15 103.5t-37 77.5t-62 60t-73 46t-87 41l-227 103q-46 19 -82 37.5t-80 51t-73 69t-49 90.5t-20 116q0 160 119 259t303 99q127 0 230.5 -48.5t175.5 -127.5l-47 -51
q-149 156 -359 156q-156 0 -250 -75.5t-94 -203.5q0 -64 20.5 -113t67 -85.5t73 -52.5t85.5 -43q9 -5 14 -7l228 -102q58 -26 98.5 -48t84.5 -57t70.5 -73t44 -93t17.5 -122q0 -172 -128.5 -283t-336.5 -111z" />
    <glyph glyph-name="five" unicode="5" horiz-adv-x="1173" 
d="M547 0v1419h-479v68h1038v-68h-479v-1419h-80z" />
    <glyph glyph-name="six" unicode="6" horiz-adv-x="1421" 
d="M709 -27q-77 0 -144 16t-132 57.5t-110.5 105.5t-73.5 167.5t-28 237.5v930h76v-914q0 -119 22.5 -211.5t60.5 -151t91.5 -96.5t111.5 -53.5t126 -15.5q69 0 128 15.5t114 53.5t93 96.5t61 151t23 211.5v914h74v-930q0 -134 -28.5 -237.5t-75 -167.5t-112 -105.5
t-133 -57.5t-144.5 -16z" />
    <glyph glyph-name="seven" unicode="7" horiz-adv-x="1089" 
d="M508 0l-494 1487h80l287 -889q94 -315 162 -502h8q23 64 46 132.5t37.5 113.5t40.5 128.5t40 127.5l284 889h78l-491 -1487h-78z" />
    <glyph glyph-name="eight" unicode="8" horiz-adv-x="1724" 
d="M412 0l-344 1487h79l197 -897q20 -82 55 -244t54 -244h8q19 82 59 244t60 244l239 897h86l242 -897q21 -82 61 -244t60 -244h10q32 148 100 488l199 897h76l-340 -1487h-80l-285 1061q-31 143 -82 334h-8q-12 -54 -42 -161.5t-44 -172.5l-280 -1061h-80z" />
    <glyph glyph-name="nine" unicode="9" horiz-adv-x="1062" 
d="M41 0l451 770l-420 717h84l256 -455q64 -106 123 -201h8q20 35 55 99.5t57 101.5l260 455h78l-420 -721l451 -766h-82l-272 475q-30 53 -142 236h-8q-74 -136 -131 -236l-270 -475h-78z" />
    <glyph glyph-name="colon" unicode=":" horiz-adv-x="987" 
d="M455 0v610l-447 877h82l236 -477q94 -196 163 -324h9q7 13 41.5 76.5t47.5 87.5t36.5 71.5t40.5 88.5l237 477h76l-447 -877v-610h-75z" />
    <glyph glyph-name="semicolon" unicode=";" horiz-adv-x="1212" 
d="M117 0v45l878 1374h-800v68h897v-43l-879 -1376h889v-68h-985z" />
    <glyph glyph-name="less" unicode="&#x3c;" horiz-adv-x="612" 
d="M225 -215v1939h344v-53h-286v-1835h286v-51h-344z" />
    <glyph glyph-name="equal" unicode="=" horiz-adv-x="811" 
d="M721 -258l-715 1962h70l717 -1962h-72z" />
    <glyph glyph-name="greater" unicode="&#x3e;" horiz-adv-x="612" 
d="M43 -215v51h287v1835h-287v53h344v-1939h-344z" />
    <glyph glyph-name="question" unicode="?" horiz-adv-x="913" 
d="M430 1487h57l304 -516h-70l-268 446l-254 -446h-76z" />
    <glyph glyph-name="at" unicode="@" horiz-adv-x="1126" 
d="M27 -94v74h1073v-74h-1073z" />
    <glyph glyph-name="A" unicode="A" horiz-adv-x="1200" 
d="M676 1292l-314 340l58 47l299 -346z" />
    <glyph glyph-name="B" unicode="B" horiz-adv-x="1097" 
d="M446 -8q-61 0 -112.5 14t-95 45t-70.5 85.5t-33 129.5q0 198 170 299q39 23 86 39.5t122.5 28.5t124 18t163.5 17q26 3 39 4q3 154 -43 252q-52 107 -219 110q-202 -8 -353 -121l-37 68q194 119 394 119q331 0 331 -402v-698h-61l-10 143h-6q-189 -148 -390 -151zM453 59
q102 0 193 37.5t194 126.5v387q-213 -20 -318 -38.5t-172 -57.5q-70 -41 -104.5 -107t-34.5 -139q20 -209 242 -209z" />
    <glyph glyph-name="C" unicode="C" horiz-adv-x="1214" 
d="M618 -27q-77 0 -162.5 36.5t-162.5 99.5h-6l-11 -109h-61v1626h74v-479l-6 -217q211 176 381 176q214 0 324 -146.5t110 -404.5q0 -135 -39 -246t-105 -184t-152.5 -112.5t-183.5 -39.5zM625 41q172 0 283.5 144.5t111.5 369.5q0 106 -20 191.5t-62 152t-113.5 103
t-167.5 36.5q-167 0 -368 -186v-666q86 -74 174.5 -109.5t161.5 -35.5z" />
    <glyph glyph-name="D" unicode="D" horiz-adv-x="1007" 
d="M604 -27q-103 0 -191 39t-153 110t-102 178t-37 237q0 132 39 241t105.5 180t154 109.5t186.5 38.5q173 0 316 -135l-48 -53q-127 120 -268 120q-173 0 -290 -140.5t-117 -360.5q0 -222 111.5 -359t295.5 -137q163 0 299 129l43 -53q-162 -144 -344 -144z" />
    <glyph glyph-name="E" unicode="E" horiz-adv-x="1218" 
d="M567 -27q-206 0 -326 146.5t-120 417.5q0 128 38.5 236t104.5 180.5t154 112.5t186 40q93 0 167 -32t165 -103l-6 203v452h74v-1626h-62l-10 143h-4q-170 -170 -361 -170zM573 41q92 0 177 45.5t180 140.5v664q-92 80 -168 113.5t-162 33.5q-112 0 -204 -66.5
t-144.5 -181.5t-52.5 -253q0 -226 98.5 -361t275.5 -135z" />
    <glyph glyph-name="F" unicode="F" horiz-adv-x="1079" 
d="M614 -27q-102 0 -192 39t-156.5 110.5t-105.5 178.5t-39 236q0 127 39 235.5t103.5 180.5t148.5 112.5t174 40.5q193 0 300 -129t107 -369q0 -55 -4 -73h-790q0 -216 115.5 -355t303.5 -139q161 0 297 98l33 -63q-54 -32 -90 -50t-103 -35.5t-141 -17.5zM199 602h723
q0 217 -89 326.5t-247 109.5q-148 0 -259 -119t-128 -317z" />
    <glyph glyph-name="G" unicode="G" horiz-adv-x="571" 
d="M627 1618l-23 -64q-62 33 -131 33q-176 0 -176 -256v-252h256v-67h-256v-1012h-72v1012h-149v57l149 10v262q0 156 65 234t185 78q59 0 152 -35z" />
    <glyph glyph-name="H" unicode="H" horiz-adv-x="1085" 
d="M563 -526q-203 0 -322.5 82.5t-119.5 218.5q0 71 44 141t120 125v8q-97 58 -97 172q0 64 37 116.5t82 82.5v8q-57 50 -97 128t-40 169q0 163 107.5 272t263.5 109q81 0 141 -27h360v-67h-258q59 -49 93 -123t34 -164q0 -161 -107.5 -272t-262.5 -111q-106 0 -183 49
q-94 -75 -94 -164q0 -149 211 -149h240q179 0 262.5 -58.5t83.5 -183.5q0 -143 -140 -252.5t-358 -109.5zM541 410q121 0 208 89t87 226q0 141 -85 227t-210 86q-123 0 -208 -85.5t-85 -227.5q0 -136 86.5 -225.5t206.5 -89.5zM567 -461q184 0 301 89t117 200
q0 96 -63.5 136t-196.5 40h-246q-51 0 -131 19q-76 -51 -112.5 -114.5t-36.5 -127.5q0 -112 95.5 -177t272.5 -65z" />
    <glyph glyph-name="I" unicode="I" horiz-adv-x="1177" 
d="M215 0v1626h74v-723q98 100 185.5 151.5t191.5 51.5q166 0 245.5 -100.5t79.5 -311.5v-694h-73v684q0 183 -61 268.5t-200 85.5q-95 0 -176.5 -50t-191.5 -163v-825h-74z" />
    <glyph glyph-name="J" unicode="J" horiz-adv-x="419" 
d="M252 1434v-82h-74v82h74zM176 0v1079h74v-1079h-74z" />
    <glyph glyph-name="K" unicode="K" horiz-adv-x="460" 
d="M293 1434v-82h-74v82h74zM63 -524q-73 0 -131 26l19 60q78 -23 117 -23q37 0 63.5 12.5t42.5 33t25.5 53t12.5 66.5t3 79v1296h74v-1304q0 -155 -54.5 -227t-171.5 -72z" />
    <glyph glyph-name="L" unicode="L" horiz-adv-x="1021" 
d="M215 0v1626h74v-1229h4l555 682h86l-348 -426l409 -653h-80l-372 598l-254 -301v-297h-74z" />
    <glyph glyph-name="M" unicode="M" horiz-adv-x="501" 
d="M289 0h-74v1626h74v-1626z" />
    <glyph glyph-name="N" unicode="N" horiz-adv-x="1820" 
d="M215 0v1079h61l13 -172h4q170 199 342 199q240 0 297 -225q105 111 194 168t177 57q161 0 240 -101t79 -311v-694h-72v684q0 354 -256 354q-77 0 -157.5 -52t-182.5 -161v-825h-71v684q0 180 -62 267t-192 87q-154 0 -340 -213v-825h-74z" />
    <glyph glyph-name="O" unicode="O" horiz-adv-x="1187" 
d="M215 0v1079h61l13 -172h4q99 99 184 149t189 50q166 0 245.5 -100.5t79.5 -311.5v-694h-73v684q0 183 -61 268.5t-200 85.5q-95 0 -176.5 -50t-191.5 -163v-825h-74z" />
    <glyph glyph-name="P" unicode="P" horiz-adv-x="1200" 
d="M600 -27q-96 0 -182.5 39t-152.5 109.5t-105 178.5t-39 237q0 132 39 241t105 180t152 109.5t183 38.5t183 -38.5t152 -109.5t105 -180t39 -241q0 -129 -39 -237t-105 -178.5t-152.5 -109.5t-182.5 -39zM600 41q174 0 289 138.5t115 357.5q0 220 -115 360.5t-289 140.5
q-173 0 -287 -140t-114 -361q0 -219 114 -357.5t287 -138.5z" />
    <glyph glyph-name="Q" unicode="Q" horiz-adv-x="1218" 
d="M215 -498v1577h61l13 -139h4q209 166 371 166q214 0 324 -146.5t110 -404.5q0 -135 -39 -246t-105 -184t-152.5 -112.5t-183.5 -39.5q-152 0 -329 136v-607h-74zM289 852v-666q179 -145 336 -145q172 0 283.5 144.5t111.5 369.5q0 106 -20 191.5t-62 152t-113.5 103
t-167.5 36.5q-84 0 -172.5 -45.5t-195.5 -140.5z" />
    <glyph glyph-name="R" unicode="R" horiz-adv-x="1218" 
d="M930 -498v426l6 222q-184 -177 -369 -177q-206 0 -326 146.5t-120 417.5q0 128 38.5 236t104.5 180.5t154 112.5t186 40q93 0 166 -31t158 -96h4l10 100h62v-1577h-74zM573 41q92 0 177 45.5t180 140.5v664q-92 80 -168 113.5t-162 33.5q-112 0 -204 -66.5t-144.5 -181.5
t-52.5 -253q0 -226 98.5 -361t275.5 -135z" />
    <glyph glyph-name="S" unicode="S" horiz-adv-x="694" 
d="M215 0v1079h61l13 -202h4q126 229 305 229q54 0 104 -23l-18 -67q-45 18 -96 18q-79 0 -160.5 -70.5t-138.5 -218.5v-745h-74z" />
    <glyph glyph-name="T" unicode="T" horiz-adv-x="903" 
d="M469 -27q-215 0 -393 148l47 59q76 -68 156.5 -103.5t193.5 -35.5q129 0 200.5 65t71.5 162q0 50 -23.5 91t-66 71t-84 49.5t-96.5 38.5q-153 55 -213 91q-135 82 -135 216q0 119 90 200t250 81q78 0 158 -30t141 -81l-43 -55q-62 48 -122.5 73t-139.5 25
q-126 0 -192 -61t-66 -148q0 -27 8.5 -51t19.5 -41.5t34.5 -35.5t40.5 -29t50 -26t51 -22.5t56 -21.5q14 -5 42 -16q45 -17 68 -26t63 -27.5t61 -33.5t48.5 -39.5t41.5 -50t24 -61t10 -76.5q0 -125 -94.5 -212t-257.5 -87z" />
    <glyph glyph-name="U" unicode="U" horiz-adv-x="684" 
d="M494 -27q-143 0 -198.5 80t-55.5 234v725h-172v57l172 10l8 316h63v-316h320v-67h-320v-736q0 -117 39.5 -176t149.5 -59q61 0 137 35l25 -62q-112 -41 -168 -41z" />
    <glyph glyph-name="V" unicode="V" horiz-adv-x="1181" 
d="M522 -27q-166 0 -245.5 100.5t-79.5 311.5v694h73v-686q0 -182 61.5 -267t196.5 -85q98 0 181.5 53.5t185.5 177.5v807h74v-1079h-64l-8 184h-4q-90 -103 -177.5 -157t-193.5 -54z" />
    <glyph glyph-name="W" unicode="W" horiz-adv-x="954" 
d="M436 0l-409 1079h82l253 -696q12 -32 51.5 -142t61.5 -165h8q69 169 113 307l256 696h76l-404 -1079h-88z" />
    <glyph glyph-name="X" unicode="X" horiz-adv-x="1519" 
d="M379 0l-326 1079h82l207 -723q11 -44 36.5 -138t37.5 -146h10q9 33 25 89t29.5 103.5t25.5 91.5l207 723h98l207 -723q50 -183 82 -284h8q42 162 80 284l201 723h77l-315 -1079h-100l-201 698q-18 57 -45.5 160t-40.5 148h-10q-57 -221 -88 -312l-197 -694h-90z" />
    <glyph glyph-name="Y" unicode="Y" horiz-adv-x="888" 
d="M31 0l370 563l-338 516h82l183 -286q98 -148 118 -179h9q85 137 114 179l179 286h77l-338 -520l371 -559h-84l-201 309q-65 113 -129 199h-10q-21 -28 -41 -58.5t-49.5 -78t-38.5 -62.5l-194 -309h-80z" />
    <glyph glyph-name="Z" unicode="Z" horiz-adv-x="958" 
d="M932 1079l-586 -1579h-76l187 498l-428 1081h80l378 -985h11l356 985h78z" />
    <glyph glyph-name="bracketleft" unicode="[" horiz-adv-x="897" 
d="M59 0v39l660 973h-588v67h684v-41l-659 -970h682v-68h-779z" />
    <glyph glyph-name="backslash" unicode="\" horiz-adv-x="612" 
d="M569 -217h-69q-128 0 -186 60.5t-58 222.5q0 88 9 242t9 231q0 186 -192 186v55q192 0 192 181q0 82 -9 237t-9 238q0 161 58.5 223.5t185.5 62.5h69v-53h-71q-102 0 -140.5 -57t-38.5 -185q0 -73 7.5 -214t7.5 -226q0 -103 -24 -157.5t-87 -73.5v-8q63 -22 87 -78
t24 -154q0 -85 -7.5 -227t-7.5 -213q0 -128 38.5 -185t140.5 -57h71v-51z" />
    <glyph glyph-name="bracketright" unicode="]" horiz-adv-x="497" 
d="M217 -270v1984h62v-1984h-62z" />
    <glyph glyph-name="asciicircum" unicode="^" horiz-adv-x="612" 
d="M43 -217v51h70q102 0 141 57t39 185q0 71 -7 213t-7 227q0 100 23 155t85 77v8q-63 19 -85.5 72.5t-22.5 158.5q0 85 7 226t7 214q0 128 -39 185t-141 57h-70v53h68q129 0 187 -62.5t58 -223.5q0 -83 -9 -238t-9 -237q0 -181 192 -181v-55q-192 0 -192 -186q0 -77 9 -231
t9 -242q0 -111 -28 -173.5t-79.5 -86t-137.5 -23.5h-68z" />
    <glyph glyph-name="underscore" unicode="_" horiz-adv-x="1067" 
d="M737 608q-47 0 -95 21t-87 51t-76.5 60.5t-77.5 51.5t-75 21q-54 0 -98 -32.5t-83 -110.5l-51 28q43 89 106.5 136t131.5 47q56 0 116 -32.5t102.5 -71t95 -71t95.5 -32.5q54 0 98 32.5t83 110.5l51 -33q-46 -86 -108.5 -131t-127.5 -45z" />
    <glyph glyph-name="grave" unicode="`" horiz-adv-x="526" 
d="M315 1104v-105h-98v105h98zM303 -432h-76v141l9 1039h59l8 -1039v-141z" />
    <glyph glyph-name="a" unicode="a" horiz-adv-x="1067" 
d="M119 264l-47 51l149 154q-86 112 -86 270q0 165 86 277l-149 155l47 52l149 -156q113 107 267 107q151 0 264 -107l149 156l47 -52l-151 -155q88 -115 88 -277q0 -158 -86 -270l149 -154l-47 -51l-151 154q-113 -107 -262 -107q-156 0 -269 107zM535 379q133 0 227 101.5
t94 258.5q0 158 -94.5 262.5t-226.5 104.5q-134 0 -229 -104t-95 -263q0 -158 94.5 -259t229.5 -101z" />
    <glyph glyph-name="b" unicode="b" horiz-adv-x="1226" 
d="M586 0v381h-404v63h404v166h-404v64h367l-473 768h88l450 -762h11l438 762h84l-461 -768h371v-64h-408v-166h408v-63h-408v-381h-63z" />
    <glyph glyph-name="c" unicode="c" horiz-adv-x="2048" 
d="M1399 1466l-47 -63q-51 38 -143.5 73t-198.5 35q-119 0 -203 -73t-84 -152q0 -34 11 -63t27.5 -50.5t46 -41.5t56 -33t70 -27.5t74.5 -23t82 -21.5q187 -43 275.5 -117t88.5 -190q0 -85 -32 -162t-87 -125q32 -27 53 -80.5t21 -113.5q0 -64 -27.5 -124t-78 -108.5
t-131.5 -78t-179 -29.5q-242 0 -346 104l49 59q102 -102 310 -102q156 0 246.5 77.5t90.5 192.5q0 69 -29.5 114t-109 87t-231.5 88q-214 61 -297.5 133.5t-83.5 192.5q0 53 33.5 121.5t103.5 132.5q-38 27 -57 75.5t-17 92.5q0 59 25.5 113t72.5 98t122 70t167 26
q115 0 207.5 -33.5t149.5 -73.5zM776 1061q-112 -107 -112 -221q0 -29 4 -49t22.5 -47.5t52.5 -50t97 -51t153 -56.5q240 -78 299 -119q43 43 66.5 104t23.5 123t-32.5 110.5t-82.5 77.5t-118.5 54t-132 41t-131.5 38.5t-109 45.5z" />
    <glyph glyph-name="d" unicode="d" horiz-adv-x="1200" 
d="M406 1356q-32 0 -53 21.5t-21 52.5t21 52t53 21q31 0 52 -21t21 -52t-21 -52.5t-52 -21.5zM795 1356q-32 0 -53 21.5t-21 52.5t21 52t53 21t52.5 -21t20.5 -52t-20.5 -52.5t-52.5 -21.5z" />
    <glyph glyph-name="e" unicode="e" horiz-adv-x="878" 
d="M432 166l-336 381v45l334 381l47 -45l-305 -359l309 -360zM727 166l-336 381v45l334 381l47 -45l-305 -359l309 -360z" />
    <glyph glyph-name="f" unicode="f" horiz-adv-x="688" 
d="M344 1020q-100 0 -175 71.5t-75 188.5q0 119 75 190.5t175 71.5t175 -71.5t75 -190.5q0 -117 -75 -188.5t-175 -71.5zM344 1081q81 0 132.5 56t51.5 143q0 88 -51.5 145.5t-132.5 57.5t-132.5 -57.5t-51.5 -145.5q0 -87 51.5 -143t132.5 -56z" />
    <glyph glyph-name="g" unicode="g" horiz-adv-x="2048" 
d="M1786 1024v-74h-725v-608h-74v608h-725v74h725v608h74v-608h725zM262 129h1524v-74h-1524v74z" />
    <glyph glyph-name="h" unicode="h" horiz-adv-x="813" 
d="M131 924v45q128 119 201.5 193t132 146t81.5 127.5t23 112.5q0 104 -53.5 162.5t-146.5 58.5q-60 0 -116 -40.5t-95 -104.5l-45 43q38 69 110.5 115.5t151.5 46.5q126 0 196 -68.5t70 -206.5q0 -54 -20 -109.5t-49 -103.5t-86 -112t-107 -113.5t-135 -130.5h452v-61h-565
z" />
    <glyph glyph-name="i" unicode="i" horiz-adv-x="813" 
d="M397 897q-98 0 -176 47t-127 119l58 41q43 -66 108.5 -107t140.5 -41q91 0 152 53t61 144t-85 139.5t-236 48.5v56q133 0 210 57.5t77 138.5q0 79 -53 127.5t-144 48.5q-53 0 -108 -33.5t-97 -88.5l-47 43q46 62 112.5 100.5t143.5 38.5q113 0 188.5 -62.5t75.5 -167.5
q0 -155 -176 -225q87 -13 149 -73t62 -148q0 -119 -81.5 -187.5t-207.5 -68.5z" />
    <glyph glyph-name="j" unicode="j" horiz-adv-x="1200" 
d="M524 1292l-43 41l301 346l56 -47z" />
    <glyph glyph-name="k" unicode="k" horiz-adv-x="2048" 
d="M1047 -119v711h-21q-94 0 -184.5 28.5t-166.5 82.5t-122.5 142.5t-46.5 198.5q0 52 8.5 100.5t29 99.5t52 94.5t81.5 82.5t114 66t152.5 43t193.5 16q163 0 235 -14v-1651h-72v1596h-182v-1596h-71z" />
    <glyph glyph-name="l" unicode="l" horiz-adv-x="1015" 
d="M446 676v104h99v-104h-99z" />
    <glyph glyph-name="m" unicode="m" horiz-adv-x="1200" 
d="M455 -489l-13 61q141 10 197.5 39t56.5 82q0 51 -41 78t-135 41l92 192h66l-68 -154q78 -19 118 -53t40 -98q0 -167 -313 -188z" />
    <glyph glyph-name="n" unicode="n" horiz-adv-x="813" 
d="M401 924v741h-184v51q117 26 189 86h63v-878h-68z" />
    <glyph glyph-name="o" unicode="o" horiz-adv-x="878" 
d="M451 969l335 -381v-45l-333 -381l-47 45l305 358l-310 361zM156 969l336 -381v-45l-334 -381l-47 45l305 358l-310 361z" />
    <glyph glyph-name="p" unicode="p" horiz-adv-x="1712" 
d="M1231 1513h74l-834 -1540h-74zM422 608h-66v742h-186v51q118 27 190 86h62v-879zM1599 324v-60h-131v-264h-65v264h-395v37l407 578h53v-555h131zM1100 324h303v211l10 231h-10l-131 -188z" />
    <glyph glyph-name="q" unicode="q" horiz-adv-x="1757" 
d="M342 -27l834 1540h75l-833 -1540h-76zM356 608v742h-186v51q118 27 190 86h62v-879h-66zM1075 0v47q106 101 164.5 158.5t120.5 124.5t90.5 111.5t47 92t18.5 93.5q0 100 -55.5 159.5t-147.5 59.5q-60 0 -115 -41t-94 -105l-47 43q38 69 110.5 115.5t151.5 46.5
q123 0 194.5 -68.5t71.5 -205.5q0 -33 -5 -63.5t-18.5 -62.5t-25.5 -56.5t-39 -59.5t-44.5 -57t-56.5 -62.5t-61 -62.5t-71.5 -71t-75.5 -75h452v-61h-565z" />
    <glyph glyph-name="r" unicode="r" horiz-adv-x="1755" 
d="M178 1331l-47 43q46 62 112.5 100.5t143.5 38.5q113 0 188.5 -62t75.5 -167q0 -155 -176 -225q87 -13 149 -73t62 -148q0 -118 -82 -187t-207 -69q-98 0 -176 47t-127 119l58 43q43 -68 108 -109t141 -41q91 0 152 53.5t61 143.5q0 91 -85 140.5t-236 49.5v55
q134 0 210.5 57.5t76.5 139.5q0 77 -53 125.5t-144 48.5q-53 0 -108 -34t-97 -89zM1343 1513h74l-833 -1540h-74zM1645 324v-60h-132v-264h-65v264h-395v37l407 578h53v-555h132zM1145 324h303v211l10 231h-10l-131 -188z" />
    <glyph glyph-name="s" unicode="s" horiz-adv-x="962" 
d="M545 1102v-105h-99v105h99zM465 748h70q0 -176 -36.5 -287t-144.5 -219l-86 -92q-63 -73 -80.5 -172.5t19.5 -190.5q35 -83 106.5 -129.5t163.5 -46.5q149 0 232.5 95t103.5 253h70q-20 -195 -121 -306.5t-289 -111.5q-114 0 -201.5 57t-126.5 160q-41 106 -23 221.5
t87 206.5l86 93q103 95 139.5 194t30.5 275z" />
    <glyph glyph-name="t" unicode="t" horiz-adv-x="2048" 
d="M1669 168l-51 -51l-594 594l-594 -594l-51 51l594 594l-594 592l53 53l592 -594l594 594l51 -51l-594 -594z" />
    <glyph glyph-name="u" unicode="u" horiz-adv-x="2048" 
d="M905 1290q0 50 34.5 84.5t84.5 34.5t84.5 -34.5t34.5 -84.5t-34.5 -84.5t-84.5 -34.5t-84.5 34.5t-34.5 84.5zM262 799h1524v-74h-1524v74zM905 233q0 49 34.5 84t84.5 35t84.5 -35t34.5 -84t-34.5 -83.5t-84.5 -34.5t-84.5 34.5t-34.5 83.5z" />
    <glyph glyph-name="v" unicode="v" horiz-adv-x="2048" 
d="M1427 1075h66l-471 -764l-475 764h61l416 -655z" />
    <glyph glyph-name="w" unicode="w" horiz-adv-x="2048" 
d="M1020 614q-76 0 -123 49.5t-49 118.5q0 70 47.5 125.5t124.5 55.5q78 0 125 -54.5t47 -126.5q2 -70 -46.5 -119t-125.5 -49z" />
    <glyph glyph-name="x" unicode="x" horiz-adv-x="393" 
d="M266 1538v-143h-135v143q0 92 28 158t103 100v-67q-69 -36 -69 -191h73z" />
    <glyph glyph-name="y" unicode="y" horiz-adv-x="393" 
d="M127 1651v143h135v-143q0 -88 -30.5 -158t-100.5 -100v67q39 22 54.5 77.5t15.5 113.5h-74z" />
    <glyph glyph-name="z" unicode="z" horiz-adv-x="649" 
d="M266 1538v-143h-135v143q0 200 131 258v-67q-69 -33 -69 -191h73zM522 1538v-143h-135v143q0 200 131 258v-67q-69 -33 -69 -191h73z" />
    <glyph glyph-name="braceleft" unicode="{" horiz-adv-x="649" 
d="M383 1649v143h135v-143q0 -200 -131 -258v67q39 15 54.5 73t15.5 118h-74zM127 1649v143h135v-143q0 -200 -131 -258v67q39 15 54.5 73t15.5 118h-74z" />
    <glyph glyph-name="bar" unicode="|" horiz-adv-x="2048" 
d="M1063 1548l-8 -516l440 4v-73l-440 4l8 -1082h-78l8 1082l-440 -4v73l440 -4l-8 516h78z" />
    <glyph glyph-name="braceright" unicode="}" horiz-adv-x="2048" 
d="M1063 1548l-8 -495l440 4v-74l-440 4l2 -547l438 4v-73l-440 4l8 -490h-78l8 490l-440 -4v73l440 -4v547l-440 -4v74l440 -4l-8 495h78z" />
    <glyph glyph-name="asciitilde" unicode="~" horiz-adv-x="2048" 
d="M489 725v104h99v-104h-99zM1460 725v104h99v-104h-99z" />
    <glyph glyph-name="uni007F" horiz-adv-x="2048" 
d="M1604 725v104h98v-104h-98zM346 725v104h98v-104h-98zM975 725v104h98v-104h-98z" />
    <glyph glyph-name="uni0080" horiz-adv-x="2048" 
d="M276 -39l777 1567h73l-776 -1567h-74zM78 1065q0 118 23 207.5t61.5 139.5t83.5 74.5t94 24.5q47 0 91.5 -24.5t84 -74.5t63 -140.5t23.5 -210.5q0 -218 -76.5 -330.5t-187.5 -112.5q-48 0 -92 24.5t-83 75t-62 140t-23 207.5zM530 1063q0 43 -4 88t-17 100.5t-33.5 98
t-56.5 71.5t-83 29q-45 0 -80 -29.5t-54 -72.5t-31.5 -99t-16.5 -100.5t-4 -85.5q0 -55 8 -113t26.5 -123t58 -106t95.5 -41q58 0 98.5 41t59.5 106.5t26.5 123t7.5 112.5zM801 422q0 118 23 207.5t61.5 139.5t83.5 74.5t94 24.5q47 0 91.5 -24.5t84 -74.5t63 -140.5
t23.5 -210.5q0 -218 -76.5 -330.5t-187.5 -112.5q-48 0 -92 24.5t-83 75t-62 140t-23 207.5zM1446 422q0 118 23 207.5t61.5 139.5t83.5 74.5t94 24.5q47 0 91.5 -24.5t84 -74.5t63 -140.5t23.5 -210.5q0 -218 -76.5 -330.5t-187.5 -112.5q-48 0 -92 24.5t-83 75t-62 140
t-23 207.5zM1253 420q0 43 -4 88t-17 100.5t-33.5 98t-56.5 71.5t-83 29q-55 0 -95 -42.5t-58.5 -109t-26 -124.5t-7.5 -111q0 -42 4 -87.5t17 -100t33 -96.5t55 -70.5t80 -28.5q58 0 98.5 41t59.5 106.5t26.5 123t7.5 112.5zM1898 420q0 43 -4 88t-17 101t-33 98t-56.5 71
t-83.5 29q-45 0 -80 -29.5t-54 -72.5t-31.5 -99t-16.5 -100.5t-4 -85.5q0 -42 3.5 -85t15.5 -99.5t31 -98t55 -71t83 -29.5q58 0 98.5 41t59.5 106.5t26.5 123t7.5 112.5z" />
    <glyph glyph-name="uni0081" horiz-adv-x="473" 
d="M184 1122l56 441l65 -4l-16 -142l-56 -299z" />
    <glyph glyph-name="uni0082" horiz-adv-x="765" 
d="M184 1122l56 441l65 -4l-16 -142l-56 -299zM477 1122l53 441l70 -4l-18 -142l-56 -299z" />
    <glyph glyph-name="uni0083" horiz-adv-x="573" 
d="M430 166l-336 381v45l334 381l47 -45l-305 -359l309 -360z" />
    <glyph glyph-name="uni0084" horiz-adv-x="573" 
d="M143 973l336 -381v-45l-334 -381l-47 45l305 358l-309 361z" />
    <glyph glyph-name="uni0085" unicode="&#x85;" horiz-adv-x="1789" 
d="M1548 1423l-616 -639l608 -624l-45 -45l-610 624l-602 -624l-45 45l610 624l-602 633l45 45l602 -624l610 632zM870 1257q-41 0 -66.5 28.5t-25.5 70.5q0 37 26 64.5t66 27.5q41 0 70 -28t29 -64q0 -41 -29 -70t-70 -29zM1464 883q41 0 70 -29t29 -70q0 -43 -26.5 -70.5
t-72.5 -27.5q-36 0 -64 29t-28 69q0 41 28 70t64 29zM307 686q-41 0 -66.5 28t-25.5 70q0 41 28 70t64 29q41 0 70 -29t29 -70t-29 -69.5t-70 -28.5zM870 297q41 0 70 -28.5t29 -69.5t-28.5 -67t-70.5 -26q-41 0 -66.5 26t-25.5 67q0 42 25.5 70t66.5 28z" />
    <glyph glyph-name="uni0086" horiz-adv-x="1611" 
d="M1565 766v-59h-228q-23 -115 -74 -353t-75 -354h-96l-166 707h-277l-166 -707h-90l-155 707h-240v51l168 8h59q-23 107 -74 337t-75 337h69l144 -674h313q20 94 66.5 292t66.5 292h105l137 -584h313l137 674h68l-143 -674h213zM666 766h243l-49 203l-65 313h-15zM1145 70
l133 637h-287l80 -353l62 -284h12zM444 70l142 637h-281q33 -149 76 -353l49 -284h14z" />
    <glyph glyph-name="uni0087" horiz-adv-x="2048" 
d="M387 1010q-102 0 -177 71t-75 187q0 120 74.5 191t177.5 71q100 0 175 -71t75 -191q0 -116 -75 -187t-175 -71zM1485 -27q-278 0 -446.5 209.5t-168.5 558.5q0 350 170.5 556t454.5 206q120 0 217.5 -50t165.5 -126l-53 -55q-135 151 -328 151q-249 0 -391.5 -183.5
t-142.5 -498.5t141 -500.5t385 -185.5q115 0 204.5 44.5t172.5 138.5l53 -56q-91 -104 -194.5 -156.5t-239.5 -52.5zM387 1073q79 0 130.5 54.5t51.5 140.5q0 87 -51.5 142.5t-130.5 55.5q-81 0 -131.5 -55t-50.5 -143q0 -87 50.5 -141t131.5 -54z" />
    <glyph glyph-name="uni0088" horiz-adv-x="2048" 
d="M494 1010q-102 0 -177 71t-75 187q0 120 74.5 191t177.5 71q100 0 174.5 -71t74.5 -191q0 -116 -75 -187t-174 -71zM1059 0v1477h794v-76h-710v-606h602v-74h-602v-721h-84zM494 1073q79 0 130.5 54.5t51.5 140.5q0 87 -51.5 142.5t-130.5 55.5q-82 0 -132.5 -55
t-50.5 -143q0 -86 50.5 -140.5t132.5 -54.5z" />
    <glyph glyph-name="uni0089" horiz-adv-x="1882" 
d="M195 -27q-20 0 -29 4l-8 64q67 0 67 90v1311h86q74 -157 219 -466.5t218 -465.5l178 -397h8q-10 295 -10 725v467q0 86 24 124.5t78 38.5q20 0 31 -4l8 -63q-35 0 -51.5 -19.5t-16.5 -70.5v-1311h-88q-278 593 -436 938l-176 391h-8q8 -236 8 -725v-467q0 -164 -102 -164
zM1534 635q-140 0 -234 95.5t-94 256.5q0 164 93.5 258t234.5 94q140 0 232 -93.5t92 -258.5q0 -161 -92.5 -256.5t-231.5 -95.5zM1534 696q116 0 185 80.5t69 210.5q0 135 -68.5 213t-185.5 78t-186.5 -78t-69.5 -213q0 -130 70 -210.5t186 -80.5zM1257 375v65h551v-65
h-551z" />
    <glyph glyph-name="uni008A" horiz-adv-x="2048" 
d="M348 0v1405h-293v72h670v-72h-293v-1405h-84zM834 0v1143h493v-70h-409v-430h317v-70h-317v-501h432v-72h-516zM1497 0v1143h84v-1071h387v-72h-471z" />
    <glyph glyph-name="uni008B" horiz-adv-x="1355" 
d="M252 834v624h-248v66h565v-66h-247v-624h-70zM690 834v690h103l120 -291l72 -199h8l72 199l117 291h102v-690h-70v380l9 218h-9l-192 -490h-70l-190 490h-10l10 -218v-380h-72z" />
    <glyph glyph-name="uni008C" horiz-adv-x="2048" 
d="M1495 0l-178 518h-592l-180 -518h-86l506 1434q-88 18 -139.5 82t-51.5 161q0 114 69.5 181t176.5 67q105 0 177.5 -68t72.5 -180q0 -96 -53 -160t-142 -83l512 -1434h-92zM836 1677q0 -95 51 -145.5t133 -50.5q78 0 130 51t52 145q0 86 -53 139.5t-129 53.5
q-79 0 -131.5 -53.5t-52.5 -139.5zM750 590h542l-98 287q-93 265 -168 514h-10q-56 -199 -166 -514z" />
    <glyph glyph-name="uni008D" horiz-adv-x="2048" 
d="M981 0v1477h86v-1477h-86z" />
    <glyph glyph-name="uni008E" horiz-adv-x="2048" 
d="M719 0v1477h84v-1477h-84zM1247 0v1477h84v-1477h-84z" />
    <glyph glyph-name="uni008F" horiz-adv-x="2048" 
d="M453 0v1477h86v-1477h-86zM981 0v1477h86v-1477h-86zM1509 0v1477h86v-1477h-86z" />
    <glyph glyph-name="uni0090" horiz-adv-x="2048" 
d="M438 0v1477h86v-1477h-86zM1245 0l-489 1477h92l280 -875q62 -205 158 -498h8q37 101 87 265.5t73 232.5l279 875h88l-486 -1477h-90z" />
    <glyph glyph-name="uni0091" horiz-adv-x="2048" 
d="M981 0l-487 1477h92l280 -875q62 -205 158 -498h8q37 101 87 265.5t73 232.5l278 875h89l-486 -1477h-92z" />
    <glyph glyph-name="uni0092" horiz-adv-x="2048" 
d="M717 0l-490 1477h92l281 -875q62 -205 158 -498h8q38 102 90 270t72 228l278 875h86l-483 -1477h-92zM1524 0v1477h86v-1477h-86z" />
    <glyph glyph-name="uni0093" horiz-adv-x="2048" 
d="M467 0l-463 1477h92l254 -875q97 -338 156 -498h8q19 52 35.5 100t33 103.5t26.5 88.5t30 104.5t29 101.5l258 875h88l-461 -1477h-86zM1262 0v1477h86v-1477h-86zM1729 0v1477h86v-1477h-86z" />
    <glyph glyph-name="uni0094" horiz-adv-x="2048" 
d="M295 0l-305 1477h104l164 -875q30 -167 102 -498h7q59 275 100 498l162 875h98l-299 -1477h-133zM973 0v1477h96v-1477h-96zM1364 0v1477h96v-1477h-96zM1755 0v1477h94v-1477h-94z" />
    <glyph glyph-name="uni0095" horiz-adv-x="2048" 
d="M451 0v1477h84v-1477h-84zM797 0l442 766l-414 711h95l249 -447q62 -108 123 -199h8q55 104 109 199l252 447h88l-416 -717l447 -760h-92l-267 467q-63 110 -137 229h-8q-79 -143 -131 -229l-262 -467h-86z" />
    <glyph glyph-name="uni0096" horiz-adv-x="2048" 
d="M530 0l443 766l-414 711h94l252 -447q33 -57 121 -199h8q20 35 54.5 98.5t56.5 100.5l252 447h86l-416 -717l449 -760h-95l-264 467q-42 74 -139 229h-8q-21 -40 -129 -229l-265 -467h-86z" />
    <glyph glyph-name="uni0097" horiz-adv-x="2048" 
d="M1026 1337q-35 0 -60.5 24.5t-25.5 59.5q0 37 25 59.5t61 22.5q33 0 57.5 -22.5t24.5 -59.5q0 -34 -25 -59t-57 -25zM981 0v1071h84v-1071h-84z" />
    <glyph glyph-name="uni0098" horiz-adv-x="2048" 
d="M776 1337q-35 0 -60.5 24.5t-25.5 59.5q0 37 25 59.5t61 22.5q32 0 56 -22.5t24 -59.5q0 -35 -24.5 -59.5t-55.5 -24.5zM1280 1337q-35 0 -60.5 24.5t-25.5 59.5q0 37 25 59.5t61 22.5q32 0 56 -22.5t24 -59.5q0 -35 -24.5 -59.5t-55.5 -24.5zM731 0v1071h82v-1071h-82z
M1235 0v1071h82v-1071h-82z" />
    <glyph glyph-name="uni0099" horiz-adv-x="2048" 
d="M522 1337q-35 0 -60.5 24.5t-25.5 59.5q0 37 25 59.5t61 22.5q33 0 57.5 -22.5t24.5 -59.5q0 -34 -25 -59t-57 -25zM1026 1337q-35 0 -60.5 24.5t-25.5 59.5q0 37 25 59.5t61 22.5q33 0 57.5 -22.5t24.5 -59.5q0 -34 -25 -59t-57 -25zM1530 1337q-35 0 -60.5 24.5
t-25.5 59.5q0 37 25 59.5t61 22.5q33 0 57.5 -22.5t24.5 -59.5q0 -34 -25 -59t-57 -25zM477 0v1071h84v-1071h-84zM981 0v1071h84v-1071h-84zM1485 0v1071h84v-1071h-84z" />
    <glyph glyph-name="uni009A" horiz-adv-x="2048" 
d="M549 1337q-35 0 -60.5 24.5t-25.5 59.5q0 37 25 59.5t61 22.5q32 0 56 -22.5t24 -59.5q0 -35 -24.5 -59.5t-55.5 -24.5zM502 0v1071h84v-1071h-84zM1227 0l-404 1071h92l248 -682q66 -197 111 -307h8q89 245 109 307l249 682h86l-399 -1071h-100z" />
    <glyph glyph-name="uni009B" horiz-adv-x="2048" 
d="M977 0l-406 1071h93l247 -682q12 -32 51.5 -142t61.5 -165h8q89 245 109 307l250 682h86l-402 -1071h-98z" />
    <glyph glyph-name="uni009C" horiz-adv-x="2048" 
d="M1505 1337q-35 0 -60.5 24.5t-25.5 59.5q0 37 25 59.5t61 22.5q32 0 56 -22.5t24 -59.5q0 -35 -24.5 -59.5t-55.5 -24.5zM725 0l-406 1071h93l247 -682q66 -197 111 -307h8q89 245 109 307l250 682h86l-400 -1071h-98zM1460 0v1071h82v-1071h-82z" />
    <glyph glyph-name="uni009D" horiz-adv-x="2048" 
d="M1260 1337q-35 0 -60.5 24.5t-25.5 59.5q0 37 25 59.5t61 22.5q32 0 56.5 -22.5t24.5 -59.5q0 -35 -24.5 -59.5t-56.5 -24.5zM1786 1337q-35 0 -60.5 24.5t-25.5 59.5q0 37 25 59.5t61 22.5q32 0 56 -22.5t24 -59.5q0 -35 -24.5 -59.5t-55.5 -24.5zM451 0l-416 1071h92
l256 -682q13 -35 36.5 -98.5t42.5 -114.5t36 -94h8q64 158 112 307l259 682h84l-410 -1071h-100zM1214 0v1071h84v-1071h-84zM1741 0v1071h82v-1071h-82z" />
    <glyph glyph-name="uni009E" horiz-adv-x="2048" 
d="M987 1337q-38 0 -65 24.5t-27 59.5q0 37 26.5 59.5t65.5 22.5q36 0 61 -22.5t25 -59.5q0 -35 -25.5 -59.5t-60.5 -24.5zM1413 1337q-37 0 -64.5 24.5t-27.5 59.5q0 37 27 59.5t65 22.5q36 0 61 -22.5t25 -59.5q0 -35 -25.5 -59.5t-60.5 -24.5zM1839 1337
q-37 0 -64.5 24.5t-27.5 59.5q0 37 27 59.5t65 22.5q36 0 61 -22.5t25 -59.5q0 -35 -25.5 -59.5t-60.5 -24.5zM276 0l-282 1071h98l162 -682q12 -41 39 -147.5t45 -159.5h8q12 36 82 307l160 682h90l-272 -1071h-130zM936 0v1071h94v-1071h-94zM1362 0v1071h94v-1071h-94z
M1788 0v1071h94v-1071h-94z" />
    <glyph glyph-name="uni009F" horiz-adv-x="2048" 
d="M580 1337q-35 0 -60.5 24.5t-25.5 59.5q0 37 25 59.5t61 22.5q32 0 55.5 -22.5t23.5 -59.5q0 -35 -24 -59.5t-55 -24.5zM535 0v1071h81v-1071h-81zM858 0l369 559l-336 512h90l180 -278q14 -24 115 -177h8q19 27 56 87t59 90l172 278h88l-336 -516l367 -555h-93l-196 303
q-70 119 -127 195h-10q-20 -29 -61 -94t-66 -101l-191 -303h-88z" />
    <glyph glyph-name="uni00A0" unicode="&#xa0;" horiz-adv-x="2048" 
d="M608 0l367 559l-336 512h92l180 -278q40 -69 115 -177h8q11 16 51 80t64 97l170 278h90l-336 -516l365 -555h-90l-197 303q-82 132 -129 195h-10q-11 -17 -54.5 -86.5t-70.5 -108.5l-191 -303h-88z" />
    <glyph glyph-name="exclamdown" unicode="&#xa1;" horiz-adv-x="2048" 
d="M1966 741h-1712q239 -187 395 -387l-61 -43q-99 130 -237 253.5t-279 213.5q141 90 279 213.5t237 253.5l61 -43q-156 -200 -395 -387h1712v-74z" />
    <glyph glyph-name="cent" unicode="&#xa2;" horiz-adv-x="2048" 
d="M987 -164v1712q-187 -239 -387 -395l-43 61q130 99 253.5 237.5t213.5 279.5q90 -141 213.5 -279.5t253.5 -237.5l-43 -61q-200 156 -387 395v-1712h-74z" />
    <glyph glyph-name="sterling" unicode="&#xa3;" horiz-adv-x="2048" 
d="M82 741v74h1712q-239 187 -395 387l61 43q99 -130 237 -253.5t279 -213.5q-141 -90 -279 -213.5t-237 -253.5l-61 43q156 200 395 387h-1712z" />
    <glyph glyph-name="currency" unicode="&#xa4;" horiz-adv-x="2048" 
d="M1061 1720v-1712q187 239 387 395l43 -61q-130 -99 -253.5 -237t-213.5 -279q-90 141 -213.5 279t-253.5 237l43 61q200 -156 387 -395v1712h74z" />
    <glyph glyph-name="yen" unicode="&#xa5;" horiz-adv-x="2048" 
d="M1794 725h-1540q239 -187 395 -387l-61 -43q-99 130 -237 253.5t-279 213.5q141 90 279 213.5t237 253.5l61 -43q-156 -200 -395 -387h1540q-239 187 -395 387l61 43q99 -130 237 -253.5t279 -213.5q-141 -90 -279 -213.5t-237 -253.5l-61 43q156 200 395 387z" />
    <glyph glyph-name="brokenbar" unicode="&#xa6;" horiz-adv-x="2048" 
d="M1061 1548v-1540q187 239 387 395l43 -61q-130 -99 -253.5 -237t-213.5 -279q-90 141 -213.5 279t-253.5 237l43 61q200 -156 387 -395v1540q-187 -239 -387 -395l-43 61q130 99 253.5 237.5t213.5 279.5q90 -141 213.5 -279.5t253.5 -237.5l-43 -61q-200 156 -387 395z
" />
    <glyph glyph-name="section" unicode="&#xa7;" horiz-adv-x="2048" 
d="M1665 86l-1212 1210q18 -125 20.5 -269t-14.5 -284l-74 13q23 173 13 354t-48 342q161 -38 342.5 -48t354.5 13l12 -74q-144 -22 -285 -14q-119 2 -268 21l1210 -1213z" />
    <glyph glyph-name="dieresis" unicode="&#xa8;" horiz-adv-x="2048" 
d="M332 137l1210 1213q-129 -19 -268.5 -22t-284.5 15l12 74q173 -23 354.5 -13t342.5 48q-38 -161 -48 -342t13 -354l-74 -13q-38 253 6 553l-1212 -1210z" />
    <glyph glyph-name="copyright" unicode="&#xa9;" horiz-adv-x="2048" 
d="M383 1470l1212 -1210q-17 139 -20 268q-8 141 14 285l74 -12q-23 -173 -13 -354.5t48 -342.5q-161 38 -342.5 48t-354.5 -13l-12 74q140 17 284 14.5t269 -20.5l-1210 1212z" />
    <glyph glyph-name="ordfeminine" unicode="&#xaa;" horiz-adv-x="2048" 
d="M1716 1419l-1210 -1212q120 18 266 20.5t287 -14.5l-12 -74q-173 23 -354.5 13t-342.5 -48q38 161 48 342.5t-13 354.5l74 12q17 -141 14.5 -287t-20.5 -266l1212 1210z" />
    <glyph glyph-name="guillemotleft" unicode="&#xab;" horiz-adv-x="2048" 
d="M82 512h1495q159 159 289 250q-130 91 -289 250h-1495v73h1425q-133 146 -223 287l62 39q110 -172 290 -353.5t357 -295.5q-177 -114 -357 -295.5t-290 -353.5l-62 39q88 138 223 286h-1425v74z" />
    <glyph glyph-name="logicalnot" unicode="&#xac;" horiz-adv-x="2048" 
d="M702 1411l62 -39q-90 -141 -223 -287h966q-133 146 -223 287l62 39q110 -172 290 -353.5t357 -295.5q-177 -114 -357 -295.5t-290 -353.5l-62 39q88 138 223 286h-966q135 -148 223 -286l-62 -39q-113 175 -291.5 355.5t-355.5 293.5q177 113 355.5 293.5t291.5 355.5z
M1577 1012h-1106q-159 -159 -289 -250q130 -91 289 -250h1106q159 159 289 250q-130 91 -289 250z" />
    <glyph glyph-name="uni00AD" unicode="&#xad;" horiz-adv-x="2048" 
d="M1747 1550l65 -32l-784 -1547h-8l-784 1547l65 32l297 -585h852zM635 891l387 -768h4l387 768h-778z" />
    <glyph glyph-name="registered" unicode="&#xae;" horiz-adv-x="2048" 
d="M1487 1022q0 231 -94 348t-258 117q-60 0 -117 -20t-101 -52.5t-76 -65.5t-55 -67l-53 41q21 35 58.5 72.5t88 73t116.5 58.5t132 23q204 0 314 -131.5t110 -378.5q0 -281 -87 -525.5t-242.5 -393t-343.5 -148.5q-120 0 -209 56t-133.5 150.5t-44.5 213.5q0 110 43 213
t112 176t158 116.5t178 43.5q94 0 171.5 -27t130 -73.5t87 -101.5t53.5 -119h5q57 213 57 401zM557 383q0 -153 87.5 -249.5t242.5 -96.5q142 5 273 119t218 336q0 162 -113.5 275.5t-277.5 113.5q-108 0 -207.5 -69t-161 -185t-61.5 -244z" />
    <glyph glyph-name="macron" unicode="&#xaf;" horiz-adv-x="2048" 
d="M412 1497h1206v-1470h-1206v73h1132v625h-1132v74h1132v624h-1132v74z" />
    <glyph glyph-name="degree" unicode="&#xb0;" horiz-adv-x="2048" 
d="M991 -41l-657 1442v45h1376v-45l-655 -1442h-64zM1249 565l367 813h-1188l367 -813l225 -506h10z" />
    <glyph glyph-name="plusminus" unicode="&#xb1;" horiz-adv-x="2048" 
d="M1786 1350h-832q-168 0 -306.5 -72.5t-220 -198.5t-89.5 -280h1448v-74h-1448q8 -154 89.5 -280t220 -198.5t306.5 -72.5h832v-74h-832q-147 0 -276 51.5t-220 140t-143.5 211t-52.5 259.5t52.5 259.5t143.5 210.5t220 139.5t276 51.5h832v-73z" />
    <glyph glyph-name="uni00B2" unicode="&#xb2;" horiz-adv-x="2048" 
d="M1094 1350h-832v73h832q147 0 276 -51.5t220 -139.5t143.5 -210.5t52.5 -259.5t-52.5 -259.5t-143.5 -211t-220 -140t-276 -51.5h-832v74h832q168 0 306.5 72.5t220 198.5t89.5 280h-1448v74h1448q-8 154 -89.5 280t-220 198.5t-306.5 72.5z" />
    <glyph glyph-name="uni00B3" unicode="&#xb3;" horiz-adv-x="2048" 
d="M473 -270v1712h1104v-1712h-82v1644h-946v-1644h-76z" />
    <glyph glyph-name="acute" unicode="&#xb4;" horiz-adv-x="2048" 
d="M535 70v-7h1097v-63h-1216v51l669 680l-630 690v52h1087v-62h-975v-8l613 -674z" />
    <glyph glyph-name="mu" unicode="&#xb5;" horiz-adv-x="2048" 
d="M1161 1802h887v-73h-836l-657 -1893h-59l-217 578l-146 -209l-51 35l262 370l209 -555z" />
    <glyph glyph-name="paragraph" unicode="&#xb6;" horiz-adv-x="2048" 
d="M1067 762q220 -316 492 -316q81 0 149 19l27 -70q-76 -22 -176 -22q-165 0 -300 89.5t-235 235.5q-231 -325 -537 -325q-74 0 -145 25.5t-129.5 72.5t-94.5 123t-36 168t36 168t94.5 123t129.5 72.5t145 25.5q302 0 537 -326q65 94 140 163.5t178.5 116t216.5 46.5
q97 0 176 -23l-27 -69q-65 18 -149 18q-273 0 -492 -315zM156 762q0 -74 28.5 -135.5t75.5 -100t106 -59.5t121 -21q272 0 492 316q-219 315 -492 315q-85 0 -159 -35t-123 -108.5t-49 -171.5z" />
    <glyph glyph-name="periodcentered" unicode="&#xb7;" horiz-adv-x="2048" 
d="M1024 825q65 94 140 163.5t178.5 116t216.5 46.5q74 0 145 -25.5t129.5 -72.5t94.5 -123t36 -168t-36 -168t-94.5 -123t-129.5 -72.5t-145 -25.5q-165 0 -300 89.5t-235 235.5q-231 -325 -537 -325q-74 0 -145 25.5t-129.5 72.5t-94.5 123t-36 168t36 168t94.5 123
t129.5 72.5t145 25.5q302 0 537 -326zM156 762q0 -74 28.5 -135.5t75.5 -100t106 -59.5t121 -21q272 0 492 316q-219 315 -492 315q-85 0 -159 -35t-123 -108.5t-49 -171.5zM1067 762q220 -316 492 -316q62 0 121 21t106 59.5t75.5 100t28.5 135.5q0 98 -49 171.5
t-123 108.5t-159 35q-273 0 -492 -315z" />
    <glyph glyph-name="cedilla" unicode="&#xb8;" horiz-adv-x="2048" 
d="M393 131v-6h1393v-74h-1567v8l1372 1371l51 -52z" />
    <glyph glyph-name="uni00B9" unicode="&#xb9;" horiz-adv-x="2048" 
d="M236 16l784 1547h8l784 -1547l-65 -32l-721 1427h-4l-721 -1427z" />
    <glyph glyph-name="ordmasculine" unicode="&#xba;" horiz-adv-x="2048" 
d="M1812 1507l-784 -1546h-8l-784 1546l65 33l721 -1427h4l721 1427z" />
    <glyph glyph-name="guillemotright" unicode="&#xbb;" horiz-adv-x="2048" 
d="M362 0v831q0 147 51.5 276t140 220.5t211 144t259.5 52.5t259.5 -52.5t211 -144t140 -220.5t51.5 -276v-831h-74v831q0 175 -78 317t-212.5 222t-297.5 80t-297.5 -80t-212.5 -222t-78 -317v-831h-74z" />
    <glyph glyph-name="onequarter" unicode="&#xbc;" horiz-adv-x="2048" 
d="M1686 1524v-832q0 -147 -51.5 -276t-140 -220t-211 -143.5t-259.5 -52.5t-259.5 52.5t-211 143.5t-140 220t-51.5 276v832h74v-832q0 -175 78 -317t212.5 -221.5t297.5 -79.5t297.5 79.5t212.5 221.5t78 317v832h74z" />
    <glyph glyph-name="onehalf" unicode="&#xbd;" horiz-adv-x="2048" 
d="M987 293v964q0 463 334 463q33 0 57 -6l-6 -61q-21 6 -51 6q-25 0 -44 -2t-47.5 -10.5t-50 -24t-45 -45t-38.5 -70t-25 -103t-10 -140.5v-965q0 -463 -334 -463q-33 0 -57 6l6 62q21 -6 51 -6q25 0 44 2t47.5 10.5t50 24t45 45t38.5 70t25 103t10 140.5z" />
    <glyph glyph-name="threequarters" unicode="&#xbe;" horiz-adv-x="2048" 
d="M598 293v964q0 463 334 463q33 0 57 -6l-6 -61q-21 6 -51 6q-25 0 -44 -2t-47.5 -10.5t-50 -24t-45 -45t-38.5 -70t-25 -103t-10 -140.5v-965q0 -463 -334 -463q-33 0 -57 6l6 62q21 -6 51 -6q25 0 44 2t47.5 10.5t50 24t45 45t38.5 70t25 103t10 140.5zM1376 293v964
q0 463 334 463q33 0 57 -6l-6 -61q-21 6 -51 6q-25 0 -44 -2t-47.5 -10.5t-50 -24t-45 -45t-38.5 -70t-25 -103t-10 -140.5v-965q0 -463 -334 -463q-33 0 -57 6l6 62q21 -6 51 -6q25 0 44 2t47.5 10.5t50 24t45 45t38.5 70t25 103t10 140.5z" />
    <glyph glyph-name="questiondown" unicode="&#xbf;" horiz-adv-x="2048" 
d="M987 293v180q-115 12 -192.5 100t-77.5 205t77.5 205t192.5 100v174q0 463 334 463q33 0 57 -6l-6 -61q-21 6 -51 6q-25 0 -44 -2t-47.5 -10.5t-50 -24t-45 -45t-38.5 -70t-25 -103t-10 -140.5v-181q115 -12 192.5 -100t77.5 -205t-77.5 -205t-192.5 -100v-174
q0 -463 -334 -463q-33 0 -57 6l6 62q21 -6 51 -6q25 0 44 2t47.5 10.5t50 24t45 45t38.5 70t25 103t10 140.5zM987 526v504q-93 -14 -155 -84.5t-62 -167.5t62 -167.5t155 -84.5zM1061 1030v-504q93 14 155 84.5t62 167.5t-62 167.5t-155 84.5z" />
    <glyph glyph-name="Agrave" unicode="&#xc0;" horiz-adv-x="2048" 
d="M905 1268q0 49 34.5 83.5t84.5 34.5t84.5 -34.5t34.5 -83.5q0 -50 -34.5 -84.5t-84.5 -34.5t-84.5 34.5t-34.5 84.5zM324 256q0 50 34.5 84.5t83.5 34.5q50 0 84.5 -34.5t34.5 -84.5t-34.5 -84.5t-84.5 -34.5q-49 0 -83.5 34.5t-34.5 84.5zM1489 256q0 50 34.5 84.5
t84.5 34.5q49 0 83.5 -34.5t34.5 -84.5t-34.5 -84.5t-83.5 -34.5q-50 0 -84.5 34.5t-34.5 84.5z" />
    <glyph glyph-name="Aacute" unicode="&#xc1;" horiz-adv-x="2048" 
d="M324 1268q0 50 34 84t84 34t84.5 -34.5t34.5 -83.5q0 -50 -34.5 -84.5t-84.5 -34.5q-49 0 -83.5 34.5t-34.5 84.5zM1489 1268q0 49 34.5 83.5t84.5 34.5t84 -34t34 -84t-34.5 -84.5t-83.5 -34.5q-50 0 -84.5 34.5t-34.5 84.5zM905 256q0 50 34.5 84.5t84.5 34.5
t84.5 -34.5t34.5 -84.5t-34.5 -84.5t-84.5 -34.5t-84.5 34.5t-34.5 84.5z" />
    <glyph glyph-name="Acircumflex" unicode="&#xc2;" horiz-adv-x="2048" 
d="M905 1268q0 49 34.5 83.5t84.5 34.5t84.5 -34.5t34.5 -83.5q0 -50 -34.5 -84.5t-84.5 -34.5t-84.5 34.5t-34.5 84.5zM905 256q0 50 34.5 84.5t84.5 34.5t84.5 -34.5t34.5 -84.5t-34.5 -84.5t-84.5 -34.5t-84.5 34.5t-34.5 84.5z" />
    <glyph glyph-name="Atilde" unicode="&#xc3;" horiz-adv-x="2048" 
d="M997 788q47 74 103.5 136.5t126.5 115t155.5 82t176.5 29.5q74 0 145 -25.5t129.5 -72.5t94.5 -123t36 -168t-36 -168t-94.5 -123t-129.5 -72.5t-145 -25.5q-101 0 -177 22l27 70q68 -19 150 -19q62 0 121 21t106 59.5t75.5 100t28.5 135.5q0 98 -49 171.5t-123 108.5
t-159 35q-288 0 -510 -342q-243 -362 -562 -362q-74 0 -145 25.5t-129.5 72.5t-94.5 123t-36 168t36 168t94.5 123t129.5 72.5t145 25.5q98 0 177 -23l-27 -69q-65 18 -150 18t-159 -35t-123 -108.5t-49 -171.5q0 -74 28.5 -135.5t75.5 -100t106 -59.5t121 -21
q288 0 510 342z" />
    <glyph glyph-name="Adieresis" unicode="&#xc4;" horiz-adv-x="2048" 
d="M524 1354q0 50 35 84.5t84 34.5t84 -34.5t35 -84.5t-35 -84.5t-84 -34.5t-84 34.5t-35 84.5zM262 1010h1524v-74h-1524v74zM262 588h1524v-74h-1524v74zM1286 170q0 50 35 84.5t84 34.5t84 -34.5t35 -84.5t-35 -84.5t-84 -34.5t-84 34.5t-35 84.5z" />
    <glyph glyph-name="Aring" unicode="&#xc5;" horiz-adv-x="2048" 
d="M1786 920h-666l-119 -330h785v-74h-811l-176 -483l-70 26l166 457h-633v74h660l120 330h-780v73h807l180 498l70 -27l-172 -471h639v-73z" />
    <glyph glyph-name="AE" unicode="&#xc6;" horiz-adv-x="2048" 
d="M262 1237h1524v-74h-1524v74zM262 799h1524v-74h-1524v74zM262 360h1524v-73h-1524v73z" />
    <glyph glyph-name="Ccedilla" unicode="&#xc7;" horiz-adv-x="2048" 
d="M418 985v-8l1368 -553l-29 -68l-1536 621v8l1536 621l29 -68zM262 166h1524v-74h-1524v74z" />
    <glyph glyph-name="Egrave" unicode="&#xc8;" horiz-adv-x="2048" 
d="M262 424l1368 553v8l-1368 553l29 68l1536 -621v-8l-1536 -621zM262 92v74h1524v-74h-1524z" />
    <glyph glyph-name="Eacute" unicode="&#xc9;" horiz-adv-x="2048" 
d="M1286 1550l41 -59l-1042 -725v-8l1042 -725l-41 -60l-1128 785v8zM1845 1550l43 -59l-1044 -725v-8l1044 -725l-43 -60l-1128 785v8z" />
    <glyph glyph-name="Ecircumflex" unicode="&#xca;" horiz-adv-x="2048" 
d="M203 1550l1128 -784v-8l-1128 -785l-43 60l1044 725v8l-1044 725zM762 1550l1128 -784v-8l-1128 -785l-41 60l1042 725v8l-1042 725z" />
    <glyph glyph-name="Edieresis" unicode="&#xcb;" horiz-adv-x="2048" 
d="M1786 100h-832q-147 0 -276 51.5t-220 140t-143.5 211t-52.5 259.5t52.5 259.5t143.5 210.5t220 139.5t276 51.5h832v-73h-832q-175 0 -317 -78t-221.5 -212.5t-79.5 -297.5t79.5 -297.5t221.5 -212.5t317 -78h832v-74z" />
    <glyph glyph-name="Igrave" unicode="&#xcc;" horiz-adv-x="2048" 
d="M262 1423h832q147 0 276 -51.5t220 -139.5t143.5 -210.5t52.5 -259.5t-52.5 -259.5t-143.5 -211t-220 -140t-276 -51.5h-832v74h832q175 0 317 78t221.5 212.5t79.5 297.5t-79.5 297.5t-221.5 212.5t-317 78h-832v73z" />
    <glyph glyph-name="Iacute" unicode="&#xcd;" horiz-adv-x="2048" 
d="M1786 1477h-942q-126 0 -225.5 -38.5t-160 -103t-91.5 -143t-31 -164.5t31 -164.5t91.5 -142.5t160 -102.5t225.5 -38.5h942v-74h-944q-140 0 -253 43.5t-183 117.5t-107 166.5t-37 194.5t37 194.5t107 166.5t183 117.5t253 43.5h944v-73zM262 47h1524v-74h-1524v74z" />
    <glyph glyph-name="Icircumflex" unicode="&#xce;" horiz-adv-x="2048" 
d="M262 580h944q124 0 223.5 38.5t159.5 102.5t91.5 142.5t31.5 164.5t-31.5 164.5t-91.5 143t-159.5 103t-223.5 38.5h-944v73h944q140 0 253 -43.5t183 -117.5t107 -166.5t37 -194.5t-37 -194.5t-107 -166.5t-183 -117.5t-253 -43.5h-944v74zM262 47h1524v-74h-1524v74z
" />
    <glyph glyph-name="Idieresis" unicode="&#xcf;" horiz-adv-x="2048" 
d="M1024 20q-154 0 -294.5 60t-242 161.5t-161.5 242t-60 294.5t60 294.5t161.5 242t242 161.5t294.5 60t294.5 -60t242 -161.5t161.5 -242t60 -294.5t-60 -294.5t-161.5 -242t-242 -161.5t-294.5 -60zM340 778q0 -139 54.5 -265.5t146 -218t218 -146t265.5 -54.5
t265.5 54.5t218 146t146 218t54.5 265.5t-54.5 265.5t-146 218t-218 146t-265.5 54.5t-265.5 -54.5t-218 -146t-146 -218t-54.5 -265.5zM1126 778q0 -42 -30 -72t-72 -30q-43 0 -72.5 29.5t-29.5 72.5q0 42 30 72.5t72 30.5q41 0 71.5 -31t30.5 -72z" />
    <glyph glyph-name="Eth" unicode="&#xd0;" horiz-adv-x="2048" 
d="M1061 160h751v-74h-1576v74h751v1360h74v-1360z" />
    <glyph glyph-name="Ntilde" unicode="&#xd1;" horiz-adv-x="2048" 
d="M98 1255l-39 52q214 207 450 309t515 102t515 -102t450 -309l-39 -52q-398 398 -926 398t-926 -398z" />
    <glyph glyph-name="Ograve" unicode="&#xd2;" horiz-adv-x="2048" 
d="M1024 -164q-192 0 -366 74.5t-300.5 201t-201 300.5t-74.5 366t74.5 366t201 300.5t300.5 201t366 74.5t366 -74.5t300.5 -201t201 -300.5t74.5 -366q0 -193 -75 -367.5t-202 -300.5t-301 -200t-364 -74zM1024 -111q242 0 446.5 119t323.5 323.5t119 446.5t-119 446.5
t-323.5 323.5t-446.5 119q-182 0 -347.5 -71t-283.5 -191t-188 -284t-70 -343q0 -242 119 -446.5t323.5 -323.5t446.5 -119zM1024 268v928h-211v53q126 18 223 66h64v-1047h-76z" />
    <glyph glyph-name="Oacute" unicode="&#xd3;" horiz-adv-x="2048" 
d="M1024 -164q-192 0 -366 74.5t-300.5 201t-201 300.5t-74.5 366t74.5 366t201 300.5t300.5 201t366 74.5t366 -74.5t300.5 -201t201 -300.5t74.5 -366q0 -193 -75 -367.5t-202 -300.5t-301 -200t-364 -74zM1024 -111q242 0 446.5 119t323.5 323.5t119 446.5t-119 446.5
t-323.5 323.5t-446.5 119q-182 0 -347.5 -71t-283.5 -191t-188 -284t-70 -343q0 -242 119 -446.5t323.5 -323.5t446.5 -119zM688 268v49q132 120 211 194t158.5 157t120 141t65.5 118t25 115q0 106 -64.5 170t-193.5 64q-146 0 -277 -135l-51 41q144 157 332 157
q153 0 242.5 -80t89.5 -215q0 -44 -14.5 -91t-34.5 -88t-63 -96t-77.5 -95.5t-103 -107.5t-114.5 -110.5t-134 -125.5q84 8 215 8h381v-70h-713z" />
    <glyph glyph-name="Ocircumflex" unicode="&#xd4;" horiz-adv-x="2048" 
d="M1024 -164q-192 0 -366 74.5t-300.5 201t-201 300.5t-74.5 366t74.5 366t201 300.5t300.5 201t366 74.5t366 -74.5t300.5 -201t201 -300.5t74.5 -366q0 -193 -75 -367.5t-202 -300.5t-301 -200t-364 -74zM1024 -111q242 0 446.5 119t323.5 323.5t119 446.5t-119 446.5
t-323.5 323.5t-446.5 119q-182 0 -347.5 -71t-283.5 -191t-188 -284t-70 -343q0 -242 119 -446.5t323.5 -323.5t446.5 -119zM1024 244q-224 0 -373 149l45 53q63 -63 139 -99t189 -36q123 0 198.5 64t75.5 168q0 114 -99.5 178.5t-311.5 64.5v66q193 0 281.5 61.5
t88.5 163.5q0 92 -64 144.5t-175 52.5q-79 0 -150.5 -30.5t-122.5 -84.5l-45 51q139 129 320 129q138 0 226.5 -69t88.5 -189q0 -97 -60 -160.5t-159 -95.5v-6q116 -27 190 -96.5t74 -179.5q0 -133 -101.5 -216t-254.5 -83z" />
    <glyph glyph-name="Otilde" unicode="&#xd5;" horiz-adv-x="2048" 
d="M1024 1720q192 0 366 -74.5t300.5 -201t201 -300.5t74.5 -366q0 -193 -75 -367.5t-202 -300.5t-301 -200t-364 -74q-192 0 -366 74.5t-300.5 201t-201 300.5t-74.5 366t74.5 366t201 300.5t300.5 201t366 74.5zM1024 -111q242 0 446.5 119t323.5 323.5t119 446.5
t-119 446.5t-323.5 323.5t-446.5 119q-182 0 -347.5 -71t-283.5 -191t-188 -284t-70 -343q0 -242 119 -446.5t323.5 -323.5t446.5 -119zM1194 1315v-668h176v-65h-176v-314h-74v314h-540v45l546 688h68zM678 647h442v375q0 150 4 184h-8q-42 -64 -94 -129z" />
    <glyph glyph-name="Odieresis" unicode="&#xd6;" horiz-adv-x="2048" 
d="M1024 -164q-192 0 -366 74.5t-300.5 201t-201 300.5t-74.5 366t74.5 366t201 300.5t300.5 201t366 74.5t366 -74.5t300.5 -201t201 -300.5t74.5 -366q0 -193 -75 -367.5t-202 -300.5t-301 -200t-364 -74zM1024 -111q242 0 446.5 119t323.5 323.5t119 446.5t-119 446.5
t-323.5 323.5t-446.5 119q-182 0 -347.5 -71t-283.5 -191t-188 -284t-70 -343q0 -242 119 -446.5t323.5 -323.5t446.5 -119zM1026 244q-143 0 -223 45q-100 57 -139 94l43 55q62 -58 136 -92.5t183 -34.5q120 0 204.5 78t84.5 203q0 124 -77.5 197t-207.5 73
q-62 0 -111.5 -19t-107.5 -57l-53 33l41 496h534v-68h-467l-35 -379q110 60 207 60q101 0 180.5 -35t129 -112t49.5 -187q0 -107 -56 -188.5t-139 -121.5t-176 -40z" />
    <glyph glyph-name="multiply" unicode="&#xd7;" horiz-adv-x="2048" 
d="M1024 1720q192 0 366 -74.5t300.5 -201t201 -300.5t74.5 -366q0 -193 -75 -367.5t-202 -300.5t-301 -200t-364 -74q-192 0 -366 74.5t-300.5 201t-201 300.5t-74.5 366t74.5 366t201 300.5t300.5 201t366 74.5zM1024 -111q242 0 446.5 119t323.5 323.5t119 446.5
t-119 446.5t-323.5 323.5t-446.5 119q-182 0 -347.5 -71t-283.5 -191t-188 -284t-70 -343q0 -242 119 -446.5t323.5 -323.5t446.5 -119zM1323 1237l-45 -53q-82 88 -209 88q-74 0 -135 -27.5t-111 -85.5t-79 -160.5t-31 -242.5q65 68 145 106.5t164 38.5q160 0 245 -84
t85 -244q0 -140 -96.5 -234.5t-229.5 -94.5q-187 0 -289 128.5t-102 368.5q0 159 35 278t97 187t138.5 100.5t167.5 32.5q154 0 250 -102zM1028 311q104 0 174 75t70 185q0 122 -65 193.5t-197 71.5q-154 0 -295 -156q11 -177 89 -273t224 -96z" />
    <glyph glyph-name="Oslash" unicode="&#xd8;" horiz-adv-x="2048" 
d="M1024 -164q-192 0 -366 74.5t-300.5 201t-201 300.5t-74.5 366t74.5 366t201 300.5t300.5 201t366 74.5t366 -74.5t300.5 -201t201 -300.5t74.5 -366q0 -193 -75 -367.5t-202 -300.5t-301 -200t-364 -74zM1024 -111q242 0 446.5 119t323.5 323.5t119 446.5t-119 446.5
t-323.5 323.5t-446.5 119q-182 0 -347.5 -71t-283.5 -191t-188 -284t-70 -343q0 -242 119 -446.5t323.5 -323.5t446.5 -119zM1001 268h-83q17 318 95 539t253 440h-596v68h698v-43q-136 -164 -214.5 -320.5t-111.5 -313t-41 -370.5z" />
    <glyph glyph-name="Ugrave" unicode="&#xd9;" horiz-adv-x="2048" 
d="M1024 -164q-192 0 -366 74.5t-300.5 201t-201 300.5t-74.5 366t74.5 366t201 300.5t300.5 201t366 74.5t366 -74.5t300.5 -201t201 -300.5t74.5 -366q0 -193 -75 -367.5t-202 -300.5t-301 -200t-364 -74zM1024 -111q242 0 446.5 119t323.5 323.5t119 446.5t-119 446.5
t-323.5 323.5t-446.5 119q-182 0 -347.5 -71t-283.5 -191t-188 -284t-70 -343q0 -242 119 -446.5t323.5 -323.5t446.5 -119zM1030 244q-163 0 -269 82.5t-106 205.5q0 53 21 100.5t57 84.5t74.5 64t83.5 50v9q-172 103 -172 239q0 114 90 187t221 73q150 0 235 -77t85 -199
q0 -78 -51 -148.5t-117 -119.5v-7q45 -25 75.5 -46t64 -53.5t50.5 -75t17 -93.5q0 -117 -100.5 -196.5t-258.5 -79.5zM1114 817q162 117 162 244q0 91 -67.5 153t-180.5 62q-104 0 -167.5 -54.5t-63.5 -142.5q0 -43 18.5 -79.5t46.5 -62t72.5 -49.5t85 -39t94.5 -32z
M1030 311q128 0 204.5 59t76.5 152q0 45 -21.5 83.5t-43.5 62t-82 52.5t-87.5 39.5t-107.5 38.5q-13 5 -19 7q-221 -113 -221 -266q0 -97 85.5 -162.5t215.5 -65.5z" />
    <glyph glyph-name="Uacute" unicode="&#xda;" horiz-adv-x="2048" 
d="M1024 1720q192 0 366 -74.5t300.5 -201t201 -300.5t74.5 -366q0 -193 -75 -367.5t-202 -300.5t-301 -200t-364 -74q-192 0 -366 74.5t-300.5 201t-201 300.5t-74.5 366t74.5 366t201 300.5t300.5 201t366 74.5zM1024 -111q242 0 446.5 119t323.5 323.5t119 446.5
t-119 446.5t-323.5 323.5t-446.5 119q-182 0 -347.5 -71t-283.5 -191t-188 -284t-70 -343q0 -242 119 -446.5t323.5 -323.5t446.5 -119zM723 344l45 51q82 -82 207 -82q74 0 134 27t109 85t77 160t30 240q-133 -143 -301 -143q-155 0 -241.5 85t-86.5 245q0 140 94.5 233.5
t227.5 93.5q182 0 285.5 -129t103.5 -368q0 -160 -35.5 -279.5t-97.5 -187t-136.5 -99.5t-162.5 -32q-152 0 -252 100zM1034 748q70 0 146 37t143 118q-11 173 -87 272t-220 99q-103 0 -171.5 -75.5t-68.5 -188.5q0 -123 63.5 -192.5t194.5 -69.5z" />
    <glyph glyph-name="Ucircumflex" unicode="&#xdb;" horiz-adv-x="2048" 
d="M1024 -164q-192 0 -366 74.5t-300.5 201t-201 300.5t-74.5 366t74.5 366t201 300.5t300.5 201t366 74.5t366 -74.5t300.5 -201t201 -300.5t74.5 -366q0 -193 -75 -367.5t-202 -300.5t-301 -200t-364 -74zM1024 -111q242 0 446.5 119t323.5 323.5t119 446.5t-119 446.5
t-323.5 323.5t-446.5 119q-182 0 -347.5 -71t-283.5 -191t-188 -284t-70 -343q0 -242 119 -446.5t323.5 -323.5t446.5 -119zM1253 244q-142 0 -223.5 147.5t-81.5 403.5q0 264 78.5 404t226.5 140q144 0 223.5 -141t79.5 -403q0 -256 -80.5 -403.5t-222.5 -147.5zM641 268
v928h-168v53q97 17 182 66h62v-1047h-76zM1253 313q102 0 164 126t62 356q0 229 -61.5 353t-164.5 124q-106 0 -165.5 -123t-59.5 -354q0 -232 59.5 -357t165.5 -125z" />
    <glyph glyph-name="Udieresis" unicode="&#xdc;" horiz-adv-x="2048" 
d="M1024 -164q-192 0 -366 74.5t-300.5 201t-201 300.5t-74.5 366t74.5 366t201 300.5t300.5 201t366 74.5t366 -74.5t300.5 -201t201 -300.5t74.5 -366q0 -193 -75 -367.5t-202 -300.5t-301 -200t-364 -74zM1024 -111q242 0 446.5 119t323.5 323.5t119 446.5t-119 446.5
t-323.5 323.5t-446.5 119q-182 0 -347.5 -71t-283.5 -191t-188 -284t-70 -343q0 -242 119 -446.5t323.5 -323.5t446.5 -119zM748 268v928h-168v53q97 17 182 66h61v-1047h-75zM1270 268v928h-168v53q94 16 180 66h61v-1047h-73z" />
    <glyph glyph-name="Yacute" unicode="&#xdd;" horiz-adv-x="2048" 
d="M1024 -164q-192 0 -366 74.5t-300.5 201t-201 300.5t-74.5 366t74.5 366t201 300.5t300.5 201t366 74.5t366 -74.5t300.5 -201t201 -300.5t74.5 -366q0 -193 -75 -367.5t-202 -300.5t-301 -200t-364 -74zM1024 -111q242 0 446.5 119t323.5 323.5t119 446.5t-119 446.5
t-323.5 323.5t-446.5 119q-182 0 -347.5 -71t-283.5 -191t-188 -284t-70 -343q0 -242 119 -446.5t323.5 -323.5t446.5 -119zM965 268v49q92 105 142 164t112.5 136.5t94 125.5t62.5 104.5t42.5 102.5t11.5 92q0 105 -50.5 169.5t-150.5 64.5q-121 0 -217 -133l-51 37
q120 159 270 159q128 0 200 -79.5t72 -215.5q0 -74 -24 -147t-91 -173t-117 -163.5t-169 -209.5q-11 -14 -17 -21q65 8 168 8h293v-70h-581zM643 268v928h-168v53q94 16 180 66h62v-1047h-74z" />
    <glyph glyph-name="Thorn" unicode="&#xde;" horiz-adv-x="2048" 
d="M1024 -164q-192 0 -366 74.5t-300.5 201t-201 300.5t-74.5 366t74.5 366t201 300.5t300.5 201t366 74.5t366 -74.5t300.5 -201t201 -300.5t74.5 -366q0 -193 -75 -367.5t-202 -300.5t-301 -200t-364 -74zM1024 -111q242 0 446.5 119t323.5 323.5t119 446.5t-119 446.5
t-323.5 323.5t-446.5 119q-182 0 -347.5 -71t-283.5 -191t-188 -284t-70 -343q0 -242 119 -446.5t323.5 -323.5t446.5 -119zM1239 244q-179 0 -301 153l51 45q55 -63 113.5 -97t142.5 -34q93 0 152 64t59 168q0 243 -326 243v66q152 0 222.5 61.5t70.5 163.5q0 92 -49 144.5
t-135 52.5q-57 0 -114 -28.5t-97 -80.5l-53 41q119 133 264 133q116 0 189 -69t73 -189q0 -185 -174 -256v-6q93 -27 151 -96t58 -180q0 -133 -84 -216t-213 -83zM641 268v928h-168v53q94 16 180 66h64v-1047h-76z" />
    <glyph glyph-name="germandbls" unicode="&#xdf;" horiz-adv-x="2048" 
d="M1024 1720q192 0 366 -74.5t300.5 -201t201 -300.5t74.5 -366q0 -193 -75 -367.5t-202 -300.5t-301 -200t-364 -74q-192 0 -366 74.5t-300.5 201t-201 300.5t-74.5 366t74.5 366t201 300.5t300.5 201t366 74.5zM1024 -111q242 0 446.5 119t323.5 323.5t119 446.5
t-119 446.5t-323.5 323.5t-446.5 119q-182 0 -347.5 -71t-283.5 -191t-188 -284t-70 -343q0 -242 119 -446.5t323.5 -323.5t446.5 -119zM475 1196v53q94 16 180 66h62v-1047h-74v928h-168zM1423 1315v-668h136v-65h-136v-314h-75v314h-430v45l425 688h80zM1010 647h338v375
q0 82 4 184h-6q-30 -56 -76 -129z" />
    <glyph glyph-name="agrave" unicode="&#xe0;" horiz-adv-x="2048" 
d="M1024 -164q-192 0 -366 74.5t-300.5 201t-201 300.5t-74.5 366t74.5 366t201 300.5t300.5 201t366 74.5t366 -74.5t300.5 -201t201 -300.5t74.5 -366q0 -193 -75 -367.5t-202 -300.5t-301 -200t-364 -74zM1024 -111q242 0 446.5 119t323.5 323.5t119 446.5t-119 446.5
t-323.5 323.5t-446.5 119q-182 0 -347.5 -71t-283.5 -191t-188 -284t-70 -343q0 -242 119 -446.5t323.5 -323.5t446.5 -119zM643 268v928h-168v53q94 16 180 66h62v-1047h-74zM1255 244q-106 0 -176 39t-123 104l41 53q100 -129 256 -129q90 0 156 78t66 203
q0 123 -61.5 196.5t-160.5 73.5q-34 0 -66 -11.5t-52 -24.5t-56 -40l-47 33l31 496h442v-68h-377l-24 -379q91 60 160 60q126 0 209 -86t83 -248q0 -159 -91.5 -254.5t-209.5 -95.5z" />
    <glyph glyph-name="aacute" unicode="&#xe1;" horiz-adv-x="2048" 
d="M387 -100l-51 -23q-134 197 -197 416.5t-63 484.5t63 484.5t197 416.5l51 -22q-124 -179 -183 -405.5t-59 -473.5t59 -473t183 -405zM1712 -123l-51 23q124 179 183 405t59 473t-59 473.5t-183 405.5l51 22q134 -197 197 -416.5t63 -484.5t-63 -484.5t-197 -416.5z
M692 41v65h340v1237h-258v54q163 23 270 86h62v-1377h319v-65h-733z" />
    <glyph glyph-name="acircumflex" unicode="&#xe2;" horiz-adv-x="2048" 
d="M387 -100l-51 -23q-134 197 -197 416.5t-63 484.5t63 484.5t197 416.5l51 -22q-124 -179 -183 -405.5t-59 -473.5t59 -473t183 -405zM1712 -123l-51 23q124 179 183 405t59 473t-59 473.5t-183 405.5l51 22q134 -197 197 -416.5t63 -484.5t-63 -484.5t-197 -416.5z
M643 41v45q155 161 256 270t196 224t147 200.5t83 169.5t31 160q0 145 -80.5 236.5t-239.5 91.5q-103 0 -193 -49t-151 -136l-55 45q163 209 403 209q190 0 292 -104.5t102 -292.5q0 -61 -17.5 -126.5t-44.5 -126t-78 -135.5t-99.5 -138t-128.5 -152t-145 -158.5
t-167 -175.5q109 8 241 8h516v-65h-868z" />
    <glyph glyph-name="atilde" unicode="&#xe3;" horiz-adv-x="2048" 
d="M387 -100l-51 -23q-134 197 -197 416.5t-63 484.5t63 484.5t197 416.5l51 -22q-124 -179 -183 -405.5t-59 -473.5t59 -473t183 -405zM1712 -123l-51 23q124 179 183 405t59 473t-59 473.5t-183 405.5l51 22q134 -197 197 -416.5t63 -484.5t-63 -484.5t-197 -416.5z
M1038 16q-146 0 -260.5 58.5t-179.5 142.5l49 49q147 -180 391 -180q146 0 246 90t100 238q0 165 -124 256.5t-379 91.5v69q117 0 206.5 26.5t142 73t79 104t26.5 124.5q0 127 -83 203t-214 76q-97 0 -183 -41.5t-144 -114.5l-49 49q69 81 166 128.5t210 47.5
q168 0 271.5 -89.5t103.5 -250.5q0 -143 -73.5 -230t-213.5 -130v-8q155 -34 245.5 -130.5t90.5 -250.5q0 -182 -120 -292t-304 -110z" />
    <glyph glyph-name="adieresis" unicode="&#xe4;" horiz-adv-x="2048" 
d="M336 1679l51 -22q-124 -179 -183 -405.5t-59 -473.5t59 -473t183 -405l-51 -23q-134 197 -197 416.5t-63 484.5t63 484.5t197 416.5zM1661 1657l51 22q134 -197 197 -416.5t63 -484.5t-63 -484.5t-197 -416.5l-51 23q124 179 183 405t59 473t-59 473.5t-183 405.5z
M1262 1483v-934h213v-66h-213v-442h-74v442h-651v41l653 959h72zM635 549h553v602q0 149 4 209h-8q-21 -30 -59.5 -89t-63.5 -95z" />
    <glyph glyph-name="aring" unicode="&#xe5;" horiz-adv-x="2048" 
d="M387 -100l-51 -23q-134 197 -197 416.5t-63 484.5t63 484.5t197 416.5l51 -22q-124 -179 -183 -405.5t-59 -473.5t59 -473t183 -405zM1712 -123l-51 23q124 179 183 405t59 473t-59 473.5t-183 405.5l51 22q134 -197 197 -416.5t63 -484.5t-63 -484.5t-197 -416.5z
M999 12q-254 0 -426 193l50 53q145 -176 381 -176q155 0 265.5 114.5t110.5 290.5q0 178 -99 284t-261 106q-82 0 -141.5 -24t-124.5 -75l-62 33l53 672h644v-70h-578l-49 -549q59 43 120 62.5t146 19.5q90 0 166 -27t136 -80.5t94 -142.5t34 -204q0 -89 -25.5 -166.5
t-69.5 -134.5t-102.5 -97.5t-125 -61t-136.5 -20.5z" />
    <glyph glyph-name="ae" unicode="&#xe6;" horiz-adv-x="2048" 
d="M336 1679l51 -22q-124 -179 -183 -405.5t-59 -473.5t59 -473t183 -405l-51 -23q-134 197 -197 416.5t-63 484.5t63 484.5t197 416.5zM1661 1657l51 22q134 -197 197 -416.5t63 -484.5t-63 -484.5t-197 -416.5l-51 23q124 179 183 405t59 473t-59 473.5t-183 405.5z
M1430 1372l-50 -53q-89 119 -274 119q-68 0 -127 -23.5t-111.5 -78t-90.5 -137.5t-60.5 -210t-24.5 -287q73 97 172.5 150t204.5 53q182 0 283.5 -115.5t101.5 -330.5q0 -190 -115 -316.5t-276 -126.5q-205 0 -327 178t-122 494q0 179 26.5 320.5t71 233.5t108 153t134 86.5
t152.5 25.5q210 0 324 -135zM1063 86q135 0 224 107.5t89 265.5q0 183 -79 280t-236 97q-90 0 -189 -53.5t-178 -170.5q12 -240 108 -383t261 -143z" />
    <glyph glyph-name="ccedilla" unicode="&#xe7;" horiz-adv-x="2048" 
d="M387 -100l-51 -23q-134 197 -197 416.5t-63 484.5t63 484.5t197 416.5l51 -22q-124 -179 -183 -405.5t-59 -473.5t59 -473t183 -405zM1712 -123l-51 23q124 179 183 405t59 473t-59 473.5t-183 405.5l51 22q134 -197 197 -416.5t63 -484.5t-63 -484.5t-197 -416.5z
M983 41h-78q6 220 35 403t86 349t127 308t176 316h-731v66h819v-45q-153 -243 -243 -450t-136.5 -434.5t-54.5 -512.5z" />
    <glyph glyph-name="egrave" unicode="&#xe8;" horiz-adv-x="2048" 
d="M387 -100l-51 -23q-134 197 -197 416.5t-63 484.5t63 484.5t197 416.5l51 -22q-124 -179 -183 -405.5t-59 -473.5t59 -473t183 -405zM1712 -123l-51 23q124 179 183 405t59 473t-59 473.5t-183 405.5l51 22q134 -197 197 -416.5t63 -484.5t-63 -484.5t-197 -416.5z
M1038 16q-199 0 -319.5 111t-120.5 283q0 77 24 143.5t69 117.5t87.5 85.5t100.5 70.5v9q-50 36 -84.5 68t-65.5 73t-46 89t-15 105q0 149 103 242.5t259 93.5q179 0 279 -100t100 -256q0 -100 -57.5 -194t-153.5 -195v-8q45 -29 63 -41t53 -38t49.5 -43t36.5 -46.5
t31 -57.5t16 -67t7 -84q0 -159 -110.5 -260t-305.5 -101zM1133 786q101 101 149.5 184t48.5 181q0 122 -81.5 206.5t-219.5 84.5q-123 0 -204 -76t-81 -195q0 -58 20 -107.5t52 -86.5t84 -72.5t105 -62t127 -56.5zM1038 82q161 0 249.5 82t88.5 213q0 68 -23.5 124t-53 91.5
t-96 75t-110.5 60t-138 59.5q-13 5 -19 8q-61 -43 -101.5 -77t-80 -81t-59 -103.5t-19.5 -123.5q0 -141 99.5 -234.5t262.5 -93.5z" />
    <glyph glyph-name="eacute" unicode="&#xe9;" horiz-adv-x="2048" 
d="M336 1679l51 -22q-124 -179 -183 -405.5t-59 -473.5t59 -473t183 -405l-51 -23q-134 197 -197 416.5t-63 484.5t63 484.5t197 416.5zM1661 1657l51 22q134 -197 197 -416.5t63 -484.5t-63 -484.5t-197 -416.5l-51 23q124 179 183 405t59 473t-59 473.5t-183 405.5z
M606 152l49 53q89 -119 275 -119q68 0 126.5 23.5t111.5 78t90.5 137.5t60 209.5t24.5 286.5q-73 -97 -172 -150t-204 -53q-182 0 -283.5 116t-101.5 331q0 190 115 316t276 126q205 0 326.5 -177.5t121.5 -493.5q0 -179 -26 -320.5t-71 -234t-108.5 -153t-133.5 -86.5
t-152 -26q-209 0 -324 136zM975 688q90 0 188.5 53t177.5 170q-8 157 -52 274.5t-125 185t-191 67.5q-135 0 -224.5 -107.5t-89.5 -265.5q0 -183 79 -280t237 -97z" />
    <glyph glyph-name="ecircumflex" unicode="&#xea;" horiz-adv-x="2048" 
d="M1712 -123l-51 23q124 179 183 405t59 473t-59 473.5t-183 405.5l51 22q134 -197 197 -416.5t63 -484.5t-63 -484.5t-197 -416.5zM387 -100l-51 -23q-134 197 -197 416.5t-63 484.5t63 484.5t197 416.5l51 -22q-124 -179 -183 -405.5t-59 -473.5t59 -473t183 -405z
M1315 16q-169 0 -271 190t-102 564q0 371 101.5 554t271.5 183t271.5 -183t101.5 -554q0 -374 -102 -564t-271 -190zM596 41v1302h-234v54q120 16 246 86h62v-1442h-74zM1315 86q136 0 215.5 170t79.5 514q0 174 -21.5 304t-61 209t-92.5 117t-120 38t-120 -38t-92.5 -117
t-61 -209t-21.5 -304q0 -345 78 -514.5t217 -169.5z" />
    <glyph glyph-name="edieresis" unicode="&#xeb;" horiz-adv-x="2048" 
d="M1712 -123l-51 23q124 179 183 405t59 473t-59 473.5t-183 405.5l51 22q134 -197 197 -416.5t63 -484.5t-63 -484.5t-197 -416.5zM387 -100l-51 -23q-134 197 -197 416.5t-63 484.5t63 484.5t197 416.5l51 -22q-124 -179 -183 -405.5t-59 -473.5t59 -473t183 -405z
M1374 41v1302h-233v54q119 16 245 86h62v-1442h-74zM719 41v1302h-234v54q120 16 246 86h62v-1442h-74z" />
    <glyph glyph-name="igrave" unicode="&#xec;" horiz-adv-x="2048" 
d="M1712 -123l-51 23q124 179 183 405t59 473t-59 473.5t-183 405.5l51 22q134 -197 197 -416.5t63 -484.5t-63 -484.5t-197 -416.5zM387 -100l-51 -23q-134 197 -197 416.5t-63 484.5t63 484.5t197 416.5l51 -22q-124 -179 -183 -405.5t-59 -473.5t59 -473t183 -405z
M954 41v45q322 380 458 613t136 423q0 139 -66 227.5t-196 88.5q-150 0 -278 -185l-56 45q75 98 155.5 153.5t182.5 55.5q164 0 250 -101.5t86 -283.5q0 -108 -35 -220t-112.5 -241.5t-172 -257t-241.5 -305.5q109 8 242 8h372v-65h-725zM596 41v1302h-234v54q120 16 246 86
h62v-1442h-74z" />
    <glyph glyph-name="iacute" unicode="&#xed;" horiz-adv-x="2048" 
d="M1712 -123l-51 23q124 179 183 405t59 473t-59 473.5t-183 405.5l51 22q134 -197 197 -416.5t63 -484.5t-63 -484.5t-197 -416.5zM387 -100l-51 -23q-134 197 -197 416.5t-63 484.5t63 484.5t197 416.5l51 -22q-124 -179 -183 -405.5t-59 -473.5t59 -473t183 -405z
M1401 807v-8q122 -30 206.5 -131t84.5 -250q0 -183 -107 -292.5t-272 -109.5q-128 0 -232.5 59.5t-167.5 141.5l50 49q139 -180 350 -180q128 0 214.5 90t86.5 238q0 165 -108.5 256.5t-329.5 91.5v69q103 0 181 26.5t124 73t69 104t23 124.5q0 128 -71 203.5t-189 75.5
q-162 0 -287 -156l-49 49q147 176 336 176q152 0 245 -89.5t93 -250.5q0 -139 -69 -229.5t-181 -130.5zM596 41v1302h-234v54q120 16 246 86h62v-1442h-74z" />
    <glyph glyph-name="icircumflex" unicode="&#xee;" horiz-adv-x="2048" 
d="M336 1679l51 -22q-124 -179 -183 -405.5t-59 -473.5t59 -473t183 -405l-51 -23q-134 197 -197 416.5t-63 484.5t63 484.5t197 416.5zM1661 1657l51 22q134 -197 197 -416.5t63 -484.5t-63 -484.5t-197 -416.5l-51 23q124 179 183 405t59 473t-59 473.5t-183 405.5z
M362 1343v54q120 16 246 86h62v-1442h-74v1302h-234zM1669 483h-178v-442h-74v442h-547v41l547 959h74v-934h178v-66zM969 549h448v555q0 212 4 256h-8q-16 -30 -47.5 -92.5t-54.5 -104.5z" />
    <glyph glyph-name="idieresis" unicode="&#xef;" horiz-adv-x="2048" 
d="M1712 -123l-51 23q124 179 183 405t59 473t-59 473.5t-183 405.5l51 22q134 -197 197 -416.5t63 -484.5t-63 -484.5t-197 -416.5zM387 -100l-51 -23q-134 197 -197 416.5t-63 484.5t63 484.5t197 416.5l51 -22q-124 -179 -183 -405.5t-59 -473.5t59 -473t183 -405z
M1102 1413l-49 -549q62 43 108 62.5t113 19.5q76 0 141 -27t115.5 -80.5t79 -142.5t28.5 -204q0 -111 -33.5 -203.5t-89 -151.5t-125.5 -92t-145 -33q-66 0 -122.5 16t-102 48t-74.5 59.5t-65 69.5l49 53q32 -40 58.5 -66t66 -54t88 -42t106.5 -14q127 0 219.5 115t92.5 290
q0 180 -80 285t-215 105q-35 0 -63 -6.5t-59 -24t-46.5 -28.5t-53.5 -40l-61 33l53 672h566v-70h-500zM596 41v1302h-234v54q120 16 246 86h62v-1442h-74z" />
    <glyph glyph-name="eth" unicode="&#xf0;" horiz-adv-x="2048" 
d="M387 -100l-51 -23q-134 197 -197 416.5t-63 484.5t63 484.5t197 416.5l51 -22q-124 -179 -183 -405.5t-59 -473.5t59 -473t183 -405zM1712 -123l-51 23q124 179 183 405t59 473t-59 473.5t-183 405.5l51 22q134 -197 197 -416.5t63 -484.5t-63 -484.5t-197 -416.5z
M930 211q-136 0 -225 73.5t-89 217.5q0 176 167.5 269.5t537.5 135.5q2 55 -3.5 103t-23 96t-46 82t-77 55t-112.5 21q-179 0 -350 -131l-39 65q68 52 174.5 94.5t222.5 42.5q92 0 159 -32t104 -90t54 -128.5t17 -158.5v-688h-68l-8 141h-8q-101 -79 -193.5 -123.5
t-193.5 -44.5zM942 285q97 0 185 42t194 136v377q-228 -24 -365.5 -69.5t-195.5 -109t-58 -155.5q0 -112 67 -166.5t173 -54.5z" />
    <glyph glyph-name="ntilde" unicode="&#xf1;" horiz-adv-x="2048" 
d="M387 -100l-51 -23q-134 197 -197 416.5t-63 484.5t63 484.5t197 416.5l51 -22q-124 -179 -183 -405.5t-59 -473.5t59 -473t183 -405zM1712 -123l-51 23q124 179 183 405t59 473t-59 473.5t-183 405.5l51 22q134 -197 197 -416.5t63 -484.5t-63 -484.5t-197 -416.5z
M1030 6q-75 0 -163 33.5t-167 93.5h-2l-12 -100h-70v1614h84v-473l-6 -216q206 172 381 172q216 0 326 -144t110 -400q0 -134 -38.5 -245t-104.5 -183.5t-153 -112t-185 -39.5zM1032 80q171 0 282 141.5t111 362.5q0 104 -20 188t-61.5 149t-111.5 100.5t-165 35.5
q-159 0 -367 -183v-653q167 -141 332 -141z" />
    <glyph glyph-name="ograve" unicode="&#xf2;" horiz-adv-x="2048" 
d="M387 -100l-51 -23q-134 197 -197 416.5t-63 484.5t63 484.5t197 416.5l51 -22q-124 -179 -183 -405.5t-59 -473.5t59 -473t183 -405zM1712 -123l-51 23q124 179 183 405t59 473t-59 473.5t-183 405.5l51 22q134 -197 197 -416.5t63 -484.5t-63 -484.5t-197 -416.5z
M1087 211q-212 0 -347.5 150.5t-135.5 410.5q0 130 40 238t107.5 178t154.5 108.5t184 38.5q100 0 173.5 -36t139.5 -97l-49 -57q-133 119 -264 119q-169 0 -284.5 -139.5t-115.5 -352.5q0 -217 109.5 -353t287.5 -136q162 0 297 131l48 -60q-163 -143 -345 -143z" />
    <glyph glyph-name="oacute" unicode="&#xf3;" horiz-adv-x="2048" 
d="M387 -100l-51 -23q-134 197 -197 416.5t-63 484.5t63 484.5t197 416.5l51 -22q-124 -179 -183 -405.5t-59 -473.5t59 -473t183 -405zM1712 -123l-51 23q124 179 183 405t59 473t-59 473.5t-183 405.5l51 22q134 -197 197 -416.5t63 -484.5t-63 -484.5t-197 -416.5zM985 6
q-206 0 -327 147t-121 414q0 126 39 233t105 178.5t154 111.5t185 40q93 0 168.5 -31t167.5 -98l-8 197v449h86v-1614h-72l-10 141h-4q-168 -168 -363 -168zM995 80q181 0 353 184v651q-86 77 -163 109.5t-165 32.5q-165 0 -280 -143t-115 -347q0 -223 97 -355t273 -132z
" />
    <glyph glyph-name="ocircumflex" unicode="&#xf4;" horiz-adv-x="2048" 
d="M387 -100l-51 -23q-134 197 -197 416.5t-63 484.5t63 484.5t197 416.5l51 -22q-124 -179 -183 -405.5t-59 -473.5t59 -473t183 -405zM1712 -123l-51 23q124 179 183 405t59 473t-59 473.5t-183 405.5l51 22q134 -197 197 -416.5t63 -484.5t-63 -484.5t-197 -416.5z
M1100 211q-103 0 -193.5 38.5t-158 109.5t-107 177.5t-39.5 235.5q0 127 39 235t104.5 178.5t150 110t175.5 39.5q194 0 303 -127t109 -366q0 -6 1 -22t0.5 -28.5t-3.5 -23.5h-795q5 -216 119 -350.5t301 -134.5q154 0 297 96l37 -64q-76 -50 -153 -77t-187 -27zM686 831
h719q0 213 -88.5 323t-245.5 110q-146 0 -257 -119t-128 -314z" />
    <glyph glyph-name="otilde" unicode="&#xf5;" horiz-adv-x="2048" 
d="M336 1679l51 -22q-124 -179 -183 -405.5t-59 -473.5t59 -473t183 -405l-51 -23q-134 197 -197 416.5t-63 484.5t63 484.5t197 416.5zM1661 1657l51 22q134 -197 197 -416.5t63 -484.5t-63 -484.5t-197 -416.5l-51 23q124 179 183 405t59 473t-59 473.5t-183 405.5z
M887 1104v252q0 158 65 237.5t189 79.5q72 0 151 -37l-22 -67q-68 30 -129 30q-174 0 -174 -249v-246h254v-72h-254v-999h-80v999h-148v64z" />
    <glyph glyph-name="odieresis" unicode="&#xf6;" horiz-adv-x="2048" 
d="M387 -100l-51 -23q-134 197 -197 416.5t-63 484.5t63 484.5t197 416.5l51 -22q-124 -179 -183 -405.5t-59 -473.5t59 -473t183 -405zM1712 -123l-51 23q124 179 183 405t59 473t-59 473.5t-183 405.5l51 22q134 -197 197 -416.5t63 -484.5t-63 -484.5t-197 -416.5z
M1042 -39q-203 0 -318.5 75.5t-115.5 205.5q0 64 39.5 129.5t104.5 109.5v8q-95 65 -95 166q0 99 117 185v8q-58 48 -96.5 122t-38.5 165q0 156 105 260t255 104q91 0 142 -26h354v-72h-258q56 -46 88.5 -115t32.5 -153q0 -156 -102.5 -263.5t-256.5 -107.5q-92 0 -172 45
q-28 -26 -43 -41.5t-29 -44t-14 -59.5q0 -134 220 -134h204q172 0 251 -54.5t79 -172.5q0 -64 -32.5 -125t-90 -109t-144 -77t-186.5 -29zM999 834q118 0 195.5 83.5t77.5 217.5q0 132 -77 212t-196 80q-116 0 -194 -80t-78 -212t80 -216.5t192 -84.5zM1049 33q160 0 260 79
t100 183q0 80 -57.5 114.5t-177.5 34.5h-209q-67 0 -144 19q-127 -83 -127 -213q0 -100 92.5 -158.5t262.5 -58.5z" />
    <glyph glyph-name="divide" unicode="&#xf7;" horiz-adv-x="2048" 
d="M387 -100l-51 -23q-134 197 -197 416.5t-63 484.5t63 484.5t197 416.5l51 -22q-124 -179 -183 -405.5t-59 -473.5t59 -473t183 -405zM1712 -123l-51 23q124 179 183 405t59 473t-59 473.5t-183 405.5l51 22q134 -197 197 -416.5t63 -484.5t-63 -484.5t-197 -416.5z
M639 33v1614h82v-473l-2 -240q99 97 186.5 146.5t194.5 49.5q166 0 243.5 -98t77.5 -309v-690h-80v678q0 181 -60.5 264.5t-195.5 83.5q-94 0 -176 -50t-188 -161v-815h-82z" />
    <glyph glyph-name="oslash" unicode="&#xf8;" horiz-adv-x="2048" 
d="M387 -100l-51 -23q-134 197 -197 416.5t-63 484.5t63 484.5t197 416.5l51 -22q-124 -179 -183 -405.5t-59 -473.5t59 -473t183 -405zM1712 -123l-51 23q124 179 183 405t59 473t-59 473.5t-183 405.5l51 22q134 -197 197 -416.5t63 -484.5t-63 -484.5t-197 -416.5z
M1026 1370q-35 0 -60.5 24.5t-25.5 59.5q0 37 25 59.5t61 22.5q33 0 57.5 -22.5t24.5 -59.5q0 -34 -25 -59t-57 -25zM981 33v1071h84v-1071h-84z" />
    <glyph glyph-name="ugrave" unicode="&#xf9;" horiz-adv-x="2048" 
d="M1065 1575q-35 0 -59.5 24.5t-24.5 59.5q0 37 24 59.5t60 22.5q33 0 56.5 -22.5t23.5 -59.5q0 -35 -23.5 -59.5t-56.5 -24.5zM387 -100l-51 -23q-134 197 -197 416.5t-63 484.5t63 484.5t197 416.5l51 -22q-124 -179 -183 -405.5t-59 -473.5t59 -473t183 -405zM1712 -123
l-51 23q124 179 183 405t59 473t-59 473.5t-183 405.5l51 22q134 -197 197 -416.5t63 -484.5t-63 -484.5t-197 -416.5zM872 -283q-73 0 -133 27l21 70q65 -21 114 -21q45 0 75 17t45.5 50.5t21.5 74t6 96.5v1278h80v-1286q0 -159 -55.5 -232.5t-174.5 -73.5z" />
    <glyph glyph-name="uacute" unicode="&#xfa;" horiz-adv-x="2048" 
d="M387 -100l-51 -23q-134 197 -197 416.5t-63 484.5t63 484.5t197 416.5l51 -22q-124 -179 -183 -405.5t-59 -473.5t59 -473t183 -405zM1712 -123l-51 23q124 179 183 405t59 473t-59 473.5t-183 405.5l51 22q134 -197 197 -416.5t63 -484.5t-63 -484.5t-197 -416.5z
M676 33v1614h82v-1207h4l557 664h94l-352 -422l416 -649h-95l-370 585l-254 -290v-295h-82z" />
    <glyph glyph-name="ucircumflex" unicode="&#xfb;" horiz-adv-x="2048" 
d="M387 -100l-51 -23q-134 197 -197 416.5t-63 484.5t63 484.5t197 416.5l51 -22q-124 -179 -183 -405.5t-59 -473.5t59 -473t183 -405zM1712 -123l-51 23q124 179 183 405t59 473t-59 473.5t-183 405.5l51 22q134 -197 197 -416.5t63 -484.5t-63 -484.5t-197 -416.5z
M1092 6q-59 0 -89 37t-30 121v1483h84v-1497q0 -72 45 -72q26 0 41 4l14 -68q-7 -1 -27 -4.5t-38 -3.5z" />
    <glyph glyph-name="udieresis" unicode="&#xfc;" horiz-adv-x="2048" 
d="M387 -100l-51 -23q-134 197 -197 416.5t-63 484.5t63 484.5t197 416.5l51 -22q-124 -179 -183 -405.5t-59 -473.5t59 -473t183 -405zM1712 -123l-51 23q124 179 183 405t59 473t-59 473.5t-183 405.5l51 22q134 -197 197 -416.5t63 -484.5t-63 -484.5t-197 -416.5z
M485 238v1071h78l12 -125h5q124 151 260 151q90 0 141 -45.5t76 -132.5q69 91 136 134.5t150 43.5q234 0 234 -372v-725h-88v712q0 314 -160 314q-69 0 -123.5 -39.5t-124.5 -130.5v-856h-92v712q0 314 -166 314q-72 0 -125 -39t-120 -131v-856h-93z" />
    <glyph glyph-name="yacute" unicode="&#xfd;" horiz-adv-x="2048" 
d="M387 -100l-51 -23q-134 197 -197 416.5t-63 484.5t63 484.5t197 416.5l51 -22q-124 -179 -183 -405.5t-59 -473.5t59 -473t183 -405zM1712 -123l-51 23q124 179 183 405t59 473t-59 473.5t-183 405.5l51 22q134 -197 197 -416.5t63 -484.5t-63 -484.5t-197 -416.5z
M641 238v1071h70l12 -168h4q98 98 182.5 146t192.5 48q166 0 244.5 -99t78.5 -310v-688h-79v675q0 181 -61.5 266t-197.5 85q-94 0 -175 -50t-187 -163v-813h-84z" />
    <glyph glyph-name="thorn" unicode="&#xfe;" horiz-adv-x="2048" 
d="M387 -100l-51 -23q-134 197 -197 416.5t-63 484.5t63 484.5t197 416.5l51 -22q-124 -179 -183 -405.5t-59 -473.5t59 -473t183 -405zM1712 -123l-51 23q124 179 183 405t59 473t-59 473.5t-183 405.5l51 22q134 -197 197 -416.5t63 -484.5t-63 -484.5t-197 -416.5z
M1024 211q-96 0 -183 38.5t-153.5 108.5t-105.5 177.5t-39 236.5q0 130 39 238t105.5 178t153 108.5t183.5 38.5t183 -38t152 -108.5t105 -178t39 -238.5q0 -129 -39 -236.5t-105 -177.5t-152.5 -108.5t-182.5 -38.5zM1024 283q170 0 282.5 137t112.5 352q0 214 -112.5 353
t-282.5 139q-169 0 -283 -139.5t-114 -352.5q0 -214 114 -351.5t283 -137.5z" />
    <glyph glyph-name="ydieresis" unicode="&#xff;" horiz-adv-x="2048" 
d="M1712 -123l-51 23q124 179 183 405t59 473t-59 473.5t-183 405.5l51 22q134 -197 197 -416.5t63 -484.5t-63 -484.5t-197 -416.5zM387 -100l-51 -23q-134 197 -197 416.5t-63 484.5t63 484.5t197 416.5l51 -22q-124 -179 -183 -405.5t-59 -473.5t59 -473t183 -405z
M621 -10v1483h67l14 -136h3q204 162 370 162q215 0 324.5 -144.5t109.5 -400.5q0 -134 -39 -245t-105 -183t-152.5 -111.5t-182.5 -39.5q-151 0 -328 133v-518h-81zM702 1243v-653q169 -141 330 -141q170 0 279.5 141t109.5 362q0 104 -19.5 188t-61 149t-111 100.5
t-162.5 35.5q-83 0 -169 -44.5t-196 -137.5z" />
    <glyph glyph-name="Amacron" unicode="&#x100;" horiz-adv-x="2048" 
d="M387 -100l-51 -23q-134 197 -197 416.5t-63 484.5t63 484.5t197 416.5l51 -22q-124 -179 -183 -405.5t-59 -473.5t59 -473t183 -405zM1712 -123l-51 23q124 179 183 405t59 473t-59 473.5t-183 405.5l51 22q134 -197 197 -416.5t63 -484.5t-63 -484.5t-197 -416.5z
M1346 -10v340l8 213q-187 -168 -367 -168q-206 0 -327 147t-121 414q0 126 39 233t105 178.5t154 111.5t185 40q91 0 165.5 -31t160.5 -94h2l8 99h72v-1483h-84zM997 449q177 0 349 184v651q-86 77 -162 109t-164 32q-165 0 -278 -142t-113 -347q0 -224 95.5 -355.5
t272.5 -131.5z" />
    <glyph glyph-name="amacron" unicode="&#x101;" horiz-adv-x="2048" 
d="M387 -100l-51 -23q-134 197 -197 416.5t-63 484.5t63 484.5t197 416.5l51 -22q-124 -179 -183 -405.5t-59 -473.5t59 -473t183 -405zM1712 -123l-51 23q124 179 183 405t59 473t-59 473.5t-183 405.5l51 22q134 -197 197 -416.5t63 -484.5t-63 -484.5t-197 -416.5z
M827 238v1071h70l12 -201h4q125 227 306 227q56 0 104 -22l-23 -74q-42 18 -94 18q-80 0 -158.5 -68.5t-136.5 -213.5v-737h-84z" />
    <glyph glyph-name="Abreve" unicode="&#x102;" horiz-adv-x="2048" 
d="M387 -100l-51 -23q-134 197 -197 416.5t-63 484.5t63 484.5t197 416.5l51 -22q-124 -179 -183 -405.5t-59 -473.5t59 -473t183 -405zM1712 -123l-51 23q124 179 183 405t59 473t-59 473.5t-183 405.5l51 22q134 -197 197 -416.5t63 -484.5t-63 -484.5t-197 -416.5z
M1040 211q-224 0 -391 149l49 62q81 -67 159.5 -102t186.5 -35q124 0 195.5 63.5t71.5 155.5q0 49 -23 89.5t-65 70.5t-82.5 49.5t-93.5 38.5q-62 20 -103 35.5t-92.5 43t-82 56.5t-52 72.5t-21.5 95.5q0 118 91.5 199t250.5 81q80 0 161.5 -30t139.5 -78l-47 -60
q-46 33 -75 50t-78.5 33t-102.5 16q-121 0 -186.5 -61t-65.5 -144q0 -21 5.5 -40.5t11 -34.5t21.5 -30.5t24.5 -25t33.5 -23t34.5 -19t41.5 -18t40 -16t44 -16.5q12 -5 50.5 -19.5t52.5 -20t48 -20.5t48 -24t41.5 -26t39.5 -31t29.5 -36t25.5 -43.5t14 -50t6 -59.5
q0 -125 -95.5 -211t-259.5 -86z" />
    <glyph glyph-name="abreve" unicode="&#x103;" horiz-adv-x="2048" 
d="M387 -100l-51 -23q-134 197 -197 416.5t-63 484.5t63 484.5t197 416.5l51 -22q-124 -179 -183 -405.5t-59 -473.5t59 -473t183 -405zM1712 -123l-51 23q124 179 183 405t59 473t-59 473.5t-183 405.5l51 22q134 -197 197 -416.5t63 -484.5t-63 -484.5t-197 -416.5z
M1174 129q-74 0 -126 22.5t-81 66t-41.5 99t-12.5 129.5v709h-168v64l170 8l11 313h67v-313h318v-72h-318v-719q0 -55 8 -95t28 -72.5t58 -49t93 -16.5q74 0 137 37l22 -70q-105 -41 -165 -41z" />
    <glyph glyph-name="Aogonek" unicode="&#x104;" horiz-adv-x="2048" 
d="M387 -100l-51 -23q-134 197 -197 416.5t-63 484.5t63 484.5t197 416.5l51 -22q-124 -179 -183 -405.5t-59 -473.5t59 -473t183 -405zM1712 -123l-51 23q124 179 183 405t59 473t-59 473.5t-183 405.5l51 22q134 -197 197 -416.5t63 -484.5t-63 -484.5t-197 -416.5z
M954 211q-167 0 -247 100t-80 310v688h80v-676q0 -181 61.5 -264.5t196.5 -83.5q97 0 177.5 53t180.5 176v795h84v-1071h-70l-12 184h-4q-90 -103 -177 -157t-190 -54z" />
    <glyph glyph-name="aogonek" unicode="&#x105;" horiz-adv-x="2048" 
d="M387 -100l-51 -23q-134 197 -197 416.5t-63 484.5t63 484.5t197 416.5l51 -22q-124 -179 -183 -405.5t-59 -473.5t59 -473t183 -405zM1712 -123l-51 23q124 179 183 405t59 473t-59 473.5t-183 405.5l51 22q134 -197 197 -416.5t63 -484.5t-63 -484.5t-197 -416.5z
M977 238l-406 1071h93l247 -682q13 -34 52 -143.5t61 -164.5h8q87 238 109 308l250 682h86l-402 -1071h-98z" />
    <glyph glyph-name="Cacute" unicode="&#x106;" horiz-adv-x="2048" 
d="M387 -100l-51 -23q-134 197 -197 416.5t-63 484.5t63 484.5t197 416.5l51 -22q-124 -179 -183 -405.5t-59 -473.5t59 -473t183 -405zM1712 -123l-51 23q124 179 183 405t59 473t-59 473.5t-183 405.5l51 22q134 -197 197 -416.5t63 -484.5t-63 -484.5t-197 -416.5z
M651 238l-309 1071h96l187 -707q18 -61 42.5 -163t30.5 -124h11q12 43 33 137t38 150l195 707h106l191 -707q12 -44 35.5 -139.5t38.5 -147.5h8q45 161 78 287l184 707h90l-303 -1071h-109l-188 684q-15 52 -38.5 153.5t-39.5 153.5h-10q-8 -33 -22.5 -97t-28.5 -115
t-31 -97l-180 -682h-105z" />
    <glyph glyph-name="cacute" unicode="&#x107;" horiz-adv-x="2048" 
d="M387 -100l-51 -23q-134 197 -197 416.5t-63 484.5t63 484.5t197 416.5l51 -22q-124 -179 -183 -405.5t-59 -473.5t59 -473t183 -405zM1712 -123l-51 23q124 179 183 405t59 473t-59 473.5t-183 405.5l51 22q134 -197 197 -416.5t63 -484.5t-63 -484.5t-197 -416.5z
M610 238l367 559l-336 512h92l180 -279q36 -63 115 -176h8q19 27 56 86.5t59 89.5l172 279h88l-336 -516l365 -555h-90l-197 303q-78 126 -129 194h-10q-9 -14 -53 -84t-72 -110l-191 -303h-88z" />
    <glyph glyph-name="Ccircumflex" unicode="&#x108;" horiz-adv-x="2048" 
d="M387 -100l-51 -23q-134 197 -197 416.5t-63 484.5t63 484.5t197 416.5l51 -22q-124 -179 -183 -405.5t-59 -473.5t59 -473t183 -405zM1712 -123l-51 23q124 179 183 405t59 473t-59 473.5t-183 405.5l51 22q134 -197 197 -416.5t63 -484.5t-63 -484.5t-197 -416.5z
M715 -10q-80 0 -127 20l20 76q66 -16 107 -16q198 0 264 211l31 96l-445 1096h92l265 -689q22 -51 63.5 -158t56.5 -145h9q23 57 59.5 171t42.5 132l236 689h86l-431 -1217q-21 -56 -45.5 -98.5t-62.5 -83t-94 -62.5t-127 -22z" />
    <glyph glyph-name="ccircumflex" unicode="&#x109;" horiz-adv-x="2048" 
d="M387 -100l-51 -23q-134 197 -197 416.5t-63 484.5t63 484.5t197 416.5l51 -22q-124 -179 -183 -405.5t-59 -473.5t59 -473t183 -405zM1712 -123l-51 23q124 179 183 405t59 473t-59 473.5t-183 405.5l51 22q134 -197 197 -416.5t63 -484.5t-63 -484.5t-197 -416.5z
M637 238v43l647 956h-575v72h684v-43l-650 -955h670v-73h-776z" />
    <glyph glyph-name="Cdotaccent" unicode="&#x10a;" horiz-adv-x="2048" 
d="M1024 -164q-192 0 -366 74.5t-300.5 201t-201 300.5t-74.5 366t74.5 366t201 300.5t300.5 201t366 74.5t366 -74.5t300.5 -201t201 -300.5t74.5 -366q0 -193 -75 -367.5t-202 -300.5t-301 -200t-364 -74zM1024 -111q242 0 446.5 119t323.5 323.5t119 446.5t-119 446.5
t-323.5 323.5t-446.5 119q-182 0 -347.5 -71t-283.5 -191t-188 -284t-70 -343q0 -242 119 -446.5t323.5 -323.5t446.5 -119zM958 385q-96 0 -155.5 53.5t-59.5 149.5q0 117 109.5 180t351.5 86q0 47 -6.5 83t-23 67t-47.5 47t-76 16q-66 0 -132.5 -25.5t-115.5 -60.5l-27 57
q153 92 279 92q122 0 173.5 -71.5t51.5 -202.5v-453h-59l-13 91h-10q-125 -109 -240 -109zM975 453q116 0 229 110v236q-207 -19 -296 -70.5t-89 -134.5q0 -141 156 -141z" />
    <glyph glyph-name="cdotaccent" unicode="&#x10b;" horiz-adv-x="2048" 
d="M1024 -164q-192 0 -366 74.5t-300.5 201t-201 300.5t-74.5 366t74.5 366t201 300.5t300.5 201t366 74.5t366 -74.5t300.5 -201t201 -300.5t74.5 -366q0 -193 -75 -367.5t-202 -300.5t-301 -200t-364 -74zM1024 -111q242 0 446.5 119t323.5 323.5t119 446.5t-119 446.5
t-323.5 323.5t-446.5 119q-182 0 -347.5 -71t-283.5 -191t-188 -284t-70 -343q0 -242 119 -446.5t323.5 -323.5t446.5 -119zM1059 303q-105 0 -211 86h-10l-11 -67h-53v1058h70v-303l-4 -141q68 56 122.5 84.5t120.5 28.5q145 0 218 -94.5t73 -264.5q0 -178 -91 -282.5
t-224 -104.5zM1061 371q106 0 171.5 85.5t65.5 231.5q0 295 -221 295q-107 0 -233 -117v-407q52 -44 110 -66t107 -22z" />
    <glyph glyph-name="Ccaron" unicode="&#x10c;" horiz-adv-x="2048" 
d="M1024 -164q-192 0 -366 74.5t-300.5 201t-201 300.5t-74.5 366t74.5 366t201 300.5t300.5 201t366 74.5t366 -74.5t300.5 -201t201 -300.5t74.5 -366q0 -193 -75 -367.5t-202 -300.5t-301 -200t-364 -74zM1024 -111q242 0 446.5 119t323.5 323.5t119 446.5t-119 446.5
t-323.5 323.5t-446.5 119q-182 0 -347.5 -71t-283.5 -191t-188 -284t-70 -343q0 -242 119 -446.5t323.5 -323.5t446.5 -119zM1069 385q-147 0 -240.5 100t-93.5 275q0 170 98.5 270t237.5 100q115 0 213 -79l-41 -50q-41 35 -79.5 50.5t-96.5 15.5q-110 0 -181 -86t-71 -221
q0 -136 71 -221.5t187 -85.5q110 0 189 69l32 -51q-102 -86 -225 -86z" />
    <glyph glyph-name="ccaron" unicode="&#x10d;" horiz-adv-x="2048" 
d="M1024 -164q-192 0 -366 74.5t-300.5 201t-201 300.5t-74.5 366t74.5 366t201 300.5t300.5 201t366 74.5t366 -74.5t300.5 -201t201 -300.5t74.5 -366q0 -193 -75 -367.5t-202 -300.5t-301 -200t-364 -74zM1024 -111q242 0 446.5 119t323.5 323.5t119 446.5t-119 446.5
t-323.5 323.5t-446.5 119q-182 0 -347.5 -71t-283.5 -191t-188 -284t-70 -343q0 -242 119 -446.5t323.5 -323.5t446.5 -119zM1012 303q-148 0 -229 100.5t-81 286.5q0 161 93 260t225 99q107 0 217 -84l-6 129v286h72v-1058h-56l-14 84h-6q-42 -34 -66 -51t-66 -34.5
t-83 -17.5zM1018 371q50 0 98 26.5t115 83.5v412q-103 92 -213 92q-100 0 -169 -85t-69 -210q0 -153 58.5 -236t179.5 -83z" />
    <glyph glyph-name="Dcaron" unicode="&#x10e;" horiz-adv-x="2048" 
d="M1024 -164q-192 0 -366 74.5t-300.5 201t-201 300.5t-74.5 366t74.5 366t201 300.5t300.5 201t366 74.5t366 -74.5t300.5 -201t201 -300.5t74.5 -366q0 -193 -75 -367.5t-202 -300.5t-301 -200t-364 -74zM1024 -111q242 0 446.5 119t323.5 323.5t119 446.5t-119 446.5
t-323.5 323.5t-446.5 119q-182 0 -347.5 -71t-283.5 -191t-188 -284t-70 -343q0 -242 119 -446.5t323.5 -323.5t446.5 -119zM1059 385q-142 0 -238 100.5t-96 274.5q0 167 93.5 268.5t228.5 101.5q65 0 116.5 -22.5t81.5 -55.5t49 -77.5t26 -83t7 -76.5q0 -31 -6 -70h-520
q2 -132 73 -212t193 -80q107 0 197 63l34 -55q-45 -25 -67 -36t-72 -25.5t-100 -14.5zM803 807h452q0 48 -10.5 91.5t-33.5 82t-64.5 61.5t-97.5 23q-105 0 -169.5 -67.5t-76.5 -190.5z" />
    <glyph glyph-name="dcaron" unicode="&#x10f;" horiz-adv-x="2048" 
d="M1024 1720q192 0 366 -74.5t300.5 -201t201 -300.5t74.5 -366q0 -193 -75 -367.5t-202 -300.5t-301 -200t-364 -74q-192 0 -366 74.5t-300.5 201t-201 300.5t-74.5 366t74.5 366t201 300.5t300.5 201t366 74.5zM1024 -111q242 0 446.5 119t323.5 323.5t119 446.5
t-119 446.5t-323.5 323.5t-446.5 119q-182 0 -347.5 -71t-283.5 -191t-188 -284t-70 -343q0 -242 119 -446.5t323.5 -323.5t446.5 -119zM940 1032v139q0 107 46.5 168.5t133.5 61.5q61 0 113 -23l-21 -59q-46 16 -88 16q-57 0 -84.5 -41.5t-27.5 -111.5v-150h168v-61h-168
v-649h-72v649h-102v55z" />
    <glyph glyph-name="Dcroat" unicode="&#x110;" horiz-adv-x="2048" 
d="M1024 -164q-192 0 -366 74.5t-300.5 201t-201 300.5t-74.5 366t74.5 366t201 300.5t300.5 201t366 74.5t366 -74.5t300.5 -201t201 -300.5t74.5 -366q0 -193 -75 -367.5t-202 -300.5t-301 -200t-364 -74zM1024 -111q242 0 446.5 119t323.5 323.5t119 446.5t-119 446.5
t-323.5 323.5t-446.5 119q-182 0 -347.5 -71t-283.5 -191t-188 -284t-70 -343q0 -242 119 -446.5t323.5 -323.5t446.5 -119zM1028 188q-140 0 -216.5 52t-76.5 145q0 99 105 164v8q-66 39 -66 119q0 39 24 72t58 53v10q-41 28 -66.5 77.5t-25.5 112.5q0 112 70.5 182
t183.5 70q49 0 110 -22h234v-64h-160q35 -24 55.5 -70t20.5 -96q0 -111 -75 -182t-185 -71q-68 0 -119 30q-53 -43 -53 -96q0 -44 30.5 -66t104.5 -22h156q123 0 179 -39t56 -127q0 -97 -96 -168.5t-248 -71.5zM1018 811q80 0 135 53.5t55 136.5q0 85 -55 137t-135 52
q-82 0 -133 -49.5t-51 -139.5q0 -85 52 -137.5t132 -52.5zM1036 252q122 0 193 53t71 115q0 55 -41 77.5t-124 22.5h-150q-59 0 -90 10q-90 -59 -90 -137q0 -67 60.5 -104t170.5 -37z" />
    <glyph glyph-name="dcroat" unicode="&#x111;" horiz-adv-x="2048" 
d="M1024 -164q-192 0 -366 74.5t-300.5 201t-201 300.5t-74.5 366t74.5 366t201 300.5t300.5 201t366 74.5t366 -74.5t300.5 -201t201 -300.5t74.5 -366q0 -193 -75 -367.5t-202 -300.5t-301 -200t-364 -74zM1024 -111q242 0 446.5 119t323.5 323.5t119 446.5t-119 446.5
t-323.5 323.5t-446.5 119q-182 0 -347.5 -71t-283.5 -191t-188 -284t-70 -343q0 -242 119 -446.5t323.5 -323.5t446.5 -119zM758 322v1058h69v-458q116 127 250 127q223 0 223 -271v-456h-69v444q0 107 -37 163t-135 56q-93 0 -232 -133v-530h-69z" />
    <glyph glyph-name="Emacron" unicode="&#x112;" horiz-adv-x="2048" 
d="M1024 -164q-192 0 -366 74.5t-300.5 201t-201 300.5t-74.5 366t74.5 366t201 300.5t300.5 201t366 74.5t366 -74.5t300.5 -201t201 -300.5t74.5 -366q0 -193 -75 -367.5t-202 -300.5t-301 -200t-364 -74zM1024 -111q242 0 446.5 119t323.5 323.5t119 446.5t-119 446.5
t-323.5 323.5t-446.5 119q-182 0 -347.5 -71t-283.5 -191t-188 -284t-70 -343q0 -242 119 -446.5t323.5 -323.5t446.5 -119zM1028 1198q-29 0 -46 18t-17 48q0 29 17 47t46 18q31 0 49.5 -18t18.5 -47t-18.5 -47.5t-49.5 -18.5zM989 322v710h72v-710h-72z" />
    <glyph glyph-name="emacron" unicode="&#x113;" horiz-adv-x="2048" 
d="M1024 -164q-192 0 -366 74.5t-300.5 201t-201 300.5t-74.5 366t74.5 366t201 300.5t300.5 201t366 74.5t366 -74.5t300.5 -201t201 -300.5t74.5 -366q0 -193 -75 -367.5t-202 -300.5t-301 -200t-364 -74zM1024 -111q242 0 446.5 119t323.5 323.5t119 446.5t-119 446.5
t-323.5 323.5t-446.5 119q-182 0 -347.5 -71t-283.5 -191t-188 -284t-70 -343q0 -242 119 -446.5t323.5 -323.5t446.5 -119zM1047 1280q-29 0 -46.5 18.5t-17.5 47.5t17.5 47t46.5 18q31 0 50 -18t19 -47t-19 -47.5t-50 -18.5zM915 66q-48 0 -90 18l19 66q35 -15 67 -15
q56 0 76.5 36.5t20.5 109.5v833h69v-825q0 -117 -38 -170t-124 -53z" />
    <glyph glyph-name="Ebreve" unicode="&#x114;" horiz-adv-x="2048" 
d="M1024 -164q-192 0 -366 74.5t-300.5 201t-201 300.5t-74.5 366t74.5 366t201 300.5t300.5 201t366 74.5t366 -74.5t300.5 -201t201 -300.5t74.5 -366q0 -193 -75 -367.5t-202 -300.5t-301 -200t-364 -74zM1024 -111q242 0 446.5 119t323.5 323.5t119 446.5t-119 446.5
t-323.5 323.5t-446.5 119q-182 0 -347.5 -71t-283.5 -191t-188 -284t-70 -343q0 -242 119 -446.5t323.5 -323.5t446.5 -119zM803 322v1058h69v-762h9l346 414h92l-240 -284l275 -426h-82l-244 370l-156 -186v-184h-69z" />
    <glyph glyph-name="ebreve" unicode="&#x115;" horiz-adv-x="2048" 
d="M1024 -164q-192 0 -366 74.5t-300.5 201t-201 300.5t-74.5 366t74.5 366t201 300.5t300.5 201t366 74.5t366 -74.5t300.5 -201t201 -300.5t74.5 -366q0 -193 -75 -367.5t-202 -300.5t-301 -200t-364 -74zM1024 -111q242 0 446.5 119t323.5 323.5t119 446.5t-119 446.5
t-323.5 323.5t-446.5 119q-182 0 -347.5 -71t-283.5 -191t-188 -284t-70 -343q0 -242 119 -446.5t323.5 -323.5t446.5 -119zM1075 303q-53 0 -75.5 31.5t-22.5 99.5v946h70v-960q0 -49 38 -49q20 0 29 4l16 -64q-2 0 -21 -4t-34 -4z" />
    <glyph glyph-name="Edotaccent" unicode="&#x116;" horiz-adv-x="2048" 
d="M1024 -164q-192 0 -366 74.5t-300.5 201t-201 300.5t-74.5 366t74.5 366t201 300.5t300.5 201t366 74.5t366 -74.5t300.5 -201t201 -300.5t74.5 -366q0 -193 -75 -367.5t-202 -300.5t-301 -200t-364 -74zM1024 -111q242 0 446.5 119t323.5 323.5t119 446.5t-119 446.5
t-323.5 323.5t-446.5 119q-182 0 -347.5 -71t-283.5 -191t-188 -284t-70 -343q0 -242 119 -446.5t323.5 -323.5t446.5 -119zM547 403v711h57l10 -106h7q107 122 229 122q154 0 199 -143q135 143 247 143q217 0 217 -270v-457h-73v445q0 106 -35.5 162.5t-126.5 56.5
q-90 0 -211 -133v-531h-74v445q0 106 -36.5 162.5t-125.5 56.5q-48 0 -96.5 -31t-116.5 -102v-531h-71z" />
    <glyph glyph-name="edotaccent" unicode="&#x117;" horiz-adv-x="2048" 
d="M1024 -164q-192 0 -366 74.5t-300.5 201t-201 300.5t-74.5 366t74.5 366t201 300.5t300.5 201t366 74.5t366 -74.5t300.5 -201t201 -300.5t74.5 -366q0 -193 -75 -367.5t-202 -300.5t-301 -200t-364 -74zM1024 -111q242 0 446.5 119t323.5 323.5t119 446.5t-119 446.5
t-323.5 323.5t-446.5 119q-182 0 -347.5 -71t-283.5 -191t-188 -284t-70 -343q0 -242 119 -446.5t323.5 -323.5t446.5 -119zM758 403v711h57l10 -106h6q115 122 248 122q224 0 224 -270v-457h-70v445q0 106 -37 162.5t-131 56.5q-103 0 -236 -133v-531h-71z" />
    <glyph glyph-name="Eogonek" unicode="&#x118;" horiz-adv-x="2048" 
d="M1024 -164q-192 0 -366 74.5t-300.5 201t-201 300.5t-74.5 366t74.5 366t201 300.5t300.5 201t366 74.5t366 -74.5t300.5 -201t201 -300.5t74.5 -366q0 -193 -75 -367.5t-202 -300.5t-301 -200t-364 -74zM1024 -111q242 0 446.5 119t323.5 323.5t119 446.5t-119 446.5
t-323.5 323.5t-446.5 119q-182 0 -347.5 -71t-283.5 -191t-188 -284t-70 -343q0 -242 119 -446.5t323.5 -323.5t446.5 -119zM1022 385q-138 0 -231 101.5t-93 273.5q0 171 92.5 270.5t231.5 99.5q140 0 234 -99.5t94 -270.5q0 -172 -94 -273.5t-234 -101.5zM1022 453
q110 0 179 86t69 221q0 140 -68.5 223.5t-179.5 83.5t-178.5 -83.5t-67.5 -223.5q0 -136 68 -221.5t178 -85.5z" />
    <glyph glyph-name="eogonek" unicode="&#x119;" horiz-adv-x="2048" 
d="M1024 -164q-192 0 -366 74.5t-300.5 201t-201 300.5t-74.5 366t74.5 366t201 300.5t300.5 201t366 74.5t366 -74.5t300.5 -201t201 -300.5t74.5 -366q0 -193 -75 -367.5t-202 -300.5t-301 -200t-364 -74zM1024 -111q242 0 446.5 119t323.5 323.5t119 446.5t-119 446.5
t-323.5 323.5t-446.5 119q-182 0 -347.5 -71t-283.5 -191t-188 -284t-70 -343q0 -242 119 -446.5t323.5 -323.5t446.5 -119zM764 215v1022h55l15 -90h8q57 50 111.5 78t119.5 28q145 0 218 -94t73 -264q0 -179 -89.5 -283t-223.5 -104q-52 0 -113.5 23.5t-106.5 64.5l3 -133
v-248h-70zM1051 575q106 0 171.5 86t65.5 232q0 295 -221 295q-107 0 -233 -117v-407q52 -44 110.5 -66.5t106.5 -22.5z" />
    <glyph glyph-name="Ecaron" unicode="&#x11a;" horiz-adv-x="2048" 
d="M1024 -164q-192 0 -366 74.5t-300.5 201t-201 300.5t-74.5 366t74.5 366t201 300.5t300.5 201t366 74.5t366 -74.5t300.5 -201t201 -300.5t74.5 -366q0 -193 -75 -367.5t-202 -300.5t-301 -200t-364 -74zM1024 -111q242 0 446.5 119t323.5 323.5t119 446.5t-119 446.5
t-323.5 323.5t-446.5 119q-182 0 -347.5 -71t-283.5 -191t-188 -284t-70 -343q0 -242 119 -446.5t323.5 -323.5t446.5 -119zM1231 215v252l4 139q-108 -98 -225 -98q-148 0 -228 97.5t-80 277.5q0 168 92.5 269t225.5 101q119 0 209 -84h8l10 68h56v-1022h-72zM1016 575
q104 0 215 99v422q-100 92 -213 92q-99 0 -169.5 -86.5t-70.5 -218.5q0 -141 59.5 -224.5t178.5 -83.5z" />
    <glyph glyph-name="ecaron" unicode="&#x11b;" horiz-adv-x="2048" 
d="M1024 -164q-192 0 -366 74.5t-300.5 201t-201 300.5t-74.5 366t74.5 366t201 300.5t300.5 201t366 74.5t366 -74.5t300.5 -201t201 -300.5t74.5 -366q0 -193 -75 -367.5t-202 -300.5t-301 -200t-364 -74zM1024 -111q242 0 446.5 119t323.5 323.5t119 446.5t-119 446.5
t-323.5 323.5t-446.5 119q-182 0 -347.5 -71t-283.5 -191t-188 -284t-70 -343q0 -242 119 -446.5t323.5 -323.5t446.5 -119zM877 403v711h55l12 -125h10q82 141 203 141q49 0 76 -12l-19 -71q-38 10 -63 10q-125 0 -201 -174v-480h-73z" />
    <glyph glyph-name="Gcircumflex" unicode="&#x11c;" horiz-adv-x="2048" 
d="M1024 -164q-192 0 -366 74.5t-300.5 201t-201 300.5t-74.5 366t74.5 366t201 300.5t300.5 201t366 74.5t366 -74.5t300.5 -201t201 -300.5t74.5 -366q0 -193 -75 -367.5t-202 -300.5t-301 -200t-364 -74zM1024 -111q242 0 446.5 119t323.5 323.5t119 446.5t-119 446.5
t-323.5 323.5t-446.5 119q-182 0 -347.5 -71t-283.5 -191t-188 -284t-70 -343q0 -242 119 -446.5t323.5 -323.5t446.5 -119zM1040 385q-146 0 -274 98l45 56q55 -43 108 -66.5t119 -23.5q76 0 120 39t44 98q0 28 -13 50.5t-37 38.5t-48.5 27.5t-57.5 24.5q-11 4 -16 6
q-40 14 -66.5 25t-60 30.5t-53 40t-33.5 51t-14 66.5q0 74 59.5 129t161.5 55q126 0 219 -73l-43 -53q-45 33 -82.5 48t-91.5 15q-70 0 -108.5 -36t-38.5 -83q0 -51 42.5 -82t125.5 -61q9 -4 32.5 -13t33.5 -13t31 -13t31 -15t27 -17t25.5 -20t19.5 -22.5t16 -27.5t9 -32
t4 -38q0 -92 -66 -150.5t-170 -58.5z" />
    <glyph glyph-name="gcircumflex" unicode="&#x11d;" horiz-adv-x="2048" 
d="M1024 -164q-192 0 -366 74.5t-300.5 201t-201 300.5t-74.5 366t74.5 366t201 300.5t300.5 201t366 74.5t366 -74.5t300.5 -201t201 -300.5t74.5 -366q0 -193 -75 -367.5t-202 -300.5t-301 -200t-364 -74zM1024 -111q242 0 446.5 119t323.5 323.5t119 446.5t-119 446.5
t-323.5 323.5t-446.5 119q-182 0 -347.5 -71t-283.5 -191t-188 -284t-70 -343q0 -242 119 -446.5t323.5 -323.5t446.5 -119zM1102 385q-98 0 -139 58t-41 165v441h-115v59l113 6l10 209h61v-209h213v-65h-213v-445q0 -153 125 -153q30 0 92 20l19 -59q-67 -27 -125 -27z" />
    <glyph glyph-name="Gbreve" unicode="&#x11e;" horiz-adv-x="2048" 
d="M1024 -164q-192 0 -366 74.5t-300.5 201t-201 300.5t-74.5 366t74.5 366t201 300.5t300.5 201t366 74.5t366 -74.5t300.5 -201t201 -300.5t74.5 -366q0 -193 -75 -367.5t-202 -300.5t-301 -200t-364 -74zM1024 -111q242 0 446.5 119t323.5 323.5t119 446.5t-119 446.5
t-323.5 323.5t-446.5 119q-182 0 -347.5 -71t-283.5 -191t-188 -284t-70 -343q0 -242 119 -446.5t323.5 -323.5t446.5 -119zM977 385q-122 0 -173.5 71.5t-51.5 200.5v457h73v-442q0 -110 35 -163.5t131 -53.5q109 0 236 127v532h71v-711h-59l-10 107h-6
q-115 -125 -246 -125z" />
    <glyph glyph-name="gbreve" unicode="&#x11f;" horiz-adv-x="2048" 
d="M1024 -164q-192 0 -366 74.5t-300.5 201t-201 300.5t-74.5 366t74.5 366t201 300.5t300.5 201t366 74.5t366 -74.5t300.5 -201t201 -300.5t74.5 -366q0 -193 -75 -367.5t-202 -300.5t-301 -200t-364 -74zM1024 -111q242 0 446.5 119t323.5 323.5t119 446.5t-119 446.5
t-323.5 323.5t-446.5 119q-182 0 -347.5 -71t-283.5 -191t-188 -284t-70 -343q0 -242 119 -446.5t323.5 -323.5t446.5 -119zM979 403l-268 711h75l158 -434l74 -209h10l80 209l156 434h77l-272 -711h-90z" />
    <glyph glyph-name="Gdotaccent" unicode="&#x120;" horiz-adv-x="2048" 
d="M1024 -164q-192 0 -366 74.5t-300.5 201t-201 300.5t-74.5 366t74.5 366t201 300.5t300.5 201t366 74.5t366 -74.5t300.5 -201t201 -300.5t74.5 -366q0 -193 -75 -367.5t-202 -300.5t-301 -200t-364 -74zM1024 -111q242 0 446.5 119t323.5 323.5t119 446.5t-119 446.5
t-323.5 323.5t-446.5 119q-182 0 -347.5 -71t-283.5 -191t-188 -284t-70 -343q0 -242 119 -446.5t323.5 -323.5t446.5 -119zM754 403l-209 711h80l172 -645h12l174 645h84l125 -450l57 -195h6l56 195l119 450h75l-207 -711h-96l-119 426l-55 207h-6l-53 -207l-119 -426h-96z
" />
    <glyph glyph-name="gdotaccent" unicode="&#x121;" horiz-adv-x="2048" 
d="M1024 -164q-192 0 -366 74.5t-300.5 201t-201 300.5t-74.5 366t74.5 366t201 300.5t300.5 201t366 74.5t366 -74.5t300.5 -201t201 -300.5t74.5 -366q0 -193 -75 -367.5t-202 -300.5t-301 -200t-364 -74zM1024 -111q242 0 446.5 119t323.5 323.5t119 446.5t-119 446.5
t-323.5 323.5t-446.5 119q-182 0 -347.5 -71t-283.5 -191t-188 -284t-70 -343q0 -242 119 -446.5t323.5 -323.5t446.5 -119zM731 403l248 373l-227 338h84l192 -289h8l181 289h77l-221 -342l242 -369h-86l-203 312h-8l-90 -127l-117 -185h-80z" />
    <glyph glyph-name="Gcommaaccent" unicode="&#x122;" horiz-adv-x="2048" 
d="M1024 -164q-192 0 -366 74.5t-300.5 201t-201 300.5t-74.5 366t74.5 366t201 300.5t300.5 201t366 74.5t366 -74.5t300.5 -201t201 -300.5t74.5 -366q0 -193 -75 -367.5t-202 -300.5t-301 -200t-364 -74zM1024 -111q242 0 446.5 119t323.5 323.5t119 446.5t-119 446.5
t-323.5 323.5t-446.5 119q-182 0 -347.5 -71t-283.5 -191t-188 -284t-70 -343q0 -242 119 -446.5t323.5 -323.5t446.5 -119zM836 211q-55 0 -80 14l20 68q36 -12 55 -12q125 0 183 182l16 55l-293 719h74l170 -432q9 -26 37.5 -96.5t42.5 -110.5h8q9 25 23.5 66t26.5 75
t22 66l143 432h76l-277 -782q-84 -244 -247 -244z" />
    <glyph glyph-name="gcommaaccent" unicode="&#x123;" horiz-adv-x="2048" 
d="M1024 -164q-192 0 -366 74.5t-300.5 201t-201 300.5t-74.5 366t74.5 366t201 300.5t300.5 201t366 74.5t366 -74.5t300.5 -201t201 -300.5t74.5 -366q0 -193 -75 -367.5t-202 -300.5t-301 -200t-364 -74zM1024 -111q242 0 446.5 119t323.5 323.5t119 446.5t-119 446.5
t-323.5 323.5t-446.5 119q-182 0 -347.5 -71t-283.5 -191t-188 -284t-70 -343q0 -242 119 -446.5t323.5 -323.5t446.5 -119zM760 403v41l422 605h-375v65h473v-47l-424 -600h434v-64h-530z" />
    <glyph glyph-name="Hcircumflex" unicode="&#x124;" horiz-adv-x="2048" 
d="M2048 1290l-512 512h102l410 -409v-103zM2048 778l-1024 1024h102l922 -921v-103zM2048 266l-1536 1536h102l1434 -1433v-103zM2048 -246l-2048 2048h102l1946 -1945v-103zM1536 -246l-1536 1536v103l1638 -1639h-102zM1024 -246l-1024 1024v103l1126 -1127h-102z
M512 -246l-512 512v103l614 -615h-102zM0 -246v103l102 -103h-102z" />
    <glyph glyph-name="hcircumflex" unicode="&#x125;" horiz-adv-x="2048" 
d="M205 1597h1638v-1638h-1638v1638z" />
    <glyph glyph-name="Hbar" unicode="&#x126;" horiz-adv-x="2048" 
d="M205 1597h1638v-1638h-1638v1638zM266 1536v-1516h1516v1516h-1516z" />
    <glyph glyph-name="hbar" unicode="&#x127;" horiz-adv-x="2048" 
d="M205 1597h1638v-1638h-1638v1638zM266 1536v-1516h1516v1516h-1516zM717 471v614h614v-614h-614z" />
    <glyph glyph-name="Itilde" unicode="&#x128;" horiz-adv-x="2048" 
d="M205 1597h1638v-1638h-1638v1638zM1782 1536h-1516v-332h1516v332zM266 809h1516v334h-1516v-334zM1782 748h-1516v-334h1516v334zM266 20h1516v332h-1516v-332z" />
    <glyph glyph-name="itilde" unicode="&#x129;" horiz-adv-x="2048" 
d="M205 1597h1638v-1638h-1638v1638zM1782 20v1516h-332v-1516h332zM266 1536v-1516h332v1516h-332zM993 20v1516h-334v-1516h334zM1055 1536v-1516h334v1516h-334z" />
    <glyph glyph-name="Imacron" unicode="&#x12a;" horiz-adv-x="2048" 
d="M205 1597h1638v-1638h-1638v1638zM598 1536h-332v-332h332v332zM993 1204v332h-334v-332h334zM1055 1204h334v332h-334v-332zM1782 1204v332h-332v-332h332zM1450 809h332v334h-332v-334zM598 809v334h-332v-334h332zM993 1143h-334v-334h334v334zM1389 1143h-334v-334
h334v334zM1450 748v-334h332v334h-332zM1055 414h334v334h-334v-334zM659 748v-334h334v334h-334zM598 748h-332v-334h332v334zM1450 20h332v332h-332v-332zM266 352v-332h332v332h-332zM1055 352v-332h334v332h-334zM993 352h-334v-332h334v332z" />
    <glyph glyph-name="imacron" unicode="&#x12b;" horiz-adv-x="2048" 
d="M205 1597h1638v-1638h-1638v1638zM1782 1229v307h-307zM1782 758l-778 778h-304l1082 -1081v303zM1782 844v299l-393 393h-299zM309 1536l1473 -1473v306l-1168 1167h-305zM266 1188l1168 -1168h305l-1473 1473v-305zM266 799l778 -779h304l-1082 1082v-303zM266 713
v-299l393 -394h299zM266 328v-308h307z" />
    <glyph glyph-name="Ibreve" unicode="&#x12c;" horiz-adv-x="2048" 
d="M205 1597h1638v-1638h-1638v1638zM573 1536h-307v-307zM1436 1536l-1170 -1167v-308l1475 1475h-305zM266 844l692 692h-299l-393 -393v-299zM1047 1536l-781 -778v-303l1084 1081h-303zM618 20l1164 1166v305l-1469 -1471h305zM1008 20l774 777v303l-1077 -1080h303z
M1782 711l-688 -691h299l389 392v299zM1479 20h303v306z" />
    <glyph glyph-name="ibreve" unicode="&#x12d;" horiz-adv-x="2048" 
d="M205 1597h1638v-1638h-1638v1638zM1475 1536l133 -133l133 133h-266zM1219 1407l131 129h-260zM829 1407l129 129h-258zM442 1405l131 131h-264zM1024 1212l152 152l-152 152l-152 -152zM635 1212l151 152l-149 149l-152 -151zM1415 1210l150 150l-154 153l-149 -149z
M399 1362l-133 131v-264zM1651 1360l131 -131v262zM981 1169l-152 152l-151 -154l151 -151zM1221 1016l151 151l-153 154l-152 -152zM592 1169l-150 150l-153 -154l149 -149zM1612 1014l149 149l-153 154l-150 -150zM872 973l154 -152l152 152l-154 153zM481 973l152 -152
l153 152l-151 151zM1417 819l152 152l-154 153l-151 -151zM395 973l-129 129v-258zM1655 971l127 -127v256zM590 778l-152 152l-151 -152l151 -151zM676 778l153 -153l154 153l-154 152zM1069 776l152 -151l153 151l-153 154zM1460 776l152 -151l151 151l-151 152zM633 735
l-152 -151l154 -154l151 152zM1026 733l-154 -151l154 -154l152 154zM1417 733l-153 -151l151 -152l154 152zM395 584l-129 129v-258zM1655 582l127 -127v256zM438 541l-149 -150l153 -153l150 149zM678 387l153 -154l152 152l-154 154zM1069 385l152 -152l151 154l-151 152
zM1458 387l150 -149l153 151l-149 150zM635 344l-150 -149l154 -154l149 149zM1415 344l-151 -154l149 -149l152 154zM1026 342l-152 -152l152 -151l152 151zM399 195l-133 133v-267zM1651 195l131 -132v263zM1608 152l-129 -132h260zM442 152l-129 -132h260zM1221 147
l-127 -127h254zM831 147l-126 -127h253z" />
    <glyph glyph-name="Iogonek" unicode="&#x12e;" horiz-adv-x="2048" 
d="M1024 1692l963 -1667h-1926z" />
    <glyph glyph-name="iogonek" unicode="&#x12f;" horiz-adv-x="2048" 
d="M1024 1692l963 -1667h-1926zM1024 1569l-856 -1483h1712z" />
    <glyph glyph-name="Idotaccent" unicode="&#x130;" horiz-adv-x="2048" 
d="M1917 772l-1667 -962v1925z" />
    <glyph glyph-name="dotlessi" unicode="&#x131;" horiz-adv-x="2048" 
d="M1917 772l-1667 -962v1925zM1794 772l-1483 856v-1712z" />
    <glyph glyph-name="IJ" unicode="&#x132;" horiz-adv-x="2048" 
d="M61 1532h1926l-963 -1667z" />
    <glyph glyph-name="ij" unicode="&#x133;" horiz-adv-x="2048" 
d="M61 1532h1926l-963 -1667zM1880 1470h-1712l856 -1482z" />
    <glyph glyph-name="Jcircumflex" unicode="&#x134;" horiz-adv-x="2048" 
d="M1798 1735v-1925l-1667 962z" />
    <glyph glyph-name="jcircumflex" unicode="&#x135;" horiz-adv-x="2048" 
d="M1798 1735v-1925l-1667 962zM1737 -84v1712l-1483 -856z" />
    <glyph glyph-name="Kcommaaccent" unicode="&#x136;" horiz-adv-x="2048" 
d="M1024 1778l999 -1000l-999 -999l-999 999z" />
    <glyph glyph-name="kcommaaccent" unicode="&#x137;" horiz-adv-x="2048" 
d="M1024 1778l999 -1000l-999 -999l-999 999zM1024 1690l-911 -912l911 -911l911 911z" />
    <glyph glyph-name="kgreenlandic" unicode="&#x138;" horiz-adv-x="2048" 
d="M1024 1778l999 -1000l-999 -999l-999 999zM1024 1690l-911 -912l911 -911l911 911zM315 778l709 709l709 -709l-709 -708z" />
    <glyph glyph-name="Lacute" unicode="&#x139;" horiz-adv-x="2048" 
d="M1024 -143q-187 0 -357.5 73t-294.5 196.5t-197 294t-73 357.5q0 150 46.5 290.5t132 254t199 199t254 132t290.5 46.5t290.5 -46.5t254 -132t199 -199t132 -254t46.5 -290.5q0 -187 -73 -357.5t-197 -294t-294.5 -196.5t-357.5 -73zM164 778q0 -140 43.5 -271.5
t123 -237t185 -185t237 -123t271.5 -43.5t271.5 43.5t237 123t185 185t123 237t43.5 271.5t-43.5 271.5t-123 237t-185 185t-237 123t-271.5 43.5t-271.5 -43.5t-237 -123t-185 -185t-123 -237t-43.5 -271.5z" />
    <glyph glyph-name="lacute" unicode="&#x13a;" horiz-adv-x="2048" 
d="M102 778q0 150 46.5 290.5t132 254t199 199t254 132t290.5 46.5t290.5 -46.5t254 -132t199 -199t132 -254t46.5 -290.5q0 -187 -73 -357.5t-197 -294t-294.5 -196.5t-357.5 -73t-357.5 73t-294.5 196.5t-197 294t-73 357.5zM1884 778q0 140 -43.5 271.5t-123 237
t-185 185t-237 123t-271.5 43.5t-271.5 -43.5t-237 -123t-185 -185t-123 -237t-43.5 -271.5t43.5 -271.5t123 -237t185 -185t237 -123t271.5 -43.5t271.5 43.5t237 123t185 185t123 237t43.5 271.5zM414 778q0 165 82 306t222.5 223t305.5 82t305.5 -82t222.5 -223t82 -306
t-82 -305.5t-222.5 -222.5t-305.5 -82t-305.5 82t-222.5 222.5t-82 305.5zM1583 778q0 114 -44 217.5t-119 178.5t-178.5 119t-217.5 44t-217.5 -44t-178.5 -119t-119 -178.5t-44 -217.5t44 -217.5t119 -178.5t178.5 -119t217.5 -44t217.5 44t178.5 119t119 178.5t44 217.5z
" />
    <glyph glyph-name="Lcommaaccent" unicode="&#x13b;" horiz-adv-x="2048" 
d="M1024 -143q-187 0 -357.5 73t-294.5 196.5t-197 294t-73 357.5q0 150 46.5 290.5t132 254t199 199t254 132t290.5 46.5t290.5 -46.5t254 -132t199 -199t132 -254t46.5 -290.5q0 -187 -73 -357.5t-197 -294t-294.5 -196.5t-357.5 -73z" />
    <glyph glyph-name="lcommaaccent" unicode="&#x13c;" horiz-adv-x="2048" 
d="M1925 778q0 -183 -71.5 -350t-192 -287.5t-287.5 -192t-350 -71.5t-350 71.5t-287.5 192t-192 287.5t-71.5 350t71.5 350t192 287.5t287.5 192t350 71.5t350 -71.5t287.5 -192t192 -287.5t71.5 -350zM1024 1626v-1696q173 0 330 67t270.5 180.5t180.5 270.5t67 330
t-67 330t-180.5 270.5t-270.5 180.5t-330 67z" />
    <glyph glyph-name="Lcaron" unicode="&#x13d;" horiz-adv-x="2048" 
d="M1925 778q0 -183 -71.5 -350t-192 -287.5t-287.5 -192t-350 -71.5t-350 71.5t-287.5 192t-192 287.5t-71.5 350t71.5 350t192 287.5t287.5 192t350 71.5t350 -71.5t287.5 -192t192 -287.5t71.5 -350zM1024 -70v1696q-173 0 -330 -67t-270.5 -180.5t-180.5 -270.5
t-67 -330t67 -330t180.5 -270.5t270.5 -180.5t330 -67z" />
    <glyph glyph-name="lcaron" unicode="&#x13e;" horiz-adv-x="2048" 
d="M1251 991h719v-4l-581 -422l227 -692h-4l-588 426l-588 -426h-4l227 692l-581 422v4h719l225 690h4z" />
    <glyph glyph-name="Ldot" unicode="&#x13f;" horiz-adv-x="2048" 
d="M797 991l219 690h16l219 -690h719v-16l-581 -410l231 -686l-12 -10l-584 430l-584 -430l-12 10l231 686l-581 410v16h719zM842 930h-447l-166 8v-4l152 -98l352 -246l-129 -383l-72 -195l5 -2l168 129l319 236l319 -236l168 -129l5 2l-72 195l-129 383l352 246l152 98v4
l-168 -8h-445l-133 418l-47 168h-4l-47 -168z" />
    <glyph glyph-name="ldot" unicode="&#x140;" horiz-adv-x="2048" 
d="M674 1167h-219l84 -217q28 -65 -27 -76l-373 -63q-29 -3 -43 11t-14 46q0 43 4 86.5t14.5 99t34.5 103t58 74.5q138 104 328.5 154.5t502.5 50.5t502.5 -50.5t328.5 -154.5q34 -27 58 -74.5t34.5 -103t14.5 -99t4 -86.5q0 -32 -14 -46t-43 -11l-373 63q-55 11 -27 76
l84 217h-219v-131q0 -99 58 -188t186 -209q188 -185 188 -487q0 -51 -21 -74t-73 -23h-1376q-52 0 -73 23t-21 74q0 302 188 487q128 120 186 209t58 188v131zM1198 1167h-348v-196h348v196zM680 512q0 -142 101 -243t243 -101t243 101t101 243t-101 243t-243 101t-243 -101
t-101 -243z" />
    <glyph glyph-name="Lslash" unicode="&#x141;" horiz-adv-x="2048" 
d="M645 1139h-149l69 -178v2q9 -23 9.5 -45t-13.5 -43.5t-45 -28.5l-373 -64q-38 -5 -64 20t-26 66q0 59 7.5 123t36.5 144t77 118q138 107 335.5 159t514.5 52t514.5 -52t335.5 -159q37 -28 63 -79.5t37.5 -111.5t16 -106t4.5 -88q0 -41 -26 -66t-64 -20l-375 64
q-29 7 -43 28.5t-13.5 44t9.5 44.5v-2l69 178h-149v-103q0 -94 54 -175t181 -202q197 -197 197 -507q0 -59 -31 -92t-92 -33h-1376q-61 0 -92 33t-31 92q0 310 197 507q127 121 181 202t54 175v103zM512 940l-98 256h288v-160q0 -108 -61.5 -202.5t-189.5 -215.5
q-99 -93 -140 -207t-41 -259q0 -39 14 -53.5t52 -14.5h1376q38 0 52 14.5t14 53.5q0 145 -41 259t-140 207q-129 123 -190 217t-61 201v160h288l-98 -256v-2q-16 -32 4 -35l373 -63q14 -2 19 4t5 24q0 41 -3.5 82.5t-13 94t-31 96.5t-52.5 67q-133 102 -318.5 150.5
t-494.5 48.5t-494.5 -48.5t-318.5 -150.5q-31 -23 -52.5 -67t-31 -96.5t-13 -94t-3.5 -82.5q0 -18 5 -24t19 -4l371 63q20 3 6 35v2zM821 942v254h406v-254h-406zM1169 1139h-290v-140h290v140zM1397 512q0 -152 -110.5 -262.5t-262.5 -110.5t-262.5 110.5t-110.5 262.5
t110.5 262.5t262.5 110.5t262.5 -110.5t110.5 -262.5zM709 512q0 -130 92.5 -222.5t222.5 -92.5t222.5 92.5t92.5 222.5t-92.5 222.5t-222.5 92.5t-222.5 -92.5t-92.5 -222.5z" />
    <glyph glyph-name="lslash" unicode="&#x142;" horiz-adv-x="2048" 
d="M1946 375l-162 18q-22 3 -43 -6q-334 -154 -629 -154q-47 0 -107 7.5t-85 15.5h-7h-10l-18 -2q-94 0 -154.5 44.5t-66.5 135.5q0 6 -5 6q-1 1 -3 2t-3 2l-10 2q-1 1 -3 2.5t-3 2.5q-78 47 -84 161q0 12 -8 15q-51 25 -68 63q-23 42 -16.5 88.5t37.5 77.5l2 2l4 2l2 2
q4 4 1.5 7t-7.5 3q-34 0 -96.5 -1.5t-105.5 -1.5t-67 3q-174 13 -174 129q0 35 15.5 61t44.5 41.5t54 24t60 15.5q118 19 425 45t438 26q245 0 682 -182q2 -2 18 -2l152 19q30 3 30 -29v-617q0 6 -2 -1q-1 -4 -2 -13q-8 -14 -26 -14zM1901 987l-111 -14q-22 0 -27 4
q-182 78 -350.5 127t-257.5 49q-78 0 -125.5 -13t-101.5 -48q-118 -82 -170 -140q-51 -54 -37 -78q13 -29 54 -34.5t95 12.5q58 17 246 78q10 4 23 9t14 5q7 5 18 2t15 -10q41 -55 164 -121q135 -72 266 -72q12 0 23.5 -6t11.5 -16q0 -21 -35 -33q-54 -16 -114.5 -18
t-135.5 6q-59 6 -89 -29t-30 -88q0 -55 -12 -95t-39.5 -70t-59.5 -50.5t-85 -46.5q-4 0 -3 -3t3 -3q116 -10 231 10q218 36 459 148q5 4 26 4l129 -17q25 0 25 21v514q0 16 -20 16zM551 930q65 0 84 8q53 12 76 41q24 25 80 71t67 56v2l2 2q3 16 0 33q0 6 -6 6
q-494 -35 -612 -62q-45 -9 -74 -21t-39.5 -25.5t-13 -21t-2.5 -18.5q0 -30 25.5 -49t97.5 -24q47 -3 86 -2.5t115.5 2.5t113.5 2zM616 664q90 -16 134 -5q81 10 165 35t125 66q28 28 19 63q-6 21 -31 15q-72 -19 -141 -39q-83 -17 -127 -8q-36 6 -56.5 22.5t-37.5 52.5
q-4 10 -15 13t-18 -2q-56 -20 -96 -60q-41 -36 -11 -102q16 -38 90 -51zM803 475q45 0 123.5 24.5t147.5 70t69 92.5q0 29 -19 51q-20 16 -43 2q-16 -7 -57 -29t-63 -31q-122 -53 -273 -53q-50 0 -67 4q-11 0 -11 -10q7 -41 23.5 -66.5t44.5 -36.5t54.5 -14.5t70.5 -3.5z
M874 309q68 0 148 33.5t129 87.5q37 37 20 78q-17 47 -69 14q-63 -43 -151.5 -72.5t-147.5 -29.5q-28 0 -74 4q-8 0 -8 -6q26 -109 153 -109z" />
    <glyph glyph-name="Nacute" unicode="&#x143;" horiz-adv-x="2048" 
d="M950 1214q131 0 437 -26t425 -45q28 -6 48 -11.5t46 -17t42 -25.5t27.5 -37t11.5 -51q0 -51 -40 -86.5t-135 -42.5q-24 -3 -67 -3t-105 1.5t-96 1.5q-5 0 -7.5 -3t1.5 -7q2 0 2 -2l4 -2l2 -2q31 -31 37.5 -77.5t-16.5 -88.5q-17 -38 -68 -63q-8 -3 -8 -15
q-6 -114 -84 -161q-1 -1 -3 -2.5t-3 -2.5l-10 -2q-1 -1 -3.5 -2t-3.5 -2q-4 0 -4 -6q-6 -90 -67 -135t-154 -45l-18 2h-11h-6q-25 -8 -85 -15.5t-107 -7.5q-295 0 -629 154q-21 9 -43 6l-162 -18q-18 0 -26 14l-4 16v-2v617q0 32 30 29l152 -19q16 0 18 2q437 182 682 182z
M303 449q241 -112 459 -148q115 -20 231 -10q2 0 3 3t-3 3q-53 26 -85 46.5t-59.5 50.5t-39.5 70t-12 95q0 53 -30 88t-89 29q-75 -8 -135.5 -6t-114.5 18q-35 12 -35 33q0 10 11.5 16t23.5 6q131 0 266 72q123 66 164 121q2 6 14 10q1 2 9 0t9.5 -2t14 -5t23.5 -9
q188 -61 246 -78q54 -18 95 -12.5t54 34.5q14 24 -37 78q-52 58 -170 140q-54 35 -101.5 48t-125.5 13q-89 0 -257.5 -49t-350.5 -127q-5 -4 -27 -4l-111 14q-20 0 -20 -16v-514q0 -21 24 -21l129 17q22 0 27 -4zM1493 930q37 0 113.5 -2t115.5 -2.5t86 2.5q72 5 97.5 24
t25.5 49q0 11 -2.5 18.5t-13 21t-39.5 25.5t-74 21q-118 27 -612 62q-6 0 -6 -6q-3 -17 0 -33l2 -2v-2q11 -10 67 -56t80 -71q23 -29 76 -41q19 -8 84 -8zM1427 664q75 14 91 51q30 66 -11 102q-38 41 -96 60q-7 5 -18 2t-15 -13q-17 -36 -37.5 -52.5t-56.5 -22.5
q-44 -9 -127 8q-69 20 -141 39q-25 6 -31 -15q-9 -35 19 -63q41 -41 125 -66t165 -35q43 -11 133 5zM1241 475q44 0 70.5 3.5t54.5 14.5t44.5 36.5t23.5 66.5q0 10 -11 10q-17 -4 -67 -4q-151 0 -273 53q-22 9 -63 31t-57 29q-23 14 -43 -2q-19 -22 -19 -51q0 -47 69 -92.5
t147.5 -70t123.5 -24.5zM1169 309q128 0 154 109q0 6 -8 6q-46 -4 -74 -4q-59 0 -147.5 29.5t-151.5 72.5q-53 34 -70 -14q-17 -40 21 -78q51 -54 133 -88q65 -33 143 -33z" />
    <glyph glyph-name="nacute" unicode="&#x144;" horiz-adv-x="2048" 
d="M614 1270q0 172 119 290.5t291 118.5t291 -118.5t119 -290.5q0 -158 -106.5 -275.5t-266.5 -134.5v-272h610v-74h-610v-637h-74v637h-610v74h610v272q-160 17 -266.5 134.5t-106.5 275.5zM1360 1270q0 140 -98 238t-238 98t-238 -98t-98 -238t98 -238t238 -98t238 98
t98 238z" />
    <glyph glyph-name="Ncommaaccent" unicode="&#x145;" horiz-adv-x="2048" 
d="M1067 412q0 -167 -121.5 -288.5t-288.5 -121.5t-288 121.5t-121 288.5t121 288t288 121q150 0 263 -94l690 688h-613v74h738v-737h-74v612l-690 -690q96 -104 96 -262zM322 412q0 -140 98 -238t237 -98t237.5 98t98.5 238t-98.5 238t-237.5 98t-237 -98t-98 -238z" />
    <glyph glyph-name="ncommaaccent" unicode="&#x146;" horiz-adv-x="2048" 
d="M1489 1227q128 -122 170 -168q207 -227 218 -450q1 -14 1 -27q0 -120 -50.5 -221.5t-145 -163.5t-214.5 -62q-116 0 -207.5 55t-130.5 144q-3 6 -6 14t-5 11.5t-4.5 8.5t-4.5 6.5t-5 3t-7 1.5q-13 0 -13 -37q11 -152 60.5 -247.5t142.5 -174.5q10 -10 11.5 -20.5
t-2.5 -15.5t-9 -5h-528q-5 0 -9.5 5t-3 15.5t12.5 20.5q93 79 142.5 174.5t60.5 247.5q0 37 -13 37q-4 0 -7 -1.5t-5 -3t-4.5 -6.5t-4.5 -8.5t-5 -11.5t-6 -14q-39 -89 -130.5 -144t-207.5 -55q-119 0 -213.5 62t-145.5 163.5t-51 221.5q0 98 31 188.5t98 177t108 130
t124 122.5l9.5 9.5t9 8.5t9.5 9q136 132 269.5 281.5t191.5 236.5q1 7 2.5 9.5t3 0t2.5 -9.5q51 -82 182 -227.5t279 -290.5z" />
    <glyph glyph-name="Ncaron" unicode="&#x147;" horiz-adv-x="2048" 
d="M1030 1315q58 160 174 237.5t256 77.5q178 0 303 -142.5t125 -350.5q0 -60 -13.5 -120.5t-33 -109t-54 -102.5t-62.5 -91t-73 -85t-71 -73.5t-70 -67.5q-5 -5 -7.5 -7t-6 -5.5l-6.5 -6.5q-131 -128 -264.5 -288t-196.5 -257q-1 -7 -2.5 -9.5t-3 0t-2.5 9.5
q-63 97 -196.5 257t-264.5 288q-135 129 -190 192q-207 239 -207 476q0 208 125 350.5t303 142.5q139 0 253 -77t177 -238q1 -7 2.5 -9.5t3 0t2.5 9.5zM1827 1137q0 182 -107 308t-260 126q-140 0 -234.5 -76.5t-154.5 -237.5q-15 -45 -45 -45t-45 45q-60 161 -154.5 237.5
t-234.5 76.5q-153 0 -260 -126t-107 -308q0 -54 14 -110.5t34.5 -103t55.5 -99.5t63 -89.5t72.5 -84.5t70 -72.5t67.5 -65.5q130 -122 247 -258t173 -225q1 -7 2.5 -9.5t3 0t2.5 9.5q56 89 173 225t247 258q42 41 52.5 51t52.5 53t58 62.5t52.5 63.5t53 72t42 73t37 81
t20.5 81t9 88z" />
    <glyph glyph-name="ncaron" unicode="&#x148;" horiz-adv-x="2048" 
d="M950 379q-7 0 -10.5 -3.5t-9.5 -17t-12 -24.5q-59 -96 -157.5 -154.5t-217.5 -58.5q-175 0 -293.5 117.5t-118.5 298.5q0 176 118 296.5t296 120.5q88 0 176 -47q2 -2 6 -2q5 0 8 6q3 7 0 13l-6 6q-57 54 -92 130.5t-35 164.5q0 176 123 301t299 125t299 -124.5
t123 -299.5q0 -88 -35 -165.5t-92 -131.5l-6 -6q-3 -10 0 -13q3 -6 8 -6q4 0 6 2q88 47 174 47q181 0 298.5 -120t117.5 -297q0 -181 -118.5 -298.5t-293.5 -117.5q-115 0 -213 56.5t-162 156.5q-5 9 -10 19.5t-7 15t-5.5 7.5t-9.5 3q-13 0 -13 -37q11 -152 60.5 -247.5
t142.5 -174.5q11 -10 12.5 -20.5t-3 -15.5t-9.5 -5h-526q-6 0 -10.5 5t-3.5 15t12 21q93 79 142.5 174.5t60.5 247.5q0 37 -13 37z" />
    <glyph glyph-name="napostrophe" unicode="&#x149;" horiz-adv-x="2048" 
d="M1303 -121h-558q-5 0 -9 5t-2.5 15.5t11.5 20.5q176 155 189 373q4 57 0 57q-1 0 -4.5 -7.5t-12 -22t-18.5 -27.5q-52 -75 -134 -116.5t-185 -41.5q-120 0 -214.5 62t-145 163.5t-50.5 221.5q0 98 31 188.5t98 177t108 130t124 122.5l9.5 9.5t9 8.5t9.5 9
q136 132 269.5 281.5t191.5 236.5q1 7 2.5 9.5t3 0t2.5 -9.5q51 -82 182 -227.5t279 -290.5q128 -122 170 -168q207 -227 218 -450q1 -14 1 -27q0 -120 -51 -221.5t-145.5 -163.5t-213.5 -62q-103 0 -185 41.5t-134 116.5q-10 13 -18.5 27.5t-12 22t-4.5 7.5q-4 0 0 -57
q13 -218 189 -373q11 -10 12.5 -20.5t-3 -15.5t-9.5 -5zM868 -59h312q7 0 -15 31q-4 4 -6 8q-50 70 -77 149t-27 201q0 114 49 114q8 0 14 -3t13 -12t13 -18.5t18 -28t24 -34.5q103 -151 282 -151q103 0 183.5 54.5t122 142t41.5 190.5q0 88 -28.5 170t-91.5 162.5
t-100 119.5t-115 113q-20 20 -30 29q-330 322 -422 464q-1 7 -2.5 9.5t-3 0t-2.5 -9.5q-100 -152 -424 -464q-122 -116 -154 -151q-200 -215 -210 -419q-1 -12 -1 -24q0 -159 97 -273t252 -114q179 0 282 151q12 16 24 34.5t18 28t13 18.5t13 12t14 3q49 0 49 -114
q0 -122 -27 -201t-77 -149q-3 -4 -8 -11q-18 -27 -13 -28z" />
    <glyph glyph-name="Eng" unicode="&#x14a;" horiz-adv-x="2048" 
d="M1034 1303q42 163 156 245t268 82q178 0 303 -142.5t125 -350.5q0 -60 -13.5 -120.5t-33 -109t-54 -102.5t-62.5 -91t-73 -85t-71 -73.5t-70 -67.5q-5 -5 -7.5 -7t-6 -5.5l-6.5 -6.5q-131 -128 -264.5 -288t-196.5 -257q-1 -7 -2.5 -9.5t-3 0t-2.5 9.5q-63 97 -196.5 257
t-264.5 288q-135 129 -190 192q-207 239 -207 476q0 208 125 350.5t303 142.5q98 0 181.5 -33.5t148.5 -108.5t94 -185q3 -15 10 -15t10 15z" />
    <glyph glyph-name="eng" unicode="&#x14b;" horiz-adv-x="2048" 
d="M131 537q0 179 116.5 299t297.5 120q43 0 94 -12t82 -29q5 -2 5.5 -0.5t-3.5 5.5q-53 53 -87 135.5t-34 171.5q0 175 123 299.5t299 124.5t299 -124.5t123 -299.5q0 -90 -33 -171t-88 -136q-6 -6 -1 -6l3 1q31 17 82 29t94 12q181 0 297.5 -120t116.5 -299
q0 -181 -118.5 -298.5t-293.5 -117.5q-116 0 -208.5 50t-147.5 128q-10 13 -17.5 26t-10 19t-3.5 6t-2.5 -8t-2 -20.5t0.5 -28.5q13 -214 189 -373q10 -10 11.5 -20.5t-2.5 -15.5t-9 -5h-558q-5 0 -9.5 5t-3 15.5t12.5 20.5q176 159 189 373q1 16 0.5 28.5t-2 20.5t-2.5 8
t-3.5 -6t-10 -19t-17.5 -26q-58 -80 -148.5 -129t-207.5 -49q-175 0 -293.5 117.5t-118.5 298.5zM707 860q-94 35 -168 35q-148 0 -247 -103t-99 -255q0 -153 100.5 -254t249.5 -101q212 0 338 199q4 6 11.5 18t10.5 16.5t8.5 12t10 10.5t10 5.5t12.5 2.5q49 0 49 -116
q0 -123 -28 -203t-82 -156q-21 -30 -15 -30h312q4 0 0.5 6.5t-15.5 23.5q-54 76 -82 156t-28 203q0 116 49 116q8 0 14.5 -3t15 -13.5t14.5 -18.5t20 -29.5t24 -35.5q118 -164 313 -164q149 0 249.5 101t100.5 254q0 152 -99 255t-247 103q-69 0 -168 -37q-70 -27 -92 4
q-21 34 31 92q102 113 102 273q0 148 -105.5 255t-252.5 107q-149 0 -253.5 -107t-104.5 -255q0 -156 102 -273q52 -58 31 -92q-22 -29 -92 -2z" />
    <glyph glyph-name="Omacron" unicode="&#x14c;" horiz-adv-x="2048" 
d="M963 936q-91 190 -91 301q0 128 46.5 223t164.5 172l41 -30q-75 -63 -112 -138t-37 -147q0 -119 90 -307t90 -303q0 -127 -46.5 -221.5t-164.5 -172.5l-41 29q75 63 112.5 139t37.5 148q0 119 -90 307zM606 940q-84 161 -84 268q0 111 44 191.5t157 150.5l35 -34
q-140 -108 -140 -238q0 -90 93 -272q84 -150 84 -267q0 -118 -42 -197t-157 -147l-35 35q137 106 137 238q0 108 -92 272zM1323 940q-84 161 -84 268q0 111 44 191.5t157 150.5l35 -32q-140 -108 -140 -240q0 -92 92 -272q84 -150 84 -267q0 -118 -41.5 -197t-156.5 -147
l-35 35q69 53 103 116t34 122q0 108 -92 272zM1880 481q0 -138 -108.5 -252.5t-305.5 -181.5t-442 -67t-442 67t-305.5 181.5t-108.5 252.5q0 126 82.5 215t222.5 125l27 -47q-103 -34 -162 -98.5t-59 -159.5q0 -115 98 -208t268.5 -145t378.5 -52t378.5 52t268.5 145
t98 208q0 95 -59 159.5t-162 98.5l27 47q140 -36 222.5 -125t82.5 -215z" />
    <glyph glyph-name="omacron" unicode="&#x14d;" horiz-adv-x="2048" 
d="M1061 1720h82v-1536q0 -103 -53 -183.5t-138 -122.5t-184 -42q-76 0 -133 40.5t-57 111.5q0 70 53 136.5t135 106t166 39.5q79 0 129 -26v1476z" />
    <glyph glyph-name="Obreve" unicode="&#x14e;" horiz-adv-x="2048" 
d="M995 1720h52q0 -243 237 -450q264 -230 264 -461q0 -223 -172 -500h-53q36 74 56.5 121.5t46.5 140.5t26 168q0 175 -106 305.5t-269 167.5v-1028q0 -103 -53 -183.5t-138 -122.5t-184 -42q-76 0 -133 40.5t-57 111.5q0 70 53 136.5t135 106t166 39.5q79 0 129 -26v1476z
" />
    <glyph glyph-name="obreve" unicode="&#x14f;" horiz-adv-x="2048" 
d="M532 1489l1199 262v-1335q0 -103 -53 -183.5t-138 -122.5t-184 -42q-77 0 -134 40t-57 111q0 107 113 195t242 88q77 0 129 -27v701l-1035 -226v-796q0 -155 -110.5 -252t-263.5 -97q-76 0 -133.5 40.5t-57.5 111.5q0 107 112.5 195t241.5 88q77 0 129 -27v1276z
M1649 1380v148l-1035 -225v-148z" />
    <glyph glyph-name="Ohungarumlaut" unicode="&#x150;" horiz-adv-x="2048" 
d="M1235 989q128 0 199 -71.5t71 -178.5q0 -86 -28.5 -160.5t-79 -132.5t-113 -109t-137.5 -100.5t-144 -96t-140.5 -107.5t-121.5 -123h-20v1737h78v-959q72 131 190 216t246 85zM799 573v-507q67 69 159 140t160.5 120.5t132.5 107t98.5 126.5t34.5 153q0 90 -50 137
t-132 47q-45 0 -94.5 -18t-103.5 -55t-108 -101.5t-97 -149.5z" />
    <glyph glyph-name="ohungarumlaut" unicode="&#x151;" horiz-adv-x="2048" 
 />
    <glyph glyph-name="OE" unicode="&#x152;" horiz-adv-x="2048" 
d="M655 -39l-59 -49q-252 295 -465 461l51 49q214 -176 473 -461z" />
    <glyph glyph-name="oe" unicode="&#x153;" horiz-adv-x="2048" 
d="M399 492q123 0 208 -85t85 -208t-85 -208t-208 -85q-120 0 -206.5 85.5t-86.5 207.5t86.5 207.5t206.5 85.5zM399 -33q97 0 164.5 67.5t67.5 164.5q0 94 -68 162.5t-164 68.5q-94 0 -162.5 -68.5t-68.5 -162.5q0 -96 68.5 -164t162.5 -68z" />
    <glyph glyph-name="Racute" unicode="&#x154;" horiz-adv-x="2048" 
d="M860 1280l101 -37l-377 -952l-47 16zM1411 1280l100 -37l-376 -952l-48 16z" />
    <glyph glyph-name="racute" unicode="&#x155;" horiz-adv-x="921" 
d="M193 778l610 -911l-55 -31l-631 942l631 942l55 -30z" />
    <glyph glyph-name="Rcommaaccent" unicode="&#x156;" horiz-adv-x="921" 
d="M172 -164l-55 31l610 911l-610 912l55 30l631 -942z" />
    <glyph glyph-name="rcommaaccent" unicode="&#x157;" horiz-adv-x="921" 
d="M98 778l494 -921l-51 -21l-504 942l504 942l51 -20zM391 778l494 -921l-51 -21l-504 942l504 942l51 -20z" />
    <glyph glyph-name="Rcaron" unicode="&#x158;" horiz-adv-x="921" 
d="M381 -164l-51 21l493 921l-493 922l51 20l504 -942zM88 -164l-51 21l493 921l-493 922l51 20l504 -942z" />
    <glyph glyph-name="rcaron" unicode="&#x159;" horiz-adv-x="921" 
d="M248 381v1339h614v-61h-553v-1278h-61z" />
    <glyph glyph-name="Sacute" unicode="&#x15a;" horiz-adv-x="921" 
d="M686 1176v-1340h-614v62h553v1278h61z" />
    <glyph glyph-name="sacute" unicode="&#x15b;" horiz-adv-x="921" 
d="M862 1446h-434v-1086h-305v1360h739v-274zM817 1675h-649v-1269h215v1085h434v184z" />
    <glyph glyph-name="Scircumflex" unicode="&#x15c;" horiz-adv-x="921" 
d="M61 111h435v1085h305v-1360h-740v275zM106 -119h650v1270h-215v-1085h-435v-185z" />
    <glyph glyph-name="scircumflex" unicode="&#x15d;" horiz-adv-x="2048" 
d="M1376 1720h590v-10q-178 -148 -291.5 -394t-113.5 -538t113.5 -538t291.5 -394v-10h-590v1884z" />
    <glyph glyph-name="Scedilla" unicode="&#x15e;" horiz-adv-x="2048" 
d="M672 1720v-1884h-590v10q178 148 291.5 394t113.5 538t-113.5 538t-291.5 394v10h590z" />
    <glyph glyph-name="scedilla" unicode="&#x15f;" horiz-adv-x="2048" 
d="M1843 1597v-614h-1638v614h1638zM1843 573v-614h-1638v614h1638z" />
    <glyph glyph-name="Scaron" unicode="&#x160;" horiz-adv-x="2048" 
d="M1905 -186l-406 264v1401l406 264l37 -51l-379 -242v-1344l379 -241z" />
    <glyph glyph-name="scaron" unicode="&#x161;" horiz-adv-x="2048" 
d="M549 78l-406 -264l-37 51l379 241v1344l-379 242l37 51l406 -264v-1401z" />
    <glyph glyph-name="Tcommaaccent" unicode="&#x162;" 
d="M391 1235h1102v-913h-68v852h-1034v61z" />
    <glyph glyph-name="tcommaaccent" unicode="&#x163;" 
d="M1053 1237h598v-913h-68v852h-530v61zM346 1233h584v-914h-68v852h-516v62z" />
    <glyph glyph-name="Tcaron" unicode="&#x164;" 
d="M1352 1251v-356q0 -101 38 -204.5t116 -194.5t180 -138l-44 -53q-124 61 -206 168t-119 242q-37 -135 -119 -242t-207 -168l-43 53q102 47 180 138t116 194.5t38 204.5v356h70zM317 1167v62h529v-914h-68v852h-461z" />
    <glyph glyph-name="tcaron" unicode="&#x165;" 
d="M479 385h1061v-61h-1128v911h67v-850z" />
    <glyph glyph-name="Tbar" unicode="&#x166;" 
d="M879 442l18 -63q-172 -62 -430 -62h-70v936h68v-874h2q258 0 412 63zM1282 1174v-267q0 -103 35.5 -207t111 -197t177.5 -143l-43 -55q-119 64 -199 173.5t-117 244.5q-37 -135 -116.5 -244.5t-198.5 -173.5l-43 55q102 50 177 143t110.5 197t35.5 207v267h-284v61h641
v-61h-287z" />
    <glyph glyph-name="tbar" unicode="&#x167;" 
d="M1268 1059h282v-62h-641v62h291v209h68v-209zM465 1198l2 -823q258 0 412 63l18 -63q-172 -62 -430 -62h-70v885h68zM1231 905q118 0 197 -86.5t79 -222.5t-78.5 -221.5t-197.5 -85.5q-120 0 -199.5 85.5t-79.5 221.5t79.5 222.5t199.5 86.5zM1231 346q94 0 154.5 72
t60.5 178q0 108 -59 179t-156 71t-157 -71t-60 -179q0 -106 60.5 -178t156.5 -72z" />
    <glyph glyph-name="Utilde" unicode="&#x168;" 
d="M479 381h1030v-62h-1097v920h1079v-61h-1012v-797z" />
    <glyph glyph-name="utilde" unicode="&#x169;" 
d="M442 385h11q264 0 467 53l14 -61q-222 -53 -481 -53h-78v915h551v-61h-484v-793zM1051 381h489v-62h-557v920h551v-61h-483v-797z" />
    <glyph glyph-name="Umacron" unicode="&#x16a;" 
d="M461 354h1079v-61h-1145v516h1045v393h-1051v62h1116v-514h-1044v-396z" />
    <glyph glyph-name="umacron" unicode="&#x16b;" 
d="M434 371h25q302 0 573 53l12 -62q-280 -53 -585 -53h-92v506h499v371h-506v61h574v-491h-500v-385zM1001 1247h568v-930h-68v869h-500v61z" />
    <glyph glyph-name="Ubreve" unicode="&#x16c;" 
d="M434 375h15q273 0 505 41l9 -64q-257 -39 -514 -39h-82v504h485v367h-492v61h560v-489h-486v-381zM1001 1245h570v-934h-570v934zM1505 373v813h-438v-813h438z" />
    <glyph glyph-name="ubreve" unicode="&#x16d;" 
d="M1511 1247h68v-934h-569v934h67v-379h434v379zM434 373h19q277 0 520 49l12 -62q-254 -49 -532 -49h-86v506h485v367h-492v61h560v-489h-486v-383zM1511 375v432h-434v-432h434z" />
    <glyph glyph-name="Uring" unicode="&#x16e;" 
d="M1366 1251v-356q0 -159 90.5 -312.5t243.5 -224.5l-43 -53q-125 61 -207 168t-119 242q-37 -135 -119 -242t-206 -168l-43 53q103 47 180.5 137.5t115 193.5t37.5 206v356h70zM958 436l15 -61q-231 -62 -520 -62h-84v504h485v367h-492v61h560v-489h-486v-381h15
q298 0 507 61z" />
    <glyph glyph-name="uring" unicode="&#x16f;" 
d="M436 377h15q298 0 507 61l15 -61q-231 -62 -520 -62h-84v500h485v367h-492v61h560v-489h-486v-377zM1102 377h518v-62h-586v928h576v-61h-508v-361h485v-61h-485v-383z" />
    <glyph glyph-name="Uhungarumlaut" unicode="&#x170;" 
d="M434 375h15q290 0 499 61l13 -63q-241 -60 -512 -60h-82v504h460v367h-467v61h535v-489h-461v-381zM1470 375h138v-62h-623v62h131v809h-121v61h596v-61h-121v-809zM1184 1184v-809h219v809h-219z" />
    <glyph glyph-name="uhungarumlaut" unicode="&#x171;" 
d="M1280 1028h283v-61h-641v61h290v232h68v-232zM434 350h12q263 0 478 56l14 -64q-222 -53 -492 -53h-79v504h430v366h-437v62h504v-490h-430v-381zM1243 874q119 0 198 -82t79 -214t-79 -214.5t-198 -82.5q-120 0 -199 82.5t-79 214.5t79 214t199 82zM1243 338
q97 0 156 67t59 173q0 100 -60.5 168.5t-154.5 68.5q-96 0 -156.5 -68.5t-60.5 -168.5q0 -105 60 -172.5t157 -67.5z" />
    <glyph glyph-name="Uogonek" unicode="&#x172;" 
d="M401 1245h1110v-934h-1110v934zM1444 1184h-975v-811h975v811z" />
    <glyph glyph-name="uogonek" unicode="&#x173;" 
d="M406 1253h67v-381h961v381h67v-948h-1095v948zM473 811v-444h961v444h-961z" />
    <glyph glyph-name="Wcircumflex" unicode="&#x174;" 
d="M381 1245h68v-377h405v377h66v-932h-539v932zM1010 1245h67v-377h406v377h65v-932h-538v932zM449 807v-432h405v432h-405zM1077 807v-432h406v432h-406z" />
    <glyph glyph-name="wcircumflex" unicode="&#x175;" 
d="M1366 1251v-356q0 -101 38 -204t116 -193.5t180 -137.5l-43 -53q-125 61 -207 168t-119 242q-37 -135 -119 -242t-206 -168l-43 53q103 47 180.5 137.5t115 193.5t37.5 204v356h70zM854 870v377h66v-932h-539v932h68v-377h405zM854 377v432h-405v-432h405z" />
    <glyph glyph-name="Ycircumflex" unicode="&#x176;" 
d="M993 1262v-318q0 -99 36 -187.5t94 -153.5t136 -119t157 -88.5t163 -57.5l-35 -57q-94 29 -179.5 70t-167.5 99t-144.5 139t-94.5 175q-29 -94 -91.5 -175t-144.5 -139.5t-168 -99.5t-179 -69l-35 57q84 23 163 57.5t157 88.5t136 119t94 153.5t36 187.5v318h67z" />
    <glyph glyph-name="ycircumflex" unicode="&#x177;" 
d="M1313 1247v-344q0 -90 35 -185.5t109.5 -183.5t174.5 -135l-45 -53q-116 58 -193.5 159.5t-115.5 223.5q-34 -126 -120 -240.5t-208 -177.5q-122 70 -206 184.5t-123 245.5q-40 -121 -117.5 -227.5t-188.5 -171.5l-47 51q99 53 175 149.5t110.5 190.5t34.5 170v344h67
v-356q0 -116 81 -266.5t214 -235.5q133 80 214 229t81 273v356h68z" />
    <glyph glyph-name="Ydieresis" unicode="&#x178;" 
d="M942 1262q155 0 281.5 -61t199 -172t72.5 -251t-73 -251t-199 -171.5t-281 -60.5t-281 60.5t-199 171.5t-73 251t72.5 251t199 172t281.5 61zM942 1200q-133 0 -244 -56t-175 -153t-64 -213t64 -213t175 -153t244 -56t244 56t175 153t64 213t-64 213t-175 153t-244 56z
" />
    <glyph glyph-name="Zacute" unicode="&#x179;" 
d="M1001 1190v-199q0 -97 32 -185.5t85.5 -156t125.5 -124.5t148 -95.5t158 -64.5l-39 -58q-187 63 -336.5 189.5t-207.5 306.5q-27 -93 -84 -174.5t-132.5 -142t-156.5 -104.5t-170 -75l-39 58q82 26 158 64.5t148 95.5t125.5 124.5t85.5 156t32 185.5v199h-510v61h1081
v-61h-504z" />
    <glyph glyph-name="zacute" unicode="&#x17a;" 
d="M1311 1194v-260q0 -104 32 -209t104 -201.5t173 -148.5l-47 -51q-212 114 -293 397q-67 -305 -330 -422q-266 118 -329 424q-40 -130 -118 -234.5t-190 -164.5l-47 51q102 50 177.5 145t111 201.5t35.5 212.5v260h-262v61h585v-61h-256v-260q0 -201 73.5 -344.5
t219.5 -216.5q146 73 219.5 216.5t73.5 344.5v260h-258v61h586v-61h-260z" />
    <glyph glyph-name="Zdotaccent" unicode="&#x17b;" 
d="M985 997v-88q0 -117 47.5 -222t127 -181.5t171.5 -131.5t193 -87l-39 -56q-87 31 -167 76t-154 105.5t-130.5 141.5t-83.5 171q-27 -90 -83.5 -171t-130 -142t-154 -106t-166.5 -75l-39 56q101 32 193 87t171 131.5t126.5 181.5t47.5 222v88h-507v62h510v256h67v-256h504
v-62h-504z" />
    <glyph glyph-name="zdotaccent" unicode="&#x17c;" 
d="M403 1264h1094v-969h-67v475l-1043 -61l-14 71l1057 49v373h-1027v62z" />
    <glyph glyph-name="Zcaron" unicode="&#x17d;" 
d="M481 377h1051v-62h-1118v928h1102v-61h-1035v-361h1018v-61h-1018v-383z" />
    <glyph glyph-name="zcaron" unicode="&#x17e;" 
d="M1239 379h324v-62h-1213v62h322v801h-293v61h1155v-61h-295v-801zM739 1180v-801h432v801h-432z" />
    <glyph glyph-name="longs" unicode="&#x17f;" 
d="M989 1065h570v-61h-1203v61h566v264h67v-264zM954 840q181 0 299.5 -86t118.5 -219q0 -134 -118.5 -221t-299.5 -87q-180 0 -296.5 86.5t-116.5 221.5q0 133 116.5 219t296.5 86zM954 287q148 0 248.5 72t100.5 176q0 102 -100.5 173.5t-248.5 71.5q-145 0 -244.5 -71.5
t-99.5 -173.5q0 -103 99.5 -175.5t244.5 -72.5z" />
    <glyph glyph-name="uni0180" unicode="&#x180;" 
d="M1397 897v-61h-471v-938h-68v1761h68v-762h471z" />
    <glyph glyph-name="uni0181" unicode="&#x181;" 
d="M1153 1659h68v-1761h-68v948h-395v-885h-68v1667h68v-721h395v752z" />
    <glyph glyph-name="uni0182" unicode="&#x182;" 
d="M1313 1001h-455v-411h455v-62h-455v-630h-67v1761h67v-596h455v-62z" />
    <glyph glyph-name="uni0183" unicode="&#x183;" 
d="M1151 1659h68v-1761h-68v665h-391v-600h-68v1669h68v-547h391v574zM760 625h391v399h-391v-399z" />
    <glyph glyph-name="uni0184" unicode="&#x184;" 
d="M1090 1659h67v-1761h-67v940h-472v61h472v760z" />
    <glyph glyph-name="uni0185" unicode="&#x185;" 
d="M1219 1659h67v-1761h-67v1761zM889 915v721h67v-1667h-67v885h-402v61h402z" />
    <glyph glyph-name="uni0186" unicode="&#x186;" 
d="M1094 1659h67v-1761h-67v704h-465v62h465v376h-465v62h465v557z" />
    <glyph glyph-name="uni0187" unicode="&#x187;" 
d="M1219 1659h67v-1761h-67v1761zM889 1137v501h67v-1669h-67v649h-395v62h395v395h-395v62h395z" />
    <glyph glyph-name="uni0188" unicode="&#x188;" 
d="M971 395h778v-61h-1620v61h774v815h68v-815z" />
    <glyph glyph-name="uni0189" unicode="&#x189;" 
d="M1761 901v-61h-315v-942h-68v1761h68v-758h315zM764 1102v-635q336 15 522 41l6 -53q-440 -66 -1112 -66l-16 66q294 0 532 10v637h68z" />
    <glyph glyph-name="uni018A" unicode="&#x18a;" 
d="M1526 1659h67v-1759h-67v970h-281v-903h-67v1669h67v-704h281v727zM664 1124v-626q304 16 438 34l6 -55q-375 -55 -934 -55l-12 65q188 0 434 9v628h68z" />
    <glyph glyph-name="uni018B" unicode="&#x18b;" 
d="M1475 1659h67v-1761h-67v1761zM831 1096v-611q310 14 515 43l6 -55q-386 -65 -1098 -65l-14 65q273 0 524 8v615h67z" />
    <glyph glyph-name="uni018C" unicode="&#x18c;" 
d="M1300 379h472v-62h-1622v62h473v862h67v-862h543v862h67v-862z" />
    <glyph glyph-name="uni018D" unicode="&#x18d;" 
d="M1767 1217v-62h-778v-815h-67v815h-775v62h1620z" />
    <glyph glyph-name="uni018E" unicode="&#x18e;" 
d="M1559 1659h67v-1761h-67v573h-492v61h492v1127zM1401 897l6 -55q-310 -36 -649 -49v-750h-68v748q-258 -9 -477 -9l-14 66q759 0 1202 49z" />
    <glyph glyph-name="uni018F" unicode="&#x18f;" 
d="M1587 1659h68v-1761h-68v1761zM1264 535v1073h67v-1669h-67v534h-385v62h385zM1147 913l6 -55q-50 -8 -114.5 -15.5t-107.5 -11l-129 -10.5t-118 -10v-768h-68v764q-234 -12 -419 -12l-13 65q578 0 963 53z" />
    <glyph glyph-name="uni0190" unicode="&#x190;" 
d="M1556 1659h68v-1761h-68v1761zM1458 911l6 -53q-289 -35 -585 -47v-770h-68v766q-256 -10 -567 -10l-13 65q768 0 1227 49z" />
    <glyph glyph-name="uni0191" unicode="&#x191;" 
d="M1749 1219v-62h-492v-817h-67v817h-508v-817h-68v817h-487v62h1622z" />
    <glyph glyph-name="florin" unicode="&#x192;" 
d="M129 809h1620v-61h-1620v61z" />
    <glyph glyph-name="uni0193" unicode="&#x193;" 
d="M1503 1659h68v-1761h-68v1761zM197 549l-17 65q761 0 1204 62l7 -55q-495 -72 -1194 -72z" />
    <glyph glyph-name="uni0194" unicode="&#x194;" 
d="M922 1659h67v-1761h-67v1761z" />
    <glyph glyph-name="uni0195" unicode="&#x195;" 
d="M1055 780q0 33 22 58.5t58 25.5q39 0 60.5 -25t21.5 -59t-21.5 -60t-60.5 -26q-36 0 -57 26t-23 60z" />
    <glyph glyph-name="uni0196" unicode="&#x196;" 
d="M1112 1665h68v-1771h-68v1771zM760 795q0 34 21.5 59t60.5 25q36 0 59 -25.5t23 -58.5t-23 -59.5t-59 -26.5q-38 0 -59 25.5t-23 60.5z" />
    <glyph glyph-name="uni0197" unicode="&#x197;" horiz-adv-x="2048" 
d="M387 -100l-51 -23q-134 197 -197 416.5t-63 484.5t63 484.5t197 416.5l51 -22q-124 -179 -183 -405.5t-59 -473.5t59 -473t183 -405zM1712 -123l-51 23q124 179 183 405t59 473t-59 473.5t-183 405.5l51 22q134 -197 197 -416.5t63 -484.5t-63 -484.5t-197 -416.5z
M506 1202h975v-934h-70v871h-905v63z" />
    <glyph glyph-name="uni0198" unicode="&#x198;" horiz-adv-x="2048" 
d="M336 1679l51 -22q-124 -179 -183 -405.5t-59 -473.5t59 -473t183 -405l-51 -23q-134 197 -197 416.5t-63 484.5t63 484.5t197 416.5zM1661 1657l51 22q134 -197 197 -416.5t63 -484.5t-63 -484.5t-197 -416.5l-51 23q124 179 183 405t59 473t-59 473.5t-183 405.5z
M676 1272v-854h870v-64h-940v918h70z" />
    <glyph glyph-name="uni0199" unicode="&#x199;" horiz-adv-x="2048" 
d="M336 1679l51 -22q-124 -179 -183 -405.5t-59 -473.5t59 -473t183 -405l-51 -23q-134 197 -197 416.5t-63 484.5t63 484.5t197 416.5zM1661 1657l51 22q134 -197 197 -416.5t63 -484.5t-63 -484.5t-197 -416.5l-51 23q124 179 183 405t59 473t-59 473.5t-183 405.5z
M643 1192v-789h889v-63h-959v915h934v-63h-864z" />
    <glyph glyph-name="uni019A" unicode="&#x19a;" horiz-adv-x="2048" 
d="M336 1679l51 -22q-124 -179 -183 -405.5t-59 -473.5t59 -473t183 -405l-51 -23q-134 197 -197 416.5t-63 484.5t63 484.5t197 416.5zM1661 1657l51 22q134 -197 197 -416.5t63 -484.5t-63 -484.5t-197 -416.5l-51 23q124 179 183 405t59 473t-59 473.5t-183 405.5z
M621 750v-406h901v-63h-969v532h866v399h-872v64h940v-526h-866z" />
    <glyph glyph-name="uni019B" unicode="&#x19b;" horiz-adv-x="2048" 
d="M387 -100l-51 -23q-134 197 -197 416.5t-63 484.5t63 484.5t197 416.5l51 -22q-124 -179 -183 -405.5t-59 -473.5t59 -473t183 -405zM1712 -123l-51 23q124 179 183 405t59 473t-59 473.5t-183 405.5l51 22q134 -197 197 -416.5t63 -484.5t-63 -484.5t-197 -416.5z
M569 1217h932v-881h-932v881zM1432 1153h-793v-754h793v754z" />
    <glyph glyph-name="uni019C" unicode="&#x19c;" horiz-adv-x="2048" 
d="M387 -100l-51 -23q-134 197 -197 416.5t-63 484.5t63 484.5t197 416.5l51 -22q-124 -179 -183 -405.5t-59 -473.5t59 -473t183 -405zM1712 -123l-51 23q124 179 183 405t59 473t-59 473.5t-183 405.5l51 22q134 -197 197 -416.5t63 -484.5t-63 -484.5t-197 -416.5z
M565 1278h70v-397h803v397h69v-987h-942v987zM635 817v-463h803v463h-803z" />
    <glyph glyph-name="uni019D" unicode="&#x19d;" horiz-adv-x="2048" 
d="M336 1679l51 -22q-124 -179 -183 -405.5t-59 -473.5t59 -473t183 -405l-51 -23q-134 197 -197 416.5t-63 484.5t63 484.5t197 416.5zM1661 1657l51 22q134 -197 197 -416.5t63 -484.5t-63 -484.5t-197 -416.5l-51 23q124 179 183 405t59 473t-59 473.5t-183 405.5z
M1079 1303v-289q0 -110 40 -213t108 -183t155.5 -141t184.5 -96l-43 -59q-169 70 -298.5 200t-181.5 303q-52 -174 -180.5 -304t-298.5 -199l-43 59q96 35 182.5 96t155.5 141t109.5 183t40.5 213v289h69z" />
    <glyph glyph-name="uni019E" unicode="&#x19e;" horiz-adv-x="2048" 
d="M387 -100l-51 -23q-134 197 -197 416.5t-63 484.5t63 484.5t197 416.5l51 -22q-124 -179 -183 -405.5t-59 -473.5t59 -473t183 -405zM1712 -123l-51 23q124 179 183 405t59 473t-59 473.5t-183 405.5l51 22q134 -197 197 -416.5t63 -484.5t-63 -484.5t-197 -416.5z
M1034 1229q216 0 354 -124.5t138 -320.5t-138 -320t-354 -124t-353.5 124t-137.5 320t137.5 320.5t353.5 124.5zM1034 1165q-182 0 -304 -110t-122 -271t122 -271t304 -110t304 110t122 271t-122 271t-304 110z" />
    <glyph glyph-name="uni019F" unicode="&#x19f;" horiz-adv-x="2048" 
d="M336 1679l51 -22q-124 -179 -183 -405.5t-59 -473.5t59 -473t183 -405l-51 -23q-134 197 -197 416.5t-63 484.5t63 484.5t197 416.5zM1661 1657l51 22q134 -197 197 -416.5t63 -484.5t-63 -484.5t-197 -416.5l-51 23q124 179 183 405t59 473t-59 473.5t-183 405.5z
M1065 1153v-158q0 -104 44 -199.5t117.5 -168.5t163.5 -127t189 -86l-39 -60q-178 63 -317 182.5t-193 280.5q-57 -160 -192.5 -282t-307.5 -181l-38 60q97 31 186 86.5t160.5 129t114 168.5t42.5 197v158h-456v64h987v-64h-461z" />
    <glyph glyph-name="Ohorn" unicode="&#x1a0;" horiz-adv-x="2048" 
d="M336 1679l51 -22q-124 -179 -183 -405.5t-59 -473.5t59 -473t183 -405l-51 -23q-134 197 -197 416.5t-63 484.5t63 484.5t197 416.5zM1661 1657l51 22q134 -197 197 -416.5t63 -484.5t-63 -484.5t-197 -416.5l-51 23q124 179 183 405t59 473t-59 473.5t-183 405.5z
M1063 1004v-125q0 -113 69.5 -218t177 -177t234.5 -109l-37 -60q-169 57 -299 163.5t-180 246.5q-50 -140 -180 -246.5t-299 -163.5l-37 60q127 37 234.5 109t177 177t69.5 218v125h-456v63h456v268h70v-268h461v-63h-461z" />
    <glyph glyph-name="ohorn" unicode="&#x1a1;" horiz-adv-x="2048" 
d="M336 1679l51 -22q-124 -179 -183 -405.5t-59 -473.5t59 -473t183 -405l-51 -23q-134 197 -197 416.5t-63 484.5t63 484.5t197 416.5zM1661 1657l51 22q134 -197 197 -416.5t63 -484.5t-63 -484.5t-197 -416.5l-51 23q124 179 183 405t59 473t-59 473.5t-183 405.5z
M553 1171v64h942v-942h-70v471l-907 -55l-14 73l921 45v344h-872z" />
    <glyph glyph-name="uni01A2" unicode="&#x1a2;" horiz-adv-x="2048" 
d="M336 1679l51 -22q-124 -179 -183 -405.5t-59 -473.5t59 -473t183 -405l-51 -23q-134 197 -197 416.5t-63 484.5t63 484.5t197 416.5zM1661 1657l51 22q134 -197 197 -416.5t63 -484.5t-63 -484.5t-197 -416.5l-51 23q124 179 183 405t59 473t-59 473.5t-183 405.5z
M637 754v-365h889v-63h-959v913h926v-63h-856v-359h864v-63h-864z" />
    <glyph glyph-name="uni01A3" unicode="&#x1a3;" horiz-adv-x="2048" 
d="M336 1679l51 -22q-124 -179 -183 -405.5t-59 -473.5t59 -473t183 -405l-51 -23q-134 197 -197 416.5t-63 484.5t63 484.5t197 416.5zM1661 1657l51 22q134 -197 197 -416.5t63 -484.5t-63 -484.5t-197 -416.5l-51 23q124 179 183 405t59 473t-59 473.5t-183 405.5z
M1331 1128v-675h271v-64h-1135v64h307v675h-256v64h1036v-64h-223zM844 1128v-675h418v675h-418z" />
    <glyph glyph-name="uni01A4" unicode="&#x1a4;" horiz-adv-x="2048" 
d="M336 1679l51 -22q-124 -179 -183 -405.5t-59 -473.5t59 -473t183 -405l-51 -23q-134 197 -197 416.5t-63 484.5t63 484.5t197 416.5zM1661 1657l51 22q134 -197 197 -416.5t63 -484.5t-63 -484.5t-197 -416.5l-51 23q124 179 183 405t59 473t-59 473.5t-183 405.5z
M1055 1356v-271h555v-63h-1174v63h549v271h70zM1022 866q182 0 302 -101.5t120 -258.5q0 -158 -120 -259.5t-302 -101.5t-302 101.5t-120 259.5q0 157 120 258.5t302 101.5zM1022 209q148 0 249 87t101 210q0 124 -101 211.5t-249 87.5t-249 -87.5t-101 -211.5
q0 -123 101 -210t249 -87z" />
    <glyph glyph-name="uni01A5" unicode="&#x1a5;" horiz-adv-x="2048" 
d="M336 1679l51 -22q-124 -179 -183 -405.5t-59 -473.5t59 -473t183 -405l-51 -23q-134 197 -197 416.5t-63 484.5t63 484.5t197 416.5zM1661 1657l51 22q134 -197 197 -416.5t63 -484.5t-63 -484.5t-197 -416.5l-51 23q124 179 183 405t59 473t-59 473.5t-183 405.5z
M1815 825h-320v-876h-70v1659h70v-719h320v-64zM416 1384h669q0 -213 -76 -419t-229.5 -392t-369.5 -323l-45 55q294 183 464 451t187 565h-600v63z" />
    <glyph glyph-name="uni01A6" unicode="&#x1a6;" horiz-adv-x="2048" 
d="M336 1679l51 -22q-124 -179 -183 -405.5t-59 -473.5t59 -473t183 -405l-51 -23q-134 197 -197 416.5t-63 484.5t63 484.5t197 416.5zM1661 1657l51 22q134 -197 197 -416.5t63 -484.5t-63 -484.5t-197 -416.5l-51 23q124 179 183 405t59 473t-59 473.5t-183 405.5z
M1815 846h-320v-897h-70v1659h70v-699h320v-63zM477 444h49q418 0 766 78l13 -65q-382 -78 -779 -78h-118v1059h69v-994z" />
    <glyph glyph-name="uni01A7" unicode="&#x1a7;" horiz-adv-x="2048" 
d="M336 1679l51 -22q-124 -179 -183 -405.5t-59 -473.5t59 -473t183 -405l-51 -23q-134 197 -197 416.5t-63 484.5t63 484.5t197 416.5zM1661 1657l51 22q134 -197 197 -416.5t63 -484.5t-63 -484.5t-197 -416.5l-51 23q124 179 183 405t59 473t-59 473.5t-183 405.5z
M1815 846h-299v-897h-70v1659h70v-699h299v-63zM492 397h45q241 0 401 11.5t332 46.5l12 -64q-179 -35 -341 -47t-404 -12h-115v1083h737v-63h-667v-955z" />
    <glyph glyph-name="uni01A8" unicode="&#x1a8;" horiz-adv-x="2048" 
d="M336 1679l51 -22q-124 -179 -183 -405.5t-59 -473.5t59 -473t183 -405l-51 -23q-134 197 -197 416.5t-63 484.5t63 484.5t197 416.5zM1661 1657l51 22q134 -197 197 -416.5t63 -484.5t-63 -484.5t-197 -416.5l-51 23q124 179 183 405t59 473t-59 473.5t-183 405.5z
M1792 846h-268v-897h-70v1659h70v-699h268v-63zM498 401h45q234 0 396 12.5t337 47.5l6 -66q-174 -35 -334 -46t-405 -11h-113v590h588v424h-594v63h661v-551h-587v-463z" />
    <glyph glyph-name="uni01A9" unicode="&#x1a9;" horiz-adv-x="2048" 
d="M336 1679l51 -22q-124 -179 -183 -405.5t-59 -473.5t59 -473t183 -405l-51 -23q-134 197 -197 416.5t-63 484.5t63 484.5t197 416.5zM1661 1657l51 22q134 -197 197 -416.5t63 -484.5t-63 -484.5t-197 -416.5l-51 23q124 179 183 405t59 473t-59 473.5t-183 405.5z
M1815 836h-320v-887h-70v1659h70v-709h320v-63zM406 369v1030h663v-1030h-663zM479 1331v-895h516v895h-516z" />
    <glyph glyph-name="uni01AA" unicode="&#x1aa;" horiz-adv-x="2048" 
d="M336 1679l51 -22q-124 -179 -183 -405.5t-59 -473.5t59 -473t183 -405l-51 -23q-134 197 -197 416.5t-63 484.5t63 484.5t197 416.5zM1661 1657l51 22q134 -197 197 -416.5t63 -484.5t-63 -484.5t-197 -416.5l-51 23q124 179 183 405t59 473t-59 473.5t-183 405.5z
M1815 825h-299v-876h-70v1659h70v-719h299v-64zM1077 983v453h68v-1125h-686v1125h69v-453h549zM1077 377v541h-549v-541h549z" />
    <glyph glyph-name="uni01AB" unicode="&#x1ab;" horiz-adv-x="2048" 
d="M336 1679l51 -22q-124 -179 -183 -405.5t-59 -473.5t59 -473t183 -405l-51 -23q-134 197 -197 416.5t-63 484.5t63 484.5t197 416.5zM1661 1657l51 22q134 -197 197 -416.5t63 -484.5t-63 -484.5t-197 -416.5l-51 23q124 179 183 405t59 473t-59 473.5t-183 405.5z
M1798 846h-299v-897h-69v1659h69v-699h299v-63zM811 1434v-371q0 -234 121 -433.5t309 -291.5l-49 -55q-150 81 -258.5 223t-155.5 325q-47 -184 -155 -325.5t-258 -222.5l-50 55q188 92 309 291.5t121 433.5v371h66z" />
    <glyph glyph-name="uni01AC" unicode="&#x1ac;" horiz-adv-x="2048" 
d="M336 1679l51 -22q-124 -179 -183 -405.5t-59 -473.5t59 -473t183 -405l-51 -23q-134 197 -197 416.5t-63 484.5t63 484.5t197 416.5zM1661 1657l51 22q134 -197 197 -416.5t63 -484.5t-63 -484.5t-197 -416.5l-51 23q124 179 183 405t59 473t-59 473.5t-183 405.5z
M1806 825h-280v-876h-70v1659h70v-719h280v-64zM741 1425q167 0 267 -147.5t100 -396.5t-100 -397t-267 -148t-266.5 148t-99.5 397t99.5 396.5t266.5 147.5zM741 399q132 0 214.5 135.5t82.5 346.5t-82.5 346t-214.5 135t-214.5 -135t-82.5 -346t82.5 -346.5t214.5 -135.5z
" />
    <glyph glyph-name="uni01AD" unicode="&#x1ad;" horiz-adv-x="2048" 
d="M336 1679l51 -22q-124 -179 -183 -405.5t-59 -473.5t59 -473t183 -405l-51 -23q-134 197 -197 416.5t-63 484.5t63 484.5t197 416.5zM1661 1657l51 22q134 -197 197 -416.5t63 -484.5t-63 -484.5t-197 -416.5l-51 23q124 179 183 405t59 473t-59 473.5t-183 405.5z
M1815 836h-299v-887h-70v1659h70v-709h299v-63zM836 1329v-278q0 -239 108.5 -451t286.5 -309l-49 -55q-140 86 -239 235t-140 336q-41 -187 -140 -336t-239 -235l-49 55q178 97 286.5 309t108.5 451v278h-348v66h764v-66h-350z" />
    <glyph glyph-name="uni01AE" unicode="&#x1ae;" horiz-adv-x="2048" 
d="M336 1679l51 -22q-124 -179 -183 -405.5t-59 -473.5t59 -473t183 -405l-51 -23q-134 197 -197 416.5t-63 484.5t63 484.5t197 416.5zM1661 1657l51 22q134 -197 197 -416.5t63 -484.5t-63 -484.5t-197 -416.5l-51 23q124 179 183 405t59 473t-59 473.5t-183 405.5z
M1815 805h-299v-856h-70v1659h70v-740h299v-63zM823 1147v-133q0 -216 122 -401.5t310 -268.5l-45 -57q-150 75 -261 209t-158 305q-46 -170 -157.5 -304.5t-262.5 -209.5l-45 57q188 83 310 268.5t122 401.5v133h-389v63h387v303h69v-303h385v-63h-387z" />
    <glyph glyph-name="Uhorn" unicode="&#x1af;" horiz-adv-x="2048" 
d="M336 1679l51 -22q-124 -179 -183 -405.5t-59 -473.5t59 -473t183 -405l-51 -23q-134 197 -197 416.5t-63 484.5t63 484.5t197 416.5zM1661 1657l51 22q134 -197 197 -416.5t63 -484.5t-63 -484.5t-197 -416.5l-51 23q124 179 183 405t59 473t-59 473.5t-183 405.5z
M1794 821h-301v-872h-70v1659h70v-723h301v-64zM446 1389h666q0 -160 -37.5 -315t-113 -304.5t-200 -286.5t-288.5 -245l-57 49q393 240 549 657l-547 -55l-23 69l590 48q51 140 57 319h-596v64z" />
    <glyph glyph-name="uhorn" unicode="&#x1b0;" horiz-adv-x="2048" 
d="M336 1679l51 -22q-124 -179 -183 -405.5t-59 -473.5t59 -473t183 -405l-51 -23q-134 197 -197 416.5t-63 484.5t63 484.5t197 416.5zM1661 1657l51 22q134 -197 197 -416.5t63 -484.5t-63 -484.5t-197 -416.5l-51 23q124 179 183 405t59 473t-59 473.5t-183 405.5z
M1825 823h-301v-874h-70v1659h70v-721h301v-64zM492 401h45q239 0 402 12.5t337 47.5l10 -66q-181 -35 -343.5 -47t-405.5 -12h-115v1065h729v-68h-659v-411h614v-66h-614v-455z" />
    <glyph glyph-name="uni01B1" unicode="&#x1b1;" horiz-adv-x="2048" 
d="M336 1679l51 -22q-124 -179 -183 -405.5t-59 -473.5t59 -473t183 -405l-51 -23q-134 197 -197 416.5t-63 484.5t63 484.5t197 416.5zM1661 1657l51 22q134 -197 197 -416.5t63 -484.5t-63 -484.5t-197 -416.5l-51 23q124 179 183 405t59 473t-59 473.5t-183 405.5z
M1831 825h-285v-876h-69v1659h69v-719h285v-64zM1044 1311v-873q143 8 297 25l5 -57q-432 -56 -1039 -56l-12 68q172 0 270 2v891h-205v63h881v-63h-197zM635 1311v-889q171 3 340 12v877h-340z" />
    <glyph glyph-name="uni01B2" unicode="&#x1b2;" horiz-adv-x="2048" 
d="M336 1679l51 -22q-124 -179 -183 -405.5t-59 -473.5t59 -473t183 -405l-51 -23q-134 197 -197 416.5t-63 484.5t63 484.5t197 416.5zM1661 1657l51 22q134 -197 197 -416.5t63 -484.5t-63 -484.5t-197 -416.5l-51 23q124 179 183 405t59 473t-59 473.5t-183 405.5z
M1806 825h-270v-876h-70v1659h70v-719h270v-64zM825 1559v-304h445v-63h-969v63h455v304h69zM782 1020q170 0 278.5 -100.5t108.5 -260.5q0 -159 -109 -259.5t-278 -100.5t-278 100.5t-109 259.5q0 160 108.5 260.5t278.5 100.5zM782 354q137 0 229.5 88.5t92.5 216.5
t-92.5 217t-229.5 89t-229 -89t-92 -217t92 -216.5t229 -88.5z" />
    <glyph glyph-name="uni01B3" unicode="&#x1b3;" horiz-adv-x="2048" 
d="M336 1679l51 -22q-124 -179 -183 -405.5t-59 -473.5t59 -473t183 -405l-51 -23q-134 197 -197 416.5t-63 484.5t63 484.5t197 416.5zM1661 1657l51 22q134 -197 197 -416.5t63 -484.5t-63 -484.5t-197 -416.5l-51 23q124 179 183 405t59 473t-59 473.5t-183 405.5z
M1012 1389v34h-543v64h1153v-64h-541v-34q0 -66 44 -133t114.5 -120t157 -98t172.5 -74t160 -42l-29 -58q-93 19 -189.5 55t-189.5 86.5t-166.5 119t-107.5 143.5q-34 -75 -108 -143.5t-167 -119t-189.5 -86.5t-189.5 -55l-28 58q74 13 159.5 41t172 72.5t156.5 97.5
t114.5 120.5t44.5 135.5zM1778 641h-697v-694h-69v694h-699v64h1465v-64z" />
    <glyph glyph-name="uni01B4" unicode="&#x1b4;" horiz-adv-x="2048" 
d="M1966 778q0 -192 -74.5 -366t-201 -300.5t-300.5 -201t-366 -74.5t-366 74.5t-300.5 201t-201 300.5t-74.5 366t74.5 366t201 300.5t300.5 201t366 74.5t366 -74.5t300.5 -201t201 -300.5t74.5 -366zM1024 1667q-242 0 -446.5 -119t-323.5 -323.5t-119 -446.5t119 -446.5
t323.5 -323.5t446.5 -119t446.5 119t323.5 323.5t119 446.5t-119 446.5t-323.5 323.5t-446.5 119zM553 1135h877v-844h-70v780h-807v64z" />
    <glyph glyph-name="uni01B5" unicode="&#x1b5;" horiz-adv-x="2048" 
d="M1024 1720q192 0 366 -74.5t300.5 -201t201 -300.5t74.5 -366t-74.5 -366t-201 -300.5t-300.5 -201t-366 -74.5t-366 74.5t-300.5 201t-201 300.5t-74.5 366t74.5 366t201 300.5t300.5 201t366 74.5zM1024 -111q242 0 446.5 119t323.5 323.5t119 446.5t-119 446.5
t-323.5 323.5t-446.5 119t-446.5 -119t-323.5 -323.5t-119 -446.5t119 -446.5t323.5 -323.5t446.5 -119zM723 1225v-760h782v-64h-852v824h70z" />
    <glyph glyph-name="uni01B6" unicode="&#x1b6;" horiz-adv-x="2048" 
d="M1024 1720q192 0 366 -74.5t300.5 -201t201 -300.5t74.5 -366t-74.5 -366t-201 -300.5t-300.5 -201t-366 -74.5t-366 74.5t-300.5 201t-201 300.5t-74.5 366t74.5 366t201 300.5t300.5 201t366 74.5zM1024 -111q242 0 446.5 119t323.5 323.5t119 446.5t-119 446.5
t-323.5 323.5t-446.5 119t-446.5 -119t-323.5 -323.5t-119 -446.5t119 -446.5t323.5 -323.5t446.5 -119zM670 1106v-698h792v-64h-862v825h844v-63h-774z" />
    <glyph glyph-name="uni01B7" unicode="&#x1b7;" horiz-adv-x="2048" 
d="M1024 1720q192 0 366 -74.5t300.5 -201t201 -300.5t74.5 -366t-74.5 -366t-201 -300.5t-300.5 -201t-366 -74.5t-366 74.5t-300.5 201t-201 300.5t-74.5 366t74.5 366t201 300.5t300.5 201t366 74.5zM1024 -111q242 0 446.5 119t323.5 323.5t119 446.5t-119 446.5
t-323.5 323.5t-446.5 119t-446.5 -119t-323.5 -323.5t-119 -446.5t119 -446.5t323.5 -323.5t446.5 -119zM668 745v-352h833v-63h-901v479h776v354h-782v64h850v-482h-776z" />
    <glyph glyph-name="uni01B8" unicode="&#x1b8;" horiz-adv-x="2048" 
d="M1966 778q0 -192 -74.5 -366t-201 -300.5t-300.5 -201t-366 -74.5t-366 74.5t-300.5 201t-201 300.5t-74.5 366t74.5 366t201 300.5t300.5 201t366 74.5t366 -74.5t300.5 -201t201 -300.5t74.5 -366zM1024 1667q-242 0 -446.5 -119t-323.5 -323.5t-119 -446.5t119 -446.5
t323.5 -323.5t446.5 -119t446.5 119t323.5 323.5t119 446.5t-119 446.5t-323.5 323.5t-446.5 119zM598 1133h844v-793h-844v793zM1372 1069h-704v-666h704v666z" />
    <glyph glyph-name="uni01B9" unicode="&#x1b9;" horiz-adv-x="2048" 
d="M1966 778q0 -192 -74.5 -366t-201 -300.5t-300.5 -201t-366 -74.5t-366 74.5t-300.5 201t-201 300.5t-74.5 366t74.5 366t201 300.5t300.5 201t366 74.5t366 -74.5t300.5 -201t201 -300.5t74.5 -366zM1024 1667q-242 0 -446.5 -119t-323.5 -323.5t-119 -446.5t119 -446.5
t323.5 -323.5t446.5 -119t446.5 119t323.5 323.5t119 446.5t-119 446.5t-323.5 323.5t-446.5 119zM588 1190h69v-363h715v363h70v-891h-854v891zM657 764v-402h715v402h-715z" />
    <glyph glyph-name="uni01BA" unicode="&#x1ba;" horiz-adv-x="2048" 
d="M1024 1720q192 0 366 -74.5t300.5 -201t201 -300.5t74.5 -366t-74.5 -366t-201 -300.5t-300.5 -201t-366 -74.5t-366 74.5t-300.5 201t-201 300.5t-74.5 366t74.5 366t201 300.5t300.5 201t366 74.5zM1024 -111q242 0 446.5 119t323.5 323.5t119 446.5t-119 446.5
t-323.5 323.5t-446.5 119t-446.5 -119t-323.5 -323.5t-119 -446.5t119 -446.5t323.5 -323.5t446.5 -119zM1057 1204v-289q0 -154 138.5 -298.5t326.5 -208.5l-39 -58q-158 58 -283 169.5t-178 248.5q-49 -139 -169.5 -251.5t-277.5 -170.5l-40 60q186 64 319 208t133 301
v289h70z" />
    <glyph glyph-name="uni01BB" unicode="&#x1bb;" horiz-adv-x="2048" 
d="M1966 778q0 -192 -74.5 -366t-201 -300.5t-300.5 -201t-366 -74.5t-366 74.5t-300.5 201t-201 300.5t-74.5 366t74.5 366t201 300.5t300.5 201t366 74.5t366 -74.5t300.5 -201t201 -300.5t74.5 -366zM1024 1667q-242 0 -446.5 -119t-323.5 -323.5t-119 -446.5t119 -446.5
t323.5 -323.5t446.5 -119t446.5 119t323.5 323.5t119 446.5t-119 446.5t-323.5 323.5t-446.5 119zM1020 1145q197 0 320.5 -111t123.5 -289t-123.5 -288.5t-320.5 -110.5t-321 110.5t-124 288.5t124 289t321 111zM1020 1090q-163 0 -271 -99.5t-108 -245.5q0 -144 108 -243
t271 -99t271 99t108 243q0 146 -108 245.5t-271 99.5z" />
    <glyph glyph-name="uni01BC" unicode="&#x1bc;" horiz-adv-x="2048" 
d="M1024 1720q192 0 366 -74.5t300.5 -201t201 -300.5t74.5 -366t-74.5 -366t-201 -300.5t-300.5 -201t-366 -74.5t-366 74.5t-300.5 201t-201 300.5t-74.5 366t74.5 366t201 300.5t300.5 201t366 74.5zM1024 -111q242 0 446.5 119t323.5 323.5t119 446.5t-119 446.5
t-323.5 323.5t-446.5 119t-446.5 -119t-323.5 -323.5t-119 -446.5t119 -446.5t323.5 -323.5t446.5 -119zM1057 1067v-139q0 -156 134.5 -292t324.5 -190l-39 -59q-160 53 -282.5 154.5t-172.5 232.5q-50 -131 -172.5 -232.5t-282.5 -154.5l-39 59q190 54 324.5 190
t134.5 292v139h-407v63h890v-63h-413z" />
    <glyph glyph-name="uni01BD" unicode="&#x1bd;" horiz-adv-x="2048" 
d="M1024 1720q192 0 366 -74.5t300.5 -201t201 -300.5t74.5 -366t-74.5 -366t-201 -300.5t-300.5 -201t-366 -74.5t-366 74.5t-300.5 201t-201 300.5t-74.5 366t74.5 366t201 300.5t300.5 201t366 74.5zM1024 -111q242 0 446.5 119t323.5 323.5t119 446.5t-119 446.5
t-323.5 323.5t-446.5 119t-446.5 -119t-323.5 -323.5t-119 -446.5t119 -446.5t323.5 -323.5t446.5 -119zM1059 954v-82q0 -144 125 -270t307 -182l-37 -60q-152 49 -266 148t-164 223q-50 -124 -164 -223t-266 -148l-37 60q182 56 307 182t125 270v82h-407v64h407v258h70
v-258h414v-64h-414z" />
    <glyph glyph-name="uni01BE" unicode="&#x1be;" horiz-adv-x="2048" 
d="M1024 1720q192 0 366 -74.5t300.5 -201t201 -300.5t74.5 -366t-74.5 -366t-201 -300.5t-300.5 -201t-366 -74.5t-366 74.5t-300.5 201t-201 300.5t-74.5 366t74.5 366t201 300.5t300.5 201t366 74.5zM1024 -111q242 0 446.5 119t323.5 323.5t119 446.5t-119 446.5
t-323.5 323.5t-446.5 119t-446.5 -119t-323.5 -323.5t-119 -446.5t119 -446.5t323.5 -323.5t446.5 -119zM600 1083v64h852v-852h-70v420l-817 -51l-16 73l833 41v305h-782z" />
    <glyph glyph-name="uni01BF" unicode="&#x1bf;" horiz-adv-x="2048" 
d="M1024 1720q192 0 366 -74.5t300.5 -201t201 -300.5t74.5 -366t-74.5 -366t-201 -300.5t-300.5 -201t-366 -74.5t-366 74.5t-300.5 201t-201 300.5t-74.5 366t74.5 366t201 300.5t300.5 201t366 74.5zM1024 -111q242 0 446.5 119t323.5 323.5t119 446.5t-119 446.5
t-323.5 323.5t-446.5 119t-446.5 -119t-323.5 -323.5t-119 -446.5t119 -446.5t323.5 -323.5t446.5 -119zM670 707v-316h792v-63h-862v827h844v-63h-774v-322h772v-63h-772z" />
    <glyph glyph-name="uni01C0" unicode="&#x1c0;" horiz-adv-x="2048" 
d="M1024 1720q192 0 366 -74.5t300.5 -201t201 -300.5t74.5 -366t-74.5 -366t-201 -300.5t-300.5 -201t-366 -74.5t-366 74.5t-300.5 201t-201 300.5t-74.5 366t74.5 366t201 300.5t300.5 201t366 74.5zM1024 -111q242 0 446.5 119t323.5 323.5t119 446.5t-119 446.5
t-323.5 323.5t-446.5 119t-446.5 -119t-323.5 -323.5t-119 -446.5t119 -446.5t323.5 -323.5t446.5 -119zM1278 1047v-601h252v-63h-1026v63h254v601h-205v63h930v-63h-205zM827 1047v-601h381v601h-381z" />
    <glyph glyph-name="uni01C1" unicode="&#x1c1;" horiz-adv-x="2048" 
d="M1024 1720q192 0 366 -74.5t300.5 -201t201 -300.5t74.5 -366t-74.5 -366t-201 -300.5t-300.5 -201t-366 -74.5t-366 74.5t-300.5 201t-201 300.5t-74.5 366t74.5 366t201 300.5t300.5 201t366 74.5zM1024 -111q242 0 446.5 119t323.5 323.5t119 446.5t-119 446.5
t-323.5 323.5t-446.5 119t-446.5 -119t-323.5 -323.5t-119 -446.5t119 -446.5t323.5 -323.5t446.5 -119zM1057 1290v-233h491v-64h-1056v64h495v233h70zM1024 856q156 0 263.5 -92.5t107.5 -231.5q0 -141 -107 -232t-264 -91t-264 91t-107 232q0 139 107.5 231.5t263.5 92.5
zM1024 270q127 0 213 76.5t86 185.5t-86 186t-213 77t-213 -77t-86 -186t86 -185.5t213 -76.5z" />
    <glyph glyph-name="uni01C2" unicode="&#x1c2;" horiz-adv-x="2048" 
d="M1024 1720q192 0 366 -74.5t300.5 -201t201 -300.5t74.5 -366t-74.5 -366t-201 -300.5t-300.5 -201t-366 -74.5t-366 74.5t-300.5 201t-201 300.5t-74.5 366t74.5 366t201 300.5t300.5 201t366 74.5zM1024 -111q242 0 446.5 119t323.5 323.5t119 446.5t-119 446.5
t-323.5 323.5t-446.5 119t-446.5 -119t-323.5 -323.5t-119 -446.5t119 -446.5t323.5 -323.5t446.5 -119zM1438 889h286v-64h-286v-768h-70v1465h70v-633zM436 1303h588q0 -292 -162.5 -557t-449.5 -451l-47 55q259 164 415.5 396t173.5 493h-518v64z" />
    <glyph glyph-name="uni01C3" unicode="&#x1c3;" horiz-adv-x="2048" 
d="M1024 1720q192 0 366 -74.5t300.5 -201t201 -300.5t74.5 -366t-74.5 -366t-201 -300.5t-300.5 -201t-366 -74.5t-366 74.5t-300.5 201t-201 300.5t-74.5 366t74.5 366t201 300.5t300.5 201t366 74.5zM1024 -111q242 0 446.5 119t323.5 323.5t119 446.5t-119 446.5
t-323.5 323.5t-446.5 119t-446.5 -119t-323.5 -323.5t-119 -446.5t119 -446.5t323.5 -323.5t446.5 -119zM1458 889h271v-64h-271v-768h-69v1465h69v-633zM477 446h39q368 0 694 70l13 -65q-341 -70 -707 -70h-108v913h69v-848z" />
    <glyph glyph-name="uni01C4" unicode="&#x1c4;" horiz-adv-x="2048" 
d="M1024 1720q192 0 366 -74.5t300.5 -201t201 -300.5t74.5 -366t-74.5 -366t-201 -300.5t-300.5 -201t-366 -74.5t-366 74.5t-300.5 201t-201 300.5t-74.5 366t74.5 366t201 300.5t300.5 201t366 74.5zM1024 -111q242 0 446.5 119t323.5 323.5t119 446.5t-119 446.5
t-323.5 323.5t-446.5 119t-446.5 -119t-323.5 -323.5t-119 -446.5t119 -446.5t323.5 -323.5t446.5 -119zM1452 827h272v-63h-272v-707h-70v1465h70v-695zM471 459h41q237 0 388 10.5t312 44.5l13 -63q-167 -35 -325 -46.5t-388 -11.5h-111v899h697v-63h-627v-770z" />
    <glyph glyph-name="uni01C5" unicode="&#x1c5;" horiz-adv-x="2048" 
d="M1024 1720q192 0 366 -74.5t300.5 -201t201 -300.5t74.5 -366t-74.5 -366t-201 -300.5t-300.5 -201t-366 -74.5t-366 74.5t-300.5 201t-201 300.5t-74.5 366t74.5 366t201 300.5t300.5 201t366 74.5zM1024 -111q242 0 446.5 119t323.5 323.5t119 446.5t-119 446.5
t-323.5 323.5t-446.5 119t-446.5 -119t-323.5 -323.5t-119 -446.5t119 -446.5t323.5 -323.5t446.5 -119zM1438 889h286v-64h-286v-768h-70v1465h70v-633zM457 438h37q226 0 373 11t307 45l6 -64q-166 -32 -317.5 -43.5t-368.5 -11.5h-105v536h572v353h-578v63h645v-479h-571
v-410z" />
    <glyph glyph-name="uni01C6" unicode="&#x1c6;" horiz-adv-x="2048" 
d="M1024 1720q192 0 366 -74.5t300.5 -201t201 -300.5t74.5 -366t-74.5 -366t-201 -300.5t-300.5 -201t-366 -74.5t-366 74.5t-300.5 201t-201 300.5t-74.5 366t74.5 366t201 300.5t300.5 201t366 74.5zM1024 -111q242 0 446.5 119t323.5 323.5t119 446.5t-119 446.5
t-323.5 323.5t-446.5 119t-446.5 -119t-323.5 -323.5t-119 -446.5t119 -446.5t323.5 -323.5t446.5 -119zM1438 889h286v-64h-286v-768h-70v1465h70v-633zM406 403v924h630v-924h-630zM479 1260v-791h484v791h-484z" />
    <glyph glyph-name="uni01C7" unicode="&#x1c7;" horiz-adv-x="2048" 
d="M1024 1720q192 0 366 -74.5t300.5 -201t201 -300.5t74.5 -366t-74.5 -366t-201 -300.5t-300.5 -201t-366 -74.5t-366 74.5t-300.5 201t-201 300.5t-74.5 366t74.5 366t201 300.5t300.5 201t366 74.5zM1024 -111q242 0 446.5 119t323.5 323.5t119 446.5t-119 446.5
t-323.5 323.5t-446.5 119t-446.5 -119t-323.5 -323.5t-119 -446.5t119 -446.5t323.5 -323.5t446.5 -119zM1446 889h278v-64h-278v-768h-70v1465h70v-633zM981 958v402h70v-1012h-648v1012h70v-402h508zM981 414v479h-508v-479h508z" />
    <glyph glyph-name="uni01C8" unicode="&#x1c8;" horiz-adv-x="2048" 
d="M1024 1720q192 0 366 -74.5t300.5 -201t201 -300.5t74.5 -366t-74.5 -366t-201 -300.5t-300.5 -201t-366 -74.5t-366 74.5t-300.5 201t-201 300.5t-74.5 366t74.5 366t201 300.5t300.5 201t366 74.5zM1024 -111q242 0 446.5 119t323.5 323.5t119 446.5t-119 446.5
t-323.5 323.5t-446.5 119t-446.5 -119t-323.5 -323.5t-119 -446.5t119 -446.5t323.5 -323.5t446.5 -119zM1438 889h286v-64h-286v-768h-70v1465h70v-633zM770 1393v-236q0 -227 114 -429t294 -296l-50 -55q-142 80 -244.5 222t-146.5 321q-44 -179 -146.5 -321t-244.5 -222
l-49 55q181 94 294.5 295.5t113.5 429.5v236h65z" />
    <glyph glyph-name="uni01C9" unicode="&#x1c9;" horiz-adv-x="2048" 
d="M1024 1720q192 0 366 -74.5t300.5 -201t201 -300.5t74.5 -366t-74.5 -366t-201 -300.5t-300.5 -201t-366 -74.5t-366 74.5t-300.5 201t-201 300.5t-74.5 366t74.5 366t201 300.5t300.5 201t366 74.5zM1024 -111q242 0 446.5 119t323.5 323.5t119 446.5t-119 446.5
t-323.5 323.5t-446.5 119t-446.5 -119t-323.5 -323.5t-119 -446.5t119 -446.5t323.5 -323.5t446.5 -119zM1417 889h287v-64h-287v-768h-69v1465h69v-633zM721 1364q155 0 247.5 -135.5t92.5 -364.5t-92.5 -364t-247.5 -135t-247.5 135t-92.5 364t92.5 364.5t247.5 135.5z
M721 426q123 0 196.5 122.5t73.5 315.5q0 191 -74 315t-196 124t-196 -124t-74 -315q0 -193 73.5 -315.5t196.5 -122.5z" />
    <glyph glyph-name="uni01CA" unicode="&#x1ca;" horiz-adv-x="2048" 
d="M1024 1720q192 0 366 -74.5t300.5 -201t201 -300.5t74.5 -366t-74.5 -366t-201 -300.5t-300.5 -201t-366 -74.5t-366 74.5t-300.5 201t-201 300.5t-74.5 366t74.5 366t201 300.5t300.5 201t366 74.5zM1024 -111q242 0 446.5 119t323.5 323.5t119 446.5t-119 446.5
t-323.5 323.5t-446.5 119t-446.5 -119t-323.5 -323.5t-119 -446.5t119 -446.5t323.5 -323.5t446.5 -119zM1442 889h282v-64h-282v-768h-70v1465h70v-633zM813 1262v-218q0 -178 107.5 -342t279.5 -241l-43 -53q-138 65 -236.5 184.5t-140.5 265.5q-42 -146 -140.5 -265.5
t-236.5 -184.5l-43 55q113 48 202.5 141.5t137.5 209t48 230.5v218h-349v65h764v-65h-350z" />
    <glyph glyph-name="uni01CB" unicode="&#x1cb;" horiz-adv-x="2048" 
d="M1024 1720q192 0 366 -74.5t300.5 -201t201 -300.5t74.5 -366t-74.5 -366t-201 -300.5t-300.5 -201t-366 -74.5t-366 74.5t-300.5 201t-201 300.5t-74.5 366t74.5 366t201 300.5t300.5 201t366 74.5zM1024 -111q242 0 446.5 119t323.5 323.5t119 446.5t-119 446.5
t-323.5 323.5t-446.5 119t-446.5 -119t-323.5 -323.5t-119 -446.5t119 -446.5t323.5 -323.5t446.5 -119zM1438 889h286v-64h-286v-768h-70v1465h70v-633zM799 1087v-143q0 -154 108 -299.5t277 -210.5l-43 -59q-136 60 -235 165t-140 234q-43 -131 -140.5 -235.5
t-236.5 -163.5l-41 59q169 65 277 210.5t108 299.5v143h-338v64h336v252h70v-252h319v-64h-321z" />
    <glyph glyph-name="uni01CC" unicode="&#x1cc;" horiz-adv-x="2048" 
d="M1024 1720q192 0 366 -74.5t300.5 -201t201 -300.5t74.5 -366t-74.5 -366t-201 -300.5t-300.5 -201t-366 -74.5t-366 74.5t-300.5 201t-201 300.5t-74.5 366t74.5 366t201 300.5t300.5 201t366 74.5zM1024 -111q242 0 446.5 119t323.5 323.5t119 446.5t-119 446.5
t-323.5 323.5t-446.5 119t-446.5 -119t-323.5 -323.5t-119 -446.5t119 -446.5t323.5 -323.5t446.5 -119zM1438 848h286v-64h-286v-727h-70v1465h70v-674zM457 1307h620q0 -204 -65.5 -386.5t-209.5 -347t-360 -284.5l-53 49q383 196 533 543l-541 -54l-23 70l588 47
q54 164 60 299h-549v64z" />
    <glyph glyph-name="uni01CD" unicode="&#x1cd;" horiz-adv-x="2048" 
d="M1024 1720q192 0 366 -74.5t300.5 -201t201 -300.5t74.5 -366t-74.5 -366t-201 -300.5t-300.5 -201t-366 -74.5t-366 74.5t-300.5 201t-201 300.5t-74.5 366t74.5 366t201 300.5t300.5 201t366 74.5zM1024 -111q242 0 446.5 119t323.5 323.5t119 446.5t-119 446.5
t-323.5 323.5t-446.5 119t-446.5 -119t-323.5 -323.5t-119 -446.5t119 -446.5t323.5 -323.5t446.5 -119zM1438 889h286v-64h-286v-768h-70v1465h70v-633zM451 467h41q236 0 391.5 11t322.5 46l11 -65q-174 -35 -331.5 -46.5t-393.5 -11.5h-111v959h688v-68h-618v-364h567
v-66h-567v-395z" />
    <glyph glyph-name="uni01CE" unicode="&#x1ce;" horiz-adv-x="2048" 
d="M1024 1720q192 0 366 -74.5t300.5 -201t201 -300.5t74.5 -366t-74.5 -366t-201 -300.5t-300.5 -201t-366 -74.5t-366 74.5t-300.5 201t-201 300.5t-74.5 366t74.5 366t201 300.5t300.5 201t366 74.5zM1024 -111q242 0 446.5 119t323.5 323.5t119 446.5t-119 446.5
t-323.5 323.5t-446.5 119t-446.5 -119t-323.5 -323.5t-119 -446.5t119 -446.5t323.5 -323.5t446.5 -119zM1458 889h277v-64h-277v-768h-69v1465h69v-633zM981 1233v-756q171 11 272 23l2 -56q-371 -53 -960 -53l-12 68q164 0 260 2v772h-195v63h823v-63h-190zM612 1233v-770
q201 4 299 10v760h-299z" />
    <glyph glyph-name="uni01CF" unicode="&#x1cf;" horiz-adv-x="2048" 
d="M1024 1720q192 0 366 -74.5t300.5 -201t201 -300.5t74.5 -366t-74.5 -366t-201 -300.5t-300.5 -201t-366 -74.5t-366 74.5t-300.5 201t-201 300.5t-74.5 366t74.5 366t201 300.5t300.5 201t366 74.5zM1024 -111q242 0 446.5 119t323.5 323.5t119 446.5t-119 446.5
t-323.5 323.5t-446.5 119t-446.5 -119t-323.5 -323.5t-119 -446.5t119 -446.5t323.5 -323.5t446.5 -119zM1458 889h273v-64h-273v-768h-69v1465h69v-633zM825 1415v-231h398v-64h-881v64h414v231h69zM782 975q144 0 240 -85.5t96 -219.5q0 -135 -95.5 -219t-240.5 -84
t-240.5 84t-95.5 219q0 134 96 219.5t240 85.5zM782 422q116 0 194.5 72t78.5 176q0 105 -78.5 177.5t-194.5 72.5t-194 -72.5t-78 -177.5q0 -104 78 -176t194 -72z" />
    <glyph glyph-name="uni01D0" unicode="&#x1d0;" horiz-adv-x="2048" 
d="M82 750v28q0 192 74.5 366t201 300.5t300.5 201t366 74.5q175 0 337 -63t285 -171t205.5 -258.5t104.5 -320.5h-53q-29 212 -153 386t-315.5 274t-410.5 100q-178 0 -340 -68t-280 -183.5t-190.5 -274.5t-78.5 -334h363v-57h-416zM684 268v1047h80v-578h4l553 578h94
l-364 -387l405 -660h-88l-371 604l-233 -239v-365h-80zM1024 -164q-176 0 -338 62.5t-284.5 171t-205 258.5t-106.5 321h53q33 -213 156 -386.5t314 -273.5t411 -100q177 0 338.5 67.5t280 182t190.5 274.5t78 337h-529v57h584v-29q0 -193 -75 -367.5t-202 -300.5t-301 -200
t-364 -74z" />
    <glyph glyph-name="uni01D1" unicode="&#x1d1;" horiz-adv-x="2048" 
d="M444 -27q-128 0 -209 73t-81 218q0 177 149.5 271.5t476.5 136.5q2 55 -3.5 105t-23 98.5t-45 84t-72.5 57t-104 21.5q-157 0 -288 -131l-39 58q166 139 334 139q83 0 145 -32t98 -89.5t53 -128.5t17 -156v-698h-61l-11 143h-4q-167 -170 -332 -170zM1151 0v1077h61
l5 -131h8q39 79 85.5 117.5t114.5 38.5q67 0 102 -43t54 -125q79 168 201 168q180 0 180 -287v-815h-74v807q0 115 -31 172t-88 57q-53 0 -93 -46.5t-83 -149.5v-840h-73v807q0 229 -111 229q-53 0 -96.5 -47.5t-87.5 -148.5v-840h-74zM451 41q84 0 161.5 44t167.5 138v387
q-301 -40 -426 -120.5t-125 -221.5q0 -117 61.5 -172t160.5 -55z" />
    <glyph glyph-name="uni01D2" unicode="&#x1d2;" horiz-adv-x="2048" 
d="M580 -25q-203 0 -330 200.5t-127 569.5q0 187 36.5 335t100.5 241t147.5 141.5t180.5 48.5q160 0 274 -155l-53 -53q-93 139 -221 139q-168 0 -275.5 -180t-107.5 -517q0 -339 104 -519.5t275 -180.5q77 0 137.5 38.5t120.5 125.5l53 -45q-69 -97 -142 -143t-173 -46z
M1360 -25q-156 0 -256 145.5t-100 416.5q0 274 100 419.5t256 145.5q155 0 255.5 -146t100.5 -419q0 -271 -101 -416.5t-255 -145.5zM1360 41q121 0 199.5 132.5t78.5 363.5q0 230 -78.5 364.5t-199.5 134.5t-200 -134.5t-79 -364.5q0 -231 79 -363.5t200 -132.5zM1884 -25
q-33 0 -57.5 23t-24.5 63q0 41 25 68t57 27t57 -27t25 -68q0 -40 -24.5 -63t-57.5 -23z" />
    <glyph glyph-name="uni01D3" unicode="&#x1d3;" horiz-adv-x="2048" 
d="M1151 0v1077h61l5 -131h8q39 79 85.5 117.5t114.5 38.5q67 0 102 -43t54 -125q79 168 201 168q180 0 180 -287v-815h-74v807q0 115 -31 172t-88 57q-53 0 -93 -46.5t-83 -149.5v-840h-73v807q0 229 -111 229q-53 0 -96.5 -47.5t-87.5 -148.5v-840h-74zM180 -459v1536h62
l12 -139h4q64 76 139.5 120t151.5 44q174 0 263 -145.5t89 -403.5q0 -133 -31.5 -244t-85.5 -184.5t-126 -113.5t-154 -40q-129 0 -250 135v-565h-74zM254 848v-664q120 -143 254 -143q136 0 225.5 144t89.5 368q0 107 -15 192t-47 151.5t-88 103t-132 36.5
q-144 0 -287 -188z" />
    <glyph glyph-name="uni01D4" unicode="&#x1d4;" 
d="M1810 893v-62h-327v-968h-68v1808h68v-778h327zM229 1468h803q0 -184 -51.5 -358t-153.5 -333t-262 -298t-368 -243l-37 57q374 186 580.5 478t224.5 636h-736v61z" />
    <glyph glyph-name="uni01D5" unicode="&#x1d5;" 
d="M1798 1176v-62h-295v-514h-67v1069h67v-493h295zM211 1540h813q0 -317 -228.5 -552t-627.5 -353l-29 59q363 105 578 308t235 477h-741v61zM362 446v62h1141v-645h-67v583h-1074z" />
    <glyph glyph-name="uni01D6" unicode="&#x1d6;" 
d="M1503 1077h295v-61h-295v-694h-67v1349h67v-594zM207 1526h817q0 -163 -63 -313t-177.5 -271.5t-270.5 -218t-345 -162.5l-29 60q348 117 569.5 340t241.5 503h-743v62zM485 459v-486h1117v-61h-1184v547h67z" />
    <glyph glyph-name="uni01D7" unicode="&#x1d7;" 
d="M1503 1184h295v-62h-295v-493h-67v1040h67v-485zM211 1540h815q0 -317 -231 -556t-629 -351l-27 57q363 104 578 308.5t235 480.5h-741v61zM473 451v-498h1067v-62h-1134v621h1101v-61h-1034z" />
    <glyph glyph-name="uni01D8" unicode="&#x1d8;" 
d="M1503 1219h295v-62h-295v-426h-67v940h67v-452zM205 1561h815q0 -157 -62 -296t-176 -247.5t-269 -191t-345 -134.5l-31 60q357 92 574.5 286t234.5 461h-741v62zM475 244v-301h1106v-62h-1171v424h1028v273h-1035v61h1100v-395h-1028z" />
    <glyph glyph-name="uni01D9" unicode="&#x1d9;" 
d="M1800 1208v-61h-297v-465h-67v987h67v-461h297zM211 1554h809q0 -208 -108.5 -383.5t-298.5 -298.5t-447 -192l-29 59q358 96 573.5 291t235.5 463h-735v61zM393 -53h29q196 0 324.5 8t271.5 35l10 -62q-151 -27 -282.5 -36t-323.5 -9h-94v402h501v247h-507v62h573v-369
h-502v-278zM975 532v62h528v-725h-67v663h-461z" />
    <glyph glyph-name="uni01DA" unicode="&#x1da;" 
d="M1798 1204v-61h-295v-461h-67v987h67v-465h295zM213 1554h807q0 -157 -62 -295.5t-176 -247.5t-269 -191t-345 -134l-31 59q358 93 573.5 286.5t235.5 461.5h-733v61zM365 -53h18q182 0 286 6t222 29l10 -62q-124 -23 -233 -30t-285 -7h-84v408h477v241h-483v62h549v-365
h-477v-282zM969 -125v719h534v-719h-534zM1034 535v-601h404v601h-404z" />
    <glyph glyph-name="uni01DB" unicode="&#x1db;" 
d="M1798 1223v-62h-295v-467h-67v977h67v-448h295zM213 1565h807q0 -157 -62 -296t-176 -247.5t-269 -191t-345 -134.5l-31 60q358 93 573.5 286t235.5 461h-733v62zM1436 340v276h67v-725h-545v725h68v-276h410zM362 -43h19q172 0 281 7.5t229 31.5l8 -64
q-124 -23 -232.5 -30.5t-285.5 -7.5h-84v399h477v239h-483v62h549v-361h-478v-276zM1436 -47v326h-410v-326h410z" />
    <glyph glyph-name="uni01DC" unicode="&#x1dc;" 
d="M1798 1184v-62h-295v-493h-67v1040h67v-485h295zM211 1540h815q0 -317 -231 -556t-629 -351l-27 59q364 105 578.5 307.5t234.5 479.5h-741v61zM401 -106v636h1102v-636h-1102zM469 469v-514h967v514h-967z" />
    <glyph glyph-name="uni01DD" unicode="&#x1dd;" 
d="M1798 1204v-61h-295v-449h-67v977h67v-467h295zM205 1548h819q0 -158 -61.5 -297.5t-174 -250t-269.5 -193.5t-351 -135l-29 57q358 96 574.5 293t236.5 465h-745v61zM1436 317v283h67v-709h-1104v709h68v-283h969zM1436 -49v307h-969v-307h969z" />
    <glyph glyph-name="uni01DE" unicode="&#x1de;" 
d="M1503 1212h295v-61h-295v-465h-67v985h67v-459zM213 1548h811q0 -210 -107.5 -386t-299 -299t-451.5 -191l-27 59q359 97 576.5 292.5t234.5 463.5h-737v61zM1382 606v-160q0 -92 38.5 -192t117 -191t180.5 -141l-41 -53q-123 63 -205.5 171t-121.5 239
q-37 -129 -121.5 -237.5t-208.5 -172.5l-41 53q101 47 180 137t118.5 189.5t39.5 191.5v166h65zM858 324v268h68v-705h-586v705h68v-268h450zM858 -51v313h-450v-313h450z" />
    <glyph glyph-name="uni01DF" unicode="&#x1df;" 
d="M1581 1126h217v-61h-217v-600h-68v600h-28v61h28v549h68v-549zM211 1526h813q0 -321 -229 -570t-619 -374l-33 57q357 112 574.5 329.5t234.5 495.5h-741v62zM1022 608v-106q0 -91 42 -175t108 -145.5t152 -112.5t169 -83t164 -49l-31 -56q-74 19 -147 46.5t-151 69.5
t-142.5 92t-118 117.5t-80.5 141.5q-33 -95 -104.5 -176.5t-164.5 -138.5t-186 -95.5t-190 -62.5l-31 55q81 17 165.5 49t171.5 83.5t154 114t109.5 147.5t42.5 178v106h68z" />
    <glyph glyph-name="uni01E0" unicode="&#x1e0;" 
d="M1503 1171h295v-61h-295v-459h-67v1022h67v-502zM211 1540h815q0 -317 -230.5 -556t-629.5 -351l-25 57q362 103 578 308.5t233 480.5h-741v61zM1348 582v-176q0 -139 113 -273.5t278 -191.5l-35 -56q-139 55 -242.5 154.5t-144.5 220.5q-39 -120 -126 -225t-210 -164
q-131 54 -219 156t-121 229q-44 -118 -147.5 -217.5t-237.5 -153.5l-35 56q161 61 276 198.5t115 266.5v176h64v-176q0 -135 82.5 -265.5t220.5 -197.5q135 74 220 211.5t85 251.5v176h64z" />
    <glyph glyph-name="uni01E1" unicode="&#x1e1;" 
d="M1503 1157h295v-61h-295v-541h-67v1116h67v-514zM211 1522h815q0 -321 -232 -568t-626 -368l-29 59q362 113 577.5 323.5t235.5 491.5h-741v62zM956 532q265 0 416.5 -87t151.5 -242t-151.5 -242.5t-416.5 -87.5t-417 87.5t-152 242.5t152 242t417 87zM956 -68
q226 0 364 74.5t138 196.5q0 121 -138 195.5t-364 74.5t-364.5 -74.5t-138.5 -195.5q0 -122 138.5 -196.5t364.5 -74.5z" />
    <glyph glyph-name="uni01E2" unicode="&#x1e2;" 
d="M1503 1159h295v-61h-295v-494h-67v1069h67v-514zM211 1540h813q0 -317 -230 -555t-628 -354l-27 59q363 104 578 308.5t235 480.5h-741v61zM999 440v-22q0 -72 40 -142.5t103.5 -126t144.5 -102.5t161.5 -78.5t155.5 -48.5l-31 -53q-88 22 -177.5 59.5t-176 89.5
t-154.5 123.5t-100 149.5q-32 -80 -100 -152t-154 -123.5t-175 -88.5t-176 -58l-32 53q75 17 155 48t161 78t144.5 102t103.5 125.5t40 144.5v22h-545v62h1155v-62h-543z" />
    <glyph glyph-name="uni01E3" unicode="&#x1e3;" 
d="M1503 1208h295v-61h-295v-481h-67v1003h67v-461zM209 1538h811q0 -315 -226.5 -549t-621.5 -346l-33 59q365 99 577.5 300.5t229.5 474.5h-737v61zM995 422v-6q0 -89 61.5 -175.5t155.5 -150t197.5 -108.5t196.5 -64l-33 -55q-88 22 -177.5 59.5t-177 90.5t-157 125
t-100.5 151q-31 -78 -100.5 -150t-156 -125t-176 -91t-176.5 -60l-35 55q93 19 196.5 64t197.5 108.5t155.5 150t61.5 175.5v6h-557v61h557v250h67v-250h559v-61h-559z" />
    <glyph glyph-name="uni01E4" unicode="&#x1e4;" 
d="M1503 1202h295v-61h-295v-457h-67v985h67v-467zM203 1538h821q0 -209 -107.5 -387.5t-298.5 -305.5t-450 -198l-29 62q358 95 574.5 296t236.5 472h-747v61zM479 219v-266h1080v-62h-1147v701h1104v-62h-1037v-249h1012v-62h-1012z" />
    <glyph glyph-name="uni01E5" unicode="&#x1e5;" 
d="M1503 1190h295v-62h-295v-491h-67v1030h67v-477zM211 1538h813q0 -158 -65.5 -301.5t-182 -256t-271.5 -198t-339 -139.5l-27 59q168 50 310 125t251 172t174.5 219.5t75.5 258.5h-739v61zM1280 473v-508h305v-61h-1220v61h301v508h-285v62h1184v-62h-285zM733 473v-508
h479v508h-479z" />
    <glyph glyph-name="Gcaron" unicode="&#x1e6;" 
d="M1503 1229h295v-62h-295v-465h-67v969h67v-442zM211 1546h815q0 -209 -107.5 -387.5t-299.5 -305.5t-451 -198l-29 62q359 96 576.5 296.5t234.5 471.5h-739v61zM1020 797v-250h590v-62h-1248v62h590v250h68zM987 373q231 0 360.5 -65t129.5 -187t-129.5 -187t-360.5 -65
q-236 0 -364.5 65t-128.5 187t128.5 187t364.5 65zM987 -74q199 0 311.5 51.5t112.5 143.5t-112.5 143t-311.5 51t-313.5 -51t-114.5 -143t114.5 -143.5t313.5 -51.5z" />
    <glyph glyph-name="gcaron" unicode="&#x1e7;" 
d="M1569 1671h67v-1808h-67v973h-334v-873h-68v1659h68v-725h334v774zM193 1425h692q0 -131 -22 -254.5t-73.5 -251t-130.5 -241t-199.5 -220.5t-273.5 -192l-41 53q139 74 250.5 169t187 197t127.5 217.5t77 229t30 232.5h-624v61z" />
    <glyph glyph-name="uni01E8" unicode="&#x1e8;" 
d="M1559 1669h67v-1071h-67v518h-326v-504h-68v1024h68v-458h326v491zM217 1528h694q0 -303 -187.5 -553t-522.5 -404l-41 54q304 137 483.5 355.5t196.5 485.5h-623v62zM455 438v62h1171v-637h-67v575h-1104z" />
    <glyph glyph-name="uni01E9" unicode="&#x1e9;" 
d="M1233 1016v-627h-68v1245h68v-557h326v590h67v-1348h-67v697h-326zM215 1489h694q0 -301 -188 -555t-524 -406l-39 54q304 136 484.5 357.5t197.5 487.5h-625v62zM555 -6h1135v-62h-1203v560h68v-498z" />
    <glyph glyph-name="uni01EA" unicode="&#x1ea;" 
d="M1233 1126v-487h-68v997h68v-448h326v481h67v-1044h-67v501h-326zM215 1528h696q0 -302 -189 -545.5t-521 -394.5l-43 55q303 128 484 342.5t198 480.5h-625v62zM547 -47h1114v-62h-1182v603h1157v-62h-1089v-479z" />
    <glyph glyph-name="uni01EB" unicode="&#x1eb;" 
d="M1233 1155v-420h-68v899h68v-417h326v452h67v-948h-67v434h-326zM217 1556h694q0 -291 -189.5 -521t-524.5 -359l-37 53q306 116 485.5 313.5t196.5 452.5h-625v61zM543 -47h1163v-62h-1229v418h1084v256h-1090v62h1155v-379h-1083v-295z" />
    <glyph glyph-name="uni01EC" unicode="&#x1ec;" 
d="M1559 1669h67v-1042h-67v499h-326v-487h-68v997h68v-448h326v481zM215 1528h696q0 -302 -189 -547.5t-521 -390.5l-43 53q302 129 483.5 345.5t198.5 477.5h-625v62zM479 -109v629h1147v-629h-1147zM547 459v-506h1012v506h-1012z" />
    <glyph glyph-name="uni01ED" unicode="&#x1ed;" 
d="M1559 1667h67v-985h-67v451h-326v-437h-68v938h68v-440h326v473zM217 1536h694q0 -310 -180.5 -538.5t-531.5 -370.5l-39 55q308 124 485.5 329.5t194.5 463.5h-623v61zM1561 326v268h65v-703h-1141v703h68v-268h1008zM1561 -47v311h-1008v-311h1008z" />
    <glyph glyph-name="uni01EE" unicode="&#x1ee;" 
d="M1233 1094v-445h-68v985h68v-479h326v512h67v-1182h-67v609h-326zM225 1489h686q0 -313 -180.5 -562.5t-531.5 -402.5l-39 56q644 274 680 847h-615v62zM1083 559v-104q0 -83 44.5 -161t114 -136.5t157.5 -107t172.5 -78.5t161.5 -46l-31 -55q-91 19 -187.5 57.5t-190 94
t-168 134t-107.5 165.5q-33 -87 -107.5 -165.5t-168.5 -134t-190.5 -94t-187.5 -57.5l-28 55q76 16 159.5 45.5t171.5 78.5t157.5 107t114 136.5t44.5 161.5v104h69z" />
    <glyph glyph-name="uni01EF" unicode="&#x1ef;" 
d="M1233 1116v-493h-68v1013h68v-458h326v491h67v-1061h-67v508h-326zM219 1528h692q0 -299 -189 -543t-521 -395l-41 55q303 129 483 343t197 478h-621v62zM1380 543v-160q0 -139 113 -272t279 -195l-35 -55q-141 54 -243.5 154t-143.5 223q-39 -120 -126 -225.5
t-210 -164.5q-131 54 -219 156t-121 229q-48 -118 -150 -217.5t-235 -154.5l-35 55q162 61 276.5 198.5t114.5 268.5v160h64v-160q0 -137 82 -267.5t221 -197.5q134 73 219.5 212t85.5 253v160h63z" />
    <glyph glyph-name="uni01F0" unicode="&#x1f0;" 
d="M1233 1085v-483h-68v1032h68v-487h326v522h67v-1137h-67v553h-326zM217 1505h694q0 -302 -189 -545.5t-521 -394.5l-41 53q302 129 482.5 346t197.5 480h-623v61zM1053 508q290 0 445 -82t155 -236t-155 -236.5t-445 -82.5t-445 82.5t-155 236.5t155 236t445 82z
M1053 -70q240 0 386 71t146 189q0 117 -146 188t-386 71q-241 0 -387 -71t-146 -188q0 -118 145.5 -189t387.5 -71z" />
    <glyph glyph-name="uni01F1" unicode="&#x1f1;" 
d="M1806 1085h-323v-483h323v-61h-323v-678h-68v1808h68v-524h323v-62zM229 1468h803q0 -184 -51.5 -358t-153.5 -333t-262 -298t-368 -243l-37 57q374 186 580.5 478t224.5 636h-736v61z" />
    <glyph glyph-name="uni01F2" unicode="&#x1f2;" 
d="M1798 1294h-295v-327h295v-62h-295v-305h-67v1069h67v-313h295v-62zM211 1540h813q0 -212 -106 -392t-297.5 -309.5t-452.5 -203.5l-29 59q363 105 578 308t235 477h-741v61zM362 446v62h1141v-645h-67v583h-1074z" />
    <glyph glyph-name="uni01F3" unicode="&#x1f3;" 
d="M1798 1229h-295v-389h295v-62h-295v-456h-67v1349h67v-381h295v-61zM207 1526h817q0 -163 -63.5 -313.5t-177.5 -272.5t-270.5 -219t-344.5 -160l-29 57q170 57 313.5 142t251 192t172 238.5t74.5 273.5h-743v62zM485 459v-486h1117v-61h-1184v547h67z" />
    <glyph glyph-name="uni01F4" unicode="&#x1f4;" 
d="M1798 1337h-295v-299h295v-61h-295v-246h-67v940h67v-272h295v-62zM205 1561h815q0 -157 -62 -296t-176 -247.5t-269 -191t-345 -134.5l-31 60q357 92 574.5 286t234.5 461h-741v62zM475 244v-301h1106v-62h-1171v424h1028v273h-1035v61h1100v-395h-1028z" />
    <glyph glyph-name="uni01F5" unicode="&#x1f5;" 
d="M1800 1260h-297v-381h297v-62h-297v-356h-67v1210h67v-350h297v-61zM211 1526h813q0 -321 -229 -570t-619 -374l-33 57q357 112 574.5 329.5t234.5 495.5h-741v62zM1022 604v-106q0 -90 42 -174t109 -147t152.5 -114.5t170 -83.5t163.5 -47l-35 -53q-75 19 -148 46
t-151 68.5t-142 91.5t-116.5 117.5t-79.5 143.5q-33 -95 -104.5 -177t-164.5 -139t-186.5 -96t-189.5 -63l-31 55q81 17 165.5 49t171.5 83.5t154 114t109.5 147.5t42.5 178v106h68z" />
    <glyph glyph-name="uni01F6" unicode="&#x1f6;" 
d="M1798 1280h-295v-344h295v-62h-295v-319h-67v1116h67v-330h295v-61zM211 1522h815q0 -320 -231 -565t-627 -371l-29 59q360 113 576.5 324t236.5 491h-741v62zM956 532q265 0 416.5 -87t151.5 -242t-151.5 -242.5t-416.5 -87.5t-417 87.5t-152 242.5t152 242t417 87z
M956 -68q226 0 364 74.5t138 196.5q0 121 -138 195.5t-364 74.5t-364.5 -74.5t-138.5 -195.5q0 -122 138.5 -196.5t364.5 -74.5z" />
    <glyph glyph-name="uni01F7" unicode="&#x1f7;" 
d="M1569 1671h67v-1808h-67v725h-334v-625h-68v1659h68v-459h334v508zM193 1425h692q0 -131 -22 -254.5t-73.5 -251t-130.5 -241t-199.5 -220.5t-273.5 -192l-41 53q139 74 250.5 169t187 197t127.5 217.5t77 229t30 232.5h-624v61zM1235 649h334v453h-334v-453z" />
    <glyph glyph-name="uni01F8" unicode="&#x1f8;" 
d="M1233 782v-395h-68v1247h68v-342h326v375h67v-1348h-67v463h-326zM215 1489h694q0 -301 -188 -556t-524 -407l-39 54q304 136 484.5 358t197.5 489h-625v62zM1559 1231h-326v-387h326v387zM555 -6h1135v-62h-1203v557h68v-495z" />
    <glyph glyph-name="uni01F9" unicode="&#x1f9;" 
d="M1233 975v-242h-68v901h68v-252h326v287h67v-948h-67v254h-326zM217 1561h694q0 -294 -188.5 -525.5t-525.5 -365.5l-37 53q306 116 485.5 318.5t196.5 457.5h-625v62zM1559 1321h-326v-285h326v285zM543 -66h1163v-61h-1229v416h1084v268h-1090v61h1155v-391h-1083v-293
z" />
    <glyph glyph-name="Aringacute" unicode="&#x1fa;" 
d="M1559 1667h67v-983h-67v270h-326v-258h-68v938h68v-258h326v291zM217 1536h694q0 -307 -182 -537t-530 -372l-39 55q308 124 485.5 329.5t194.5 463.5h-623v61zM1233 1016h326v299h-326v-299zM1561 326v268h65v-703h-1141v703h68v-268h1008zM1561 -47v311h-1008v-311
h1008z" />
    <glyph glyph-name="aringacute" unicode="&#x1fb;" 
d="M1511 1671h68v-1808h-68v989h-495v61h495v758zM213 1468h801q0 -183 -50 -355.5t-149.5 -331.5t-259 -298t-369.5 -243l-45 53q193 93 343 217.5t248 268.5t151.5 302t62.5 326h-733v61z" />
    <glyph glyph-name="AEacute" unicode="&#x1fc;" 
d="M1513 1667h68v-1069h-68v502h-475v61h475v506zM240 1540h802q0 -159 -62 -302.5t-175.5 -258t-270.5 -203t-348 -143.5l-34 57q359 105 578 311t239 478h-729v61zM399 449v61h1182v-645h-68v584h-1114z" />
    <glyph glyph-name="aeacute" unicode="&#x1fd;" 
d="M1513 319v699h-473v61h473v590h68v-1350h-68zM242 1526h796q0 -162 -63 -312t-176.5 -272.5t-268.5 -219.5t-342 -163l-32 57q350 122 569.5 344.5t239.5 503.5h-723v62zM551 -27h1077v-61h-1145v547h68v-486z" />
    <glyph glyph-name="Oslashacute" unicode="&#x1fe;" 
d="M1038 1143h475v524h68v-1040h-68v454h-475v62zM240 1540h800q0 -159 -62.5 -302t-176 -258t-271 -203.5t-350.5 -143.5l-26 57q359 106 578.5 311t236.5 478h-729v61zM512 -47h1104v-62h-1172v617h1141v-62h-1073v-493z" />
    <glyph glyph-name="oslashacute" unicode="&#x1ff;" 
d="M1513 723v401h-471v62h471v485h68v-948h-68zM242 1561h794q0 -208 -109.5 -382.5t-298.5 -294.5t-444 -190l-28 60q354 93 572 287.5t235 457.5h-721v62zM522 -57h1143v-62h-1208v424h1059v266h-1065v62h1130v-387h-1059v-303z" />
    <glyph glyph-name="uni0200" unicode="&#x200;" 
d="M1513 1671h68v-977h-68v441h-477v61h477v475zM240 1561h794q0 -209 -109.5 -384.5t-298.5 -296t-444 -190.5l-28 58q355 94 572.5 288.5t234.5 462.5h-721v62zM420 -45h18q188 0 296 6t224 29l11 -62q-127 -23 -237 -30t-294 -7h-84v404h486v248h-492v61h557v-371h-485
v-278zM1040 -109v713h541v-713h-541zM1106 545v-594h410v594h-410z" />
    <glyph glyph-name="uni0201" unicode="&#x201;" 
d="M1513 1667h68v-1049h-68v488h-475v61h475v500zM240 1540h802q0 -159 -62 -302.5t-175.5 -257.5t-270.5 -202t-348 -143l-32 57q237 69 414 179t283.5 266.5t117.5 341.5h-729v61zM442 -106v645h1139v-645h-1139zM508 479v-524h1008v524h-1008z" />
    <glyph glyph-name="uni0202" unicode="&#x202;" 
d="M1511 1671h68v-969h-68v414h-469v62h469v493zM242 1548h798q0 -208 -109 -384t-300 -299.5t-449 -192.5l-28 59q361 97 578.5 292.5t234.5 463.5h-725v61zM1513 317v283h66v-709h-1133v709h68v-283h999zM1513 -49v307h-999v-307h999z" />
    <glyph glyph-name="uni0203" unicode="&#x203;" 
d="M1513 422v645h-469v61h469v541h68v-1247h-68zM242 1522h800q0 -161 -63 -308.5t-177 -267t-268.5 -213t-340.5 -155.5l-33 57q229 75 404.5 193.5t284.5 282t122 349.5h-729v62zM1059 600v-104q0 -92 42 -175.5t108.5 -145.5t153 -113t169.5 -82.5t164 -49.5l-33 -55
q-95 24 -187 62.5t-184 95t-163.5 137t-104.5 174.5q-33 -95 -104.5 -177t-164.5 -139t-186.5 -96t-189.5 -63l-31 55q81 17 165.5 49t171.5 83.5t154 114t109.5 147.5t42.5 178v104h68z" />
    <glyph glyph-name="uni0204" unicode="&#x204;" 
d="M1513 618v492h-469v61h469v496h68v-1049h-68zM252 1540h790q0 -159 -62 -302.5t-175.5 -257.5t-270.5 -202t-348 -143l-34 55q359 105 578 311t239 478h-717v61zM1360 582v-176q0 -138 112.5 -270.5t278.5 -194.5l-37 -56q-141 54 -242.5 152t-142.5 221
q-39 -119 -127 -223.5t-213 -163.5q-131 52 -218 153.5t-124 229.5q-45 -115 -148.5 -215.5t-236.5 -153.5l-35 56q161 61 276 198.5t115 266.5v176h64v-176q0 -135 83 -265.5t222 -197.5q92 50 164.5 133t108.5 169.5t36 160.5v176h64z" />
    <glyph glyph-name="uni0205" unicode="&#x205;" 
d="M1038 1114h475v555h68v-1124h-68v508h-475v61zM242 1522h802q0 -160 -64.5 -307.5t-179.5 -265.5t-270.5 -210.5t-341.5 -152.5l-34 59q351 110 574 324t243 491h-729v62zM1006 526q273 0 428 -86t155 -241t-155 -241.5t-428 -86.5q-281 0 -433.5 86t-152.5 242
t152 241.5t434 85.5zM1006 -70q232 0 375 74t143 195t-143 194.5t-375 73.5q-234 0 -377.5 -73.5t-143.5 -194.5t143.5 -195t377.5 -74z" />
    <glyph glyph-name="uni0206" unicode="&#x206;" 
d="M1042 1159h471v508h68v-1059h-68v490h-471v61zM240 1540h833q0 -160 -63.5 -304t-179.5 -258.5t-276 -203t-355 -143.5l-31 59q362 101 586.5 307.5t244.5 481.5h-759v61zM1069 440v-22q0 -72 40 -143t104.5 -127t145.5 -103.5t162.5 -78.5t155.5 -46l-30 -53
q-90 21 -180 58t-176.5 88.5t-154.5 123.5t-100 152q-32 -80 -100 -151.5t-155 -123.5t-176.5 -88.5t-178.5 -58.5l-35 53q95 19 197.5 63.5t196.5 107t155 149.5t61 178v22h-544v62h1153v-62h-541z" />
    <glyph glyph-name="uni0207" unicode="&#x207;" 
d="M1513 666v442h-460v61h460v500h68v-1003h-68zM240 1538h800q0 -315 -231.5 -548t-626.5 -341l-30 60q361 95 578 295.5t237 472.5h-727v61zM528 -47h1098v-62h-1165v699h1126v-62h-1059v-249h1039v-62h-1039v-264z" />
    <glyph glyph-name="uni0208" unicode="&#x208;" 
d="M1038 1163h475v504h68v-1040h-68v475h-475v61zM240 1538h802q0 -158 -63.5 -300.5t-177.5 -255t-271 -198.5t-346 -139l-28 57q356 102 576 303.5t237 471.5h-729v61zM1307 -47h313v-62h-1219v62h306v516h-291v61h1181v-61h-290v-516zM774 469v-516h465v516h-465z" />
    <glyph glyph-name="uni0209" unicode="&#x209;" 
d="M1036 1196h477v475h68v-969h-68v433h-477v61zM242 1548h796q0 -316 -230.5 -548t-621.5 -341l-32 58q359 101 575 300t236 470h-723v61zM1049 545h587v-62h-1247v62h592v237h68v-237zM1012 375q236 0 364.5 -65t128.5 -187t-128.5 -187t-364.5 -65t-364 65t-128 187
t128 187t364 65zM1012 -72q199 0 313.5 51.5t114.5 143.5t-114.5 143t-313.5 51t-312.5 -51t-113.5 -143t113.5 -143.5t312.5 -51.5z" />
    <glyph glyph-name="uni020A" unicode="&#x20a;" 
d="M1569 1671h67v-1808h-67v1808zM1198 887v729h68v-1649h-68v858h-467q-189 -344 -541 -557l-45 54q204 124 353 293.5t228 359.5t91 389h-618v61h686q0 -282 -125 -538h438z" />
    <glyph glyph-name="uni020B" unicode="&#x20b;" 
d="M1626 1667v-1368h-67v1368h67zM1208 997h-434q-195 -294 -577 -469l-39 54q309 136 492 357t200 488h-635v62h705q0 -233 -111 -430h399v569h68v-1274h-68v643zM553 -27h1135v-61h-1203v559h68v-498z" />
    <glyph glyph-name="uni020C" unicode="&#x20c;" 
d="M1626 1669v-948h-67v948h67zM1208 1133h-407q-184 -298 -602 -461l-39 51q310 116 492.5 317t199.5 459h-635v62h705q0 -198 -88 -367h374v434h68v-893h-68v398zM543 -47h1163v-62h-1229v410h1084v256h-1090v61h1155v-378h-1083v-287z" />
    <glyph glyph-name="uni020D" unicode="&#x20d;" 
d="M1559 1669h67v-1042h-67v1042zM1208 1081h-413q-92 -153 -244.5 -277.5t-351.5 -211.5l-41 53q110 47 205 104.5t181.5 133.5t150 162.5t104.5 194t51 226.5h-635v62h705q0 -191 -93 -385h381v485h68v-977h-68v430zM479 -106v636h1147v-636h-1147zM545 471v-516h1016v516
h-1016z" />
    <glyph glyph-name="uni020E" unicode="&#x20e;" 
d="M1559 1667h67v-993h-67v993zM1208 1087h-415q-181 -294 -598 -471l-37 52q655 252 690 807h-631v61h701q0 -203 -93 -387h383v477h68v-938h-68v399zM1561 322v268h65v-703h-1141v703h68v-268h1008zM1561 -51v311h-1008v-311h1008z" />
    <glyph glyph-name="uni020F" unicode="&#x20f;" 
d="M1626 1667v-1229h-67v1229h67zM1208 1036h-413q-187 -324 -598 -510l-39 54q309 136 491 357.5t199 489.5h-631v62h701q0 -195 -91 -391h381v528h68v-1032h-68v442zM1083 561v-104q0 -83 45 -161.5t115 -137.5t158.5 -107.5t173.5 -78.5t162 -46l-31 -55q-92 20 -188 57
t-191 92t-170 133t-108 166q-33 -88 -107 -166t-168.5 -132.5t-191.5 -92.5t-191 -57l-29 55q77 16 161 46t172.5 79t158.5 107.5t115 137t45 161.5v104h69z" />
    <glyph glyph-name="uni0210" unicode="&#x210;" 
d="M1626 1669v-1061h-67v1061h67zM1208 1051h-434q-188 -286 -577 -461l-39 53q305 128 489 344t201 479h-631v62h701q0 -224 -107 -416h397v516h68v-987h-68v410zM1380 541v-160q0 -139 113 -272.5t279 -192.5l-35 -55q-139 53 -242 154t-145 221q-40 -119 -127 -225.5
t-209 -164.5q-132 56 -219.5 157.5t-120.5 227.5q-52 -117 -153 -217.5t-232 -152.5l-35 55q161 61 276 198.5t115 266.5v160h64v-160q0 -135 82.5 -265.5t220.5 -197.5q135 74 220 211.5t85 251.5v160h63z" />
    <glyph glyph-name="uni0211" unicode="&#x211;" 
d="M1626 1669v-1137h-67v1137h67zM1208 1049h-422q-185 -308 -589 -484l-39 53q306 128 489.5 344t200.5 482h-631v61h701q0 -203 -97 -395h387v518h68v-1024h-68v445zM1053 508q290 0 445 -82t155 -236t-155 -236.5t-445 -82.5t-445 82.5t-155 236.5t155 236t445 82z
M1053 -70q240 0 386 71t146 189q0 117 -146 188t-386 71q-241 0 -387 -71t-146 -188q0 -118 145.5 -189t387.5 -71z" />
    <glyph glyph-name="uni0212" unicode="&#x212;" 
d="M1511 1675h68v-1808h-68v739h-573v62h573v413h-544q-82 -260 -278 -477t-505 -368l-41 57q386 184 590.5 475t222.5 639h-743v61h811q0 -135 -41 -325h528v532z" />
    <glyph glyph-name="uni0213" unicode="&#x213;" 
d="M1513 1667h68v-1079h-68v284h-542v62h542v319h-516q-91 -217 -299 -373.5t-510 -244.5l-30 55q362 106 581.5 310.5t239.5 478.5h-739v61h813q0 -103 -35 -225h495v352zM401 440v62h1180v-637h-68v575h-1112z" />
    <glyph glyph-name="uni0214" unicode="&#x214;" 
d="M1513 1667h68v-1059h-68v262h-546v62h546v317h-520q-92 -215 -298 -371t-509 -243l-32 55q238 69 417 181.5t287 269t119 338.5h-737v61h811q0 -122 -37 -229h499v356zM369 449v61h567v-645h-68v584h-499zM1030 449v61h551v-645h-68v584h-483z" />
    <glyph glyph-name="uni0215" unicode="&#x215;" 
d="M1513 1210h-530q-94 -222 -295 -388.5t-495 -264.5l-35 57q352 119 573.5 341.5t241.5 506.5h-731v62h805q0 -127 -39 -252h505v397h70v-1360h-70v496h-552v61h552v344zM551 -27h1077v-61h-1145v530h68v-469z" />
    <glyph glyph-name="uni0216" unicode="&#x216;" 
d="M1513 1266h-516q-85 -218 -297 -382t-512 -251l-30 57q357 100 578.5 309t238.5 480h-735v61h809q0 -108 -31 -213h495v340h68v-1040h-68v262h-546v61h546v316zM512 -47h1104v-62h-1172v617h1141v-62h-1073v-493z" />
    <glyph glyph-name="uni0217" unicode="&#x217;" 
d="M1513 1311h-509q-86 -222 -294.5 -379.5t-521.5 -237.5l-28 60q236 62 412.5 164.5t283 252t117.5 328.5h-731v62h805q0 -97 -25 -189h491v299h68v-938h-68v238h-546v61h546v279zM522 -57h1143v-62h-1208v424h1059v266h-1065v62h1130v-387h-1059v-303z" />
    <glyph glyph-name="Scommaaccent" unicode="&#x218;" 
d="M1513 1315h-512q-82 -214 -297 -370.5t-516 -231.5l-28 59q231 59 407 160t285.5 249t120.5 322h-731v62h805q0 -115 -27 -189h493v295h68v-948h-68v252h-546v61h546v279zM1360 506h334v-62h-736v62h334v196h68v-196zM399 -47h23q192 0 305.5 7t237.5 30l10 -62
q-131 -23 -246.5 -30t-306.5 -7h-88v412h485v240h-491v61h557v-360h-486v-291zM1325 344q133 0 220 -65t87 -173t-87 -172.5t-220 -64.5t-220 64.5t-87 172.5t87 173t220 65zM1325 -76q109 0 176.5 51t67.5 131q0 79 -67.5 130t-176.5 51t-176.5 -51t-67.5 -130
q0 -80 67.5 -131t176.5 -51z" />
    <glyph glyph-name="scommaaccent" unicode="&#x219;" 
d="M1513 1667h68v-1049h-68v271h-546v61h546v305h-522q-91 -221 -295.5 -377t-509.5 -243l-30 57q357 101 578.5 308t238.5 479h-733v61h807q0 -101 -35 -223h501v350zM442 -106v645h1139v-645h-1139zM508 479v-524h1008v524h-1008z" />
    <glyph glyph-name="uni021A" unicode="&#x21a;" 
d="M1511 1671h68v-969h-68v218h-544v61h544v301h-518q-86 -216 -293.5 -372t-517.5 -238l-30 59q362 97 581 292.5t236 463.5h-727v61h800q0 -87 -28 -205h497v328zM1513 317v283h66v-709h-1133v709h68v-283h999zM1513 -49v307h-999v-307h999z" />
    <glyph glyph-name="uni021B" unicode="&#x21b;" 
d="M1513 1225h-528q-87 -215 -296.5 -384t-495.5 -266l-35 58q350 114 572.5 331t242.5 496h-731v62h802q0 -109 -34 -236h503v383h68v-1249h-68v422h-550v61h550v322zM1059 602v-104q0 -91 42 -175t109 -147t152.5 -115t170 -84t163.5 -47l-33 -55q-95 24 -187 62.5
t-184 95t-163.5 137t-104.5 174.5q-34 -95 -106 -177t-163.5 -139.5t-186 -96.5t-189.5 -60l-31 53q81 17 165.5 49t171.5 83.5t154 114t109.5 148t42.5 179.5v104h68z" />
    <glyph glyph-name="uni021C" unicode="&#x21c;" 
d="M1513 1257h-524q-87 -220 -293 -378.5t-512 -245.5l-32 57q357 100 578 308t241 481h-719v61h792q0 -103 -34 -221h503v348h68v-1051h-68v269h-548v61h548v311zM1360 580v-174q0 -140 112.5 -272.5t278.5 -194.5l-37 -56q-141 54 -242.5 153t-142.5 222
q-40 -122 -128 -226t-212 -163q-131 54 -218 155.5t-124 229.5q-48 -118 -149.5 -217t-235.5 -154l-35 56q161 61 276 199.5t115 267.5v174h64v-174q0 -138 82.5 -266.5t222.5 -196.5q92 50 164.5 133t108.5 169.5t36 160.5v174h64z" />
    <glyph glyph-name="uni021D" unicode="&#x21d;" 
d="M1513 1227h-528q-89 -214 -300.5 -381t-496.5 -260l-34 57q229 72 406 188.5t287.5 279t123.5 349.5h-729v62h802q0 -127 -36 -234h505v381h68v-1124h-68v305h-552v61h552v316zM1006 526q273 0 428 -86t155 -241t-155 -241.5t-428 -86.5q-281 0 -433.5 86t-152.5 242
t152 241.5t434 85.5zM1006 -70q232 0 375 74t143 195t-143 194.5t-375 73.5q-234 0 -377.5 -73.5t-143.5 -194.5t143.5 -195t377.5 -74z" />
    <glyph glyph-name="uni021E" unicode="&#x21e;" 
d="M1513 1278h-516q-86 -223 -293.5 -383t-521.5 -246l-32 60q364 97 581.5 297t237.5 471h-729v61h802q0 -97 -26 -199h497v330h68v-1005h-68v264h-542v61h542v289zM528 -47h1098v-62h-1165v699h1126v-62h-1059v-249h1039v-62h-1039v-264z" />
    <glyph glyph-name="uni021F" unicode="&#x21f;" 
d="M1569 1671h67v-1808h-67v1808zM1217 1143v473h67v-1649h-67v660h-410v61h410v393h-381q-69 -242 -231 -449.5t-415 -363.5l-45 54q204 124 353 293.5t228 359.5t91 389h-618v61h686q0 -110 -35 -282h367z" />
    <glyph glyph-name="uni0220" unicode="&#x220;" 
d="M1626 1667v-1348h-67v1348h67zM1229 1176h-365q-156 -437 -671 -658l-35 51q312 141 493.5 363t198.5 495h-635v62h705q0 -115 -35 -252h344v391h67v-1266h-67v418h-398v62h398v334zM555 -27h1135v-61h-1203v567h68v-506z" />
    <glyph glyph-name="uni0221" unicode="&#x221;" 
d="M1626 1669v-958h-67v958h67zM1229 1296h-350q-144 -424 -680 -624l-39 51q310 116 492.5 317t199.5 459h-635v62h705q0 -121 -27 -203h334v270h67v-901h-67v240h-367v61h367v268zM543 -57h1163v-62h-1229v416h1084v260h-1090v61h1155v-380h-1083v-295z" />
    <glyph glyph-name="uni0222" unicode="&#x222;" 
d="M1559 1667h67v-993h-67v993zM1229 1274h-352q-70 -214 -242 -379t-440 -268l-37 53q313 124 493 329.5t197 465.5h-631v61h701q0 -103 -25 -201h336v291h67v-938h-67v240h-367v61h367v285zM1561 326v268h65v-703h-1141v703h68v-268h1008zM1561 -47v311h-1008v-311h1008z
" />
    <glyph glyph-name="uni0223" unicode="&#x223;" 
d="M1626 1667v-1235h-67v1235h67zM1208 1225h-329q-70 -225 -242 -402t-440 -295l-39 54q310 136 491.5 356.5t198.5 488.5h-631v62h701q0 -100 -25 -203h315v340h68v-1048h-68v292h-348v62h348v293zM1083 547v-92q0 -83 45 -161t115 -136.5t158.5 -107t173.5 -78.5t162 -46
l-31 -55q-92 20 -188 57t-191 92t-170 133t-108 166q-33 -88 -107 -166t-168.5 -132.5t-191.5 -92.5t-191 -57l-29 55q77 16 161 46t172.5 78.5t158.5 107t115 136.5t45 161v92h69z" />
    </font>
</defs>
</svg>
